<svg xmlns="http://www.w3.org/2000/svg" xmlns:xlink="http://www.w3.org/1999/xlink" width="30" height="30" viewBox="0 0 30 30">
    <defs>
        <path id="k8kdi3usga" d="M0.032 0.046L17.49 0.046 17.49 6.489 0.032 6.489z"/>
        <path id="5zv7r2zs6c" d="M0.003 0.033L8.487 0.033 8.487 4.813 0.003 4.813z"/>
    </defs>
    <g fill="none" fill-rule="evenodd">
        <g>
            <g>
                <g>
                    <g>
                        <g>
                            <g transform="translate(-935 -723) translate(206 693) translate(729 19) translate(0 11) translate(1.969 6.281) translate(5.044 11.236)">
                                <mask id="pk3wodcdnb" fill="#fff">
                                    <use xlink:href="#k8kdi3usga"/>
                                </mask>
                                <path fill="#333" d="M14.267 1.658c-.889 0-1.612.722-1.612 1.611s.723 1.611 1.612 1.611c.888 0 1.611-.722 1.611-1.611s-.723-1.611-1.611-1.611zm0 4.834c-1.777 0-3.223-1.446-3.223-3.223S12.49.046 14.267.046 17.49 1.492 17.49 3.27s-1.446 3.223-3.223 3.223zM3.255 1.658c-.888 0-1.611.722-1.611 1.611S2.367 4.88 3.255 4.88c.889 0 1.612-.722 1.612-1.611s-.723-1.611-1.612-1.611zm0 4.834C1.478 6.492.032 5.046.032 3.269S1.478.046 3.255.046 6.478 1.492 6.478 3.27 5.032 6.492 3.255 6.492z" mask="url(#pk3wodcdnb)"/>
                            </g>
                            <path fill="#333" d="M22.458 7.589l-2.194-4.364h-3.747V1.614h4.244c.304 0 .583.171.72.443l2.417 4.808-1.44.724M10.797 15.338L16.893 15.338 16.893 13.726 10.797 13.726zM5.882 15.338H3.089c-.445 0-.806-.361-.806-.806 0-.445.36-.806.806-.806h2.793c.445 0 .805.36.805.806 0 .445-.36.806-.805.806" transform="translate(-935 -723) translate(206 693) translate(729 19) translate(0 11) translate(1.969 6.281)"/>
                            <path fill="#333" d="M24.762 15.338h-3.034c-.445 0-.806-.361-.806-.806 0-.445.36-.806.806-.806h2.229V9.571l-1.174-1.512h-6.266c-.445 0-.805-.36-.805-.805v-5.64H3.089c-.445 0-.806-.361-.806-.806 0-.445.36-.806.806-.806h13.428c.445 0 .806.36.806.806v5.64h5.855c.249 0 .484.115.636.311L25.4 8.801c.11.14.17.315.17.494v5.237c0 .445-.362.806-.807.806" transform="translate(-935 -723) translate(206 693) translate(729 19) translate(0 11) translate(1.969 6.281)"/>
                            <g transform="translate(-935 -723) translate(206 693) translate(729 19) translate(0 11) translate(1.969 6.281) translate(0 6.442)">
                                <mask id="8ylpa72rhd" fill="#fff">
                                    <use xlink:href="#5zv7r2zs6c"/>
                                </mask>
                                <path fill="#333" d="M5.828 4.813H2.122c-.445 0-.806-.36-.806-.805 0-.445.36-.806.806-.806h3.706c.445 0 .806.36.806.806 0 .445-.361.805-.806.805M7.681 1.644H.806C.36 1.644 0 1.284 0 .838 0 .393.36.033.806.033H7.68c.445 0 .806.36.806.805 0 .446-.36.806-.806.806" mask="url(#8ylpa72rhd)"/>
                            </g>
                            <path fill="#333" d="M8.997 4.917H2.122c-.445 0-.806-.36-.806-.806 0-.445.36-.805.806-.805h6.875c.445 0 .806.36.806.805 0 .445-.36.806-.806.806" transform="translate(-935 -723) translate(206 693) translate(729 19) translate(0 11) translate(1.969 6.281)"/>
                        </g>
                    </g>
                </g>
            </g>
        </g>
    </g>
</svg>
