<svg width="570" height="512" viewBox="0 0 570 512" fill="none" xmlns="http://www.w3.org/2000/svg">
<path d="M0 8C0 -5.3 10.7 -16 24 -16H69.3C96.4 -16 119.6 3.4 124.4 30L124.8 32H537.5C557.5 32 572.6 50.2 568.9 69.9L537.8 235.8C532.1 266.1 505.7 288 474.9 288H171.3L176.4 316.3C178.5 327.7 188.4 336 200 336H456C469.3 336 480 346.7 480 360C480 373.3 469.3 384 456 384H200.1C165.3 384 135.5 359.1 129.3 324.9L77.2 38.6C76.5 34.8 73.2 32 69.3 32H24C10.7 32 0 21.3 0 8ZM160 464C160 451.27 165.057 439.061 174.059 430.059C183.061 421.057 195.27 416 208 416C220.73 416 232.939 421.057 241.941 430.059C250.943 439.061 256 451.27 256 464C256 476.73 250.943 488.939 241.941 497.941C232.939 506.943 220.73 512 208 512C195.27 512 183.061 506.943 174.059 497.941C165.057 488.939 160 476.73 160 464ZM384 464C384 451.27 389.057 439.061 398.059 430.059C407.061 421.057 419.27 416 432 416C444.73 416 456.939 421.057 465.941 430.059C474.943 439.061 480 451.27 480 464C480 476.73 474.943 488.939 465.941 497.941C456.939 506.943 444.73 512 432 512C419.27 512 407.061 506.943 398.059 497.941C389.057 488.939 384 476.73 384 464ZM336 78.4C322.7 78.4 312 89.1 312 102.4V136H278.4C265.1 136 254.4 146.7 254.4 160C254.4 173.3 265.1 184 278.4 184H312V217.6C312 230.9 322.7 241.6 336 241.6C349.3 241.6 360 230.9 360 217.6V184H393.6C406.9 184 417.6 173.3 417.6 160C417.6 146.7 406.9 136 393.6 136H360V102.4C360 89.1 349.3 78.4 336 78.4Z" fill="white"/>
</svg>
