<svg width="35" height="35" viewBox="0 0 35 35" fill="none" xmlns="http://www.w3.org/2000/svg">
<rect width="35" height="35" rx="17.5" fill="#5B5B5C"/>
<path d="M13.4612 8.10959C11.4716 7.07657 9.6413 8.60378 8.97485 9.49652C8.46769 9.53478 8.69851 9.12986 8.87732 8.92261C11.6472 6.01485 16.7285 6.75454 18.9229 7.48786C19.6251 7.6409 19.4105 7.42409 19.2155 7.29656C17.9671 6.4931 14.5991 6.32412 13.0711 6.34006C12.4372 6.38788 12.681 6.29223 12.8273 6.19659C17.7818 3.55664 22.5965 5.89369 24.3846 7.39221C26.6765 9.25739 25.5062 9.06609 23.8969 9.68781C22.4925 10.4913 20.3208 10.8834 19.4105 10.9791C17.5575 11.2182 15.9482 9.35304 13.4612 8.10959Z" stroke="white"/>
<path d="M11.9566 25.1101C12.0963 27.4142 14.4365 28.1854 15.5891 28.283C15.8939 28.7062 15.4093 28.7245 15.1288 28.6808C11.0549 27.8382 9.00321 22.9872 8.48663 20.667C8.24846 19.9689 8.16944 20.2748 8.1597 20.5149C8.10875 22.0451 9.75547 25.0857 10.5852 26.4147C10.9662 26.9436 10.7507 26.7822 10.5872 26.7062C5.58636 23.8053 5.10291 18.3184 5.48629 15.9375C5.92804 12.916 6.3819 14.0447 7.79577 15.1152C9.26256 15.9075 10.7717 17.5953 11.3429 18.3401C12.5454 19.8323 11.7392 22.2562 11.9566 25.1101Z" stroke="white"/>
<path d="M27.3503 17.7407C29.296 16.4987 28.8325 14.0787 28.3576 13.024C28.5793 12.5519 28.8308 12.9665 28.9289 13.2329C30.1728 17.2027 26.9306 21.3536 25.154 22.9328C24.6597 23.4803 24.9654 23.4007 25.18 23.2925C26.542 22.5932 28.3988 19.6762 29.157 18.3051C29.434 17.715 29.3977 17.9818 29.4108 18.1616C29.3064 23.942 24.7462 27.0315 22.4791 27.8537C19.6238 28.9363 20.3896 27.9911 20.6379 26.2351C20.6174 24.5682 21.3588 22.4289 21.7322 21.5677C22.4517 19.7915 24.9618 19.3179 27.3503 17.7407Z" stroke="white"/>
</svg>
