<svg xmlns="http://www.w3.org/2000/svg" xmlns:xlink="http://www.w3.org/1999/xlink" width="500" zoomAndPan="magnify" viewBox="0 0 375 374.999991" height="500" preserveAspectRatio="xMidYMid meet" version="1.0"><defs><g/><clipPath id="162e5ec800"><path d="M 58.605469 239.90625 L 316.605469 239.90625 L 316.605469 375 L 58.605469 375 Z M 58.605469 239.90625 " clip-rule="nonzero"/></clipPath><clipPath id="f0266f38ef"><path d="M 15.894531 10.246094 L 361.632812 10.246094 L 361.632812 355.984375 L 15.894531 355.984375 Z M 15.894531 10.246094 " clip-rule="nonzero"/></clipPath><clipPath id="b0194943b7"><path d="M 188.761719 10.246094 C 93.289062 10.246094 15.894531 87.644531 15.894531 183.117188 C 15.894531 278.589844 93.289062 355.984375 188.761719 355.984375 C 284.238281 355.984375 361.632812 278.589844 361.632812 183.117188 C 361.632812 87.644531 284.238281 10.246094 188.761719 10.246094 Z M 188.761719 10.246094 " clip-rule="nonzero"/></clipPath><clipPath id="d554ad8267"><path d="M 0.894531 0.246094 L 346.632812 0.246094 L 346.632812 345.984375 L 0.894531 345.984375 Z M 0.894531 0.246094 " clip-rule="nonzero"/></clipPath><clipPath id="a9498ac4d4"><path d="M 173.761719 0.246094 C 78.289062 0.246094 0.894531 77.644531 0.894531 173.117188 C 0.894531 268.589844 78.289062 345.984375 173.761719 345.984375 C 269.238281 345.984375 346.632812 268.589844 346.632812 173.117188 C 346.632812 77.644531 269.238281 0.246094 173.761719 0.246094 Z M 173.761719 0.246094 " clip-rule="nonzero"/></clipPath><clipPath id="105900f56a"><rect x="0" width="347" y="0" height="346"/></clipPath><clipPath id="deebd08a53"><path d="M 42.300781 36.652344 L 335.226562 36.652344 L 335.226562 329.578125 L 42.300781 329.578125 Z M 42.300781 36.652344 " clip-rule="nonzero"/></clipPath><clipPath id="940355e5bb"><path d="M 188.761719 36.652344 C 107.875 36.652344 42.300781 102.226562 42.300781 183.117188 C 42.300781 264.003906 107.875 329.578125 188.761719 329.578125 C 269.652344 329.578125 335.226562 264.003906 335.226562 183.117188 C 335.226562 102.226562 269.652344 36.652344 188.761719 36.652344 Z M 188.761719 36.652344 " clip-rule="nonzero"/></clipPath><clipPath id="bddc9fd3a8"><path d="M 0.300781 0.652344 L 293.226562 0.652344 L 293.226562 293.578125 L 0.300781 293.578125 Z M 0.300781 0.652344 " clip-rule="nonzero"/></clipPath><clipPath id="2a440993b3"><path d="M 146.761719 0.652344 C 65.875 0.652344 0.300781 66.226562 0.300781 147.117188 C 0.300781 228.003906 65.875 293.578125 146.761719 293.578125 C 227.652344 293.578125 293.226562 228.003906 293.226562 147.117188 C 293.226562 66.226562 227.652344 0.652344 146.761719 0.652344 Z M 146.761719 0.652344 " clip-rule="nonzero"/></clipPath><clipPath id="8a0b1889e6"><rect x="0" width="294" y="0" height="294"/></clipPath><clipPath id="a0ac53682d"><path d="M 77.570312 279.09375 L 297.089844 279.09375 L 297.089844 375 L 77.570312 375 Z M 77.570312 279.09375 " clip-rule="nonzero"/></clipPath><clipPath id="72a2cc0d68"><path d="M 187.492188 470.890625 L 77.894531 279.09375 L 297.089844 279.09375 Z M 187.492188 470.890625 " clip-rule="nonzero"/></clipPath><clipPath id="7236b146fd"><path d="M 0.761719 0.09375 L 220.089844 0.09375 L 220.089844 96 L 0.761719 96 Z M 0.761719 0.09375 " clip-rule="nonzero"/></clipPath><clipPath id="771c62f03d"><path d="M 110.492188 191.890625 L 0.894531 0.09375 L 220.089844 0.09375 Z M 110.492188 191.890625 " clip-rule="nonzero"/></clipPath><clipPath id="f15ac9c94f"><rect x="0" width="221" y="0" height="96"/></clipPath><clipPath id="ab4cc0dce1"><path d="M 191 195.824219 L 297 195.824219 L 297 348 L 191 348 Z M 191 195.824219 " clip-rule="nonzero"/></clipPath><clipPath id="7bd9ba3f5a"><path d="M 81 195.824219 L 195 195.824219 L 195 348 L 81 348 Z M 81 195.824219 " clip-rule="nonzero"/></clipPath><clipPath id="d75befa0ac"><path d="M 57.699219 31.699219 L 317.355469 31.699219 L 317.355469 183.117188 L 57.699219 183.117188 Z M 57.699219 31.699219 " clip-rule="nonzero"/></clipPath><clipPath id="d985f2c266"><path d="M 187.5 31.699219 C 115.8125 31.699219 57.699219 65.597656 57.699219 107.410156 C 57.699219 149.21875 115.8125 183.117188 187.5 183.117188 C 259.1875 183.117188 317.300781 149.21875 317.300781 107.410156 C 317.300781 65.597656 259.1875 31.699219 187.5 31.699219 Z M 187.5 31.699219 " clip-rule="nonzero"/></clipPath><clipPath id="ee1ed3af42"><path d="M 0.699219 0.699219 L 260.355469 0.699219 L 260.355469 152.117188 L 0.699219 152.117188 Z M 0.699219 0.699219 " clip-rule="nonzero"/></clipPath><clipPath id="6aaf362083"><path d="M 130.5 0.699219 C 58.8125 0.699219 0.699219 34.597656 0.699219 76.410156 C 0.699219 118.21875 58.8125 152.117188 130.5 152.117188 C 202.1875 152.117188 260.300781 118.21875 260.300781 76.410156 C 260.300781 34.597656 202.1875 0.699219 130.5 0.699219 Z M 130.5 0.699219 " clip-rule="nonzero"/></clipPath><clipPath id="a5e3dd5d5f"><rect x="0" width="261" y="0" height="153"/></clipPath><clipPath id="905c8014bf"><rect x="0" width="185" y="0" height="129"/></clipPath></defs><rect x="-37.5" width="450" fill="#ffffff" y="-37.499999" height="449.999989" fill-opacity="1"/><rect x="-37.5" width="450" fill="#ffffff" y="-37.499999" height="449.999989" fill-opacity="1"/><g clip-path="url(#162e5ec800)"><path fill="#ffffff" d="M 187.585938 239.824219 L 313.976562 239.824219 C 314.441406 239.820312 314.878906 239.933594 315.28125 240.164062 C 315.6875 240.398438 316.003906 240.714844 316.238281 241.117188 C 316.472656 241.519531 316.589844 241.953125 316.59375 242.417969 C 316.59375 242.886719 316.476562 243.320312 316.242188 243.722656 L 253.109375 353.210938 L 189.855469 462.667969 C 189.738281 462.867188 189.597656 463.046875 189.433594 463.207031 C 189.273438 463.367188 189.089844 463.503906 188.890625 463.621094 C 188.695312 463.734375 188.484375 463.820312 188.261719 463.878906 C 188.039062 463.9375 187.816406 463.964844 187.585938 463.964844 C 187.355469 463.964844 187.132812 463.9375 186.910156 463.878906 C 186.6875 463.820312 186.480469 463.734375 186.28125 463.621094 C 186.082031 463.503906 185.898438 463.367188 185.738281 463.207031 C 185.574219 463.046875 185.433594 462.867188 185.320312 462.667969 L 122.125 353.210938 L 58.929688 243.722656 C 58.695312 243.320312 58.578125 242.886719 58.578125 242.417969 C 58.582031 241.953125 58.699219 241.519531 58.933594 241.117188 C 59.167969 240.714844 59.484375 240.398438 59.890625 240.164062 C 60.296875 239.933594 60.730469 239.820312 61.195312 239.824219 Z M 187.585938 239.824219 " fill-opacity="1" fill-rule="nonzero"/></g><g clip-path="url(#f0266f38ef)"><g clip-path="url(#b0194943b7)"><g transform="matrix(1, 0, 0, 1, 15, 10)"><g clip-path="url(#105900f56a)"><g clip-path="url(#d554ad8267)"><g clip-path="url(#a9498ac4d4)"><path fill="#0c542f" d="M 0.894531 0.246094 L 346.632812 0.246094 L 346.632812 345.984375 L 0.894531 345.984375 Z M 0.894531 0.246094 " fill-opacity="1" fill-rule="nonzero"/></g></g></g></g></g></g><g clip-path="url(#deebd08a53)"><g clip-path="url(#940355e5bb)"><g transform="matrix(1, 0, 0, 1, 42, 36)"><g clip-path="url(#8a0b1889e6)"><g clip-path="url(#bddc9fd3a8)"><g clip-path="url(#2a440993b3)"><path fill="#ffffff" d="M 0.300781 0.652344 L 293.226562 0.652344 L 293.226562 293.578125 L 0.300781 293.578125 Z M 0.300781 0.652344 " fill-opacity="1" fill-rule="nonzero"/></g></g></g></g></g></g><g clip-path="url(#a0ac53682d)"><g clip-path="url(#72a2cc0d68)"><g transform="matrix(1, 0, 0, 1, 77, 279)"><g clip-path="url(#f15ac9c94f)"><g clip-path="url(#7236b146fd)"><g clip-path="url(#771c62f03d)"><path fill="#ffffff" d="M 220.089844 191.890625 L 0.570312 191.890625 L 0.570312 0.09375 L 220.089844 0.09375 Z M 220.089844 191.890625 " fill-opacity="1" fill-rule="nonzero"/></g></g></g></g></g></g><g clip-path="url(#ab4cc0dce1)"><path fill="#458c62" d="M 296.347656 195.957031 C 296.347656 195.957031 217.671875 201.15625 191.570312 260.359375 C 197.257812 274.121094 199.855469 289.535156 199.355469 306.507812 C 203.445312 295.808594 209.253906 284.121094 217.5 272.949219 C 224.472656 263.5 233.183594 254.417969 244.070312 246.613281 C 244.070312 246.613281 230.929688 256.734375 218.050781 282.074219 C 210.09375 297.734375 202.238281 319.203125 197.644531 347.699219 C 208.785156 331.699219 251.789062 330.152344 277.367188 298.292969 C 304.367188 264.667969 286.125 227.972656 296.347656 195.957031 " fill-opacity="1" fill-rule="nonzero"/></g><g clip-path="url(#7bd9ba3f5a)"><path fill="#458c62" d="M 187.691406 346.933594 C 187.691406 346.933594 185.445312 307.480469 159.964844 272.949219 C 152.988281 263.5 144.28125 254.417969 133.394531 246.613281 C 133.394531 246.613281 146.535156 256.734375 159.414062 282.074219 C 167.371094 297.734375 175.226562 319.203125 179.816406 347.699219 C 168.679688 331.699219 125.675781 330.152344 100.097656 298.292969 C 73.097656 264.667969 91.335938 227.972656 81.117188 195.957031 C 81.117188 195.957031 226.203125 205.535156 187.691406 346.933594 " fill-opacity="1" fill-rule="nonzero"/></g><g clip-path="url(#d75befa0ac)"><g clip-path="url(#d985f2c266)"><g transform="matrix(1, 0, 0, 1, 57, 31)"><g clip-path="url(#a5e3dd5d5f)"><g clip-path="url(#ee1ed3af42)"><g clip-path="url(#6aaf362083)"><path fill="#0c542f" d="M 0.699219 0.699219 L 260.355469 0.699219 L 260.355469 152.117188 L 0.699219 152.117188 Z M 0.699219 0.699219 " fill-opacity="1" fill-rule="nonzero"/></g></g></g></g></g></g><g transform="matrix(1, 0, 0, 1, 95, 39)"><g clip-path="url(#905c8014bf)"><g fill="#ffffff" fill-opacity="1"><g transform="translate(0.99949, 39.053604)"><g><path d="M 0.46875 0.46875 C 1.164062 -2.15625 1.867188 -4.664062 2.578125 -7.0625 C 3.296875 -9.46875 4.046875 -11.796875 4.828125 -14.046875 C 5.609375 -16.304688 6.441406 -18.523438 7.328125 -20.703125 C 8.222656 -22.878906 9.191406 -25.0625 10.234375 -27.25 L 15.109375 -27.71875 C 16.140625 -25.5625 17.097656 -23.40625 17.984375 -21.25 C 18.867188 -19.09375 19.703125 -16.878906 20.484375 -14.609375 C 21.273438 -12.335938 22.023438 -9.992188 22.734375 -7.578125 C 23.453125 -5.171875 24.164062 -2.644531 24.875 0 L 19.578125 0.46875 C 19.210938 -0.90625 18.847656 -2.285156 18.484375 -3.671875 C 18.117188 -5.066406 17.753906 -6.460938 17.390625 -7.859375 L 7.78125 -7.859375 C 7.414062 -6.585938 7.066406 -5.300781 6.734375 -4 C 6.398438 -2.707031 6.085938 -1.375 5.796875 0 Z M 12.6875 -22.84375 C 11.1875 -19.15625 9.875 -15.351562 8.75 -11.4375 L 16.421875 -11.4375 C 15.847656 -13.382812 15.253906 -15.316406 14.640625 -17.234375 C 14.035156 -19.160156 13.382812 -21.03125 12.6875 -22.84375 Z M 12.6875 -22.84375 "/></g></g></g><g fill="#ffffff" fill-opacity="1"><g transform="translate(26.36767, 39.053604)"><g><path d="M 18.328125 0 L 2.765625 0 C 2.785156 -1.25 2.816406 -2.34375 2.859375 -3.28125 C 2.898438 -4.226562 2.929688 -5.210938 2.953125 -6.234375 C 2.984375 -7.265625 3.007812 -8.441406 3.03125 -9.765625 C 3.0625 -11.085938 3.078125 -12.75 3.078125 -14.75 C 3.078125 -16.75 3.0625 -18.738281 3.03125 -20.71875 C 3.007812 -22.707031 2.957031 -24.753906 2.875 -26.859375 L 8.453125 -27.25 C 8.367188 -26.414062 8.304688 -25.5625 8.265625 -24.6875 C 8.234375 -23.820312 8.207031 -22.863281 8.1875 -21.8125 C 8.175781 -20.757812 8.164062 -19.582031 8.15625 -18.28125 C 8.144531 -16.988281 8.140625 -15.515625 8.140625 -13.859375 C 8.140625 -11.734375 8.140625 -9.878906 8.140625 -8.296875 C 8.140625 -6.710938 8.148438 -5.21875 8.171875 -3.8125 L 18.328125 -3.8125 Z M 18.328125 0 "/></g></g></g><g fill="#ffffff" fill-opacity="1"><g transform="translate(45.121451, 39.053604)"><g><path d="M 18.328125 0 L 2.765625 0 C 2.785156 -1.25 2.816406 -2.34375 2.859375 -3.28125 C 2.898438 -4.226562 2.929688 -5.210938 2.953125 -6.234375 C 2.984375 -7.265625 3.007812 -8.441406 3.03125 -9.765625 C 3.0625 -11.085938 3.078125 -12.75 3.078125 -14.75 C 3.078125 -16.75 3.0625 -18.738281 3.03125 -20.71875 C 3.007812 -22.707031 2.957031 -24.753906 2.875 -26.859375 L 8.453125 -27.25 C 8.367188 -26.414062 8.304688 -25.5625 8.265625 -24.6875 C 8.234375 -23.820312 8.207031 -22.863281 8.1875 -21.8125 C 8.175781 -20.757812 8.164062 -19.582031 8.15625 -18.28125 C 8.144531 -16.988281 8.140625 -15.515625 8.140625 -13.859375 C 8.140625 -11.734375 8.140625 -9.878906 8.140625 -8.296875 C 8.140625 -6.710938 8.148438 -5.21875 8.171875 -3.8125 L 18.328125 -3.8125 Z M 18.328125 0 "/></g></g></g><g fill="#ffffff" fill-opacity="1"><g transform="translate(63.875232, 39.053604)"><g><path d="M 18.25 -12.03125 L 8.140625 -12.03125 C 8.140625 -10.394531 8.140625 -8.90625 8.140625 -7.5625 C 8.140625 -6.226562 8.148438 -4.976562 8.171875 -3.8125 L 20.203125 -3.8125 L 20.203125 0 L 2.765625 0 C 2.785156 -1.25 2.816406 -2.34375 2.859375 -3.28125 C 2.898438 -4.226562 2.929688 -5.210938 2.953125 -6.234375 C 2.984375 -7.265625 3.007812 -8.441406 3.03125 -9.765625 C 3.0625 -11.085938 3.078125 -12.75 3.078125 -14.75 C 3.078125 -16.75 3.0625 -18.804688 3.03125 -20.921875 C 3.007812 -23.035156 2.957031 -25.144531 2.875 -27.25 L 19.453125 -27.25 L 19.453125 -23.4375 L 8.21875 -23.4375 C 8.164062 -22.414062 8.140625 -21.265625 8.140625 -19.984375 C 8.140625 -18.703125 8.140625 -17.242188 8.140625 -15.609375 L 18.25 -15.609375 Z M 18.25 -12.03125 "/></g></g></g><g fill="#ffffff" fill-opacity="1"><g transform="translate(85.313684, 39.053604)"><g><path d="M 2.875 -26.859375 C 4.039062 -27.066406 5.359375 -27.253906 6.828125 -27.421875 C 8.296875 -27.585938 9.71875 -27.671875 11.09375 -27.671875 C 13.300781 -27.671875 15.109375 -27.4375 16.515625 -26.96875 C 17.929688 -26.5 19.039062 -25.894531 19.84375 -25.15625 C 20.65625 -24.414062 21.207031 -23.585938 21.5 -22.671875 C 21.800781 -21.753906 21.953125 -20.835938 21.953125 -19.921875 C 21.953125 -18.285156 21.582031 -16.863281 20.84375 -15.65625 C 20.101562 -14.457031 19.054688 -13.507812 17.703125 -12.8125 C 18.515625 -12.414062 19.1875 -11.960938 19.71875 -11.453125 C 20.25 -10.953125 20.671875 -10.335938 20.984375 -9.609375 C 21.296875 -8.890625 21.507812 -8.03125 21.625 -7.03125 C 21.738281 -6.03125 21.796875 -4.867188 21.796875 -3.546875 C 21.796875 -2.484375 21.753906 -1.300781 21.671875 0 L 16.265625 0.46875 C 16.347656 -0.382812 16.414062 -1.203125 16.46875 -1.984375 C 16.519531 -2.765625 16.546875 -3.503906 16.546875 -4.203125 C 16.546875 -5.347656 16.453125 -6.347656 16.265625 -7.203125 C 16.085938 -8.054688 15.765625 -8.773438 15.296875 -9.359375 C 14.828125 -9.941406 14.195312 -10.375 13.40625 -10.65625 C 12.613281 -10.945312 11.597656 -11.09375 10.359375 -11.09375 C 10.066406 -11.09375 9.722656 -11.082031 9.328125 -11.0625 C 8.941406 -11.050781 8.546875 -11.019531 8.140625 -10.96875 C 8.140625 -8.820312 8.144531 -6.878906 8.15625 -5.140625 C 8.164062 -3.398438 8.195312 -1.6875 8.25 0 L 2.765625 0 C 2.816406 -1.25 2.859375 -2.34375 2.890625 -3.28125 C 2.929688 -4.226562 2.960938 -5.210938 2.984375 -6.234375 C 3.015625 -7.265625 3.035156 -8.414062 3.046875 -9.6875 C 3.066406 -10.957031 3.078125 -12.539062 3.078125 -14.4375 C 3.078125 -16.613281 3.0625 -18.703125 3.03125 -20.703125 C 3.007812 -22.703125 2.957031 -24.753906 2.875 -26.859375 Z M 11.59375 -24.203125 C 11.070312 -24.203125 10.523438 -24.15625 9.953125 -24.0625 C 9.390625 -23.976562 8.8125 -23.859375 8.21875 -23.703125 C 8.164062 -22.609375 8.140625 -21.378906 8.140625 -20.015625 C 8.140625 -18.660156 8.140625 -17.023438 8.140625 -15.109375 L 8.140625 -14.59375 C 8.859375 -14.4375 9.703125 -14.359375 10.671875 -14.359375 C 12.609375 -14.359375 14.113281 -14.78125 15.1875 -15.625 C 16.269531 -16.46875 16.8125 -17.707031 16.8125 -19.34375 C 16.8125 -20.851562 16.347656 -22.039062 15.421875 -22.90625 C 14.503906 -23.769531 13.226562 -24.203125 11.59375 -24.203125 Z M 11.59375 -24.203125 "/></g></g></g><g fill="#ffffff" fill-opacity="1"><g transform="translate(109.125536, 39.053604)"><g><path d="M 23.890625 -12.53125 C 23.816406 -12.164062 23.757812 -11.785156 23.71875 -11.390625 C 23.6875 -11.003906 23.660156 -10.582031 23.640625 -10.125 C 23.628906 -9.675781 23.617188 -9.164062 23.609375 -8.59375 C 23.597656 -8.03125 23.59375 -7.382812 23.59375 -6.65625 C 23.59375 -5.144531 23.597656 -3.894531 23.609375 -2.90625 C 23.617188 -1.925781 23.648438 -0.957031 23.703125 0 L 21.90625 0.46875 L 20.515625 -1.875 C 19.472656 -1.195312 18.210938 -0.632812 16.734375 -0.1875 C 15.253906 0.25 13.765625 0.46875 12.265625 0.46875 C 10.890625 0.46875 9.554688 0.300781 8.265625 -0.03125 C 6.984375 -0.375 5.847656 -1.019531 4.859375 -1.96875 C 3.878906 -2.914062 3.085938 -4.234375 2.484375 -5.921875 C 1.890625 -7.609375 1.59375 -9.800781 1.59375 -12.5 C 1.59375 -17.632812 2.671875 -21.453125 4.828125 -23.953125 C 6.984375 -26.460938 10.070312 -27.71875 14.09375 -27.71875 C 14.71875 -27.71875 15.285156 -27.691406 15.796875 -27.640625 C 16.316406 -27.585938 16.796875 -27.535156 17.234375 -27.484375 C 17.679688 -27.429688 18.113281 -27.378906 18.53125 -27.328125 C 18.945312 -27.273438 19.359375 -27.25 19.765625 -27.25 C 20.179688 -27.25 20.609375 -27.28125 21.046875 -27.34375 C 21.492188 -27.40625 21.976562 -27.515625 22.5 -27.671875 L 22.921875 -18.71875 L 18.609375 -18.21875 C 18.628906 -18.394531 18.640625 -18.566406 18.640625 -18.734375 C 18.640625 -18.910156 18.640625 -19.085938 18.640625 -19.265625 C 18.640625 -19.941406 18.570312 -20.585938 18.4375 -21.203125 C 18.3125 -21.828125 18.082031 -22.378906 17.75 -22.859375 C 17.414062 -23.347656 16.945312 -23.734375 16.34375 -24.015625 C 15.75 -24.296875 15 -24.4375 14.09375 -24.4375 C 9.15625 -24.4375 6.6875 -20.816406 6.6875 -13.578125 C 6.6875 -11.835938 6.835938 -10.359375 7.140625 -9.140625 C 7.441406 -7.921875 7.882812 -6.921875 8.46875 -6.140625 C 9.050781 -5.367188 9.773438 -4.800781 10.640625 -4.4375 C 11.515625 -4.070312 12.507812 -3.890625 13.625 -3.890625 C 14.5625 -3.890625 15.445312 -4.019531 16.28125 -4.28125 C 17.125 -4.539062 17.960938 -4.890625 18.796875 -5.328125 L 18.796875 -9.21875 L 14.046875 -8.984375 L 13.703125 -12.53125 Z M 23.890625 -12.53125 "/></g></g></g><g fill="#ffffff" fill-opacity="1"><g transform="translate(134.688259, 39.053604)"><g><path d="M 18.25 -12.03125 L 8.140625 -12.03125 C 8.140625 -10.394531 8.140625 -8.90625 8.140625 -7.5625 C 8.140625 -6.226562 8.148438 -4.976562 8.171875 -3.8125 L 20.203125 -3.8125 L 20.203125 0 L 2.765625 0 C 2.785156 -1.25 2.816406 -2.34375 2.859375 -3.28125 C 2.898438 -4.226562 2.929688 -5.210938 2.953125 -6.234375 C 2.984375 -7.265625 3.007812 -8.441406 3.03125 -9.765625 C 3.0625 -11.085938 3.078125 -12.75 3.078125 -14.75 C 3.078125 -16.75 3.0625 -18.804688 3.03125 -20.921875 C 3.007812 -23.035156 2.957031 -25.144531 2.875 -27.25 L 19.453125 -27.25 L 19.453125 -23.4375 L 8.21875 -23.4375 C 8.164062 -22.414062 8.140625 -21.265625 8.140625 -19.984375 C 8.140625 -18.703125 8.140625 -17.242188 8.140625 -15.609375 L 18.25 -15.609375 Z M 18.25 -12.03125 "/></g></g></g><g fill="#ffffff" fill-opacity="1"><g transform="translate(156.12671, 39.053604)"><g><path d="M 25.140625 -27.25 C 25.066406 -26.414062 25.007812 -25.5625 24.96875 -24.6875 C 24.925781 -23.820312 24.898438 -22.863281 24.890625 -21.8125 C 24.878906 -20.757812 24.863281 -19.582031 24.84375 -18.28125 C 24.832031 -16.988281 24.828125 -15.515625 24.828125 -13.859375 C 24.828125 -12.296875 24.828125 -10.882812 24.828125 -9.625 C 24.828125 -8.375 24.832031 -7.203125 24.84375 -6.109375 C 24.863281 -5.015625 24.878906 -3.972656 24.890625 -2.984375 C 24.898438 -2.003906 24.921875 -1.007812 24.953125 0 L 17.125 0.46875 C 15.382812 -3.007812 13.703125 -6.710938 12.078125 -10.640625 C 10.460938 -14.578125 9.03125 -18.554688 7.78125 -22.578125 C 7.78125 -22.078125 7.773438 -21.484375 7.765625 -20.796875 C 7.753906 -20.109375 7.75 -19.375 7.75 -18.59375 C 7.75 -17.820312 7.75 -17.023438 7.75 -16.203125 C 7.75 -15.390625 7.75 -14.609375 7.75 -13.859375 C 7.75 -12.296875 7.757812 -10.882812 7.78125 -9.625 C 7.8125 -8.375 7.835938 -7.203125 7.859375 -6.109375 C 7.890625 -5.015625 7.921875 -3.972656 7.953125 -2.984375 C 7.992188 -2.003906 8.03125 -1.007812 8.0625 0 L 2.765625 0 C 2.785156 -1.25 2.816406 -2.34375 2.859375 -3.28125 C 2.898438 -4.226562 2.929688 -5.210938 2.953125 -6.234375 C 2.984375 -7.265625 3.007812 -8.441406 3.03125 -9.765625 C 3.0625 -11.085938 3.078125 -12.75 3.078125 -14.75 C 3.078125 -16.75 3.0625 -18.738281 3.03125 -20.71875 C 3.007812 -22.707031 2.957031 -24.753906 2.875 -26.859375 L 11.484375 -27.71875 C 12.285156 -24.3125 13.378906 -20.582031 14.765625 -16.53125 C 16.160156 -12.488281 17.90625 -8.132812 20 -3.46875 C 20.050781 -4.707031 20.085938 -6.257812 20.109375 -8.125 C 20.140625 -10 20.15625 -12.207031 20.15625 -14.75 C 20.15625 -16.75 20.109375 -18.738281 20.015625 -20.71875 C 19.929688 -22.707031 19.847656 -24.753906 19.765625 -26.859375 Z M 25.140625 -27.25 "/></g></g></g><g fill="#ffffff" fill-opacity="1"><g transform="translate(5.947369, 109.329371)"><g><path d="M 35.34375 -23.125 L 16.171875 -23.125 C 16.171875 -18.382812 16.179688 -14.195312 16.203125 -10.5625 C 16.222656 -6.925781 16.285156 -3.40625 16.390625 0 L 5.484375 0 C 5.535156 -2.476562 5.597656 -4.65625 5.671875 -6.53125 C 5.753906 -8.414062 5.820312 -10.375 5.875 -12.40625 C 5.925781 -14.445312 5.976562 -16.78125 6.03125 -19.40625 C 6.082031 -22.039062 6.109375 -25.34375 6.109375 -29.3125 C 6.109375 -33.28125 6.082031 -37.363281 6.03125 -41.5625 C 5.976562 -45.769531 5.875 -49.960938 5.71875 -54.140625 L 38.59375 -54.140625 L 38.59375 -46.5625 L 16.3125 -46.5625 C 16.21875 -44.394531 16.171875 -41.992188 16.171875 -39.359375 C 16.171875 -36.734375 16.171875 -33.691406 16.171875 -30.234375 L 35.34375 -30.234375 Z M 35.34375 -23.125 "/></g></g></g><g fill="#ffffff" fill-opacity="1"><g transform="translate(46.47369, 109.329371)"><g><path d="M 5.71875 -53.359375 C 8.039062 -53.773438 10.65625 -54.148438 13.5625 -54.484375 C 16.476562 -54.816406 19.304688 -54.984375 22.046875 -54.984375 C 26.421875 -54.984375 30.015625 -54.519531 32.828125 -53.59375 C 35.640625 -52.664062 37.84375 -51.46875 39.4375 -50 C 41.039062 -48.53125 42.140625 -46.878906 42.734375 -45.046875 C 43.328125 -43.222656 43.625 -41.40625 43.625 -39.59375 C 43.625 -36.351562 42.890625 -33.53125 41.421875 -31.125 C 39.953125 -28.726562 37.875 -26.835938 35.1875 -25.453125 C 36.789062 -24.671875 38.117188 -23.773438 39.171875 -22.765625 C 40.234375 -21.765625 41.070312 -20.539062 41.6875 -19.09375 C 42.300781 -17.65625 42.722656 -15.941406 42.953125 -13.953125 C 43.191406 -11.972656 43.3125 -9.664062 43.3125 -7.03125 C 43.3125 -4.914062 43.234375 -2.570312 43.078125 0 L 32.328125 0.921875 C 32.484375 -0.773438 32.613281 -2.394531 32.71875 -3.9375 C 32.820312 -5.488281 32.875 -6.960938 32.875 -8.359375 C 32.875 -10.617188 32.691406 -12.597656 32.328125 -14.296875 C 31.960938 -16.003906 31.316406 -17.4375 30.390625 -18.59375 C 29.460938 -19.757812 28.210938 -20.625 26.640625 -21.1875 C 25.066406 -21.757812 23.046875 -22.046875 20.578125 -22.046875 C 20.003906 -22.046875 19.332031 -22.03125 18.5625 -22 C 17.789062 -21.976562 16.992188 -21.914062 16.171875 -21.8125 C 16.171875 -17.53125 16.179688 -13.660156 16.203125 -10.203125 C 16.222656 -6.753906 16.285156 -3.351562 16.390625 0 L 5.484375 0 C 5.585938 -2.476562 5.675781 -4.65625 5.75 -6.53125 C 5.832031 -8.414062 5.898438 -10.375 5.953125 -12.40625 C 6.003906 -14.445312 6.039062 -16.726562 6.0625 -19.25 C 6.09375 -21.78125 6.109375 -24.925781 6.109375 -28.6875 C 6.109375 -33.019531 6.082031 -37.171875 6.03125 -41.140625 C 5.976562 -45.117188 5.875 -49.191406 5.71875 -53.359375 Z M 23.046875 -48.109375 C 22.015625 -48.109375 20.929688 -48.015625 19.796875 -47.828125 C 18.660156 -47.648438 17.5 -47.410156 16.3125 -47.109375 C 16.21875 -44.941406 16.171875 -42.503906 16.171875 -39.796875 C 16.171875 -37.085938 16.171875 -33.828125 16.171875 -30.015625 L 16.171875 -29 C 17.609375 -28.695312 19.28125 -28.546875 21.1875 -28.546875 C 25.0625 -28.546875 28.066406 -29.378906 30.203125 -31.046875 C 32.335938 -32.722656 33.40625 -35.1875 33.40625 -38.4375 C 33.40625 -41.425781 32.488281 -43.785156 30.65625 -45.515625 C 28.832031 -47.242188 26.296875 -48.109375 23.046875 -48.109375 Z M 23.046875 -48.109375 "/></g></g></g><g fill="#ffffff" fill-opacity="1"><g transform="translate(93.805954, 109.329371)"><g><path d="M 36.28125 -23.90625 L 16.171875 -23.90625 C 16.171875 -20.65625 16.171875 -17.703125 16.171875 -15.046875 C 16.171875 -12.390625 16.191406 -9.898438 16.234375 -7.578125 L 40.140625 -7.578125 L 40.140625 0 L 5.484375 0 C 5.535156 -2.476562 5.597656 -4.65625 5.671875 -6.53125 C 5.753906 -8.414062 5.820312 -10.375 5.875 -12.40625 C 5.925781 -14.445312 5.976562 -16.78125 6.03125 -19.40625 C 6.082031 -22.039062 6.109375 -25.34375 6.109375 -29.3125 C 6.109375 -33.28125 6.082031 -37.363281 6.03125 -41.5625 C 5.976562 -45.769531 5.875 -49.960938 5.71875 -54.140625 L 38.671875 -54.140625 L 38.671875 -46.5625 L 16.3125 -46.5625 C 16.21875 -44.550781 16.171875 -42.269531 16.171875 -39.71875 C 16.171875 -37.164062 16.171875 -34.265625 16.171875 -31.015625 L 36.28125 -31.015625 Z M 36.28125 -23.90625 "/></g></g></g><g fill="#ffffff" fill-opacity="1"><g transform="translate(136.420462, 109.329371)"><g><path d="M 36.28125 -23.90625 L 16.171875 -23.90625 C 16.171875 -20.65625 16.171875 -17.703125 16.171875 -15.046875 C 16.171875 -12.390625 16.191406 -9.898438 16.234375 -7.578125 L 40.140625 -7.578125 L 40.140625 0 L 5.484375 0 C 5.535156 -2.476562 5.597656 -4.65625 5.671875 -6.53125 C 5.753906 -8.414062 5.820312 -10.375 5.875 -12.40625 C 5.925781 -14.445312 5.976562 -16.78125 6.03125 -19.40625 C 6.082031 -22.039062 6.109375 -25.34375 6.109375 -29.3125 C 6.109375 -33.28125 6.082031 -37.363281 6.03125 -41.5625 C 5.976562 -45.769531 5.875 -49.960938 5.71875 -54.140625 L 38.671875 -54.140625 L 38.671875 -46.5625 L 16.3125 -46.5625 C 16.21875 -44.550781 16.171875 -42.269531 16.171875 -39.71875 C 16.171875 -37.164062 16.171875 -34.265625 16.171875 -31.015625 L 36.28125 -31.015625 Z M 36.28125 -23.90625 "/></g></g></g></g></g></svg>