<svg xmlns="http://www.w3.org/2000/svg" xmlns:xlink="http://www.w3.org/1999/xlink" width="500" zoomAndPan="magnify" viewBox="0 0 375 374.999991" height="500" preserveAspectRatio="xMidYMid meet" version="1.0"><defs><g/><clipPath id="58d7f3c841"><path d="M 15.894531 10.246094 L 361.632812 10.246094 L 361.632812 355.984375 L 15.894531 355.984375 Z M 15.894531 10.246094 " clip-rule="nonzero"/></clipPath><clipPath id="b4725f1898"><path d="M 188.761719 10.246094 C 93.289062 10.246094 15.894531 87.644531 15.894531 183.117188 C 15.894531 278.589844 93.289062 355.984375 188.761719 355.984375 C 284.238281 355.984375 361.632812 278.589844 361.632812 183.117188 C 361.632812 87.644531 284.238281 10.246094 188.761719 10.246094 Z M 188.761719 10.246094 " clip-rule="nonzero"/></clipPath><clipPath id="03dc4bd0b0"><path d="M 0.894531 0.246094 L 346.632812 0.246094 L 346.632812 345.984375 L 0.894531 345.984375 Z M 0.894531 0.246094 " clip-rule="nonzero"/></clipPath><clipPath id="e57e2021cf"><path d="M 173.761719 0.246094 C 78.289062 0.246094 0.894531 77.644531 0.894531 173.117188 C 0.894531 268.589844 78.289062 345.984375 173.761719 345.984375 C 269.238281 345.984375 346.632812 268.589844 346.632812 173.117188 C 346.632812 77.644531 269.238281 0.246094 173.761719 0.246094 Z M 173.761719 0.246094 " clip-rule="nonzero"/></clipPath><clipPath id="15bcc9791e"><rect x="0" width="347" y="0" height="346"/></clipPath><clipPath id="d5a151b87b"><rect x="0" width="325" y="0" height="123"/></clipPath><clipPath id="f03e381345"><rect x="0" width="322" y="0" height="123"/></clipPath><clipPath id="b9cbce482f"><path d="M 66.8125 62.429688 L 308.1875 62.429688 L 308.1875 303.804688 L 66.8125 303.804688 Z M 66.8125 62.429688 " clip-rule="nonzero"/></clipPath><clipPath id="8d4aaa3a91"><path d="M 187.5 62.429688 C 120.847656 62.429688 66.8125 116.460938 66.8125 183.117188 C 66.8125 249.769531 120.847656 303.804688 187.5 303.804688 C 254.152344 303.804688 308.1875 249.769531 308.1875 183.117188 C 308.1875 116.460938 254.152344 62.429688 187.5 62.429688 Z M 187.5 62.429688 " clip-rule="nonzero"/></clipPath><clipPath id="e51ba216bf"><path d="M 0.8125 0.429688 L 242.1875 0.429688 L 242.1875 241.804688 L 0.8125 241.804688 Z M 0.8125 0.429688 " clip-rule="nonzero"/></clipPath><clipPath id="bb1d5b9d5b"><path d="M 121.5 0.429688 C 54.847656 0.429688 0.8125 54.460938 0.8125 121.117188 C 0.8125 187.769531 54.847656 241.804688 121.5 241.804688 C 188.152344 241.804688 242.1875 187.769531 242.1875 121.117188 C 242.1875 54.460938 188.152344 0.429688 121.5 0.429688 Z M 121.5 0.429688 " clip-rule="nonzero"/></clipPath><clipPath id="2aef0721bd"><rect x="0" width="243" y="0" height="242"/></clipPath><clipPath id="25542f9668"><path d="M 230.410156 94.230469 L 375 94.230469 L 375 272 L 230.410156 272 Z M 230.410156 94.230469 " clip-rule="nonzero"/></clipPath><clipPath id="935afede04"><path d="M 385.953125 183.109375 L 230.410156 271.992188 L 230.410156 94.230469 Z M 385.953125 183.109375 " clip-rule="nonzero"/></clipPath><clipPath id="e02c1c43ed"><path d="M 0.410156 0.230469 L 145 0.230469 L 145 178 L 0.410156 178 Z M 0.410156 0.230469 " clip-rule="nonzero"/></clipPath><clipPath id="c776c9ef1d"><path d="M 155.953125 89.109375 L 0.410156 177.992188 L 0.410156 0.230469 Z M 155.953125 89.109375 " clip-rule="nonzero"/></clipPath><clipPath id="2da1001255"><rect x="0" width="145" y="0" height="178"/></clipPath><clipPath id="33d28de036"><path d="M 0 98.351562 L 144.589844 98.351562 L 144.589844 276.375 L 0 276.375 Z M 0 98.351562 " clip-rule="nonzero"/></clipPath><clipPath id="155a2ddc90"><path d="M -10.953125 187.492188 L 144.589844 98.613281 L 144.589844 276.375 Z M -10.953125 187.492188 " clip-rule="nonzero"/></clipPath><clipPath id="d6793b0fe3"><path d="M 0 0.398438 L 144.589844 0.398438 L 144.589844 178.375 L 0 178.375 Z M 0 0.398438 " clip-rule="nonzero"/></clipPath><clipPath id="4bd6ed855f"><path d="M -10.953125 89.492188 L 144.589844 0.613281 L 144.589844 178.375 Z M -10.953125 89.492188 " clip-rule="nonzero"/></clipPath><clipPath id="4c92a17671"><rect x="0" width="145" y="0" height="179"/></clipPath><clipPath id="7b467e7406"><path d="M 82.808594 77.160156 L 295 77.160156 L 295 289.410156 L 82.808594 289.410156 Z M 82.808594 77.160156 " clip-rule="nonzero"/></clipPath></defs><rect x="-37.5" width="450" fill="#ffffff" y="-37.499999" height="449.999989" fill-opacity="1"/><rect x="-37.5" width="450" fill="#ffffff" y="-37.499999" height="449.999989" fill-opacity="1"/><g clip-path="url(#58d7f3c841)"><g clip-path="url(#b4725f1898)"><g transform="matrix(1, 0, 0, 1, 15, 10)"><g clip-path="url(#15bcc9791e)"><g clip-path="url(#03dc4bd0b0)"><g clip-path="url(#e57e2021cf)"><path fill="#0c542f" d="M 0.894531 0.246094 L 346.632812 0.246094 L 346.632812 345.984375 L 0.894531 345.984375 Z M 0.894531 0.246094 " fill-opacity="1" fill-rule="nonzero"/></g></g></g></g></g></g><g transform="matrix(1, 0, 0, 1, 25, 13)"><g clip-path="url(#d5a151b87b)"><g fill="#ffffff" fill-opacity="1"><g transform="translate(34.333234, 116.189969)"><g><path d="M -8.34375 -37.515625 C -7.6875 -36.953125 -7 -36.394531 -6.28125 -35.84375 C -5.570312 -35.289062 -4.773438 -34.703125 -3.890625 -34.078125 C -3.003906 -33.453125 -2.007812 -32.75 -0.90625 -31.96875 C 0.195312 -31.1875 1.457031 -30.304688 2.875 -29.328125 C 4.195312 -28.398438 5.394531 -27.566406 6.46875 -26.828125 C 7.539062 -26.085938 8.539062 -25.398438 9.46875 -24.765625 C 10.40625 -24.140625 11.296875 -23.539062 12.140625 -22.96875 C 12.984375 -22.394531 13.847656 -21.820312 14.734375 -21.25 L 10.5 -14.296875 C 6.519531 -14.878906 2.378906 -15.640625 -1.921875 -16.578125 C -6.222656 -17.515625 -10.460938 -18.644531 -14.640625 -19.96875 C -14.222656 -19.675781 -13.722656 -19.320312 -13.140625 -18.90625 C -12.554688 -18.488281 -11.929688 -18.046875 -11.265625 -17.578125 C -10.609375 -17.117188 -9.929688 -16.644531 -9.234375 -16.15625 C -8.535156 -15.675781 -7.863281 -15.21875 -7.21875 -14.78125 C -5.894531 -13.851562 -4.6875 -13.03125 -3.59375 -12.3125 C -2.507812 -11.59375 -1.492188 -10.921875 -0.546875 -10.296875 C 0.390625 -9.679688 1.285156 -9.097656 2.140625 -8.546875 C 3.003906 -8.003906 3.875 -7.441406 4.75 -6.859375 L 1.625 -2.34375 C 0.582031 -3.113281 -0.320312 -3.789062 -1.09375 -4.375 C -1.875 -4.96875 -2.695312 -5.578125 -3.5625 -6.203125 C -4.425781 -6.835938 -5.414062 -7.554688 -6.53125 -8.359375 C -7.644531 -9.171875 -9.050781 -10.164062 -10.75 -11.34375 C -12.445312 -12.519531 -14.148438 -13.679688 -15.859375 -14.828125 C -17.566406 -15.984375 -19.335938 -17.148438 -21.171875 -18.328125 L -16.8125 -26.140625 C -13.445312 -24.828125 -9.628906 -23.566406 -5.359375 -22.359375 C -1.097656 -21.148438 3.640625 -20.054688 8.859375 -19.078125 C 7.828125 -19.867188 6.519531 -20.828125 4.9375 -21.953125 C 3.363281 -23.078125 1.5 -24.390625 -0.65625 -25.890625 C -2.351562 -27.066406 -4.070312 -28.203125 -5.8125 -29.296875 C -7.5625 -30.390625 -9.351562 -31.53125 -11.1875 -32.71875 Z M -8.34375 -37.515625 "/></g></g></g><g fill="#ffffff" fill-opacity="1"><g transform="translate(49.194194, 94.459656)"><g><path d="M -7.984375 -27.5625 C -9.460938 -26.070312 -9.957031 -24.21875 -9.46875 -22 C -8.976562 -19.78125 -7.46875 -17.410156 -4.9375 -14.890625 C -2.414062 -12.390625 -0.128906 -10.847656 1.921875 -10.265625 C 3.984375 -9.679688 5.84375 -10.222656 7.5 -11.890625 C 8.21875 -12.609375 8.6875 -13.453125 8.90625 -14.421875 C 9.132812 -15.398438 9.109375 -16.453125 8.828125 -17.578125 C 8.546875 -18.710938 8.023438 -19.894531 7.265625 -21.125 C 6.515625 -22.351562 5.507812 -23.585938 4.25 -24.828125 C 3.050781 -26.023438 1.910156 -27.015625 0.828125 -27.796875 C -0.242188 -28.585938 -1.28125 -29.117188 -2.28125 -29.390625 C -3.28125 -29.660156 -4.25 -29.65625 -5.1875 -29.375 C -6.125 -29.101562 -7.054688 -28.5 -7.984375 -27.5625 Z M -8.734375 -10.90625 C -10.273438 -12.4375 -11.488281 -14.054688 -12.375 -15.765625 C -13.257812 -17.472656 -13.769531 -19.179688 -13.90625 -20.890625 C -14.039062 -22.597656 -13.816406 -24.257812 -13.234375 -25.875 C -12.648438 -27.488281 -11.675781 -28.984375 -10.3125 -30.359375 C -9 -31.679688 -7.59375 -32.632812 -6.09375 -33.21875 C -4.601562 -33.800781 -3.070312 -34.019531 -1.5 -33.875 C 0.0703125 -33.726562 1.660156 -33.238281 3.265625 -32.40625 C 4.867188 -31.582031 6.410156 -30.429688 7.890625 -28.953125 C 9.460938 -27.398438 10.695312 -25.75 11.59375 -24 C 12.488281 -22.25 13.03125 -20.503906 13.21875 -18.765625 C 13.40625 -17.035156 13.21875 -15.34375 12.65625 -13.6875 C 12.101562 -12.039062 11.15625 -10.539062 9.8125 -9.1875 C 8.507812 -7.875 7.085938 -6.945312 5.546875 -6.40625 C 4.003906 -5.875 2.421875 -5.691406 0.796875 -5.859375 C -0.828125 -6.035156 -2.445312 -6.550781 -4.0625 -7.40625 C -5.6875 -8.257812 -7.242188 -9.425781 -8.734375 -10.90625 Z M -8.734375 -10.90625 "/></g></g></g><g fill="#ffffff" fill-opacity="1"><g transform="translate(67.815183, 76.343572)"><g/></g></g><g fill="#ffffff" fill-opacity="1"><g transform="translate(72.896835, 71.53894)"><g><path d="M 0.671875 0.140625 C -0.179688 -2.535156 -0.960938 -5.117188 -1.671875 -7.609375 C -2.378906 -10.109375 -3.019531 -12.5625 -3.59375 -14.96875 C -4.175781 -17.375 -4.6875 -19.78125 -5.125 -22.1875 C -5.5625 -24.59375 -5.9375 -27.03125 -6.25 -29.5 L -2.25 -32.625 C -0.144531 -31.320312 1.890625 -29.972656 3.859375 -28.578125 C 5.835938 -27.191406 7.800781 -25.726562 9.75 -24.1875 C 11.707031 -22.644531 13.671875 -21.019531 15.640625 -19.3125 C 17.617188 -17.601562 19.648438 -15.785156 21.734375 -13.859375 L 17.375 -10.515625 C 16.289062 -11.503906 15.203125 -12.503906 14.109375 -13.515625 C 13.015625 -14.523438 11.914062 -15.546875 10.8125 -16.578125 L 2.40625 -11.21875 C 2.8125 -9.894531 3.222656 -8.570312 3.640625 -7.25 C 4.066406 -5.925781 4.546875 -4.585938 5.078125 -3.234375 Z M -1.640625 -27.046875 C -0.910156 -22.984375 0.0625 -18.929688 1.28125 -14.890625 L 7.984375 -19.15625 C 6.390625 -20.539062 4.789062 -21.898438 3.1875 -23.234375 C 1.582031 -24.566406 -0.0234375 -25.835938 -1.640625 -27.046875 Z M -1.640625 -27.046875 "/></g></g></g><g fill="#ffffff" fill-opacity="1"><g transform="translate(92.907697, 58.495556)"><g><path d="M -8.140625 -26.796875 C -7.234375 -27.398438 -6.09375 -28.09375 -4.71875 -28.875 C -3.351562 -29.664062 -1.800781 -30.429688 -0.0625 -31.171875 C 1.894531 -32.003906 3.757812 -32.441406 5.53125 -32.484375 C 7.3125 -32.523438 8.972656 -32.210938 10.515625 -31.546875 C 12.054688 -30.890625 13.4375 -29.890625 14.65625 -28.546875 C 15.882812 -27.203125 16.910156 -25.566406 17.734375 -23.640625 C 18.597656 -21.609375 19.078125 -19.597656 19.171875 -17.609375 C 19.273438 -15.617188 19.019531 -13.753906 18.40625 -12.015625 C 17.789062 -10.273438 16.828125 -8.707031 15.515625 -7.3125 C 14.210938 -5.925781 12.566406 -4.8125 10.578125 -3.96875 C 8.878906 -3.238281 7.347656 -2.632812 5.984375 -2.15625 C 4.628906 -1.6875 3.507812 -1.34375 2.625 -1.125 C 2.144531 -2.320312 1.734375 -3.378906 1.390625 -4.296875 C 1.054688 -5.210938 0.691406 -6.164062 0.296875 -7.15625 C -0.0976562 -8.144531 -0.550781 -9.273438 -1.0625 -10.546875 C -1.570312 -11.828125 -2.234375 -13.421875 -3.046875 -15.328125 C -3.859375 -17.222656 -4.675781 -19.113281 -5.5 -21 C -6.332031 -22.882812 -7.210938 -24.816406 -8.140625 -26.796875 Z M 0.828125 -27.625 C 0.398438 -27.445312 -0.03125 -27.207031 -0.46875 -26.90625 C -0.914062 -26.613281 -1.351562 -26.300781 -1.78125 -25.96875 C -1.332031 -24.757812 -0.789062 -23.410156 -0.15625 -21.921875 C 0.46875 -20.441406 1.234375 -18.640625 2.140625 -16.515625 C 3.078125 -14.304688 3.882812 -12.398438 4.5625 -10.796875 C 5.25 -9.191406 5.90625 -7.6875 6.53125 -6.28125 C 7.144531 -6.257812 7.765625 -6.382812 8.390625 -6.65625 C 9.660156 -7.1875 10.757812 -7.878906 11.6875 -8.734375 C 12.613281 -9.597656 13.300781 -10.640625 13.75 -11.859375 C 14.207031 -13.078125 14.382812 -14.457031 14.28125 -16 C 14.175781 -17.550781 13.710938 -19.289062 12.890625 -21.21875 C 12.085938 -23.09375 11.238281 -24.582031 10.34375 -25.6875 C 9.457031 -26.789062 8.507812 -27.570312 7.5 -28.03125 C 6.488281 -28.488281 5.425781 -28.664062 4.3125 -28.5625 C 3.207031 -28.457031 2.046875 -28.144531 0.828125 -27.625 Z M 0.828125 -27.625 "/></g></g></g><g fill="#ffffff" fill-opacity="1"><g transform="translate(115.479691, 48.670739)"><g><path d="M -3.546875 -27.765625 C -2.554688 -28.222656 -1.316406 -28.722656 0.171875 -29.265625 C 1.660156 -29.816406 3.320312 -30.3125 5.15625 -30.75 C 7.21875 -31.238281 9.128906 -31.351562 10.890625 -31.09375 C 12.660156 -30.84375 14.25 -30.265625 15.65625 -29.359375 C 17.0625 -28.453125 18.253906 -27.234375 19.234375 -25.703125 C 20.222656 -24.171875 20.957031 -22.382812 21.4375 -20.34375 C 21.945312 -18.195312 22.085938 -16.132812 21.859375 -14.15625 C 21.628906 -12.175781 21.0625 -10.378906 20.15625 -8.765625 C 19.257812 -7.148438 18.050781 -5.769531 16.53125 -4.625 C 15.007812 -3.476562 13.195312 -2.65625 11.09375 -2.15625 C 9.289062 -1.71875 7.679688 -1.375 6.265625 -1.125 C 4.847656 -0.882812 3.6875 -0.726562 2.78125 -0.65625 C 2.507812 -1.925781 2.28125 -3.039062 2.09375 -4 C 1.914062 -4.957031 1.710938 -5.957031 1.484375 -7 C 1.265625 -8.039062 1.003906 -9.234375 0.703125 -10.578125 C 0.410156 -11.921875 0.0234375 -13.597656 -0.453125 -15.609375 C -0.929688 -17.617188 -1.414062 -19.617188 -1.90625 -21.609375 C -2.40625 -23.609375 -2.953125 -25.660156 -3.546875 -27.765625 Z M 5.453125 -27.09375 C 5.003906 -26.988281 4.535156 -26.828125 4.046875 -26.609375 C 3.554688 -26.398438 3.066406 -26.164062 2.578125 -25.90625 C 2.828125 -24.632812 3.132812 -23.210938 3.5 -21.640625 C 3.875 -20.078125 4.332031 -18.171875 4.875 -15.921875 C 5.425781 -13.585938 5.90625 -11.570312 6.3125 -9.875 C 6.71875 -8.175781 7.109375 -6.585938 7.484375 -5.109375 C 8.097656 -4.972656 8.734375 -4.984375 9.390625 -5.140625 C 10.722656 -5.460938 11.921875 -5.96875 12.984375 -6.65625 C 14.046875 -7.351562 14.898438 -8.265625 15.546875 -9.390625 C 16.191406 -10.515625 16.59375 -11.847656 16.75 -13.390625 C 16.914062 -14.929688 16.753906 -16.722656 16.265625 -18.765625 C 15.796875 -20.742188 15.210938 -22.347656 14.515625 -23.578125 C 13.816406 -24.816406 13.007812 -25.75 12.09375 -26.375 C 11.175781 -27 10.160156 -27.347656 9.046875 -27.421875 C 7.929688 -27.503906 6.734375 -27.394531 5.453125 -27.09375 Z M 5.453125 -27.09375 "/></g></g></g><g fill="#ffffff" fill-opacity="1"><g transform="translate(139.616869, 42.930661)"><g><path d="M 17.859375 -13.953125 L 7.40625 -13.109375 C 7.539062 -11.421875 7.660156 -9.882812 7.765625 -8.5 C 7.878906 -7.125 8 -5.832031 8.125 -4.625 L 20.5625 -5.625 L 20.875 -1.6875 L 2.84375 -0.234375 C 2.769531 -1.523438 2.710938 -2.660156 2.671875 -3.640625 C 2.640625 -4.617188 2.59375 -5.632812 2.53125 -6.6875 C 2.46875 -7.75 2.394531 -8.960938 2.3125 -10.328125 C 2.226562 -11.703125 2.101562 -13.425781 1.9375 -15.5 C 1.769531 -17.550781 1.582031 -19.671875 1.375 -21.859375 C 1.175781 -24.046875 0.945312 -26.21875 0.6875 -28.375 L 17.828125 -29.765625 L 18.15625 -25.828125 L 6.53125 -24.890625 C 6.5625 -23.847656 6.628906 -22.660156 6.734375 -21.328125 C 6.835938 -20.003906 6.957031 -18.5 7.09375 -16.8125 L 17.546875 -17.65625 Z M 17.859375 -13.953125 "/></g></g></g><g fill="#ffffff" fill-opacity="1"><g transform="translate(159.519812, 40.960045)"><g><path d="M 4.984375 -27.546875 C 6.066406 -27.679688 7.398438 -27.785156 8.984375 -27.859375 C 10.566406 -27.929688 12.300781 -27.898438 14.1875 -27.765625 C 16.300781 -27.609375 18.160156 -27.144531 19.765625 -26.375 C 21.378906 -25.601562 22.71875 -24.566406 23.78125 -23.265625 C 24.84375 -21.972656 25.613281 -20.445312 26.09375 -18.6875 C 26.570312 -16.9375 26.734375 -15.019531 26.578125 -12.9375 C 26.421875 -10.726562 25.929688 -8.710938 25.109375 -6.890625 C 24.285156 -5.078125 23.203125 -3.539062 21.859375 -2.28125 C 20.515625 -1.019531 18.945312 -0.0703125 17.15625 0.5625 C 15.363281 1.207031 13.390625 1.453125 11.234375 1.296875 C 9.390625 1.160156 7.75 0.992188 6.3125 0.796875 C 4.882812 0.597656 3.734375 0.398438 2.859375 0.203125 C 2.984375 -1.085938 3.097656 -2.21875 3.203125 -3.1875 C 3.316406 -4.15625 3.421875 -5.171875 3.515625 -6.234375 C 3.617188 -7.296875 3.734375 -8.507812 3.859375 -9.875 C 3.984375 -11.238281 4.125 -12.953125 4.28125 -15.015625 C 4.425781 -17.078125 4.5625 -19.132812 4.6875 -21.1875 C 4.8125 -23.25 4.910156 -25.367188 4.984375 -27.546875 Z M 13.359375 -24.1875 C 12.898438 -24.226562 12.40625 -24.21875 11.875 -24.15625 C 11.34375 -24.101562 10.8125 -24.03125 10.28125 -23.9375 C 10.132812 -22.644531 10 -21.191406 9.875 -19.578125 C 9.757812 -17.972656 9.617188 -16.019531 9.453125 -13.71875 C 9.285156 -11.320312 9.140625 -9.253906 9.015625 -7.515625 C 8.890625 -5.773438 8.78125 -4.140625 8.6875 -2.609375 C 9.21875 -2.304688 9.820312 -2.128906 10.5 -2.078125 C 11.875 -1.984375 13.171875 -2.101562 14.390625 -2.4375 C 15.609375 -2.769531 16.695312 -3.375 17.65625 -4.25 C 18.613281 -5.132812 19.398438 -6.289062 20.015625 -7.71875 C 20.628906 -9.144531 21.015625 -10.90625 21.171875 -13 C 21.316406 -15.03125 21.242188 -16.734375 20.953125 -18.109375 C 20.660156 -19.492188 20.164062 -20.625 19.46875 -21.5 C 18.78125 -22.375 17.921875 -23.015625 16.890625 -23.421875 C 15.859375 -23.835938 14.679688 -24.09375 13.359375 -24.1875 Z M 13.359375 -24.1875 "/></g></g></g><g fill="#ffffff" fill-opacity="1"><g transform="translate(184.823123, 43.214077)"><g/></g></g><g fill="#ffffff" fill-opacity="1"><g transform="translate(191.908401, 44.110884)"><g><path d="M 11.65625 -0.9375 C 13.28125 -0.46875 14.566406 -0.40625 15.515625 -0.75 C 16.460938 -1.09375 17.09375 -1.804688 17.40625 -2.890625 C 17.601562 -3.578125 17.625 -4.191406 17.46875 -4.734375 C 17.320312 -5.273438 17.054688 -5.78125 16.671875 -6.25 C 16.296875 -6.71875 15.820312 -7.164062 15.25 -7.59375 C 14.6875 -8.03125 14.109375 -8.460938 13.515625 -8.890625 C 12.390625 -9.648438 11.382812 -10.378906 10.5 -11.078125 C 9.625 -11.785156 8.910156 -12.515625 8.359375 -13.265625 C 7.804688 -14.023438 7.453125 -14.867188 7.296875 -15.796875 C 7.148438 -16.734375 7.253906 -17.804688 7.609375 -19.015625 C 8.085938 -20.703125 8.820312 -21.96875 9.8125 -22.8125 C 10.800781 -23.664062 11.894531 -24.234375 13.09375 -24.515625 C 14.289062 -24.796875 15.53125 -24.859375 16.8125 -24.703125 C 18.09375 -24.546875 19.265625 -24.316406 20.328125 -24.015625 C 21.679688 -23.628906 22.925781 -23.15625 24.0625 -22.59375 C 25.195312 -22.039062 26.1875 -21.535156 27.03125 -21.078125 L 25.75 -16.578125 C 24.613281 -17.285156 23.421875 -17.945312 22.171875 -18.5625 C 20.921875 -19.1875 19.75 -19.65625 18.65625 -19.96875 C 16.789062 -20.5 15.335938 -20.554688 14.296875 -20.140625 C 13.253906 -19.722656 12.601562 -19.046875 12.34375 -18.109375 C 12.132812 -17.421875 12.164062 -16.785156 12.4375 -16.203125 C 12.707031 -15.628906 13.082031 -15.085938 13.5625 -14.578125 C 14.039062 -14.078125 14.582031 -13.632812 15.1875 -13.25 C 15.800781 -12.863281 16.351562 -12.507812 16.84375 -12.1875 C 17.707031 -11.664062 18.550781 -11.082031 19.375 -10.4375 C 20.195312 -9.800781 20.894531 -9.066406 21.46875 -8.234375 C 22.050781 -7.398438 22.445312 -6.453125 22.65625 -5.390625 C 22.863281 -4.335938 22.773438 -3.140625 22.390625 -1.796875 C 22.003906 -0.460938 21.425781 0.640625 20.65625 1.515625 C 19.882812 2.398438 18.96875 3.050781 17.90625 3.46875 C 16.851562 3.882812 15.679688 4.09375 14.390625 4.09375 C 13.097656 4.09375 11.742188 3.882812 10.328125 3.46875 C 9.085938 3.113281 7.738281 2.582031 6.28125 1.875 C 4.820312 1.175781 3.429688 0.347656 2.109375 -0.609375 L 3.3125 -5.421875 C 3.71875 -5.054688 4.238281 -4.660156 4.875 -4.234375 C 5.507812 -3.816406 6.203125 -3.394531 6.953125 -2.96875 C 7.710938 -2.550781 8.5 -2.160156 9.3125 -1.796875 C 10.125 -1.441406 10.90625 -1.15625 11.65625 -0.9375 Z M 11.65625 -0.9375 "/></g></g></g><g fill="#ffffff" fill-opacity="1"><g transform="translate(211.514221, 49.363117)"><g><path d="M 11.53125 -5.546875 C 11.039062 -4.492188 10.757812 -3.53125 10.6875 -2.65625 C 10.613281 -1.789062 10.707031 -1.007812 10.96875 -0.3125 C 11.226562 0.382812 11.609375 0.984375 12.109375 1.484375 C 12.617188 1.984375 13.191406 2.378906 13.828125 2.671875 C 14.359375 2.921875 14.960938 3.066406 15.640625 3.109375 C 16.316406 3.160156 17.007812 3.0625 17.71875 2.8125 C 18.425781 2.570312 19.109375 2.15625 19.765625 1.5625 C 20.429688 0.976562 21.007812 0.179688 21.5 -0.828125 C 21.875 -1.546875 22.269531 -2.335938 22.6875 -3.203125 C 23.101562 -4.078125 23.632812 -5.210938 24.28125 -6.609375 C 25.09375 -8.359375 25.882812 -10.097656 26.65625 -11.828125 C 27.4375 -13.566406 28.21875 -15.367188 29 -17.234375 L 34.390625 -15.15625 C 33.972656 -14.46875 33.566406 -13.742188 33.171875 -12.984375 C 32.785156 -12.234375 32.375 -11.40625 31.9375 -10.5 C 31.507812 -9.59375 31.019531 -8.570312 30.46875 -7.4375 C 29.925781 -6.3125 29.316406 -5.019531 28.640625 -3.5625 L 26.4375 1.203125 C 25.726562 2.710938 24.828125 3.929688 23.734375 4.859375 C 22.640625 5.796875 21.441406 6.457031 20.140625 6.84375 C 18.847656 7.226562 17.492188 7.351562 16.078125 7.21875 C 14.660156 7.082031 13.28125 6.703125 11.9375 6.078125 C 10.601562 5.453125 9.453125 4.648438 8.484375 3.671875 C 7.515625 2.691406 6.785156 1.59375 6.296875 0.375 C 5.816406 -0.84375 5.597656 -2.160156 5.640625 -3.578125 C 5.679688 -4.992188 6.050781 -6.445312 6.75 -7.9375 C 7.070312 -8.644531 7.453125 -9.4375 7.890625 -10.3125 C 8.328125 -11.195312 8.835938 -12.265625 9.421875 -13.515625 C 10.234375 -15.265625 11.023438 -17.003906 11.796875 -18.734375 C 12.578125 -20.460938 13.351562 -22.257812 14.125 -24.125 L 19.546875 -22.0625 C 19.128906 -21.363281 18.722656 -20.632812 18.328125 -19.875 C 17.929688 -19.125 17.507812 -18.296875 17.0625 -17.390625 C 16.625 -16.492188 16.140625 -15.476562 15.609375 -14.34375 C 15.078125 -13.207031 14.472656 -11.910156 13.796875 -10.453125 Z M 11.53125 -5.546875 "/></g></g></g><g fill="#ffffff" fill-opacity="1"><g transform="translate(234.17846, 59.696116)"><g><path d="M 27.75 3.3125 C 27.488281 3.582031 27.226562 3.867188 26.96875 4.171875 C 26.707031 4.484375 26.4375 4.828125 26.15625 5.203125 C 25.875 5.585938 25.5625 6.019531 25.21875 6.5 C 24.875 6.976562 24.488281 7.53125 24.0625 8.15625 C 23.175781 9.4375 22.445312 10.5 21.875 11.34375 C 21.3125 12.195312 20.769531 13.050781 20.25 13.90625 L 18.4375 13.265625 L 18.625 10.453125 C 17.332031 10.410156 15.925781 10.144531 14.40625 9.65625 C 12.882812 9.164062 11.476562 8.476562 10.1875 7.59375 C 9.007812 6.789062 7.972656 5.863281 7.078125 4.8125 C 6.179688 3.769531 5.585938 2.554688 5.296875 1.171875 C 5.015625 -0.210938 5.113281 -1.800781 5.59375 -3.59375 C 6.070312 -5.382812 7.101562 -7.429688 8.6875 -9.734375 C 11.707031 -14.128906 14.867188 -16.765625 18.171875 -17.640625 C 21.484375 -18.515625 24.863281 -17.769531 28.3125 -15.40625 C 28.84375 -15.039062 29.3125 -14.679688 29.71875 -14.328125 C 30.132812 -13.984375 30.515625 -13.660156 30.859375 -13.359375 C 31.203125 -13.054688 31.535156 -12.757812 31.859375 -12.46875 C 32.179688 -12.175781 32.519531 -11.90625 32.875 -11.65625 C 33.226562 -11.414062 33.613281 -11.191406 34.03125 -10.984375 C 34.445312 -10.785156 34.925781 -10.601562 35.46875 -10.4375 L 30.578125 -2.546875 L 26.578125 -4.640625 C 26.710938 -4.785156 26.828125 -4.929688 26.921875 -5.078125 C 27.023438 -5.222656 27.132812 -5.367188 27.25 -5.515625 C 27.644531 -6.097656 27.96875 -6.691406 28.21875 -7.296875 C 28.46875 -7.898438 28.585938 -8.503906 28.578125 -9.109375 C 28.578125 -9.722656 28.40625 -10.328125 28.0625 -10.921875 C 27.71875 -11.515625 27.160156 -12.078125 26.390625 -12.609375 C 22.171875 -15.503906 17.9375 -13.863281 13.6875 -7.6875 C 12.664062 -6.195312 11.925781 -4.84375 11.46875 -3.625 C 11.007812 -2.40625 10.800781 -1.289062 10.84375 -0.28125 C 10.882812 0.726562 11.171875 1.640625 11.703125 2.453125 C 12.234375 3.273438 12.972656 4.015625 13.921875 4.671875 C 14.722656 5.210938 15.554688 5.617188 16.421875 5.890625 C 17.296875 6.160156 18.21875 6.351562 19.1875 6.46875 L 21.484375 3.15625 L 17.265625 0.578125 L 19.046875 -2.65625 Z M 27.75 3.3125 "/></g></g></g><g fill="#ffffff" fill-opacity="1"><g transform="translate(254.156923, 73.190497)"><g><path d="M 0.015625 0.671875 C 2.421875 -0.773438 4.75 -2.140625 7 -3.421875 C 9.257812 -4.703125 11.492188 -5.90625 13.703125 -7.03125 C 15.910156 -8.15625 18.128906 -9.210938 20.359375 -10.203125 C 22.597656 -11.191406 24.882812 -12.117188 27.21875 -12.984375 L 31.1875 -9.84375 C 30.414062 -7.488281 29.582031 -5.1875 28.6875 -2.9375 C 27.800781 -0.695312 26.835938 1.550781 25.796875 3.8125 C 24.765625 6.070312 23.644531 8.359375 22.4375 10.671875 C 21.238281 12.984375 19.953125 15.382812 18.578125 17.875 L 14.296875 14.40625 C 15.003906 13.125 15.722656 11.832031 16.453125 10.53125 C 17.179688 9.238281 17.914062 7.9375 18.65625 6.625 L 11.46875 -0.28125 C 10.28125 0.40625 9.09375 1.109375 7.90625 1.828125 C 6.726562 2.554688 5.535156 3.335938 4.328125 4.171875 Z M 25.90625 -7.953125 C 22.125 -6.273438 18.410156 -4.375 14.765625 -2.25 L 20.5 3.265625 C 21.476562 1.390625 22.425781 -0.484375 23.34375 -2.359375 C 24.257812 -4.234375 25.113281 -6.097656 25.90625 -7.953125 Z M 25.90625 -7.953125 "/></g></g></g><g fill="#ffffff" fill-opacity="1"><g transform="translate(271.524344, 89.725252)"><g><path d="M 24.015625 -14.390625 C 24.910156 -13.546875 25.882812 -12.570312 26.9375 -11.46875 C 28 -10.363281 28.957031 -9.242188 29.8125 -8.109375 C 31.1875 -6.285156 32.125 -4.640625 32.625 -3.171875 C 33.125 -1.710938 33.320312 -0.421875 33.21875 0.703125 C 33.113281 1.835938 32.769531 2.8125 32.1875 3.625 C 31.601562 4.445312 30.9375 5.144531 30.1875 5.71875 C 28.832031 6.738281 27.425781 7.316406 25.96875 7.453125 C 24.519531 7.597656 23.082031 7.335938 21.65625 6.671875 C 21.832031 7.566406 21.878906 8.390625 21.796875 9.140625 C 21.710938 9.898438 21.460938 10.640625 21.046875 11.359375 C 20.640625 12.078125 20.0625 12.789062 19.3125 13.5 C 18.5625 14.21875 17.640625 14.988281 16.546875 15.8125 C 15.660156 16.476562 14.65625 17.1875 13.53125 17.9375 L 9.765625 13.75 C 10.523438 13.28125 11.242188 12.820312 11.921875 12.375 C 12.597656 11.9375 13.226562 11.5 13.8125 11.0625 C 14.75 10.351562 15.515625 9.65625 16.109375 8.96875 C 16.703125 8.28125 17.09375 7.5625 17.28125 6.8125 C 17.476562 6.0625 17.445312 5.269531 17.1875 4.4375 C 16.9375 3.601562 16.421875 2.671875 15.640625 1.640625 C 15.453125 1.398438 15.234375 1.125 14.984375 0.8125 C 14.734375 0.5 14.457031 0.1875 14.15625 -0.125 C 12.375 1.21875 10.765625 2.4375 9.328125 3.53125 C 7.898438 4.632812 6.503906 5.734375 5.140625 6.828125 L 1.71875 2.28125 C 2.78125 1.539062 3.710938 0.890625 4.515625 0.328125 C 5.328125 -0.222656 6.164062 -0.804688 7.03125 -1.421875 C 7.894531 -2.046875 8.859375 -2.742188 9.921875 -3.515625 C 10.984375 -4.296875 12.300781 -5.28125 13.875 -6.46875 C 15.675781 -7.832031 17.394531 -9.144531 19.03125 -10.40625 C 20.664062 -11.675781 22.328125 -13.003906 24.015625 -14.390625 Z M 27.265625 -5.515625 C 26.953125 -5.941406 26.578125 -6.363281 26.140625 -6.78125 C 25.710938 -7.207031 25.242188 -7.613281 24.734375 -8 C 23.804688 -7.363281 22.773438 -6.617188 21.640625 -5.765625 C 20.515625 -4.921875 19.160156 -3.898438 17.578125 -2.703125 L 17.15625 -2.375 C 17.488281 -1.6875 17.953125 -0.945312 18.546875 -0.15625 C 19.765625 1.457031 21.054688 2.445312 22.421875 2.8125 C 23.796875 3.175781 25.15625 2.847656 26.5 1.828125 C 27.75 0.890625 28.441406 -0.226562 28.578125 -1.53125 C 28.722656 -2.832031 28.285156 -4.160156 27.265625 -5.515625 Z M 27.265625 -5.515625 "/></g></g></g><g fill="#ffffff" fill-opacity="1"><g transform="translate(285.191406, 108.393231)"><g/></g></g></g></g><g transform="matrix(1, 0, 0, 1, 28, 230)"><g clip-path="url(#f03e381345)"><g fill="#ffffff" fill-opacity="1"><g transform="translate(8.515442, 22.567585)"><g><path d="M 37.9375 6.109375 C 37.175781 6.503906 36.40625 6.9375 35.625 7.40625 C 34.851562 7.875 34.007812 8.40625 33.09375 9 C 32.1875 9.59375 31.164062 10.253906 30.03125 10.984375 C 28.894531 11.710938 27.613281 12.550781 26.1875 13.5 C 24.84375 14.394531 23.625 15.203125 22.53125 15.921875 C 21.445312 16.640625 20.4375 17.316406 19.5 17.953125 C 18.570312 18.597656 17.6875 19.207031 16.84375 19.78125 C 16 20.351562 15.148438 20.941406 14.296875 21.546875 L 9.40625 15.0625 C 11.40625 11.5625 13.640625 7.984375 16.109375 4.328125 C 18.578125 0.679688 21.191406 -2.832031 23.953125 -6.21875 C 23.523438 -5.9375 23.007812 -5.601562 22.40625 -5.21875 C 21.8125 -4.832031 21.175781 -4.414062 20.5 -3.96875 C 19.832031 -3.53125 19.144531 -3.070312 18.4375 -2.59375 C 17.726562 -2.125 17.050781 -1.675781 16.40625 -1.25 C 15.0625 -0.351562 13.851562 0.460938 12.78125 1.203125 C 11.707031 1.941406 10.707031 2.632812 9.78125 3.28125 C 8.851562 3.9375 7.972656 4.5625 7.140625 5.15625 C 6.316406 5.75 5.472656 6.347656 4.609375 6.953125 L 1.578125 2.375 C 2.671875 1.6875 3.632812 1.09375 4.46875 0.59375 C 5.3125 0.09375 6.179688 -0.4375 7.078125 -1 C 7.984375 -1.570312 9.015625 -2.226562 10.171875 -2.96875 C 11.335938 -3.707031 12.785156 -4.648438 14.515625 -5.796875 C 16.234375 -6.941406 17.941406 -8.09375 19.640625 -9.25 C 21.335938 -10.40625 23.078125 -11.625 24.859375 -12.90625 L 30.515625 -5.953125 C 28.035156 -3.304688 25.445312 -0.226562 22.75 3.28125 C 20.050781 6.800781 17.289062 10.804688 14.46875 15.296875 C 15.5625 14.617188 16.921875 13.753906 18.546875 12.703125 C 20.179688 11.660156 22.097656 10.410156 24.296875 8.953125 C 26.015625 7.804688 27.703125 6.625 29.359375 5.40625 C 31.023438 4.195312 32.75 2.957031 34.53125 1.6875 Z M 37.9375 6.109375 "/></g></g></g><g fill="#ffffff" fill-opacity="1"><g transform="translate(26.259566, 48.770442)"><g><path d="M 27.734375 -7.328125 C 26.273438 -8.847656 24.429688 -9.390625 22.203125 -8.953125 C 19.984375 -8.515625 17.582031 -7.0625 15 -4.59375 C 12.4375 -2.125 10.835938 0.128906 10.203125 2.171875 C 9.578125 4.210938 10.078125 6.078125 11.703125 7.765625 C 12.410156 8.503906 13.25 9 14.21875 9.25 C 15.1875 9.5 16.238281 9.492188 17.375 9.234375 C 18.507812 8.984375 19.695312 8.492188 20.9375 7.765625 C 22.1875 7.035156 23.453125 6.054688 24.734375 4.828125 C 25.953125 3.648438 26.96875 2.535156 27.78125 1.484375 C 28.59375 0.429688 29.144531 -0.585938 29.4375 -1.578125 C 29.726562 -2.578125 29.742188 -3.546875 29.484375 -4.484375 C 29.222656 -5.429688 28.640625 -6.378906 27.734375 -7.328125 Z M 11.09375 -8.46875 C 12.664062 -9.976562 14.316406 -11.15625 16.046875 -12 C 17.773438 -12.851562 19.492188 -13.328125 21.203125 -13.421875 C 22.921875 -13.515625 24.582031 -13.25 26.1875 -12.625 C 27.789062 -12 29.265625 -10.988281 30.609375 -9.59375 C 31.890625 -8.25 32.800781 -6.820312 33.34375 -5.3125 C 33.894531 -3.800781 34.078125 -2.257812 33.890625 -0.6875 C 33.710938 0.875 33.191406 2.441406 32.328125 4.015625 C 31.460938 5.597656 30.273438 7.113281 28.765625 8.5625 C 27.171875 10.09375 25.488281 11.285156 23.71875 12.140625 C 21.945312 13.003906 20.191406 13.507812 18.453125 13.65625 C 16.710938 13.8125 15.023438 13.585938 13.390625 12.984375 C 11.753906 12.378906 10.28125 11.390625 8.96875 10.015625 C 7.675781 8.679688 6.773438 7.238281 6.265625 5.6875 C 5.765625 4.144531 5.617188 2.5625 5.828125 0.9375 C 6.046875 -0.6875 6.601562 -2.296875 7.5 -3.890625 C 8.394531 -5.492188 9.59375 -7.019531 11.09375 -8.46875 Z M 11.09375 -8.46875 "/></g></g></g><g fill="#ffffff" fill-opacity="1"><g transform="translate(47.085778, 69.519554)"><g/></g></g><g fill="#ffffff" fill-opacity="1"><g transform="translate(54.740375, 76.361449)"><g><path d="M 0.140625 0.671875 C 2.234375 -1.203125 4.269531 -2.972656 6.25 -4.640625 C 8.238281 -6.316406 10.210938 -7.914062 12.171875 -9.4375 C 14.128906 -10.957031 16.113281 -12.40625 18.125 -13.78125 C 20.144531 -15.164062 22.21875 -16.503906 24.34375 -17.796875 L 28.828125 -15.4375 C 28.503906 -12.976562 28.113281 -10.566406 27.65625 -8.203125 C 27.195312 -5.835938 26.664062 -3.445312 26.0625 -1.03125 C 25.46875 1.382812 24.789062 3.84375 24.03125 6.34375 C 23.28125 8.84375 22.457031 11.4375 21.5625 14.125 L 16.703125 11.53125 C 17.171875 10.125 17.640625 8.710938 18.109375 7.296875 C 18.578125 5.890625 19.054688 4.476562 19.546875 3.0625 L 11.21875 -2.40625 C 10.164062 -1.5 9.125 -0.582031 8.09375 0.34375 C 7.070312 1.269531 6.050781 2.253906 5.03125 3.296875 Z M 23.984375 -12.609375 C 20.585938 -10.265625 17.289062 -7.710938 14.09375 -4.953125 L 20.75 -0.59375 C 21.351562 -2.601562 21.9375 -4.613281 22.5 -6.625 C 23.0625 -8.644531 23.554688 -10.640625 23.984375 -12.609375 Z M 23.984375 -12.609375 "/></g></g></g><g fill="#ffffff" fill-opacity="1"><g transform="translate(79.022276, 92.047876)"><g><path d="M 13.859375 -24.34375 C 14.929688 -24.101562 16.222656 -23.753906 17.734375 -23.296875 C 19.242188 -22.835938 20.863281 -22.234375 22.59375 -21.484375 C 24.539062 -20.628906 26.144531 -19.570312 27.40625 -18.3125 C 28.664062 -17.050781 29.582031 -15.632812 30.15625 -14.0625 C 30.726562 -12.488281 30.945312 -10.789062 30.8125 -8.96875 C 30.6875 -7.144531 30.207031 -5.273438 29.375 -3.359375 C 28.488281 -1.335938 27.359375 0.390625 25.984375 1.828125 C 24.609375 3.265625 23.070312 4.359375 21.375 5.109375 C 19.6875 5.859375 17.890625 6.234375 15.984375 6.234375 C 14.085938 6.234375 12.148438 5.804688 10.171875 4.953125 C 8.472656 4.210938 6.984375 3.507812 5.703125 2.84375 C 4.421875 2.1875 3.394531 1.617188 2.625 1.140625 C 3.175781 -0.0351562 3.664062 -1.0625 4.09375 -1.9375 C 4.519531 -2.820312 4.953125 -3.742188 5.390625 -4.703125 C 5.835938 -5.671875 6.347656 -6.78125 6.921875 -8.03125 C 7.492188 -9.28125 8.195312 -10.859375 9.03125 -12.765625 C 9.851562 -14.648438 10.660156 -16.539062 11.453125 -18.4375 C 12.253906 -20.332031 13.054688 -22.300781 13.859375 -24.34375 Z M 20.625 -18.375 C 20.207031 -18.5625 19.738281 -18.71875 19.21875 -18.84375 C 18.695312 -18.96875 18.171875 -19.070312 17.640625 -19.15625 C 17.066406 -17.988281 16.457031 -16.664062 15.8125 -15.1875 C 15.175781 -13.707031 14.394531 -11.910156 13.46875 -9.796875 C 12.507812 -7.597656 11.679688 -5.695312 10.984375 -4.09375 C 10.285156 -2.5 9.644531 -1 9.0625 0.40625 C 9.457031 0.882812 9.96875 1.257812 10.59375 1.53125 C 11.851562 2.082031 13.113281 2.398438 14.375 2.484375 C 15.644531 2.566406 16.875 2.351562 18.0625 1.84375 C 19.257812 1.332031 20.382812 0.503906 21.4375 -0.640625 C 22.5 -1.785156 23.445312 -3.316406 24.28125 -5.234375 C 25.09375 -7.109375 25.59375 -8.742188 25.78125 -10.140625 C 25.96875 -11.535156 25.878906 -12.757812 25.515625 -13.8125 C 25.148438 -14.863281 24.546875 -15.753906 23.703125 -16.484375 C 22.867188 -17.210938 21.84375 -17.84375 20.625 -18.375 Z M 20.625 -18.375 "/></g></g></g><g fill="#ffffff" fill-opacity="1"><g transform="translate(106.351949, 103.702997)"><g><path d="M 9.5 -26.34375 C 10.59375 -26.289062 11.921875 -26.171875 13.484375 -25.984375 C 15.054688 -25.796875 16.757812 -25.476562 18.59375 -25.03125 C 20.65625 -24.53125 22.410156 -23.765625 23.859375 -22.734375 C 25.316406 -21.703125 26.460938 -20.457031 27.296875 -19 C 28.140625 -17.550781 28.648438 -15.921875 28.828125 -14.109375 C 29.003906 -12.296875 28.84375 -10.375 28.34375 -8.34375 C 27.820312 -6.195312 27.003906 -4.296875 25.890625 -2.640625 C 24.785156 -0.984375 23.460938 0.351562 21.921875 1.375 C 20.390625 2.394531 18.6875 3.070312 16.8125 3.40625 C 14.945312 3.738281 12.960938 3.648438 10.859375 3.140625 C 9.066406 2.703125 7.476562 2.269531 6.09375 1.84375 C 4.71875 1.414062 3.613281 1.023438 2.78125 0.671875 C 3.113281 -0.566406 3.414062 -1.65625 3.6875 -2.59375 C 3.957031 -3.539062 4.226562 -4.523438 4.5 -5.546875 C 4.78125 -6.578125 5.097656 -7.757812 5.453125 -9.09375 C 5.804688 -10.425781 6.226562 -12.097656 6.71875 -14.109375 C 7.207031 -16.117188 7.679688 -18.125 8.140625 -20.125 C 8.597656 -22.125 9.050781 -24.195312 9.5 -26.34375 Z M 17.1875 -21.640625 C 16.738281 -21.742188 16.25 -21.8125 15.71875 -21.84375 C 15.1875 -21.882812 14.648438 -21.898438 14.109375 -21.890625 C 13.742188 -20.648438 13.367188 -19.242188 12.984375 -17.671875 C 12.609375 -16.109375 12.148438 -14.203125 11.609375 -11.953125 C 11.035156 -9.617188 10.539062 -7.601562 10.125 -5.90625 C 9.71875 -4.21875 9.34375 -2.628906 9 -1.140625 C 9.476562 -0.742188 10.046875 -0.46875 10.703125 -0.3125 C 12.035156 0.0195312 13.332031 0.117188 14.59375 -0.015625 C 15.851562 -0.148438 17.023438 -0.566406 18.109375 -1.265625 C 19.203125 -1.972656 20.171875 -2.976562 21.015625 -4.28125 C 21.859375 -5.582031 22.523438 -7.253906 23.015625 -9.296875 C 23.503906 -11.273438 23.71875 -12.972656 23.65625 -14.390625 C 23.601562 -15.804688 23.3125 -17 22.78125 -17.96875 C 22.25 -18.9375 21.503906 -19.710938 20.546875 -20.296875 C 19.585938 -20.878906 18.46875 -21.328125 17.1875 -21.640625 Z M 17.1875 -21.640625 "/></g></g></g><g fill="#ffffff" fill-opacity="1"><g transform="translate(135.055202, 110.308946)"><g><path d="M 19.890625 -10.859375 L 9.4375 -11.71875 C 9.289062 -10.03125 9.160156 -8.492188 9.046875 -7.109375 C 8.929688 -5.734375 8.835938 -4.441406 8.765625 -3.234375 L 21.1875 -2.21875 L 20.859375 1.71875 L 2.84375 0.234375 C 2.976562 -1.054688 3.109375 -2.1875 3.234375 -3.15625 C 3.359375 -4.125 3.476562 -5.132812 3.59375 -6.1875 C 3.707031 -7.25 3.832031 -8.460938 3.96875 -9.828125 C 4.101562 -11.191406 4.257812 -12.910156 4.4375 -14.984375 C 4.601562 -17.035156 4.765625 -19.15625 4.921875 -21.34375 C 5.078125 -23.539062 5.203125 -25.722656 5.296875 -27.890625 L 22.4375 -26.484375 L 22.109375 -22.546875 L 10.484375 -23.5 C 10.347656 -22.457031 10.222656 -21.269531 10.109375 -19.9375 C 10.003906 -18.613281 9.878906 -17.101562 9.734375 -15.40625 L 20.1875 -14.546875 Z M 19.890625 -10.859375 "/></g></g></g><g fill="#ffffff" fill-opacity="1"><g transform="translate(159.610555, 112.341941)"><g><path d="M 0.921875 -27.984375 C 1.972656 -28.273438 3.273438 -28.570312 4.828125 -28.875 C 6.378906 -29.175781 8.097656 -29.394531 9.984375 -29.53125 C 12.097656 -29.6875 14.003906 -29.5 15.703125 -28.96875 C 17.410156 -28.4375 18.882812 -27.609375 20.125 -26.484375 C 21.375 -25.359375 22.363281 -23.960938 23.09375 -22.296875 C 23.820312 -20.628906 24.265625 -18.75 24.421875 -16.65625 C 24.585938 -14.457031 24.394531 -12.398438 23.84375 -10.484375 C 23.289062 -8.566406 22.441406 -6.882812 21.296875 -5.4375 C 20.148438 -3.988281 18.734375 -2.816406 17.046875 -1.921875 C 15.359375 -1.035156 13.441406 -0.507812 11.296875 -0.34375 C 9.453125 -0.207031 7.804688 -0.132812 6.359375 -0.125 C 4.921875 -0.113281 3.753906 -0.144531 2.859375 -0.21875 C 2.785156 -1.507812 2.734375 -2.640625 2.703125 -3.609375 C 2.671875 -4.585938 2.628906 -5.609375 2.578125 -6.671875 C 2.523438 -7.742188 2.457031 -8.960938 2.375 -10.328125 C 2.300781 -11.703125 2.191406 -13.421875 2.046875 -15.484375 C 1.890625 -17.546875 1.722656 -19.601562 1.546875 -21.65625 C 1.367188 -23.707031 1.160156 -25.816406 0.921875 -27.984375 Z M 9.6875 -25.890625 C 9.226562 -25.847656 8.738281 -25.757812 8.21875 -25.625 C 7.707031 -25.5 7.195312 -25.347656 6.6875 -25.171875 C 6.726562 -23.878906 6.804688 -22.425781 6.921875 -20.8125 C 7.046875 -19.207031 7.191406 -17.25 7.359375 -14.9375 C 7.535156 -12.550781 7.6875 -10.488281 7.8125 -8.75 C 7.945312 -7.007812 8.082031 -5.375 8.21875 -3.84375 C 8.789062 -3.625 9.414062 -3.539062 10.09375 -3.59375 C 11.46875 -3.695312 12.734375 -4 13.890625 -4.5 C 15.046875 -5.007812 16.03125 -5.769531 16.84375 -6.78125 C 17.664062 -7.789062 18.273438 -9.046875 18.671875 -10.546875 C 19.066406 -12.046875 19.191406 -13.835938 19.046875 -15.921875 C 18.890625 -17.960938 18.566406 -19.644531 18.078125 -20.96875 C 17.597656 -22.300781 16.953125 -23.347656 16.140625 -24.109375 C 15.328125 -24.867188 14.378906 -25.378906 13.296875 -25.640625 C 12.210938 -25.898438 11.007812 -25.984375 9.6875 -25.890625 Z M 9.6875 -25.890625 "/></g></g></g><g fill="#ffffff" fill-opacity="1"><g transform="translate(188.244452, 109.602366)"><g/></g></g><g fill="#ffffff" fill-opacity="1"><g transform="translate(198.185248, 107.998648)"><g><path d="M 9.34375 -7.015625 C 10.957031 -7.492188 12.078125 -8.132812 12.703125 -8.9375 C 13.328125 -9.738281 13.476562 -10.675781 13.15625 -11.75 C 12.957031 -12.4375 12.644531 -12.96875 12.21875 -13.34375 C 11.800781 -13.726562 11.304688 -14.019531 10.734375 -14.21875 C 10.160156 -14.414062 9.519531 -14.539062 8.8125 -14.59375 C 8.101562 -14.65625 7.382812 -14.703125 6.65625 -14.734375 C 5.289062 -14.785156 4.050781 -14.867188 2.9375 -14.984375 C 1.820312 -15.109375 0.832031 -15.34375 -0.03125 -15.6875 C -0.90625 -16.039062 -1.65625 -16.566406 -2.28125 -17.265625 C -2.90625 -17.960938 -3.394531 -18.914062 -3.75 -20.125 C -4.25 -21.800781 -4.3125 -23.265625 -3.9375 -24.515625 C -3.5625 -25.765625 -2.941406 -26.828125 -2.078125 -27.703125 C -1.210938 -28.585938 -0.195312 -29.304688 0.96875 -29.859375 C 2.132812 -30.421875 3.25 -30.859375 4.3125 -31.171875 C 5.65625 -31.566406 6.957031 -31.832031 8.21875 -31.96875 C 9.476562 -32.101562 10.585938 -32.207031 11.546875 -32.28125 L 12.875 -27.78125 C 11.53125 -27.78125 10.160156 -27.703125 8.765625 -27.546875 C 7.378906 -27.398438 6.144531 -27.164062 5.0625 -26.84375 C 3.195312 -26.300781 1.9375 -25.570312 1.28125 -24.65625 C 0.632812 -23.75 0.445312 -22.832031 0.71875 -21.90625 C 0.914062 -21.21875 1.28125 -20.695312 1.8125 -20.34375 C 2.351562 -20 2.960938 -19.742188 3.640625 -19.578125 C 4.316406 -19.410156 5.015625 -19.328125 5.734375 -19.328125 C 6.453125 -19.328125 7.109375 -19.328125 7.703125 -19.328125 C 8.703125 -19.335938 9.71875 -19.296875 10.75 -19.203125 C 11.789062 -19.109375 12.78125 -18.863281 13.71875 -18.46875 C 14.664062 -18.070312 15.507812 -17.476562 16.25 -16.6875 C 16.988281 -15.90625 17.550781 -14.847656 17.9375 -13.515625 C 18.332031 -12.171875 18.4375 -10.921875 18.25 -9.765625 C 18.070312 -8.617188 17.648438 -7.582031 16.984375 -6.65625 C 16.316406 -5.738281 15.4375 -4.9375 14.34375 -4.25 C 13.257812 -3.5625 12.007812 -3.007812 10.59375 -2.59375 C 9.351562 -2.226562 7.925781 -1.953125 6.3125 -1.765625 C 4.695312 -1.578125 3.078125 -1.539062 1.453125 -1.65625 L -0.09375 -6.34375 C 0.4375 -6.257812 1.078125 -6.207031 1.828125 -6.1875 C 2.585938 -6.175781 3.398438 -6.191406 4.265625 -6.234375 C 5.140625 -6.285156 6.015625 -6.375 6.890625 -6.5 C 7.773438 -6.625 8.59375 -6.796875 9.34375 -7.015625 Z M 9.34375 -7.015625 "/></g></g></g><g fill="#ffffff" fill-opacity="1"><g transform="translate(222.164928, 100.95502)"><g><path d="M 3.078125 -12.421875 C 3.578125 -11.367188 4.140625 -10.535156 4.765625 -9.921875 C 5.398438 -9.316406 6.066406 -8.890625 6.765625 -8.640625 C 7.460938 -8.398438 8.164062 -8.3125 8.875 -8.375 C 9.59375 -8.445312 10.265625 -8.632812 10.890625 -8.9375 C 11.429688 -9.1875 11.929688 -9.554688 12.390625 -10.046875 C 12.859375 -10.535156 13.222656 -11.132812 13.484375 -11.84375 C 13.753906 -12.550781 13.867188 -13.34375 13.828125 -14.21875 C 13.796875 -15.101562 13.550781 -16.054688 13.09375 -17.078125 C 12.769531 -17.828125 12.40625 -18.640625 12 -19.515625 C 11.601562 -20.398438 11.078125 -21.53125 10.421875 -22.90625 C 9.585938 -24.65625 8.75 -26.378906 7.90625 -28.078125 C 7.0625 -29.785156 6.175781 -31.535156 5.25 -33.328125 L 10.28125 -36.15625 C 10.550781 -35.394531 10.847656 -34.617188 11.171875 -33.828125 C 11.503906 -33.046875 11.878906 -32.195312 12.296875 -31.28125 C 12.722656 -30.375 13.195312 -29.347656 13.71875 -28.203125 C 14.238281 -27.066406 14.847656 -25.773438 15.546875 -24.328125 L 17.796875 -19.59375 C 18.515625 -18.082031 18.878906 -16.609375 18.890625 -15.171875 C 18.898438 -13.734375 18.644531 -12.390625 18.125 -11.140625 C 17.601562 -9.890625 16.832031 -8.765625 15.8125 -7.765625 C 14.800781 -6.765625 13.628906 -5.945312 12.296875 -5.3125 C 10.960938 -4.675781 9.609375 -4.300781 8.234375 -4.1875 C 6.859375 -4.070312 5.546875 -4.210938 4.296875 -4.609375 C 3.046875 -5.015625 1.894531 -5.6875 0.84375 -6.625 C -0.207031 -7.5625 -1.085938 -8.773438 -1.796875 -10.265625 C -2.128906 -10.960938 -2.492188 -11.757812 -2.890625 -12.65625 C -3.296875 -13.5625 -3.796875 -14.632812 -4.390625 -15.875 C -5.222656 -17.625 -6.054688 -19.347656 -6.890625 -21.046875 C -7.722656 -22.742188 -8.609375 -24.488281 -9.546875 -26.28125 L -4.5 -29.125 C -4.238281 -28.351562 -3.941406 -27.578125 -3.609375 -26.796875 C -3.285156 -26.015625 -2.914062 -25.164062 -2.5 -24.25 C -2.09375 -23.332031 -1.617188 -22.304688 -1.078125 -21.171875 C -0.546875 -20.035156 0.0664062 -18.742188 0.765625 -17.296875 Z M 3.078125 -12.421875 "/></g></g></g><g fill="#ffffff" fill-opacity="1"><g transform="translate(249.122875, 87.846361)"><g><path d="M 12.75 -24.890625 C 12.894531 -24.535156 13.066406 -24.1875 13.265625 -23.84375 C 13.472656 -23.5 13.703125 -23.125 13.953125 -22.71875 C 14.210938 -22.320312 14.507812 -21.878906 14.84375 -21.390625 C 15.175781 -20.910156 15.554688 -20.363281 15.984375 -19.75 C 16.890625 -18.476562 17.640625 -17.425781 18.234375 -16.59375 C 18.835938 -15.757812 19.445312 -14.953125 20.0625 -14.171875 L 18.84375 -12.71875 L 16.25 -13.84375 C 15.769531 -12.65625 15.035156 -11.429688 14.046875 -10.171875 C 13.066406 -8.910156 11.9375 -7.832031 10.65625 -6.9375 C 9.488281 -6.113281 8.257812 -5.457031 6.96875 -4.96875 C 5.6875 -4.488281 4.34375 -4.359375 2.9375 -4.578125 C 1.539062 -4.796875 0.0859375 -5.4375 -1.421875 -6.5 C -2.929688 -7.5625 -4.492188 -9.238281 -6.109375 -11.53125 C -9.179688 -15.882812 -10.554688 -19.757812 -10.234375 -23.15625 C -9.910156 -26.5625 -8.039062 -29.46875 -4.625 -31.875 C -4.101562 -32.25 -3.601562 -32.566406 -3.125 -32.828125 C -2.65625 -33.097656 -2.222656 -33.34375 -1.828125 -33.5625 C -1.429688 -33.789062 -1.039062 -34.003906 -0.65625 -34.203125 C -0.269531 -34.398438 0.101562 -34.628906 0.46875 -34.890625 C 0.8125 -35.128906 1.148438 -35.410156 1.484375 -35.734375 C 1.816406 -36.054688 2.15625 -36.441406 2.5 -36.890625 L 8.21875 -29.5625 L 4.859375 -26.546875 C 4.773438 -26.710938 4.679688 -26.863281 4.578125 -27 C 4.472656 -27.144531 4.367188 -27.296875 4.265625 -27.453125 C 3.859375 -28.023438 3.414062 -28.535156 2.9375 -28.984375 C 2.457031 -29.429688 1.929688 -29.757812 1.359375 -29.96875 C 0.785156 -30.175781 0.160156 -30.21875 -0.515625 -30.09375 C -1.191406 -29.976562 -1.910156 -29.648438 -2.671875 -29.109375 C -6.847656 -26.160156 -6.773438 -21.625 -2.453125 -15.5 C -1.410156 -14.03125 -0.398438 -12.863281 0.578125 -12 C 1.554688 -11.144531 2.523438 -10.566406 3.484375 -10.265625 C 4.453125 -9.960938 5.410156 -9.914062 6.359375 -10.125 C 7.316406 -10.332031 8.265625 -10.769531 9.203125 -11.4375 C 9.992188 -12 10.664062 -12.640625 11.21875 -13.359375 C 11.78125 -14.078125 12.285156 -14.875 12.734375 -15.75 L 10.40625 -19.046875 L 6.515625 -16.015625 L 4.125 -18.796875 Z M 12.75 -24.890625 "/></g></g></g><g fill="#ffffff" fill-opacity="1"><g transform="translate(272.746635, 70.89162)"><g><path d="M 0.6875 0 C -0.707031 -2.4375 -2.019531 -4.796875 -3.25 -7.078125 C -4.476562 -9.359375 -5.632812 -11.617188 -6.71875 -13.859375 C -7.800781 -16.097656 -8.804688 -18.34375 -9.734375 -20.59375 C -10.671875 -22.84375 -11.550781 -25.148438 -12.375 -27.515625 L -9.140625 -31.40625 C -6.804688 -30.582031 -4.523438 -29.703125 -2.296875 -28.765625 C -0.0664062 -27.828125 2.160156 -26.8125 4.390625 -25.71875 C 6.628906 -24.632812 8.894531 -23.460938 11.1875 -22.203125 C 13.476562 -20.953125 15.84375 -19.609375 18.28125 -18.171875 L 14.734375 -13.96875 C 13.460938 -14.707031 12.1875 -15.453125 10.90625 -16.203125 C 9.625 -16.960938 8.335938 -17.722656 7.046875 -18.484375 L -0.03125 -11.46875 C 0.632812 -10.257812 1.316406 -9.054688 2.015625 -7.859375 C 2.710938 -6.660156 3.460938 -5.453125 4.265625 -4.234375 Z M -7.375 -26.078125 C -5.78125 -22.265625 -3.960938 -18.507812 -1.921875 -14.8125 L 3.71875 -20.40625 C 1.875 -21.425781 0.0234375 -22.414062 -1.828125 -23.375 C -3.679688 -24.34375 -5.53125 -25.242188 -7.375 -26.078125 Z M -7.375 -26.078125 "/></g></g></g><g fill="#ffffff" fill-opacity="1"><g transform="translate(292.971768, 50.416081)"><g><path d="M -20.796875 -18.75 C -20.265625 -19.851562 -19.625 -21.070312 -18.875 -22.40625 C -18.125 -23.738281 -17.328125 -24.984375 -16.484375 -26.140625 C -15.148438 -27.992188 -13.859375 -29.367188 -12.609375 -30.265625 C -11.359375 -31.171875 -10.175781 -31.738281 -9.0625 -31.96875 C -7.957031 -32.195312 -6.925781 -32.148438 -5.96875 -31.828125 C -5.007812 -31.515625 -4.148438 -31.082031 -3.390625 -30.53125 C -2.015625 -29.539062 -1.039062 -28.367188 -0.46875 -27.015625 C 0.09375 -25.660156 0.253906 -24.207031 0.015625 -22.65625 C 0.828125 -23.101562 1.609375 -23.390625 2.359375 -23.515625 C 3.109375 -23.648438 3.882812 -23.628906 4.6875 -23.453125 C 5.488281 -23.273438 6.34375 -22.929688 7.25 -22.421875 C 8.15625 -21.910156 9.164062 -21.253906 10.28125 -20.453125 C 11.175781 -19.804688 12.140625 -19.054688 13.171875 -18.203125 L 10.28125 -13.375 C 9.601562 -13.957031 8.953125 -14.507812 8.328125 -15.03125 C 7.710938 -15.550781 7.109375 -16.023438 6.515625 -16.453125 C 5.554688 -17.140625 4.660156 -17.664062 3.828125 -18.03125 C 3.003906 -18.394531 2.207031 -18.554688 1.4375 -18.515625 C 0.664062 -18.484375 -0.078125 -18.222656 -0.796875 -17.734375 C -1.515625 -17.253906 -2.253906 -16.488281 -3.015625 -15.4375 C -3.191406 -15.195312 -3.390625 -14.910156 -3.609375 -14.578125 C -3.835938 -14.242188 -4.054688 -13.882812 -4.265625 -13.5 C -2.453125 -12.1875 -0.816406 -11.007812 0.640625 -9.96875 C 2.109375 -8.925781 3.566406 -7.910156 5.015625 -6.921875 L 1.671875 -2.3125 C 0.660156 -3.113281 -0.226562 -3.816406 -1 -4.421875 C -1.769531 -5.035156 -2.578125 -5.664062 -3.421875 -6.3125 C -4.265625 -6.957031 -5.210938 -7.671875 -6.265625 -8.453125 C -7.328125 -9.234375 -8.65625 -10.203125 -10.25 -11.359375 C -12.082031 -12.679688 -13.84375 -13.9375 -15.53125 -15.125 C -17.21875 -16.320312 -18.972656 -17.53125 -20.796875 -18.75 Z M -13.28125 -24.453125 C -13.59375 -24.023438 -13.882812 -23.539062 -14.15625 -23 C -14.425781 -22.457031 -14.671875 -21.890625 -14.890625 -21.296875 C -14.015625 -20.597656 -13.003906 -19.832031 -11.859375 -19 C -10.710938 -18.175781 -9.335938 -17.179688 -7.734375 -16.015625 L -7.296875 -15.703125 C -6.734375 -16.222656 -6.160156 -16.882812 -5.578125 -17.6875 C -4.398438 -19.320312 -3.835938 -20.84375 -3.890625 -22.25 C -3.941406 -23.664062 -4.648438 -24.867188 -6.015625 -25.859375 C -7.285156 -26.773438 -8.5625 -27.113281 -9.84375 -26.875 C -11.132812 -26.632812 -12.28125 -25.828125 -13.28125 -24.453125 Z M -13.28125 -24.453125 "/></g></g></g><g fill="#ffffff" fill-opacity="1"><g transform="translate(307.964804, 28.840431)"><g/></g></g></g></g><g clip-path="url(#b9cbce482f)"><g clip-path="url(#8d4aaa3a91)"><g transform="matrix(1, 0, 0, 1, 66, 62)"><g clip-path="url(#2aef0721bd)"><g clip-path="url(#e51ba216bf)"><g clip-path="url(#bb1d5b9d5b)"><path fill="#ffffff" d="M 0.8125 0.429688 L 242.1875 0.429688 L 242.1875 241.804688 L 0.8125 241.804688 Z M 0.8125 0.429688 " fill-opacity="1" fill-rule="nonzero"/></g></g></g></g></g></g><g clip-path="url(#25542f9668)"><g clip-path="url(#935afede04)"><g transform="matrix(1, 0, 0, 1, 230, 94)"><g clip-path="url(#2da1001255)"><g clip-path="url(#e02c1c43ed)"><g clip-path="url(#c776c9ef1d)"><path fill="#ffffff" d="M 155.953125 0.230469 L 155.953125 178.253906 L 0.410156 178.253906 L 0.410156 0.230469 Z M 155.953125 0.230469 " fill-opacity="1" fill-rule="nonzero"/></g></g></g></g></g></g><g clip-path="url(#33d28de036)"><g clip-path="url(#155a2ddc90)"><g transform="matrix(1, 0, 0, 1, 0, 98)"><g clip-path="url(#4c92a17671)"><g clip-path="url(#d6793b0fe3)"><g clip-path="url(#4bd6ed855f)"><path fill="#ffffff" d="M -10.953125 178.375 L -10.953125 0.351562 L 144.589844 0.351562 L 144.589844 178.375 Z M -10.953125 178.375 " fill-opacity="1" fill-rule="nonzero"/></g></g></g></g></g></g><path fill="#458c62" d="M 112.882812 212.515625 C 111.984375 212.515625 111.082031 212.15625 110.453125 211.527344 C 109.464844 210.539062 109.195312 209.097656 109.691406 207.839844 L 125.242188 167.785156 C 125.605469 166.886719 126.324219 166.167969 127.222656 165.808594 L 164.984375 151.152344 C 166.78125 150.480469 168.757812 151.332031 169.433594 153.132812 C 169.703125 153.761719 169.746094 154.433594 169.613281 155.066406 C 170.421875 156.007812 170.738281 157.355469 170.242188 158.617188 L 156.171875 194.804688 C 155.8125 195.703125 155.09375 196.421875 154.195312 196.78125 L 114.140625 212.335938 C 113.734375 212.425781 113.285156 212.515625 112.882812 212.515625 Z M 131.089844 171.652344 L 118.90625 202.984375 L 150.238281 190.800781 L 162.421875 159.46875 Z M 131.089844 171.652344 " fill-opacity="1" fill-rule="nonzero"/><path fill="#458c62" d="M 147.902344 247.535156 C 147 247.535156 146.101562 247.175781 145.472656 246.542969 L 110.453125 211.527344 C 109.105469 210.175781 109.105469 207.976562 110.453125 206.625 C 111.804688 205.277344 114.003906 205.277344 115.355469 206.625 L 148.753906 240.027344 L 181.121094 226.496094 C 182.875 225.777344 184.898438 226.585938 185.617188 228.339844 C 186.335938 230.09375 185.527344 232.113281 183.773438 232.835938 L 149.292969 247.265625 C 148.800781 247.445312 148.351562 247.535156 147.902344 247.535156 Z M 147.902344 247.535156 " fill-opacity="1" fill-rule="nonzero"/><path fill="#458c62" d="M 173.03125 217.054688 C 172.128906 217.054688 171.277344 216.742188 170.601562 216.066406 L 150.507812 195.972656 C 149.160156 194.625 149.160156 192.421875 150.507812 191.074219 C 151.855469 189.722656 154.058594 189.722656 155.40625 191.074219 L 175.503906 211.167969 C 176.851562 212.515625 176.851562 214.71875 175.503906 216.066406 C 174.828125 216.695312 173.929688 217.054688 173.03125 217.054688 Z M 173.03125 217.054688 " fill-opacity="1" fill-rule="nonzero"/><path fill="#458c62" d="M 204.273438 147.960938 C 204.09375 147.960938 203.914062 147.960938 203.734375 147.917969 L 161.25 141.355469 C 159.902344 141.128906 158.78125 140.140625 158.464844 138.835938 C 158.105469 137.53125 158.554688 136.09375 159.632812 135.242188 L 193.125 108.3125 C 193.886719 107.683594 194.832031 107.460938 195.820312 107.59375 L 238.300781 114.15625 C 239.652344 114.382812 240.773438 115.371094 241.089844 116.675781 C 241.449219 117.976562 241 119.417969 239.921875 120.269531 L 206.429688 147.199219 C 205.84375 147.691406 205.082031 147.960938 204.273438 147.960938 Z M 170.109375 135.734375 L 203.328125 140.859375 L 229.535156 119.820312 L 196.316406 114.695312 Z M 170.109375 135.734375 " fill-opacity="1" fill-rule="nonzero"/><path fill="#458c62" d="M 188.089844 190.984375 C 187.953125 190.984375 187.773438 190.984375 187.640625 190.9375 L 174.199219 189.230469 C 172.804688 189.050781 171.679688 188.0625 171.320312 186.710938 L 158.464844 138.882812 C 157.96875 137.039062 159.050781 135.152344 160.890625 134.65625 C 162.734375 134.160156 164.625 135.242188 165.117188 137.082031 L 177.34375 182.710938 L 188.492188 184.148438 C 190.382812 184.375 191.730469 186.128906 191.460938 188.015625 C 191.28125 189.722656 189.796875 190.984375 188.089844 190.984375 Z M 212.363281 178.125 C 210.835938 178.125 209.441406 177.09375 209.039062 175.5625 L 200.945312 145.398438 C 200.449219 143.558594 201.53125 141.667969 203.375 141.175781 C 205.214844 140.679688 207.105469 141.757812 207.597656 143.601562 L 215.691406 173.765625 C 216.183594 175.609375 215.105469 177.496094 213.261719 177.992188 C 212.992188 178.125 212.679688 178.125 212.363281 178.125 Z M 212.363281 178.125 " fill-opacity="1" fill-rule="nonzero"/><path fill="#458c62" d="M 235.246094 180.644531 C 234.210938 180.644531 233.175781 180.195312 232.503906 179.292969 C 231.335938 177.765625 231.648438 175.609375 233.175781 174.441406 L 246.753906 164.101562 L 234.480469 118.519531 C 233.984375 116.675781 235.066406 114.785156 236.910156 114.292969 C 238.75 113.796875 240.640625 114.875 241.132812 116.71875 L 253.945312 164.550781 C 254.304688 165.898438 253.8125 167.335938 252.6875 168.191406 L 237.269531 179.925781 C 236.683594 180.417969 235.964844 180.644531 235.246094 180.644531 Z M 235.246094 180.644531 " fill-opacity="1" fill-rule="nonzero"/><path fill="#458c62" d="M 264.644531 215.75 C 264.507812 215.75 264.375 215.75 264.285156 215.75 L 221.578125 211.078125 C 220.636719 210.988281 219.734375 210.449219 219.152344 209.683594 L 193.753906 175.023438 C 192.945312 173.898438 192.855469 172.460938 193.527344 171.246094 C 194.203125 170.078125 195.550781 169.40625 196.898438 169.539062 L 239.605469 174.214844 C 240.550781 174.304688 241.449219 174.84375 242.03125 175.609375 L 267.429688 210.265625 C 268.242188 211.390625 268.332031 212.828125 267.65625 214.042969 C 266.980469 215.078125 265.859375 215.75 264.644531 215.75 Z M 223.78125 204.378906 L 257.183594 208.019531 L 237.3125 180.914062 L 203.914062 177.273438 Z M 223.78125 204.378906 " fill-opacity="1" fill-rule="nonzero"/><path fill="#458c62" d="M 197.753906 252.929688 C 196.675781 252.929688 195.6875 252.433594 195.011719 251.578125 L 169.027344 217.953125 C 168.175781 216.832031 168.085938 215.347656 168.757812 214.132812 L 193.527344 171.246094 C 194.472656 169.585938 196.585938 169.046875 198.25 169.988281 C 199.910156 170.933594 200.449219 173.046875 199.507812 174.710938 L 175.90625 215.617188 L 197.347656 243.351562 L 218.925781 205.953125 C 219.871094 204.289062 221.984375 203.75 223.648438 204.691406 C 225.308594 205.636719 225.851562 207.75 224.90625 209.414062 L 200.722656 251.21875 C 200.136719 252.210938 199.101562 252.882812 197.980469 252.929688 C 197.890625 252.929688 197.800781 252.929688 197.753906 252.929688 Z M 197.753906 252.929688 " fill-opacity="1" fill-rule="nonzero"/><path fill="#458c62" d="M 239.875 258.636719 C 239.742188 258.636719 239.558594 258.636719 239.425781 258.59375 L 197.304688 252.882812 C 196.179688 252.75 195.191406 252.027344 194.652344 250.996094 C 194.15625 249.960938 194.203125 248.746094 194.742188 247.757812 L 218.925781 205.90625 C 219.871094 204.242188 221.984375 203.703125 223.648438 204.648438 C 225.308594 205.59375 225.851562 207.707031 224.90625 209.367188 L 203.328125 246.769531 L 238.078125 251.488281 L 261.675781 210.582031 C 262.621094 208.917969 264.734375 208.378906 266.398438 209.324219 C 268.0625 210.265625 268.601562 212.378906 267.65625 214.042969 L 242.886719 256.929688 C 242.210938 258.007812 241.089844 258.636719 239.875 258.636719 Z M 239.875 258.636719 " fill-opacity="1" fill-rule="nonzero"/><g clip-path="url(#7b467e7406)"><path fill="#458c62" d="M 188.761719 289.070312 C 130.324219 289.070312 82.808594 241.554688 82.808594 183.117188 C 82.808594 124.675781 130.324219 77.160156 188.761719 77.160156 C 247.203125 77.160156 294.71875 124.675781 294.71875 183.117188 C 294.71875 241.554688 247.15625 289.070312 188.761719 289.070312 Z M 188.761719 84.082031 C 134.144531 84.082031 89.730469 128.496094 89.730469 183.117188 C 89.730469 237.734375 134.144531 282.148438 188.761719 282.148438 C 243.382812 282.148438 287.796875 237.734375 287.796875 183.117188 C 287.796875 128.496094 243.382812 84.082031 188.761719 84.082031 Z M 188.761719 84.082031 " fill-opacity="1" fill-rule="nonzero"/></g><path fill="#458c62" d="M 261.226562 259.042969 C 260.328125 259.042969 259.476562 258.683594 258.800781 258.054688 L 113.824219 113.078125 C 112.476562 111.730469 112.476562 109.527344 113.824219 108.179688 C 115.175781 106.828125 117.378906 106.828125 118.726562 108.179688 L 263.65625 253.152344 C 265.003906 254.5 265.003906 256.703125 263.65625 258.054688 C 262.980469 258.726562 262.128906 259.042969 261.226562 259.042969 Z M 261.226562 259.042969 " fill-opacity="1" fill-rule="nonzero"/></svg>