<svg xmlns="http://www.w3.org/2000/svg" xmlns:xlink="http://www.w3.org/1999/xlink" width="500" zoomAndPan="magnify" viewBox="0 0 375 374.999991" height="500" preserveAspectRatio="xMidYMid meet" version="1.0"><defs><g/><clipPath id="c2efd23c60"><path d="M 14.628906 14.628906 L 360.371094 14.628906 L 360.371094 360.371094 L 14.628906 360.371094 Z M 14.628906 14.628906 " clip-rule="nonzero"/></clipPath><clipPath id="f28c006dd7"><path d="M 187.5 14.628906 C 92.027344 14.628906 14.628906 92.027344 14.628906 187.5 C 14.628906 282.972656 92.027344 360.371094 187.5 360.371094 C 282.972656 360.371094 360.371094 282.972656 360.371094 187.5 C 360.371094 92.027344 282.972656 14.628906 187.5 14.628906 Z M 187.5 14.628906 " clip-rule="nonzero"/></clipPath><clipPath id="1b562fce98"><path d="M 0.628906 0.628906 L 346.371094 0.628906 L 346.371094 346.371094 L 0.628906 346.371094 Z M 0.628906 0.628906 " clip-rule="nonzero"/></clipPath><clipPath id="8c993b02dc"><path d="M 173.5 0.628906 C 78.027344 0.628906 0.628906 78.027344 0.628906 173.5 C 0.628906 268.972656 78.027344 346.371094 173.5 346.371094 C 268.972656 346.371094 346.371094 268.972656 346.371094 173.5 C 346.371094 78.027344 268.972656 0.628906 173.5 0.628906 Z M 173.5 0.628906 " clip-rule="nonzero"/></clipPath><clipPath id="bfd7db6b69"><rect x="0" width="347" y="0" height="347"/></clipPath><clipPath id="d9db6f4cdb"><path d="M 68.203125 68.203125 L 306.796875 68.203125 L 306.796875 306.796875 L 68.203125 306.796875 Z M 68.203125 68.203125 " clip-rule="nonzero"/></clipPath><clipPath id="79aad91140"><path d="M 187.5 68.203125 C 121.613281 68.203125 68.203125 121.613281 68.203125 187.5 C 68.203125 253.386719 121.613281 306.796875 187.5 306.796875 C 253.386719 306.796875 306.796875 253.386719 306.796875 187.5 C 306.796875 121.613281 253.386719 68.203125 187.5 68.203125 Z M 187.5 68.203125 " clip-rule="nonzero"/></clipPath><clipPath id="11effc0ab1"><path d="M 0.203125 0.203125 L 238.796875 0.203125 L 238.796875 238.796875 L 0.203125 238.796875 Z M 0.203125 0.203125 " clip-rule="nonzero"/></clipPath><clipPath id="bc5ee58165"><path d="M 119.5 0.203125 C 53.613281 0.203125 0.203125 53.613281 0.203125 119.5 C 0.203125 185.386719 53.613281 238.796875 119.5 238.796875 C 185.386719 238.796875 238.796875 185.386719 238.796875 119.5 C 238.796875 53.613281 185.386719 0.203125 119.5 0.203125 Z M 119.5 0.203125 " clip-rule="nonzero"/></clipPath><clipPath id="85dd8a2fc2"><rect x="0" width="239" y="0" height="239"/></clipPath><clipPath id="3c3b9eeede"><path d="M 65 65 L 310 65 L 310 310 L 65 310 Z M 65 65 " clip-rule="nonzero"/></clipPath><clipPath id="e60b796f5e"><path d="M 39.230469 98.1875 L 276.535156 39.300781 L 335.421875 276.601562 L 98.121094 335.488281 Z M 39.230469 98.1875 " clip-rule="nonzero"/></clipPath><clipPath id="bb13d19010"><path d="M 39.230469 98.1875 L 276.535156 39.300781 L 335.421875 276.601562 L 98.121094 335.488281 Z M 39.230469 98.1875 " clip-rule="nonzero"/></clipPath><clipPath id="d7a16c6879"><path d="M 173 170 L 194 170 L 194 177 L 173 177 Z M 173 170 " clip-rule="nonzero"/></clipPath><clipPath id="8ac05efbfc"><path d="M 39.230469 98.1875 L 276.535156 39.300781 L 335.421875 276.601562 L 98.121094 335.488281 Z M 39.230469 98.1875 " clip-rule="nonzero"/></clipPath><clipPath id="9c1c75b6c3"><path d="M 39.230469 98.1875 L 276.535156 39.300781 L 335.421875 276.601562 L 98.121094 335.488281 Z M 39.230469 98.1875 " clip-rule="nonzero"/></clipPath><clipPath id="275763efc7"><path d="M 181 198 L 203 198 L 203 205 L 181 205 Z M 181 198 " clip-rule="nonzero"/></clipPath><clipPath id="250002aefa"><path d="M 39.230469 98.1875 L 276.535156 39.300781 L 335.421875 276.601562 L 98.121094 335.488281 Z M 39.230469 98.1875 " clip-rule="nonzero"/></clipPath><clipPath id="a61de1fefc"><path d="M 39.230469 98.1875 L 276.535156 39.300781 L 335.421875 276.601562 L 98.121094 335.488281 Z M 39.230469 98.1875 " clip-rule="nonzero"/></clipPath><clipPath id="a0a68b6ffa"><path d="M 171 100 L 207 100 L 207 116 L 171 116 Z M 171 100 " clip-rule="nonzero"/></clipPath><clipPath id="6bcbb130d2"><path d="M 39.230469 98.1875 L 276.535156 39.300781 L 335.421875 276.601562 L 98.121094 335.488281 Z M 39.230469 98.1875 " clip-rule="nonzero"/></clipPath><clipPath id="e9b8f33836"><path d="M 39.230469 98.1875 L 276.535156 39.300781 L 335.421875 276.601562 L 98.121094 335.488281 Z M 39.230469 98.1875 " clip-rule="nonzero"/></clipPath><clipPath id="8875290841"><path d="M 171 119 L 207 119 L 207 135 L 171 135 Z M 171 119 " clip-rule="nonzero"/></clipPath><clipPath id="44a8921966"><path d="M 39.230469 98.1875 L 276.535156 39.300781 L 335.421875 276.601562 L 98.121094 335.488281 Z M 39.230469 98.1875 " clip-rule="nonzero"/></clipPath><clipPath id="44e7307d09"><path d="M 39.230469 98.1875 L 276.535156 39.300781 L 335.421875 276.601562 L 98.121094 335.488281 Z M 39.230469 98.1875 " clip-rule="nonzero"/></clipPath><clipPath id="3a6197467f"><path d="M 169 240 L 204 240 L 204 256 L 169 256 Z M 169 240 " clip-rule="nonzero"/></clipPath><clipPath id="5e318c7fff"><path d="M 39.230469 98.1875 L 276.535156 39.300781 L 335.421875 276.601562 L 98.121094 335.488281 Z M 39.230469 98.1875 " clip-rule="nonzero"/></clipPath><clipPath id="53e558b2e3"><path d="M 39.230469 98.1875 L 276.535156 39.300781 L 335.421875 276.601562 L 98.121094 335.488281 Z M 39.230469 98.1875 " clip-rule="nonzero"/></clipPath><clipPath id="2e973df79a"><path d="M 168 259 L 204 259 L 204 275 L 168 275 Z M 168 259 " clip-rule="nonzero"/></clipPath><clipPath id="266ec0f2eb"><path d="M 39.230469 98.1875 L 276.535156 39.300781 L 335.421875 276.601562 L 98.121094 335.488281 Z M 39.230469 98.1875 " clip-rule="nonzero"/></clipPath><clipPath id="cdb2977f6f"><path d="M 39.230469 98.1875 L 276.535156 39.300781 L 335.421875 276.601562 L 98.121094 335.488281 Z M 39.230469 98.1875 " clip-rule="nonzero"/></clipPath><clipPath id="7aec2db2f7"><path d="M 158 95 L 218 95 L 218 281 L 158 281 Z M 158 95 " clip-rule="nonzero"/></clipPath><clipPath id="46d676f354"><path d="M 39.230469 98.1875 L 276.535156 39.300781 L 335.421875 276.601562 L 98.121094 335.488281 Z M 39.230469 98.1875 " clip-rule="nonzero"/></clipPath><clipPath id="7ec0bb1ebb"><path d="M 39.230469 98.1875 L 276.535156 39.300781 L 335.421875 276.601562 L 98.121094 335.488281 Z M 39.230469 98.1875 " clip-rule="nonzero"/></clipPath><clipPath id="1a8cea160e"><path d="M 157 94 L 217 94 L 217 280 L 157 280 Z M 157 94 " clip-rule="nonzero"/></clipPath><clipPath id="07207e6ccd"><path d="M 39.230469 98.1875 L 276.535156 39.300781 L 335.421875 276.601562 L 98.121094 335.488281 Z M 39.230469 98.1875 " clip-rule="nonzero"/></clipPath><clipPath id="9bc40c1aaa"><path d="M 39.230469 98.1875 L 276.535156 39.300781 L 335.421875 276.601562 L 98.121094 335.488281 Z M 39.230469 98.1875 " clip-rule="nonzero"/></clipPath><clipPath id="5e535b90c0"><path d="M 80 80 L 295 80 L 295 295 L 80 295 Z M 80 80 " clip-rule="nonzero"/></clipPath><clipPath id="ae18a1bfde"><path d="M 39.230469 98.1875 L 276.535156 39.300781 L 335.421875 276.601562 L 98.121094 335.488281 Z M 39.230469 98.1875 " clip-rule="nonzero"/></clipPath><clipPath id="4eff231371"><path d="M 39.230469 98.1875 L 276.535156 39.300781 L 335.421875 276.601562 L 98.121094 335.488281 Z M 39.230469 98.1875 " clip-rule="nonzero"/></clipPath><clipPath id="eb388c0079"><rect x="0" width="237" y="0" height="91"/></clipPath><clipPath id="723658ccc1"><rect x="0" width="228" y="0" height="89"/></clipPath></defs><rect x="-37.5" width="450" fill="#ffffff" y="-37.499999" height="449.999989" fill-opacity="1"/><rect x="-37.5" width="450" fill="#ffffff" y="-37.499999" height="449.999989" fill-opacity="1"/><g clip-path="url(#c2efd23c60)"><g clip-path="url(#f28c006dd7)"><g transform="matrix(1, 0, 0, 1, 14, 14)"><g clip-path="url(#bfd7db6b69)"><g clip-path="url(#1b562fce98)"><g clip-path="url(#8c993b02dc)"><path fill="#0c542f" d="M 0.628906 0.628906 L 346.371094 0.628906 L 346.371094 346.371094 L 0.628906 346.371094 Z M 0.628906 0.628906 " fill-opacity="1" fill-rule="nonzero"/></g></g></g></g></g></g><g clip-path="url(#d9db6f4cdb)"><g clip-path="url(#79aad91140)"><g transform="matrix(1, 0, 0, 1, 68, 68)"><g clip-path="url(#85dd8a2fc2)"><g clip-path="url(#11effc0ab1)"><g clip-path="url(#bc5ee58165)"><path fill="#ffffff" d="M 0.203125 0.203125 L 238.796875 0.203125 L 238.796875 238.796875 L 0.203125 238.796875 Z M 0.203125 0.203125 " fill-opacity="1" fill-rule="nonzero"/></g></g></g></g></g></g><g clip-path="url(#3c3b9eeede)"><g clip-path="url(#e60b796f5e)"><g clip-path="url(#bb13d19010)"><path fill="#458c62" d="M 216.90625 306.300781 C 151.492188 322.535156 84.960938 282.457031 68.691406 216.90625 C 52.460938 151.492188 92.535156 84.960938 157.949219 68.726562 C 223.503906 52.460938 290.035156 92.535156 306.269531 157.949219 C 322.535156 223.503906 282.457031 290.035156 216.90625 306.300781 Z M 159.332031 74.292969 C 96.980469 89.765625 58.785156 153.171875 74.257812 215.523438 C 89.765625 278.015625 153.171875 316.207031 215.523438 300.734375 C 278.015625 285.226562 316.207031 221.820312 300.699219 159.332031 C 285.226562 96.980469 221.824219 58.785156 159.332031 74.292969 Z M 159.332031 74.292969 " fill-opacity="1" fill-rule="evenodd"/></g></g></g><g clip-path="url(#d7a16c6879)"><g clip-path="url(#8ac05efbfc)"><g clip-path="url(#9c1c75b6c3)"><path fill="#458c62" d="M 191.8125 176.011719 C 191.535156 176.078125 191.257812 176.148438 191.082031 176.042969 L 175.816406 175.84375 C 174.320312 175.773438 172.964844 174.480469 173.003906 172.847656 C 173.074219 171.351562 174.363281 170 176 170.035156 L 191.160156 170.410156 C 192.761719 170.308594 193.976562 171.632812 193.9375 173.265625 C 193.972656 174.589844 193.066406 175.699219 191.8125 176.011719 Z M 191.8125 176.011719 " fill-opacity="1" fill-rule="evenodd"/></g></g></g><g clip-path="url(#275763efc7)"><g clip-path="url(#250002aefa)"><g clip-path="url(#a61de1fefc)"><path fill="#458c62" d="M 200.527344 203.988281 C 200.25 204.058594 199.972656 204.125 199.660156 204.054688 L 184.667969 203.785156 C 183.035156 203.75 181.820312 202.425781 181.753906 200.964844 C 181.789062 199.328125 183.078125 197.976562 184.714844 198.011719 L 199.878906 198.386719 C 201.371094 198.460938 202.691406 199.609375 202.65625 201.246094 C 202.6875 202.566406 201.640625 203.710938 200.527344 203.988281 Z M 200.527344 203.988281 " fill-opacity="1" fill-rule="evenodd"/></g></g></g><g clip-path="url(#a0a68b6ffa)"><g clip-path="url(#6bcbb130d2)"><g clip-path="url(#e9b8f33836)"><path fill="#458c62" d="M 204.125 115.480469 C 203.984375 115.515625 203.671875 115.445312 203.394531 115.515625 L 174.148438 114.941406 C 172.652344 114.871094 171.296875 113.582031 171.371094 112.085938 C 171.40625 110.449219 172.730469 109.234375 174.332031 109.132812 L 203.578125 109.707031 C 205.074219 109.777344 206.429688 111.066406 206.390625 112.703125 C 206.285156 114.058594 205.378906 115.171875 204.125 115.480469 Z M 202.089844 106.679688 C 201.808594 106.746094 201.671875 106.78125 201.394531 106.851562 L 176.597656 106.355469 C 174.960938 106.320312 173.746094 104.996094 173.785156 103.359375 C 173.855469 101.863281 175.144531 100.511719 176.640625 100.582031 L 201.4375 101.078125 C 203.074219 101.117188 204.289062 102.4375 204.214844 103.933594 C 204.246094 105.257812 203.339844 106.367188 202.089844 106.679688 Z M 202.089844 106.679688 " fill-opacity="1" fill-rule="evenodd"/></g></g></g><g clip-path="url(#8875290841)"><g clip-path="url(#44a8921966)"><g clip-path="url(#44e7307d09)"><path fill="#458c62" d="M 201.308594 134.5 C 201.03125 134.570312 200.753906 134.640625 200.613281 134.671875 L 176.410156 134.179688 C 174.773438 134.140625 173.558594 132.816406 173.457031 131.21875 C 173.53125 129.722656 174.851562 128.507812 176.453125 128.40625 L 200.660156 128.898438 C 202.292969 128.9375 203.507812 130.261719 203.472656 131.894531 C 203.46875 133.078125 202.5625 134.191406 201.308594 134.5 Z M 203.898438 125.878906 C 203.621094 125.949219 203.34375 126.019531 203.0625 126.085938 L 174.09375 125.445312 C 172.492188 125.546875 171.277344 124.222656 171.316406 122.589844 C 171.355469 120.953125 172.675781 119.738281 174.171875 119.8125 L 203.246094 120.277344 C 204.882812 120.316406 206.097656 121.640625 206.058594 123.273438 C 206.09375 124.597656 205.152344 125.570312 203.898438 125.878906 Z M 203.898438 125.878906 " fill-opacity="1" fill-rule="evenodd"/></g></g></g><g clip-path="url(#3a6197467f)"><g clip-path="url(#5e318c7fff)"><g clip-path="url(#53e558b2e3)"><path fill="#458c62" d="M 201.238281 255.082031 C 201.101562 255.113281 200.824219 255.183594 200.542969 255.253906 L 171.886719 254.679688 C 170.253906 254.644531 169.039062 253.320312 169.074219 251.6875 C 169.148438 250.191406 170.4375 248.835938 171.929688 248.910156 L 200.726562 249.445312 C 202.222656 249.515625 203.578125 250.804688 203.503906 252.300781 C 203.398438 253.65625 202.492188 254.769531 201.238281 255.082031 Z M 198.785156 246.382812 C 198.507812 246.449219 198.230469 246.519531 198.054688 246.414062 L 174.753906 245.992188 C 173.152344 246.09375 171.9375 244.769531 171.976562 243.136719 C 171.875 241.535156 173.199219 240.320312 174.832031 240.359375 L 198.132812 240.78125 C 199.769531 240.816406 200.984375 242.140625 200.910156 243.636719 C 200.945312 244.960938 200.039062 246.070312 198.785156 246.382812 Z M 198.785156 246.382812 " fill-opacity="1" fill-rule="evenodd"/></g></g></g><g clip-path="url(#2e973df79a)"><g clip-path="url(#266ec0f2eb)"><g clip-path="url(#cdb2977f6f)"><path fill="#458c62" d="M 199.050781 274.238281 C 198.773438 274.308594 198.492188 274.378906 198.179688 274.308594 L 173.417969 273.953125 C 171.921875 273.878906 170.570312 272.589844 170.605469 270.957031 C 170.644531 269.320312 171.96875 268.105469 173.601562 268.144531 L 198.398438 268.640625 C 199.894531 268.710938 201.25 270 201.175781 271.496094 C 201.070312 272.851562 200.164062 273.964844 199.050781 274.238281 Z M 201.359375 265.6875 C 201.082031 265.757812 200.941406 265.792969 200.628906 265.722656 L 171.382812 265.148438 C 169.78125 265.25 168.566406 263.925781 168.605469 262.292969 C 168.640625 260.65625 169.964844 259.441406 171.460938 259.515625 L 200.675781 259.949219 C 202.308594 259.984375 203.523438 261.308594 203.488281 262.945312 C 203.519531 264.265625 202.613281 265.378906 201.359375 265.6875 Z M 201.359375 265.6875 " fill-opacity="1" fill-rule="evenodd"/></g></g></g><g clip-path="url(#7aec2db2f7)"><g clip-path="url(#46d676f354)"><g clip-path="url(#7ec0bb1ebb)"><path fill="#458c62" d="M 208.570312 279.855469 C 208.292969 279.925781 208.152344 279.960938 207.875 280.027344 L 195.390625 279.730469 C 194.34375 279.691406 193.476562 279.167969 192.957031 278.265625 C 192.4375 277.359375 192.4375 276.175781 193.101562 275.273438 C 196.308594 270.339844 198.09375 264.429688 198.207031 258.34375 C 198.292969 248.570312 194.242188 239.382812 186.601562 233.003906 C 184.726562 231.402344 183.023438 229.902344 181.21875 228.578125 C 176.21875 224.5 171.773438 220.875 168.058594 216.625 C 167.015625 215.40625 167.160156 213.597656 168.378906 212.558594 C 169.597656 211.515625 171.40625 211.660156 172.445312 212.878906 C 175.777344 216.777344 180.015625 220.160156 184.84375 224.132812 C 186.683594 225.597656 188.523438 227.0625 190.398438 228.664062 C 199.1875 236.085938 204.105469 246.980469 203.878906 258.5625 C 203.867188 263.882812 202.535156 269.238281 200.335938 274.066406 L 205.972656 274.148438 C 207.996094 269.210938 209.222656 264.03125 209.199219 258.570312 C 209.5 244.902344 203.160156 231.851562 192.355469 223.449219 C 191.417969 222.648438 190.515625 221.988281 189.578125 221.183594 C 184.125 217.070312 179.539062 213.480469 175.894531 208.917969 C 174.996094 207.664062 175.277344 205.824219 176.496094 204.78125 C 177.75 203.878906 179.589844 204.160156 180.492188 205.414062 C 183.582031 209.523438 187.957031 212.871094 193.027344 216.636719 C 193.964844 217.4375 194.871094 218.097656 195.945312 218.867188 C 208.207031 228.382812 215.3125 243.316406 215.007812 258.757812 C 214.925781 265.574219 213.3125 272.179688 210.554688 278.328125 C 210.171875 279.164062 209.40625 279.648438 208.570312 279.855469 Z M 163.558594 203.261719 C 162.027344 203.644531 160.464844 202.703125 160.085938 201.171875 C 159.050781 196.996094 158.464844 192.265625 158.613281 186.910156 C 158.847656 172.371094 165.515625 158.75 176.835938 149.585938 C 179.410156 147.46875 181.917969 145.664062 184.460938 144 C 193.722656 137.269531 200.515625 132.480469 200.820312 117.039062 C 200.933594 110.953125 199.34375 105.144531 196.257812 99.851562 C 195.738281 98.945312 195.773438 97.902344 196.296875 97.035156 C 196.820312 96.164062 197.726562 95.644531 198.875 95.507812 L 211.21875 95.84375 C 212.402344 95.84375 213.445312 96.472656 213.859375 97.550781 C 216.457031 103.851562 217.664062 110.496094 217.582031 117.3125 C 217.160156 140.023438 207.445312 147.308594 195.253906 156.539062 C 192.644531 158.519531 189.925781 160.667969 187.105469 162.996094 C 179.859375 168.929688 175.566406 177.824219 175.414062 187.320312 C 175.410156 188.503906 175.40625 189.683594 175.546875 190.832031 C 175.648438 192.433594 174.359375 193.789062 172.757812 193.890625 C 171.296875 193.957031 169.804688 192.703125 169.734375 191.242188 C 169.703125 189.917969 169.671875 188.597656 169.742188 187.101562 C 169.972656 176.113281 174.894531 165.582031 183.496094 158.570312 C 186.28125 156.105469 189.171875 154.058594 191.785156 152.082031 C 203.730469 143.058594 211.566406 137.125 211.949219 117.234375 C 211.921875 111.773438 211.0625 106.519531 209.226562 101.507812 L 203.453125 101.464844 C 205.566406 106.40625 206.601562 111.765625 206.59375 117.085938 C 206.144531 135.519531 197.609375 141.625 187.824219 148.632812 C 185.421875 150.261719 182.917969 152.066406 180.476562 154.148438 C 170.515625 162.234375 164.617188 174.191406 164.421875 187.09375 C 164.273438 191.855469 164.71875 196.03125 165.652344 199.789062 C 166.03125 201.320312 165.089844 202.882812 163.558594 203.261719 Z M 163.558594 203.261719 " fill-opacity="1" fill-rule="evenodd"/></g></g></g><g clip-path="url(#1a8cea160e)"><g clip-path="url(#07207e6ccd)"><g clip-path="url(#9bc40c1aaa)"><path fill="#458c62" d="M 176.816406 279.3125 C 176.679688 279.347656 176.398438 279.417969 176.085938 279.347656 L 163.636719 279.1875 C 162.453125 279.183594 161.515625 278.382812 161.101562 277.304688 C 158.539062 271.144531 157.191406 264.535156 157.414062 257.683594 C 157.578125 242.867188 164.488281 229.035156 176.085938 219.804688 C 177.339844 218.902344 179.148438 219.046875 180.222656 220.402344 C 181.125 221.65625 180.949219 223.328125 179.730469 224.367188 C 169.316406 232.417969 163.347656 244.683594 163.046875 257.761719 C 162.898438 263.117188 163.933594 268.476562 165.628906 273.519531 L 171.402344 273.566406 C 169.289062 268.625 168.253906 263.265625 168.402344 257.910156 C 168.632812 246.328125 173.9375 235.554688 183.132812 228.546875 L 184.976562 227.054688 C 186.195312 226.011719 188.039062 226.292969 188.941406 227.546875 C 189.980469 228.769531 189.699219 230.609375 188.480469 231.652344 L 186.601562 233.003906 C 178.800781 239.078125 174.261719 248.183594 174.175781 257.953125 C 174.0625 264.039062 175.511719 269.886719 178.5625 275.039062 C 179.222656 275.910156 179.222656 277.09375 178.699219 277.960938 C 178.28125 278.65625 177.652344 279.105469 176.816406 279.3125 Z M 196.492188 225.230469 C 195.378906 225.507812 194.230469 225.054688 193.433594 224.21875 C 192.53125 222.964844 192.671875 221.15625 193.925781 220.253906 C 203.191406 212.929688 210.195312 206.023438 210.574219 187.902344 C 210.582031 183.765625 210.136719 179.589844 208.996094 175.589844 C 208.613281 174.058594 209.554688 172.492188 211.054688 171.976562 C 212.582031 171.59375 214.148438 172.535156 214.527344 174.066406 C 215.804688 178.625 216.390625 183.355469 216.207031 187.980469 C 215.859375 208.605469 207.183594 217.113281 197.535156 224.675781 C 197.152344 224.917969 196.769531 225.164062 196.492188 225.230469 Z M 187.703125 218.398438 C 186.589844 218.675781 185.304688 218.257812 184.613281 217.246094 C 183.710938 215.992188 184.023438 214.289062 185.246094 213.246094 C 193.113281 207.453125 199.246094 201.796875 199.445312 187.710938 C 199.445312 186.527344 199.449219 185.34375 199.34375 184.335938 C 199.242188 182.734375 200.359375 181.277344 201.960938 181.175781 C 203.558594 181.074219 205.019531 182.1875 205.121094 183.789062 C 205.152344 185.109375 205.183594 186.433594 205.21875 187.753906 C 204.945312 204.519531 197.246094 211.597656 188.609375 217.878906 C 188.367188 218.085938 187.984375 218.332031 187.703125 218.398438 Z M 197.28125 170.664062 C 196.167969 170.941406 194.882812 170.519531 194.328125 169.476562 C 192.699219 167.074219 190.824219 164.878906 188.738281 163.03125 C 187.800781 162.230469 187.003906 161.394531 186.101562 160.734375 C 184.953125 159.6875 184.785156 157.808594 185.828125 156.664062 C 186.875 155.515625 188.613281 155.382812 189.898438 156.390625 C 190.800781 157.054688 191.601562 157.890625 192.539062 158.691406 C 195.003906 160.886719 197.261719 163.429688 198.996094 166.25 C 199.929688 167.644531 199.476562 169.382812 198.222656 170.28125 C 197.976562 170.492188 197.699219 170.558594 197.28125 170.664062 Z M 205.398438 162.886719 C 204.285156 163.164062 203.140625 162.710938 202.445312 161.699219 C 200.46875 159.089844 198.210938 156.546875 195.746094 154.351562 L 195.191406 153.898438 L 198.816406 149.453125 L 199.542969 150.007812 C 202.390625 152.554688 204.855469 155.339844 207.078125 158.335938 C 208.011719 159.726562 207.699219 161.429688 206.445312 162.332031 C 206.0625 162.574219 205.816406 162.785156 205.398438 162.886719 Z M 180.027344 154.113281 C 179.191406 154.320312 178.253906 154.109375 177.523438 153.554688 C 167.660156 145.363281 159.640625 136.863281 159.988281 116.238281 C 160.070312 109.421875 161.542969 102.851562 164.441406 96.667969 C 164.929688 95.660156 165.9375 94.964844 167.121094 94.964844 L 179.605469 95.265625 C 180.613281 95.164062 181.519531 95.828125 182.039062 96.730469 C 182.558594 97.636719 182.382812 98.714844 181.859375 99.582031 C 178.6875 104.65625 176.902344 110.566406 176.753906 116.511719 C 176.484375 130.910156 181.761719 136.101562 189.992188 142.480469 C 191.277344 143.492188 191.449219 145.371094 190.542969 146.480469 C 189.53125 147.765625 187.828125 148.042969 186.542969 147.03125 C 177.789062 140.335938 170.742188 133.371094 170.980469 116.46875 C 171.09375 110.972656 172.320312 105.792969 174.65625 100.925781 L 168.851562 100.742188 C 166.824219 105.679688 165.773438 110.960938 165.625 116.320312 C 165.417969 134.542969 171.839844 141.371094 181.148438 149.109375 C 182.292969 150.152344 182.464844 152.03125 181.558594 153.144531 C 181.105469 153.699219 180.582031 153.976562 180.027344 154.113281 Z M 180.027344 154.113281 " fill-opacity="1" fill-rule="evenodd"/></g></g></g><g clip-path="url(#5e535b90c0)"><g clip-path="url(#ae18a1bfde)"><g clip-path="url(#4eff231371)"><path fill="#458c62" d="M 213.175781 291.269531 C 178.9375 299.769531 142.714844 290.730469 116.183594 267.175781 C 115.59375 266.582031 115.28125 265.921875 115.214844 265.050781 C 115.320312 264.285156 115.5625 263.488281 116.15625 262.898438 L 265.574219 118.996094 C 266.167969 118.40625 266.863281 118.234375 267.730469 118.164062 C 268.496094 118.269531 269.191406 118.691406 269.78125 119.28125 C 280.089844 131.644531 287.335938 145.953125 291.238281 161.679688 C 305.433594 218.882812 270.378906 277.078125 213.175781 291.269531 Z M 122.414062 264.890625 C 147.210938 285.628906 180.339844 293.511719 211.792969 285.703125 C 265.933594 272.269531 299.105469 217.203125 285.667969 163.0625 C 282.214844 149.144531 275.976562 136.507812 267.300781 125.363281 Z M 108.097656 256.621094 C 107.820312 256.691406 107.542969 256.761719 107.230469 256.691406 C 106.5 256.722656 105.664062 256.339844 105.214844 255.714844 C 94.90625 243.347656 87.660156 229.042969 83.722656 213.175781 C 69.527344 155.972656 104.476562 97.953125 161.679688 83.757812 C 196.058594 75.226562 232.28125 84.261719 258.671875 107.855469 C 259.226562 108.308594 259.574219 109.109375 259.609375 109.839844 C 259.675781 110.707031 259.398438 111.367188 258.804688 111.960938 L 109.421875 256 C 109.039062 256.242188 108.515625 256.519531 108.097656 256.621094 Z M 163.0625 89.324219 C 108.921875 102.761719 75.855469 157.65625 89.289062 211.792969 C 92.746094 225.710938 98.878906 238.519531 107.691406 249.632812 L 252.546875 109.964844 C 227.75 89.230469 194.515625 81.519531 163.0625 89.324219 Z M 163.0625 89.324219 " fill-opacity="1" fill-rule="evenodd"/></g></g></g><g transform="matrix(1, 0, 0, 1, 72, 271)"><g clip-path="url(#eb388c0079)"><g fill="#ffffff" fill-opacity="1"><g transform="translate(7.800584, 36.615219)"><g><path d="M 30.890625 5.09375 C 30.566406 5.382812 30.25 5.695312 29.9375 6.03125 C 29.625 6.363281 29.300781 6.734375 28.96875 7.140625 C 28.644531 7.554688 28.273438 8.019531 27.859375 8.53125 C 27.453125 9.050781 27 9.648438 26.5 10.328125 C 25.445312 11.710938 24.578125 12.867188 23.890625 13.796875 C 23.210938 14.722656 22.566406 15.644531 21.953125 16.5625 L 19.96875 15.75 L 20.3125 12.609375 C 18.875 12.503906 17.3125 12.140625 15.625 11.515625 C 13.945312 10.890625 12.410156 10.050781 11.015625 9 C 9.742188 8.039062 8.628906 6.957031 7.671875 5.75 C 6.722656 4.539062 6.117188 3.148438 5.859375 1.578125 C 5.609375 0.015625 5.796875 -1.753906 6.421875 -3.734375 C 7.054688 -5.710938 8.316406 -7.957031 10.203125 -10.46875 C 13.796875 -15.21875 17.460938 -18 21.203125 -18.8125 C 24.953125 -19.632812 28.691406 -18.640625 32.421875 -15.828125 C 33.003906 -15.390625 33.515625 -14.960938 33.953125 -14.546875 C 34.398438 -14.128906 34.804688 -13.742188 35.171875 -13.390625 C 35.546875 -13.035156 35.90625 -12.6875 36.25 -12.34375 C 36.601562 -12.007812 36.972656 -11.703125 37.359375 -11.421875 C 37.734375 -11.128906 38.144531 -10.851562 38.59375 -10.59375 C 39.050781 -10.34375 39.578125 -10.113281 40.171875 -9.90625 L 34.296875 -1.3125 L 29.953125 -3.875 C 30.109375 -4.019531 30.242188 -4.164062 30.359375 -4.3125 C 30.472656 -4.46875 30.597656 -4.632812 30.734375 -4.8125 C 31.203125 -5.4375 31.585938 -6.082031 31.890625 -6.75 C 32.203125 -7.414062 32.375 -8.085938 32.40625 -8.765625 C 32.4375 -9.453125 32.269531 -10.132812 31.90625 -10.8125 C 31.550781 -11.5 30.957031 -12.160156 30.125 -12.796875 C 25.5625 -16.242188 20.753906 -14.613281 15.703125 -7.90625 C 14.484375 -6.289062 13.582031 -4.8125 13 -3.46875 C 12.425781 -2.125 12.140625 -0.890625 12.140625 0.234375 C 12.140625 1.359375 12.410156 2.390625 12.953125 3.328125 C 13.503906 4.265625 14.296875 5.125 15.328125 5.90625 C 16.203125 6.5625 17.117188 7.0625 18.078125 7.40625 C 19.035156 7.757812 20.054688 8.023438 21.140625 8.203125 L 23.859375 4.59375 L 19.28125 1.484375 L 21.453125 -2.03125 Z M 30.890625 5.09375 "/></g></g></g><g fill="#ffffff" fill-opacity="1"><g transform="translate(34.73383, 56.975459)"><g><path d="M 45.078125 -15.296875 C 44.128906 -13.535156 43.179688 -11.632812 42.234375 -9.59375 C 41.296875 -7.5625 40.253906 -5.253906 39.109375 -2.671875 C 38.128906 -0.441406 37.289062 1.476562 36.59375 3.09375 C 35.894531 4.71875 35.289062 6.164062 34.78125 7.4375 C 34.28125 8.71875 33.820312 9.882812 33.40625 10.9375 C 33 11.988281 32.59375 13.066406 32.1875 14.171875 L 26.65625 11.734375 C 27.175781 10.640625 27.695312 9.550781 28.21875 8.46875 C 28.75 7.382812 29.304688 6.207031 29.890625 4.9375 C 30.484375 3.664062 31.128906 2.253906 31.828125 0.703125 C 32.523438 -0.835938 33.316406 -2.613281 34.203125 -4.625 L 35.5625 -7.734375 L 37.03125 -10.1875 L 35.203125 -7.890625 C 32.890625 -5.035156 30.488281 -2.179688 28 0.671875 C 25.507812 3.523438 22.910156 6.265625 20.203125 8.890625 L 14.828125 7.125 C 14.859375 3.175781 15.097656 -0.773438 15.546875 -4.734375 C 16.003906 -8.691406 16.515625 -12.535156 17.078125 -16.265625 L 17.390625 -18.4375 L 16.859375 -16.359375 L 15.125 -12.390625 C 13.65625 -9.054688 12.378906 -6.085938 11.296875 -3.484375 C 10.222656 -0.878906 9.238281 1.503906 8.34375 3.671875 L 2.96875 1.3125 C 3.613281 0.0078125 4.179688 -1.144531 4.671875 -2.15625 C 5.171875 -3.164062 5.648438 -4.175781 6.109375 -5.1875 C 6.566406 -6.207031 7.054688 -7.289062 7.578125 -8.4375 C 8.109375 -9.59375 8.726562 -10.972656 9.4375 -12.578125 C 10.132812 -14.171875 10.765625 -15.609375 11.328125 -16.890625 C 11.890625 -18.171875 12.410156 -19.390625 12.890625 -20.546875 C 13.367188 -21.703125 13.828125 -22.8125 14.265625 -23.875 C 14.703125 -24.9375 15.148438 -26.035156 15.609375 -27.171875 L 23.25 -24.90625 C 22.394531 -20.363281 21.6875 -15.773438 21.125 -11.140625 C 20.570312 -6.503906 20.117188 -1.925781 19.765625 2.59375 C 21.273438 0.976562 22.75 -0.625 24.1875 -2.21875 C 25.632812 -3.820312 27.066406 -5.46875 28.484375 -7.15625 C 29.898438 -8.851562 31.320312 -10.613281 32.75 -12.4375 C 34.1875 -14.257812 35.628906 -16.1875 37.078125 -18.21875 Z M 45.078125 -15.296875 "/></g></g></g><g fill="#ffffff" fill-opacity="1"><g transform="translate(73.874035, 73.202472)"><g><path d="M 20.3125 -24.875 C 18.007812 -25.289062 15.992188 -24.566406 14.265625 -22.703125 C 12.535156 -20.847656 11.316406 -17.953125 10.609375 -14.015625 C 9.898438 -10.097656 9.925781 -7.007812 10.6875 -4.75 C 11.457031 -2.488281 13.132812 -1.128906 15.71875 -0.671875 C 16.84375 -0.460938 17.921875 -0.5625 18.953125 -0.96875 C 19.992188 -1.375 20.945312 -2.0625 21.8125 -3.03125 C 22.6875 -4.007812 23.445312 -5.238281 24.09375 -6.71875 C 24.738281 -8.195312 25.238281 -9.914062 25.59375 -11.875 C 25.925781 -13.738281 26.109375 -15.414062 26.140625 -16.90625 C 26.179688 -18.394531 26.007812 -19.679688 25.625 -20.765625 C 25.25 -21.859375 24.632812 -22.75 23.78125 -23.4375 C 22.925781 -24.132812 21.769531 -24.613281 20.3125 -24.875 Z M 4.484375 -14.96875 C 4.921875 -17.375 5.644531 -19.519531 6.65625 -21.40625 C 7.664062 -23.300781 8.914062 -24.859375 10.40625 -26.078125 C 11.894531 -27.304688 13.570312 -28.160156 15.4375 -28.640625 C 17.300781 -29.128906 19.300781 -29.1875 21.4375 -28.8125 C 23.476562 -28.4375 25.238281 -27.738281 26.71875 -26.71875 C 28.207031 -25.707031 29.382812 -24.4375 30.25 -22.90625 C 31.125 -21.375 31.6875 -19.601562 31.9375 -17.59375 C 32.1875 -15.59375 32.101562 -13.4375 31.6875 -11.125 C 31.25 -8.695312 30.507812 -6.507812 29.46875 -4.5625 C 28.4375 -2.625 27.175781 -1.019531 25.6875 0.25 C 24.207031 1.53125 22.53125 2.4375 20.65625 2.96875 C 18.789062 3.5 16.804688 3.578125 14.703125 3.203125 C 12.660156 2.828125 10.898438 2.101562 9.421875 1.03125 C 7.953125 -0.0390625 6.78125 -1.382812 5.90625 -3 C 5.03125 -4.613281 4.46875 -6.4375 4.21875 -8.46875 C 3.976562 -10.5 4.066406 -12.664062 4.484375 -14.96875 Z M 4.484375 -14.96875 "/></g></g></g><g fill="#ffffff" fill-opacity="1"><g transform="translate(106.795302, 78.218487)"><g/></g></g><g fill="#ffffff" fill-opacity="1"><g transform="translate(118.302479, 78.967142)"><g><path d="M 19.59375 -14.984375 L 8.421875 -14.15625 C 8.617188 -11.382812 8.800781 -8.941406 8.96875 -6.828125 C 9.144531 -4.722656 9.335938 -2.679688 9.546875 -0.703125 L 3.1875 -0.234375 C 3.113281 -1.679688 3.054688 -2.953125 3.015625 -4.046875 C 2.984375 -5.148438 2.941406 -6.289062 2.890625 -7.46875 C 2.835938 -8.65625 2.765625 -10.019531 2.671875 -11.5625 C 2.585938 -13.101562 2.460938 -15.023438 2.296875 -17.328125 C 2.117188 -19.640625 1.925781 -22.015625 1.71875 -24.453125 C 1.519531 -26.898438 1.28125 -29.34375 1 -31.78125 L 20.140625 -33.1875 L 20.46875 -28.765625 L 7.5 -27.8125 C 7.53125 -26.539062 7.601562 -25.140625 7.71875 -23.609375 C 7.832031 -22.078125 7.960938 -20.304688 8.109375 -18.296875 L 19.28125 -19.125 Z M 19.59375 -14.984375 "/></g></g></g><g fill="#ffffff" fill-opacity="1"><g transform="translate(144.911566, 76.916558)"><g><path d="M -4.421875 -31.03125 C -3.171875 -31.59375 -1.75 -32.175781 -0.15625 -32.78125 C 1.4375 -33.394531 3.015625 -33.898438 4.578125 -34.296875 C 7.046875 -34.921875 9.140625 -35.171875 10.859375 -35.046875 C 12.585938 -34.921875 14.007812 -34.554688 15.125 -33.953125 C 16.25 -33.347656 17.109375 -32.570312 17.703125 -31.625 C 18.304688 -30.675781 18.738281 -29.695312 19 -28.6875 C 19.46875 -26.84375 19.457031 -25.132812 18.96875 -23.5625 C 18.476562 -21.988281 17.578125 -20.617188 16.265625 -19.453125 C 17.285156 -19.242188 18.160156 -18.929688 18.890625 -18.515625 C 19.628906 -18.109375 20.273438 -17.539062 20.828125 -16.8125 C 21.390625 -16.082031 21.878906 -15.164062 22.296875 -14.0625 C 22.710938 -12.96875 23.109375 -11.679688 23.484375 -10.203125 C 23.796875 -9.003906 24.097656 -7.664062 24.390625 -6.1875 L 18.4375 -4.109375 C 18.28125 -5.097656 18.113281 -6.035156 17.9375 -6.921875 C 17.769531 -7.816406 17.585938 -8.65625 17.390625 -9.4375 C 17.066406 -10.726562 16.679688 -11.828125 16.234375 -12.734375 C 15.785156 -13.648438 15.21875 -14.367188 14.53125 -14.890625 C 13.84375 -15.421875 13.007812 -15.734375 12.03125 -15.828125 C 11.050781 -15.921875 9.863281 -15.789062 8.46875 -15.4375 C 8.144531 -15.351562 7.765625 -15.25 7.328125 -15.125 C 6.898438 -15 6.460938 -14.847656 6.015625 -14.671875 C 6.628906 -12.242188 7.191406 -10.050781 7.703125 -8.09375 C 8.210938 -6.144531 8.738281 -4.234375 9.28125 -2.359375 L 3.109375 -0.78125 C 2.816406 -2.207031 2.554688 -3.457031 2.328125 -4.53125 C 2.097656 -5.601562 1.847656 -6.71875 1.578125 -7.875 C 1.316406 -9.03125 1.007812 -10.328125 0.65625 -11.765625 C 0.3125 -13.203125 -0.128906 -14.984375 -0.671875 -17.109375 C -1.285156 -19.566406 -1.890625 -21.914062 -2.484375 -24.15625 C -3.085938 -26.394531 -3.734375 -28.6875 -4.421875 -31.03125 Z M 6.140625 -30.546875 C 5.546875 -30.398438 4.941406 -30.1875 4.328125 -29.90625 C 3.710938 -29.632812 3.09375 -29.332031 2.46875 -29 C 2.71875 -27.769531 3.035156 -26.382812 3.421875 -24.84375 C 3.816406 -23.3125 4.285156 -21.46875 4.828125 -19.3125 L 4.96875 -18.75 C 5.84375 -18.769531 6.820312 -18.914062 7.90625 -19.1875 C 10.09375 -19.738281 11.671875 -20.640625 12.640625 -21.890625 C 13.609375 -23.148438 13.859375 -24.703125 13.390625 -26.546875 C 12.953125 -28.242188 12.09375 -29.453125 10.8125 -30.171875 C 9.53125 -30.890625 7.972656 -31.015625 6.140625 -30.546875 Z M 6.140625 -30.546875 "/></g></g></g><g fill="#ffffff" fill-opacity="1"><g transform="translate(174.577469, 68.974784)"><g><path d="M 13.484375 -21.484375 L 2.8125 -16.625 C 3.59375 -14.894531 4.304688 -13.320312 4.953125 -11.90625 C 5.597656 -10.5 6.210938 -9.179688 6.796875 -7.953125 L 19.5 -13.734375 L 21.328125 -9.71875 L 2.921875 -1.328125 C 2.335938 -2.648438 1.835938 -3.820312 1.421875 -4.84375 C 1.015625 -5.863281 0.578125 -6.921875 0.109375 -8.015625 C -0.347656 -9.117188 -0.882812 -10.375 -1.5 -11.78125 C -2.113281 -13.1875 -2.898438 -14.941406 -3.859375 -17.046875 C -4.828125 -19.160156 -5.828125 -21.328125 -6.859375 -23.546875 C -7.898438 -25.773438 -8.96875 -27.976562 -10.0625 -30.15625 L 7.4375 -38.125 L 9.265625 -34.09375 L -2.609375 -28.6875 C -2.171875 -27.59375 -1.640625 -26.367188 -1.015625 -25.015625 C -0.398438 -23.660156 0.296875 -22.125 1.078125 -20.40625 L 11.75 -25.265625 Z M 13.484375 -21.484375 "/></g></g></g><g fill="#ffffff" fill-opacity="1"><g transform="translate(199.768518, 57.216868)"><g><path d="M 9.65625 -23.4375 L -0.046875 -16.84375 C 1.015625 -15.28125 1.984375 -13.851562 2.859375 -12.5625 C 3.734375 -11.28125 4.566406 -10.09375 5.359375 -9 L 16.890625 -16.84375 L 19.375 -13.1875 L 2.640625 -1.796875 C 1.859375 -3.015625 1.175781 -4.085938 0.59375 -5.015625 C 0.0078125 -5.953125 -0.597656 -6.921875 -1.234375 -7.921875 C -1.878906 -8.921875 -2.625 -10.0625 -3.46875 -11.34375 C -4.3125 -12.632812 -5.382812 -14.234375 -6.6875 -16.140625 C -8 -18.066406 -9.351562 -20.035156 -10.75 -22.046875 C -12.15625 -24.054688 -13.578125 -26.039062 -15.015625 -28 L 0.890625 -38.828125 L 3.375 -35.171875 L -7.421875 -27.828125 C -6.804688 -26.828125 -6.078125 -25.710938 -5.234375 -24.484375 C -4.398438 -23.253906 -3.453125 -21.851562 -2.390625 -20.28125 L 7.3125 -26.875 Z M 9.65625 -23.4375 "/></g></g></g><g fill="#ffffff" fill-opacity="1"><g transform="translate(221.652021, 41.638448)"><g/></g></g></g></g><g transform="matrix(1, 0, 0, 1, 72, 12)"><g clip-path="url(#723658ccc1)"><g fill="#ffffff" fill-opacity="1"><g transform="translate(26.9243, 79.137737)"><g><path d="M 14.34375 -27.953125 C 14.507812 -27.554688 14.703125 -27.160156 14.921875 -26.765625 C 15.148438 -26.367188 15.410156 -25.945312 15.703125 -25.5 C 15.992188 -25.0625 16.320312 -24.566406 16.6875 -24.015625 C 17.0625 -23.460938 17.488281 -22.835938 17.96875 -22.140625 C 18.976562 -20.710938 19.820312 -19.53125 20.5 -18.59375 C 21.175781 -17.664062 21.859375 -16.765625 22.546875 -15.890625 L 21.171875 -14.25 L 18.265625 -15.53125 C 17.722656 -14.1875 16.894531 -12.804688 15.78125 -11.390625 C 14.675781 -9.984375 13.40625 -8.773438 11.96875 -7.765625 C 10.664062 -6.847656 9.289062 -6.117188 7.84375 -5.578125 C 6.394531 -5.046875 4.882812 -4.894531 3.3125 -5.125 C 1.738281 -5.363281 0.101562 -6.085938 -1.59375 -7.296875 C -3.289062 -8.503906 -5.046875 -10.394531 -6.859375 -12.96875 C -10.304688 -17.851562 -11.847656 -22.207031 -11.484375 -26.03125 C -11.117188 -29.863281 -9.019531 -33.128906 -5.1875 -35.828125 C -4.59375 -36.242188 -4.03125 -36.597656 -3.5 -36.890625 C -2.976562 -37.179688 -2.488281 -37.453125 -2.03125 -37.703125 C -1.570312 -37.953125 -1.125 -38.191406 -0.6875 -38.421875 C -0.257812 -38.648438 0.148438 -38.90625 0.546875 -39.1875 C 0.941406 -39.46875 1.328125 -39.785156 1.703125 -40.140625 C 2.085938 -40.492188 2.46875 -40.914062 2.84375 -41.40625 L 9.25 -33.1875 L 5.484375 -29.796875 C 5.390625 -29.992188 5.285156 -30.171875 5.171875 -30.328125 C 5.054688 -30.492188 4.9375 -30.660156 4.8125 -30.828125 C 4.363281 -31.472656 3.867188 -32.046875 3.328125 -32.546875 C 2.785156 -33.054688 2.191406 -33.425781 1.546875 -33.65625 C 0.910156 -33.882812 0.210938 -33.929688 -0.546875 -33.796875 C -1.304688 -33.671875 -2.117188 -33.304688 -2.984375 -32.703125 C -7.671875 -29.390625 -7.585938 -24.289062 -2.734375 -17.40625 C -1.566406 -15.757812 -0.4375 -14.453125 0.65625 -13.484375 C 1.757812 -12.515625 2.847656 -11.859375 3.921875 -11.515625 C 5.003906 -11.171875 6.078125 -11.117188 7.140625 -11.359375 C 8.210938 -11.597656 9.285156 -12.09375 10.359375 -12.84375 C 11.242188 -13.46875 12 -14.179688 12.625 -14.984375 C 13.257812 -15.796875 13.820312 -16.695312 14.3125 -17.6875 L 11.703125 -21.390625 L 7.34375 -17.984375 L 4.640625 -21.109375 Z M 14.34375 -27.953125 "/></g></g></g><g fill="#ffffff" fill-opacity="1"><g transform="translate(47.698538, 63.353866)"><g><path d="M 20.640625 -43.0625 C 21.253906 -41.15625 21.957031 -39.144531 22.75 -37.03125 C 23.539062 -34.925781 24.460938 -32.5625 25.515625 -29.9375 C 26.429688 -27.664062 27.226562 -25.707031 27.90625 -24.0625 C 28.582031 -22.425781 29.195312 -20.984375 29.75 -19.734375 C 30.300781 -18.484375 30.804688 -17.335938 31.265625 -16.296875 C 31.734375 -15.265625 32.226562 -14.21875 32.75 -13.15625 L 27.109375 -10.890625 C 26.691406 -12.023438 26.273438 -13.160156 25.859375 -14.296875 C 25.453125 -15.441406 25.003906 -16.671875 24.515625 -17.984375 C 24.023438 -19.296875 23.46875 -20.742188 22.84375 -22.328125 C 22.226562 -23.921875 21.507812 -25.742188 20.6875 -27.796875 L 19.40625 -30.953125 L 18.6875 -33.71875 L 19.03125 -30.796875 C 19.457031 -27.128906 19.820312 -23.398438 20.125 -19.609375 C 20.425781 -15.816406 20.570312 -12.035156 20.5625 -8.265625 L 15.515625 -5.65625 C 12.703125 -8.414062 10.035156 -11.351562 7.515625 -14.46875 C 5.003906 -17.582031 2.601562 -20.644531 0.3125 -23.65625 L -1.03125 -25.40625 L 0.09375 -23.578125 L 1.71875 -19.53125 C 3.082031 -16.144531 4.316406 -13.148438 5.421875 -10.546875 C 6.535156 -7.953125 7.5625 -5.570312 8.5 -3.40625 L 3.03125 -1.21875 C 2.550781 -2.582031 2.117188 -3.796875 1.734375 -4.859375 C 1.347656 -5.929688 0.953125 -6.988281 0.546875 -8.03125 C 0.148438 -9.070312 -0.273438 -10.179688 -0.734375 -11.359375 C -1.203125 -12.546875 -1.757812 -13.953125 -2.40625 -15.578125 C -3.0625 -17.203125 -3.648438 -18.664062 -4.171875 -19.96875 C -4.703125 -21.28125 -5.210938 -22.507812 -5.703125 -23.65625 C -6.203125 -24.8125 -6.679688 -25.914062 -7.140625 -26.96875 C -7.597656 -28.019531 -8.0625 -29.117188 -8.53125 -30.265625 L -1.5625 -34.140625 C 1.101562 -30.359375 3.90625 -26.632812 6.84375 -22.96875 C 9.78125 -19.3125 12.742188 -15.785156 15.734375 -12.390625 C 15.617188 -14.585938 15.492188 -16.765625 15.359375 -18.921875 C 15.234375 -21.078125 15.0625 -23.257812 14.84375 -25.46875 C 14.625 -27.675781 14.359375 -29.929688 14.046875 -32.234375 C 13.742188 -34.535156 13.375 -36.921875 12.9375 -39.390625 Z M 20.640625 -43.0625 "/></g></g></g><g fill="#ffffff" fill-opacity="1"><g transform="translate(79.753792, 50.449573)"><g><path d="M 11.359375 -30.15625 C 9.035156 -29.8125 7.347656 -28.476562 6.296875 -26.15625 C 5.253906 -23.832031 5.023438 -20.679688 5.609375 -16.703125 C 6.191406 -12.753906 7.207031 -9.828125 8.65625 -7.921875 C 10.113281 -6.023438 12.144531 -5.265625 14.75 -5.640625 C 15.875 -5.804688 16.863281 -6.25 17.71875 -6.96875 C 18.582031 -7.6875 19.265625 -8.644531 19.765625 -9.84375 C 20.273438 -11.050781 20.601562 -12.460938 20.75 -14.078125 C 20.90625 -15.691406 20.835938 -17.484375 20.546875 -19.453125 C 20.265625 -21.335938 19.90625 -22.992188 19.46875 -24.421875 C 19.03125 -25.859375 18.453125 -27.035156 17.734375 -27.953125 C 17.023438 -28.867188 16.15625 -29.519531 15.125 -29.90625 C 14.09375 -30.289062 12.835938 -30.375 11.359375 -30.15625 Z M -0.515625 -15.671875 C -0.867188 -18.085938 -0.863281 -20.363281 -0.5 -22.5 C -0.144531 -24.632812 0.539062 -26.515625 1.5625 -28.140625 C 2.59375 -29.773438 3.914062 -31.125 5.53125 -32.1875 C 7.144531 -33.25 9.03125 -33.9375 11.1875 -34.25 C 13.25 -34.550781 15.148438 -34.457031 16.890625 -33.96875 C 18.628906 -33.476562 20.15625 -32.640625 21.46875 -31.453125 C 22.78125 -30.265625 23.875 -28.753906 24.75 -26.921875 C 25.632812 -25.097656 26.25 -23.023438 26.59375 -20.703125 C 26.945312 -18.242188 26.941406 -15.925781 26.578125 -13.75 C 26.222656 -11.582031 25.539062 -9.65625 24.53125 -7.96875 C 23.519531 -6.28125 22.210938 -4.878906 20.609375 -3.765625 C 19.003906 -2.660156 17.140625 -1.953125 15.015625 -1.640625 C 12.953125 -1.335938 11.046875 -1.460938 9.296875 -2.015625 C 7.546875 -2.578125 6 -3.484375 4.65625 -4.734375 C 3.320312 -5.984375 2.210938 -7.535156 1.328125 -9.390625 C 0.441406 -11.242188 -0.171875 -13.335938 -0.515625 -15.671875 Z M -0.515625 -15.671875 "/></g></g></g><g fill="#ffffff" fill-opacity="1"><g transform="translate(108.255795, 46.856213)"><g/></g></g><g fill="#ffffff" fill-opacity="1"><g transform="translate(115.975561, 46.291659)"><g><path d="M 22.03125 -11.28125 L 10.859375 -12.46875 C 10.566406 -9.707031 10.3125 -7.265625 10.09375 -5.140625 C 9.882812 -3.015625 9.707031 -0.960938 9.5625 1.015625 L 3.203125 0.34375 C 3.390625 -1.09375 3.5625 -2.359375 3.71875 -3.453125 C 3.875 -4.546875 4.03125 -5.679688 4.1875 -6.859375 C 4.34375 -8.046875 4.519531 -9.40625 4.71875 -10.9375 C 4.914062 -12.46875 5.132812 -14.390625 5.375 -16.703125 C 5.625 -19.015625 5.863281 -21.394531 6.09375 -23.84375 C 6.320312 -26.289062 6.523438 -28.738281 6.703125 -31.1875 L 25.84375 -29.15625 L 25.375 -24.734375 L 12.40625 -26.109375 C 12.207031 -24.859375 12.023438 -23.46875 11.859375 -21.9375 C 11.703125 -20.40625 11.515625 -18.632812 11.296875 -16.625 L 22.46875 -15.4375 Z M 22.03125 -11.28125 "/></g></g></g><g fill="#ffffff" fill-opacity="1"><g transform="translate(136.768658, 48.077221)"><g><path d="M 11.90625 -29.09375 C 13.269531 -28.945312 14.800781 -28.734375 16.5 -28.453125 C 18.195312 -28.171875 19.8125 -27.8125 21.34375 -27.375 C 23.8125 -26.65625 25.757812 -25.804688 27.1875 -24.828125 C 28.613281 -23.847656 29.65625 -22.816406 30.3125 -21.734375 C 30.976562 -20.648438 31.332031 -19.539062 31.375 -18.40625 C 31.414062 -17.28125 31.289062 -16.210938 31 -15.203125 C 30.46875 -13.367188 29.585938 -11.894531 28.359375 -10.78125 C 27.140625 -9.664062 25.664062 -8.941406 23.9375 -8.609375 C 24.71875 -7.910156 25.320312 -7.191406 25.75 -6.453125 C 26.175781 -5.710938 26.445312 -4.882812 26.5625 -3.96875 C 26.675781 -3.0625 26.632812 -2.03125 26.4375 -0.875 C 26.25 0.28125 25.941406 1.597656 25.515625 3.078125 C 25.171875 4.273438 24.75 5.582031 24.25 7 L 18.03125 5.78125 C 18.40625 4.84375 18.742188 3.945312 19.046875 3.09375 C 19.359375 2.238281 19.628906 1.421875 19.859375 0.640625 C 20.222656 -0.640625 20.441406 -1.785156 20.515625 -2.796875 C 20.585938 -3.804688 20.457031 -4.710938 20.125 -5.515625 C 19.789062 -6.328125 19.226562 -7.019531 18.4375 -7.59375 C 17.644531 -8.164062 16.550781 -8.65625 15.15625 -9.0625 C 14.832031 -9.15625 14.453125 -9.257812 14.015625 -9.375 C 13.578125 -9.488281 13.117188 -9.582031 12.640625 -9.65625 C 11.941406 -7.238281 11.316406 -5.054688 10.765625 -3.109375 C 10.222656 -1.160156 9.710938 0.765625 9.234375 2.671875 L 3.09375 0.890625 C 3.5625 -0.484375 3.960938 -1.691406 4.296875 -2.734375 C 4.640625 -3.785156 4.992188 -4.878906 5.359375 -6.015625 C 5.722656 -7.148438 6.117188 -8.425781 6.546875 -9.84375 C 6.972656 -11.257812 7.492188 -13.03125 8.109375 -15.15625 C 8.804688 -17.582031 9.460938 -19.921875 10.078125 -22.171875 C 10.691406 -24.421875 11.300781 -26.726562 11.90625 -29.09375 Z M 20.796875 -23.328125 C 20.210938 -23.492188 19.585938 -23.617188 18.921875 -23.703125 C 18.253906 -23.785156 17.5625 -23.835938 16.84375 -23.859375 C 16.425781 -22.648438 16 -21.285156 15.5625 -19.765625 C 15.125 -18.242188 14.59375 -16.410156 13.96875 -14.265625 L 13.8125 -13.6875 C 14.570312 -13.28125 15.492188 -12.921875 16.578125 -12.609375 C 18.742188 -11.984375 20.566406 -11.96875 22.046875 -12.5625 C 23.523438 -13.164062 24.53125 -14.375 25.0625 -16.1875 C 25.550781 -17.875 25.421875 -19.351562 24.671875 -20.625 C 23.921875 -21.894531 22.628906 -22.796875 20.796875 -23.328125 Z M 20.796875 -23.328125 "/></g></g></g><g fill="#ffffff" fill-opacity="1"><g transform="translate(160.596676, 54.811743)"><g><path d="M 25.25 -3.109375 L 14.703125 -8.34375 C 13.859375 -6.632812 13.085938 -5.082031 12.390625 -3.6875 C 11.703125 -2.300781 11.070312 -0.984375 10.5 0.265625 L 23.03125 6.484375 L 21.0625 10.453125 L 2.890625 1.4375 C 3.554688 0.144531 4.148438 -0.984375 4.671875 -1.953125 C 5.203125 -2.921875 5.75 -3.929688 6.3125 -4.984375 C 6.875 -6.046875 7.507812 -7.257812 8.21875 -8.625 C 8.925781 -9.988281 9.796875 -11.710938 10.828125 -13.796875 C 11.859375 -15.867188 12.910156 -18.015625 13.984375 -20.234375 C 15.054688 -22.460938 16.097656 -24.691406 17.109375 -26.921875 L 34.390625 -18.359375 L 32.421875 -14.375 L 20.6875 -20.1875 C 20.113281 -19.164062 19.492188 -17.984375 18.828125 -16.640625 C 18.160156 -15.304688 17.40625 -13.785156 16.5625 -12.078125 L 27.109375 -6.84375 Z M 25.25 -3.109375 "/></g></g></g><g fill="#ffffff" fill-opacity="1"><g transform="translate(180.551402, 64.441133)"><g><path d="M 25.421875 1.21875 L 15.90625 -5.734375 C 14.78125 -4.191406 13.757812 -2.789062 12.84375 -1.53125 C 11.9375 -0.28125 11.085938 0.90625 10.296875 2.03125 L 21.609375 10.28125 L 19 13.859375 L 2.59375 1.890625 C 3.476562 0.742188 4.257812 -0.257812 4.9375 -1.125 C 5.625 -2 6.332031 -2.910156 7.0625 -3.859375 C 7.789062 -4.804688 8.617188 -5.890625 9.546875 -7.109375 C 10.484375 -8.335938 11.640625 -9.890625 13.015625 -11.765625 C 14.378906 -13.640625 15.773438 -15.582031 17.203125 -17.59375 C 18.628906 -19.601562 20.03125 -21.617188 21.40625 -23.640625 L 36.984375 -12.265625 L 34.375 -8.6875 L 23.796875 -16.40625 C 23.054688 -15.488281 22.242188 -14.425781 21.359375 -13.21875 C 20.484375 -12.007812 19.484375 -10.640625 18.359375 -9.109375 L 27.875 -2.15625 Z M 25.421875 1.21875 "/></g></g></g></g></g><path stroke-linecap="butt" transform="matrix(0, 0.75, -0.75, 0, 336.706799, 97.777258)" fill="none" stroke-linejoin="miter" d="M 1.218864 51.010111 C 85.994911 -14.338852 170.770958 -14.338852 255.547006 51.010111 " stroke="#ffffff" stroke-width="4" stroke-opacity="1" stroke-miterlimit="4"/><path stroke-linecap="butt" transform="matrix(0, -0.75, 0.75, 0, 37.499636, 283.786973)" fill="none" stroke-linejoin="miter" d="M 1.221173 51.010906 C 85.99722 -14.338057 170.773267 -14.338057 255.544106 51.010906 " stroke="#ffffff" stroke-width="4" stroke-opacity="1" stroke-miterlimit="4"/></svg>