<svg xmlns="http://www.w3.org/2000/svg" xmlns:xlink="http://www.w3.org/1999/xlink" width="500" zoomAndPan="magnify" viewBox="0 0 375 374.999991" height="500" preserveAspectRatio="xMidYMid meet" version="1.0"><defs><g/><clipPath id="61834066b4"><path d="M 15.894531 10.246094 L 361.632812 10.246094 L 361.632812 355.984375 L 15.894531 355.984375 Z M 15.894531 10.246094 " clip-rule="nonzero"/></clipPath><clipPath id="122005ca33"><path d="M 188.761719 10.246094 C 93.289062 10.246094 15.894531 87.644531 15.894531 183.117188 C 15.894531 278.589844 93.289062 355.984375 188.761719 355.984375 C 284.238281 355.984375 361.632812 278.589844 361.632812 183.117188 C 361.632812 87.644531 284.238281 10.246094 188.761719 10.246094 Z M 188.761719 10.246094 " clip-rule="nonzero"/></clipPath><clipPath id="db724a2200"><path d="M 0.894531 0.246094 L 346.632812 0.246094 L 346.632812 345.984375 L 0.894531 345.984375 Z M 0.894531 0.246094 " clip-rule="nonzero"/></clipPath><clipPath id="28f7d9d947"><path d="M 173.761719 0.246094 C 78.289062 0.246094 0.894531 77.644531 0.894531 173.117188 C 0.894531 268.589844 78.289062 345.984375 173.761719 345.984375 C 269.238281 345.984375 346.632812 268.589844 346.632812 173.117188 C 346.632812 77.644531 269.238281 0.246094 173.761719 0.246094 Z M 173.761719 0.246094 " clip-rule="nonzero"/></clipPath><clipPath id="a4ade892ba"><rect x="0" width="347" y="0" height="346"/></clipPath><clipPath id="0a90f59dd4"><path d="M 59.484375 58.222656 L 318.042969 58.222656 L 318.042969 316.777344 L 59.484375 316.777344 Z M 59.484375 58.222656 " clip-rule="nonzero"/></clipPath><clipPath id="2f1ca0528a"><path d="M 188.761719 58.222656 C 117.363281 58.222656 59.484375 116.101562 59.484375 187.5 C 59.484375 258.898438 117.363281 316.777344 188.761719 316.777344 C 260.164062 316.777344 318.042969 258.898438 318.042969 187.5 C 318.042969 116.101562 260.164062 58.222656 188.761719 58.222656 Z M 188.761719 58.222656 " clip-rule="nonzero"/></clipPath><clipPath id="a3f9404e5b"><path d="M 0.484375 0.222656 L 259.042969 0.222656 L 259.042969 258.777344 L 0.484375 258.777344 Z M 0.484375 0.222656 " clip-rule="nonzero"/></clipPath><clipPath id="9e571226a8"><path d="M 129.761719 0.222656 C 58.363281 0.222656 0.484375 58.101562 0.484375 129.5 C 0.484375 200.898438 58.363281 258.777344 129.761719 258.777344 C 201.164062 258.777344 259.042969 200.898438 259.042969 129.5 C 259.042969 58.101562 201.164062 0.222656 129.761719 0.222656 Z M 129.761719 0.222656 " clip-rule="nonzero"/></clipPath><clipPath id="c7d0134bac"><rect x="0" width="260" y="0" height="259"/></clipPath><clipPath id="ddd9c17850"><path d="M 0 77.574219 L 120.382812 77.574219 L 120.382812 297.089844 L 0 297.089844 Z M 0 77.574219 " clip-rule="nonzero"/></clipPath><clipPath id="0e0df94dc3"><path d="M -71.414062 187.492188 L 120.382812 77.894531 L 120.382812 297.089844 Z M -71.414062 187.492188 " clip-rule="nonzero"/></clipPath><clipPath id="6a3a3b00d9"><path d="M 0 0.761719 L 120.382812 0.761719 L 120.382812 220.089844 L 0 220.089844 Z M 0 0.761719 " clip-rule="nonzero"/></clipPath><clipPath id="c4b66a6bda"><path d="M -71.414062 110.492188 L 120.382812 0.894531 L 120.382812 220.089844 Z M -71.414062 110.492188 " clip-rule="nonzero"/></clipPath><clipPath id="91915ef207"><rect x="0" width="121" y="0" height="221"/></clipPath><clipPath id="868644ca47"><path d="M 256.125 77.902344 L 375 77.902344 L 375 297.417969 L 256.125 297.417969 Z M 256.125 77.902344 " clip-rule="nonzero"/></clipPath><clipPath id="91c465d3d6"><path d="M 447.921875 187.5 L 256.125 297.097656 L 256.125 77.902344 Z M 447.921875 187.5 " clip-rule="nonzero"/></clipPath><clipPath id="c9aaf23153"><path d="M 0.125 0.902344 L 119 0.902344 L 119 220.121094 L 0.125 220.121094 Z M 0.125 0.902344 " clip-rule="nonzero"/></clipPath><clipPath id="4b0c47dac4"><path d="M 191.921875 110.5 L 0.125 220.097656 L 0.125 0.902344 Z M 191.921875 110.5 " clip-rule="nonzero"/></clipPath><clipPath id="998376c440"><rect x="0" width="119" y="0" height="221"/></clipPath><clipPath id="5e7c02ac1e"><path d="M 84.773438 77.945312 L 290.273438 77.945312 L 290.273438 299.195312 L 84.773438 299.195312 Z M 84.773438 77.945312 " clip-rule="nonzero"/></clipPath><clipPath id="d9a18615e3"><path d="M 0 146.484375 L 375 146.484375 L 375 228.234375 L 0 228.234375 Z M 0 146.484375 " clip-rule="nonzero"/></clipPath><clipPath id="290dfe2a0c"><rect x="0" width="290" y="0" height="115"/></clipPath></defs><rect x="-37.5" width="450" fill="#ffffff" y="-37.499999" height="449.999989" fill-opacity="1"/><rect x="-37.5" width="450" fill="#ffffff" y="-37.499999" height="449.999989" fill-opacity="1"/><g clip-path="url(#61834066b4)"><g clip-path="url(#122005ca33)"><g transform="matrix(1, 0, 0, 1, 15, 10)"><g clip-path="url(#a4ade892ba)"><g clip-path="url(#db724a2200)"><g clip-path="url(#28f7d9d947)"><path fill="#0c542f" d="M 0.894531 0.246094 L 346.632812 0.246094 L 346.632812 345.984375 L 0.894531 345.984375 Z M 0.894531 0.246094 " fill-opacity="1" fill-rule="nonzero"/></g></g></g></g></g></g><g clip-path="url(#0a90f59dd4)"><g clip-path="url(#2f1ca0528a)"><g transform="matrix(1, 0, 0, 1, 59, 58)"><g clip-path="url(#c7d0134bac)"><g clip-path="url(#a3f9404e5b)"><g clip-path="url(#9e571226a8)"><path fill="#ffffff" d="M 0.484375 0.222656 L 259.042969 0.222656 L 259.042969 258.777344 L 0.484375 258.777344 Z M 0.484375 0.222656 " fill-opacity="1" fill-rule="nonzero"/></g></g></g></g></g></g><g clip-path="url(#ddd9c17850)"><g clip-path="url(#0e0df94dc3)"><g transform="matrix(1, 0, 0, 1, 0, 77)"><g clip-path="url(#91915ef207)"><g clip-path="url(#6a3a3b00d9)"><g clip-path="url(#c4b66a6bda)"><path fill="#ffffff" d="M -71.414062 220.089844 L -71.414062 0.574219 L 120.382812 0.574219 L 120.382812 220.089844 Z M -71.414062 220.089844 " fill-opacity="1" fill-rule="nonzero"/></g></g></g></g></g></g><g clip-path="url(#868644ca47)"><g clip-path="url(#91c465d3d6)"><g transform="matrix(1, 0, 0, 1, 256, 77)"><g clip-path="url(#998376c440)"><g clip-path="url(#c9aaf23153)"><g clip-path="url(#4b0c47dac4)"><path fill="#ffffff" d="M 191.921875 0.902344 L 191.921875 220.417969 L 0.125 220.417969 L 0.125 0.902344 Z M 191.921875 0.902344 " fill-opacity="1" fill-rule="nonzero"/></g></g></g></g></g></g><g clip-path="url(#5e7c02ac1e)"><path fill="#458c62" d="M 186.117188 298.566406 C 172.019531 292.550781 154 283.921875 145.714844 277.738281 C 133.367188 268.515625 122.527344 257.503906 113.492188 245.007812 C 104.355469 232.367188 97.253906 218.46875 92.386719 203.707031 C 87.367188 188.4375 84.824219 172.488281 84.824219 156.296875 C 84.824219 145.84375 85.84375 135.226562 87.863281 124.738281 C 89.652344 115.417969 92.167969 106.566406 95.335938 98.421875 L 96.402344 95.679688 L 99.296875 96.207031 C 104.222656 97.109375 114.042969 98.613281 124.453125 98.566406 C 132.824219 98.535156 141.394531 97.394531 149.925781 95.179688 C 156.742188 93.410156 163.546875 90.953125 170.152344 87.875 C 177.109375 84.636719 182.351562 81.414062 185.527344 79.28125 L 187.515625 77.945312 L 189.5 79.28125 C 192.675781 81.414062 197.921875 84.636719 204.875 87.875 C 211.484375 90.953125 218.289062 93.410156 225.101562 95.179688 C 233.632812 97.394531 242.207031 98.535156 250.582031 98.566406 C 260.992188 98.609375 270.808594 97.109375 275.734375 96.210938 L 278.628906 95.679688 L 279.695312 98.421875 C 282.863281 106.566406 285.375 115.421875 287.167969 124.738281 C 289.183594 135.226562 290.207031 145.84375 290.207031 156.296875 C 290.207031 172.488281 287.660156 188.4375 282.640625 203.710938 C 277.773438 218.472656 270.675781 232.367188 261.535156 245.007812 C 252.503906 257.503906 241.660156 268.515625 229.3125 277.738281 C 221.042969 283.917969 203.019531 292.546875 188.914062 298.566406 L 187.515625 299.160156 Z M 225.050781 272.03125 C 236.816406 263.238281 247.152344 252.742188 255.761719 240.832031 C 264.46875 228.785156 271.234375 215.546875 275.871094 201.484375 C 280.65625 186.933594 283.082031 171.730469 283.082031 156.296875 C 283.082031 146.292969 282.101562 136.128906 280.167969 126.082031 C 278.65625 118.21875 276.609375 110.710938 274.074219 103.726562 C 268.445312 104.636719 259.734375 105.726562 250.554688 105.691406 C 241.585938 105.65625 232.417969 104.441406 223.3125 102.074219 C 216.078125 100.199219 208.863281 97.59375 201.867188 94.335938 C 195.792969 91.503906 190.933594 88.675781 187.515625 86.496094 C 184.097656 88.675781 179.238281 91.503906 173.160156 94.335938 C 166.164062 97.59375 158.949219 100.199219 151.71875 102.074219 C 142.609375 104.441406 133.445312 105.65625 124.480469 105.691406 C 124.316406 105.691406 124.152344 105.691406 123.984375 105.691406 C 114.988281 105.691406 106.484375 104.621094 100.953125 103.722656 C 98.417969 110.710938 96.371094 118.21875 94.859375 126.082031 C 92.929688 136.128906 91.949219 146.292969 91.949219 156.296875 C 91.949219 171.730469 94.375 186.929688 99.15625 201.476562 C 103.792969 215.542969 110.558594 228.785156 119.265625 240.832031 C 127.878906 252.742188 138.210938 263.238281 149.976562 272.027344 C 157.496094 277.640625 174.03125 285.601562 187.515625 291.410156 C 201.007812 285.597656 217.542969 277.636719 225.050781 272.03125 Z M 225.050781 272.03125 " fill-opacity="1" fill-rule="nonzero"/></g><path fill="#458c62" d="M 186.65625 287.933594 C 180.644531 285.300781 160.355469 276.21875 151.683594 269.746094 C 140.148438 261.128906 130.019531 250.839844 121.578125 239.164062 C 113.039062 227.351562 106.410156 214.375 101.867188 200.589844 C 97.175781 186.328125 94.800781 171.425781 94.800781 156.296875 C 94.800781 146.472656 95.761719 136.488281 97.660156 126.621094 C 98.859375 120.371094 100.417969 114.3125 102.285156 108.609375 L 102.839844 106.914062 L 104.605469 107.15625 C 111.335938 108.074219 117.851562 108.542969 123.976562 108.542969 C 124.148438 108.542969 124.320312 108.542969 124.488281 108.542969 C 133.695312 108.507812 143.097656 107.261719 152.433594 104.835938 C 159.832031 102.914062 167.210938 100.25 174.363281 96.917969 C 178.542969 94.972656 182.597656 92.824219 186.414062 90.53125 L 187.515625 89.867188 L 188.617188 90.53125 C 192.433594 92.824219 196.488281 94.972656 200.664062 96.917969 C 207.820312 100.25 215.195312 102.914062 222.59375 104.835938 C 231.933594 107.261719 241.332031 108.507812 250.539062 108.542969 C 250.707031 108.542969 250.875 108.542969 251.039062 108.542969 C 257.171875 108.542969 263.691406 108.074219 270.421875 107.15625 L 272.191406 106.914062 L 272.746094 108.609375 C 274.613281 114.3125 276.167969 120.371094 277.371094 126.621094 C 279.269531 136.488281 280.230469 146.472656 280.230469 156.296875 C 280.230469 171.425781 277.851562 186.328125 273.164062 200.589844 C 268.621094 214.375 261.988281 227.351562 253.453125 239.164062 C 245.011719 250.835938 234.878906 261.128906 223.34375 269.746094 C 214.6875 276.214844 194.386719 285.300781 188.371094 287.933594 L 187.515625 288.304688 Z M 250.523438 112.816406 C 240.960938 112.78125 231.203125 111.488281 221.519531 108.972656 C 213.871094 106.988281 206.246094 104.234375 198.859375 100.792969 C 194.945312 98.972656 191.136719 96.972656 187.515625 94.847656 C 183.894531 96.972656 180.085938 98.972656 176.171875 100.792969 C 168.78125 104.234375 161.15625 106.988281 153.507812 108.972656 C 143.824219 111.488281 134.066406 112.78125 124.507812 112.816406 C 124.332031 112.816406 124.15625 112.816406 123.976562 112.816406 C 118.203125 112.816406 112.097656 112.417969 105.808594 111.625 C 104.234375 116.660156 102.90625 121.96875 101.855469 127.425781 C 100.011719 137.03125 99.074219 146.742188 99.074219 156.296875 C 99.074219 170.972656 101.378906 185.425781 105.925781 199.253906 C 110.332031 212.621094 116.761719 225.203125 125.042969 236.65625 C 133.230469 247.980469 143.054688 257.960938 154.242188 266.320312 C 160.6875 271.132812 175.488281 278.34375 187.515625 283.640625 C 199.546875 278.34375 214.351562 271.128906 220.785156 266.320312 C 231.972656 257.960938 241.800781 247.980469 249.988281 236.65625 C 258.265625 225.203125 264.699219 212.617188 269.101562 199.25 C 273.648438 185.425781 275.953125 170.972656 275.953125 156.296875 C 275.953125 146.742188 275.019531 137.03125 273.171875 127.425781 C 272.121094 121.96875 270.796875 116.664062 269.222656 111.625 C 262.738281 112.441406 256.457031 112.839844 250.523438 112.816406 Z M 250.523438 112.816406 " fill-opacity="1" fill-rule="nonzero"/><g fill="#ffffff" fill-opacity="1"><g transform="translate(31.471812, 223.30686)"><g><path d="M 64.09375 -70 C 63.894531 -67.863281 63.742188 -65.675781 63.640625 -63.4375 C 63.546875 -61.207031 63.484375 -58.742188 63.453125 -56.046875 C 63.421875 -53.347656 63.382812 -50.332031 63.34375 -47 C 63.3125 -43.664062 63.296875 -39.863281 63.296875 -35.59375 C 63.296875 -31.59375 63.296875 -27.976562 63.296875 -24.75 C 63.296875 -21.519531 63.3125 -18.503906 63.34375 -15.703125 C 63.382812 -12.898438 63.421875 -10.234375 63.453125 -7.703125 C 63.484375 -5.171875 63.53125 -2.601562 63.59375 0 L 49.5 0 C 49.5625 -2.800781 49.625 -5.285156 49.6875 -7.453125 C 49.757812 -9.617188 49.84375 -11.832031 49.9375 -14.09375 C 50.039062 -16.363281 50.125 -18.796875 50.1875 -21.390625 C 50.257812 -23.992188 50.296875 -27.164062 50.296875 -30.90625 L 20.90625 -30.90625 C 20.90625 -27.695312 20.90625 -24.707031 20.90625 -21.9375 C 20.90625 -19.175781 20.921875 -16.546875 20.953125 -14.046875 C 20.984375 -11.546875 21.015625 -9.144531 21.046875 -6.84375 C 21.078125 -4.550781 21.128906 -2.269531 21.203125 0 L 7.09375 0 C 7.164062 -3.195312 7.25 -6.007812 7.34375 -8.4375 C 7.445312 -10.875 7.53125 -13.410156 7.59375 -16.046875 C 7.664062 -18.679688 7.734375 -21.695312 7.796875 -25.09375 C 7.867188 -28.5 7.90625 -32.769531 7.90625 -37.90625 C 7.90625 -43.03125 7.867188 -48.144531 7.796875 -53.25 C 7.734375 -58.351562 7.601562 -63.601562 7.40625 -69 L 21.703125 -70 C 21.503906 -68.0625 21.351562 -66.078125 21.25 -64.046875 C 21.144531 -62.015625 21.078125 -59.816406 21.046875 -57.453125 C 21.015625 -55.085938 20.984375 -52.488281 20.953125 -49.65625 C 20.921875 -46.820312 20.90625 -43.632812 20.90625 -40.09375 L 50.296875 -40.09375 C 50.296875 -44.832031 50.242188 -49.582031 50.140625 -54.34375 C 50.046875 -59.113281 49.929688 -64 49.796875 -69 Z M 64.09375 -70 "/></g></g></g><g fill="#ffffff" fill-opacity="1"><g transform="translate(102.569074, 223.30686)"><g><path d="M 1.203125 1.203125 C 3.003906 -5.535156 4.820312 -11.988281 6.65625 -18.15625 C 8.488281 -24.320312 10.40625 -30.300781 12.40625 -36.09375 C 14.40625 -41.894531 16.550781 -47.59375 18.84375 -53.1875 C 21.144531 -58.789062 23.628906 -64.394531 26.296875 -70 L 38.796875 -71.203125 C 41.460938 -65.671875 43.925781 -60.132812 46.1875 -54.59375 C 48.457031 -49.0625 50.609375 -43.378906 52.640625 -37.546875 C 54.679688 -31.710938 56.617188 -25.695312 58.453125 -19.5 C 60.285156 -13.300781 62.101562 -6.800781 63.90625 0 L 50.296875 1.203125 C 49.367188 -2.328125 48.4375 -5.875 47.5 -9.4375 C 46.5625 -13.007812 45.628906 -16.597656 44.703125 -20.203125 L 20 -20.203125 C 19.0625 -16.929688 18.160156 -13.628906 17.296875 -10.296875 C 16.429688 -6.960938 15.632812 -3.53125 14.90625 0 Z M 32.59375 -58.703125 C 28.726562 -49.234375 25.363281 -39.46875 22.5 -29.40625 L 42.203125 -29.40625 C 40.734375 -34.40625 39.210938 -39.367188 37.640625 -44.296875 C 36.078125 -49.234375 34.394531 -54.035156 32.59375 -58.703125 Z M 32.59375 -58.703125 "/></g></g></g><g fill="#ffffff" fill-opacity="1"><g transform="translate(167.766564, 223.30686)"><g><path d="M 4.203125 -32.09375 C 4.203125 -45.300781 6.882812 -55.117188 12.25 -61.546875 C 17.613281 -67.984375 25.195312 -71.203125 35 -71.203125 C 38 -71.203125 40.484375 -71 42.453125 -70.59375 C 44.421875 -70.195312 46.238281 -70 47.90625 -70 C 49.03125 -70 50.160156 -70.097656 51.296875 -70.296875 C 52.429688 -70.492188 53.632812 -70.757812 54.90625 -71.09375 L 56 -45.703125 L 44.796875 -44.40625 C 44.867188 -45.40625 44.921875 -46.351562 44.953125 -47.25 C 44.984375 -48.144531 45 -48.992188 45 -49.796875 C 45 -53.929688 44.265625 -57.128906 42.796875 -59.390625 C 41.328125 -61.660156 38.695312 -62.796875 34.90625 -62.796875 C 23.164062 -62.796875 17.296875 -53.429688 17.296875 -34.703125 C 17.296875 -30.234375 17.675781 -26.429688 18.4375 -23.296875 C 19.207031 -20.160156 20.359375 -17.609375 21.890625 -15.640625 C 23.429688 -13.679688 25.347656 -12.25 27.640625 -11.34375 C 29.941406 -10.445312 32.59375 -10 35.59375 -10 C 38.863281 -10 42.097656 -10.484375 45.296875 -11.453125 C 48.492188 -12.421875 51.59375 -13.46875 54.59375 -14.59375 L 54.59375 -4 C 51.59375 -2.0625 48.09375 -0.710938 44.09375 0.046875 C 40.09375 0.816406 36.226562 1.203125 32.5 1.203125 C 28.769531 1.203125 25.1875 0.785156 21.75 -0.046875 C 18.3125 -0.878906 15.289062 -2.507812 12.6875 -4.9375 C 10.09375 -7.375 8.03125 -10.757812 6.5 -15.09375 C 4.96875 -19.425781 4.203125 -25.09375 4.203125 -32.09375 Z M 4.203125 -32.09375 "/></g></g></g><g fill="#ffffff" fill-opacity="1"><g transform="translate(228.064244, 223.30686)"><g><path d="M 4.203125 -32.09375 C 4.203125 -45.300781 6.882812 -55.117188 12.25 -61.546875 C 17.613281 -67.984375 25.195312 -71.203125 35 -71.203125 C 38 -71.203125 40.484375 -71 42.453125 -70.59375 C 44.421875 -70.195312 46.238281 -70 47.90625 -70 C 49.03125 -70 50.160156 -70.097656 51.296875 -70.296875 C 52.429688 -70.492188 53.632812 -70.757812 54.90625 -71.09375 L 56 -45.703125 L 44.796875 -44.40625 C 44.867188 -45.40625 44.921875 -46.351562 44.953125 -47.25 C 44.984375 -48.144531 45 -48.992188 45 -49.796875 C 45 -53.929688 44.265625 -57.128906 42.796875 -59.390625 C 41.328125 -61.660156 38.695312 -62.796875 34.90625 -62.796875 C 23.164062 -62.796875 17.296875 -53.429688 17.296875 -34.703125 C 17.296875 -30.234375 17.675781 -26.429688 18.4375 -23.296875 C 19.207031 -20.160156 20.359375 -17.609375 21.890625 -15.640625 C 23.429688 -13.679688 25.347656 -12.25 27.640625 -11.34375 C 29.941406 -10.445312 32.59375 -10 35.59375 -10 C 38.863281 -10 42.097656 -10.484375 45.296875 -11.453125 C 48.492188 -12.421875 51.59375 -13.46875 54.59375 -14.59375 L 54.59375 -4 C 51.59375 -2.0625 48.09375 -0.710938 44.09375 0.046875 C 40.09375 0.816406 36.226562 1.203125 32.5 1.203125 C 28.769531 1.203125 25.1875 0.785156 21.75 -0.046875 C 18.3125 -0.878906 15.289062 -2.507812 12.6875 -4.9375 C 10.09375 -7.375 8.03125 -10.757812 6.5 -15.09375 C 4.96875 -19.425781 4.203125 -25.09375 4.203125 -32.09375 Z M 4.203125 -32.09375 "/></g></g></g><g fill="#ffffff" fill-opacity="1"><g transform="translate(288.361924, 223.30686)"><g><path d="M 55.40625 -50.09375 C 55.40625 -46.300781 54.753906 -42.882812 53.453125 -39.84375 C 52.148438 -36.8125 50.28125 -34.242188 47.84375 -32.140625 C 45.414062 -30.046875 42.46875 -28.429688 39 -27.296875 C 35.53125 -26.160156 31.628906 -25.59375 27.296875 -25.59375 C 26.160156 -25.59375 25.078125 -25.625 24.046875 -25.6875 C 23.015625 -25.757812 21.96875 -25.863281 20.90625 -26 C 20.90625 -20.863281 20.921875 -16.242188 20.953125 -12.140625 C 20.984375 -8.046875 21.066406 -4 21.203125 0 L 7.09375 0 C 7.226562 -3.195312 7.34375 -6.007812 7.4375 -8.4375 C 7.539062 -10.875 7.625 -13.410156 7.6875 -16.046875 C 7.757812 -18.679688 7.8125 -21.628906 7.84375 -24.890625 C 7.882812 -28.160156 7.90625 -32.226562 7.90625 -37.09375 C 7.90625 -42.695312 7.867188 -48.066406 7.796875 -53.203125 C 7.734375 -58.335938 7.601562 -63.601562 7.40625 -69 C 8.863281 -69.269531 10.457031 -69.535156 12.1875 -69.796875 C 13.925781 -70.066406 15.710938 -70.300781 17.546875 -70.5 C 19.378906 -70.695312 21.210938 -70.84375 23.046875 -70.9375 C 24.878906 -71.039062 26.664062 -71.09375 28.40625 -71.09375 C 33.9375 -71.09375 38.453125 -70.476562 41.953125 -69.25 C 45.453125 -68.019531 48.203125 -66.421875 50.203125 -64.453125 C 52.203125 -62.484375 53.566406 -60.25 54.296875 -57.75 C 55.035156 -55.25 55.40625 -52.695312 55.40625 -50.09375 Z M 20.90625 -34.703125 C 21.832031 -34.503906 22.796875 -34.367188 23.796875 -34.296875 C 24.796875 -34.234375 25.832031 -34.203125 26.90625 -34.203125 C 31.90625 -34.203125 35.703125 -35.414062 38.296875 -37.84375 C 40.898438 -40.28125 42.203125 -43.863281 42.203125 -48.59375 C 42.203125 -53 41.117188 -56.367188 38.953125 -58.703125 C 36.785156 -61.035156 33.703125 -62.203125 29.703125 -62.203125 C 28.367188 -62.203125 26.984375 -62.082031 25.546875 -61.84375 C 24.117188 -61.613281 22.632812 -61.300781 21.09375 -60.90625 C 20.96875 -57.695312 20.90625 -54.09375 20.90625 -50.09375 C 20.90625 -46.09375 20.90625 -41.257812 20.90625 -35.59375 Z M 20.90625 -34.703125 "/></g></g></g><g fill="#ffffff" fill-opacity="1"><g transform="translate(119.340825, 70.499524)"><g><path d="M -5.5 -10.28125 C -8.257812 -14.132812 -9.53125 -17.566406 -9.3125 -20.578125 C -9.09375 -23.585938 -7.550781 -26.113281 -4.6875 -28.15625 C -3.800781 -28.789062 -3.03125 -29.253906 -2.375 -29.546875 C -1.71875 -29.847656 -1.140625 -30.175781 -0.640625 -30.53125 C -0.316406 -30.769531 -0.0078125 -31.035156 0.28125 -31.328125 C 0.570312 -31.628906 0.863281 -31.960938 1.15625 -32.328125 L 6.8125 -25.109375 L 3.796875 -22.390625 C 3.609375 -22.691406 3.425781 -22.976562 3.25 -23.25 C 3.070312 -23.53125 2.898438 -23.78125 2.734375 -24 C 1.867188 -25.21875 0.976562 -26 0.0625 -26.34375 C -0.84375 -26.695312 -1.847656 -26.476562 -2.953125 -25.6875 C -6.390625 -23.226562 -6.140625 -19.257812 -2.203125 -13.78125 C -1.273438 -12.46875 -0.375 -11.4375 0.5 -10.6875 C 1.382812 -9.9375 2.257812 -9.429688 3.125 -9.171875 C 3.988281 -8.921875 4.851562 -8.90625 5.71875 -9.125 C 6.582031 -9.34375 7.453125 -9.757812 8.328125 -10.375 C 9.273438 -11.0625 10.113281 -11.878906 10.84375 -12.828125 C 11.582031 -13.785156 12.273438 -14.75 12.921875 -15.71875 L 15.140625 -12.625 C 14.660156 -11.414062 13.914062 -10.28125 12.90625 -9.21875 C 11.90625 -8.15625 10.859375 -7.234375 9.765625 -6.453125 C 8.671875 -5.671875 7.535156 -5.039062 6.359375 -4.5625 C 5.179688 -4.082031 3.957031 -3.925781 2.6875 -4.09375 C 1.414062 -4.269531 0.101562 -4.832031 -1.25 -5.78125 C -2.613281 -6.726562 -4.03125 -8.226562 -5.5 -10.28125 Z M -5.5 -10.28125 "/></g></g></g><g fill="#ffffff" fill-opacity="1"><g transform="translate(135.103309, 59.064888)"><g><path d="M 10.46875 -17.296875 L 2.015625 -13.28125 C 2.671875 -11.914062 3.265625 -10.671875 3.796875 -9.546875 C 4.328125 -8.429688 4.832031 -7.394531 5.3125 -6.4375 L 15.359375 -11.203125 L 16.875 -8.015625 L 2.3125 -1.09375 C 1.832031 -2.144531 1.421875 -3.070312 1.078125 -3.875 C 0.734375 -4.6875 0.367188 -5.523438 -0.015625 -6.390625 C -0.398438 -7.253906 -0.84375 -8.242188 -1.34375 -9.359375 C -1.851562 -10.484375 -2.503906 -11.875 -3.296875 -13.53125 C -4.085938 -15.207031 -4.910156 -16.921875 -5.765625 -18.671875 C -6.628906 -20.429688 -7.507812 -22.175781 -8.40625 -23.90625 L 5.4375 -30.5 L 6.953125 -27.3125 L -2.4375 -22.84375 C -2.082031 -21.96875 -1.648438 -20.992188 -1.140625 -19.921875 C -0.628906 -18.847656 -0.0507812 -17.632812 0.59375 -16.28125 L 9.046875 -20.296875 Z M 10.46875 -17.296875 "/></g></g></g><g fill="#ffffff" fill-opacity="1"><g transform="translate(150.870615, 51.239302)"><g><path d="M -3.9375 -24.671875 C -2.9375 -25.140625 -1.800781 -25.625 -0.53125 -26.125 C 0.738281 -26.632812 1.988281 -27.054688 3.21875 -27.390625 C 5.175781 -27.921875 6.847656 -28.148438 8.234375 -28.078125 C 9.617188 -28.003906 10.753906 -27.734375 11.640625 -27.265625 C 12.535156 -26.796875 13.226562 -26.1875 13.71875 -25.4375 C 14.207031 -24.6875 14.5625 -23.910156 14.78125 -23.109375 C 15.175781 -21.640625 15.1875 -20.273438 14.8125 -19.015625 C 14.445312 -17.753906 13.75 -16.65625 12.71875 -15.71875 C 13.53125 -15.5625 14.234375 -15.320312 14.828125 -15 C 15.421875 -14.675781 15.945312 -14.226562 16.40625 -13.65625 C 16.863281 -13.082031 17.265625 -12.363281 17.609375 -11.5 C 17.953125 -10.632812 18.28125 -9.613281 18.59375 -8.4375 C 18.851562 -7.476562 19.101562 -6.410156 19.34375 -5.234375 L 14.640625 -3.515625 C 14.492188 -4.296875 14.347656 -5.039062 14.203125 -5.75 C 14.066406 -6.457031 13.914062 -7.125 13.75 -7.75 C 13.476562 -8.769531 13.15625 -9.640625 12.78125 -10.359375 C 12.414062 -11.085938 11.953125 -11.65625 11.390625 -12.0625 C 10.835938 -12.46875 10.171875 -12.703125 9.390625 -12.765625 C 8.609375 -12.828125 7.664062 -12.707031 6.5625 -12.40625 C 6.3125 -12.34375 6.007812 -12.253906 5.65625 -12.140625 C 5.3125 -12.023438 4.960938 -11.898438 4.609375 -11.765625 C 5.128906 -9.835938 5.601562 -8.101562 6.03125 -6.5625 C 6.46875 -5.019531 6.910156 -3.5 7.359375 -2 L 2.46875 -0.671875 C 2.207031 -1.796875 1.976562 -2.785156 1.78125 -3.640625 C 1.59375 -4.492188 1.390625 -5.378906 1.171875 -6.296875 C 0.953125 -7.222656 0.691406 -8.253906 0.390625 -9.390625 C 0.0859375 -10.535156 -0.285156 -11.953125 -0.734375 -13.640625 C -1.265625 -15.585938 -1.785156 -17.445312 -2.296875 -19.21875 C -2.804688 -20.988281 -3.351562 -22.804688 -3.9375 -24.671875 Z M 4.5 -24.421875 C 4.039062 -24.296875 3.566406 -24.125 3.078125 -23.90625 C 2.585938 -23.6875 2.09375 -23.429688 1.59375 -23.140625 C 1.820312 -22.160156 2.097656 -21.0625 2.421875 -19.84375 C 2.753906 -18.625 3.148438 -17.160156 3.609375 -15.453125 L 3.734375 -15 C 4.421875 -15.03125 5.191406 -15.160156 6.046875 -15.390625 C 7.785156 -15.859375 9.03125 -16.597656 9.78125 -17.609375 C 10.539062 -18.628906 10.722656 -19.867188 10.328125 -21.328125 C 9.960938 -22.679688 9.265625 -23.628906 8.234375 -24.171875 C 7.203125 -24.722656 5.957031 -24.804688 4.5 -24.421875 Z M 4.5 -24.421875 "/></g></g></g><g fill="#ffffff" fill-opacity="1"><g transform="translate(169.936624, 45.969085)"><g><path d="M 17.515625 -23.25 L 10.421875 -22.640625 C 10.460938 -21.515625 10.539062 -20.25 10.65625 -18.84375 C 10.78125 -17.445312 10.925781 -15.769531 11.09375 -13.8125 C 11.21875 -12.382812 11.328125 -11.085938 11.421875 -9.921875 C 11.523438 -8.753906 11.625 -7.671875 11.71875 -6.671875 C 11.820312 -5.671875 11.914062 -4.71875 12 -3.8125 C 12.09375 -2.90625 12.191406 -1.984375 12.296875 -1.046875 L 7.234375 -0.625 C 7.171875 -1.78125 7.117188 -2.796875 7.078125 -3.671875 C 7.035156 -4.546875 6.984375 -5.453125 6.921875 -6.390625 C 6.867188 -7.335938 6.800781 -8.421875 6.71875 -9.640625 C 6.644531 -10.859375 6.53125 -12.390625 6.375 -14.234375 C 6.257812 -15.566406 6.144531 -16.890625 6.03125 -18.203125 C 5.914062 -19.523438 5.773438 -20.867188 5.609375 -22.234375 L -1.484375 -21.625 L -1.796875 -25.140625 L 17.203125 -26.765625 Z M 17.515625 -23.25 "/></g></g></g><g fill="#ffffff" fill-opacity="1"><g transform="translate(188.029103, 44.619843)"><g><path d="M 8.90625 -24.828125 C 8.800781 -24.078125 8.710938 -23.300781 8.640625 -22.5 C 8.566406 -21.695312 8.503906 -20.804688 8.453125 -19.828125 C 8.398438 -18.859375 8.34375 -17.773438 8.28125 -16.578125 C 8.21875 -15.378906 8.15625 -14.007812 8.09375 -12.46875 C 8.03125 -11.03125 7.972656 -9.726562 7.921875 -8.5625 C 7.867188 -7.40625 7.828125 -6.320312 7.796875 -5.3125 C 7.765625 -4.3125 7.734375 -3.351562 7.703125 -2.4375 C 7.671875 -1.53125 7.644531 -0.609375 7.625 0.328125 L 2.5625 0.109375 C 2.632812 -1.046875 2.707031 -2.054688 2.78125 -2.921875 C 2.851562 -3.796875 2.921875 -4.707031 2.984375 -5.65625 C 3.046875 -6.601562 3.113281 -7.6875 3.1875 -8.90625 C 3.269531 -10.125 3.351562 -11.65625 3.4375 -13.5 C 3.519531 -15.351562 3.585938 -17.195312 3.640625 -19.03125 C 3.691406 -20.863281 3.722656 -22.753906 3.734375 -24.703125 Z M 8.90625 -24.828125 "/></g></g></g><g fill="#ffffff" fill-opacity="1"><g transform="translate(196.795988, 44.636558)"><g><path d="M 18.03125 -7.84375 L 9.234375 -9.34375 C 8.859375 -7.164062 8.535156 -5.242188 8.265625 -3.578125 C 7.992188 -1.910156 7.742188 -0.289062 7.515625 1.28125 L 2.53125 0.4375 C 2.75 -0.695312 2.945312 -1.691406 3.125 -2.546875 C 3.3125 -3.410156 3.488281 -4.304688 3.65625 -5.234375 C 3.832031 -6.160156 4.035156 -7.222656 4.265625 -8.421875 C 4.503906 -9.628906 4.773438 -11.144531 5.078125 -12.96875 C 5.390625 -14.789062 5.695312 -16.664062 6 -18.59375 C 6.300781 -20.53125 6.585938 -22.460938 6.859375 -24.390625 L 21.953125 -21.828125 L 21.359375 -18.34375 L 11.125 -20.078125 C 10.90625 -19.097656 10.691406 -18.003906 10.484375 -16.796875 C 10.285156 -15.585938 10.050781 -14.191406 9.78125 -12.609375 L 18.578125 -11.109375 Z M 18.03125 -7.84375 "/></g></g></g><g fill="#ffffff" fill-opacity="1"><g transform="translate(213.780982, 47.695916)"><g><path d="M 14.78125 -21.859375 C 14.476562 -21.140625 14.191406 -20.398438 13.921875 -19.640625 C 13.660156 -18.890625 13.382812 -18.050781 13.09375 -17.125 C 12.800781 -16.195312 12.472656 -15.160156 12.109375 -14.015625 C 11.753906 -12.878906 11.351562 -11.570312 10.90625 -10.09375 C 10.488281 -8.71875 10.113281 -7.46875 9.78125 -6.34375 C 9.445312 -5.226562 9.140625 -4.1875 8.859375 -3.21875 C 8.578125 -2.257812 8.304688 -1.335938 8.046875 -0.453125 C 7.796875 0.421875 7.546875 1.304688 7.296875 2.203125 L 2.453125 0.734375 C 2.804688 -0.359375 3.128906 -1.316406 3.421875 -2.140625 C 3.710938 -2.972656 4 -3.835938 4.28125 -4.734375 C 4.570312 -5.640625 4.90625 -6.671875 5.28125 -7.828125 C 5.664062 -8.992188 6.128906 -10.460938 6.671875 -12.234375 C 7.203125 -14.003906 7.71875 -15.769531 8.21875 -17.53125 C 8.726562 -19.300781 9.234375 -21.128906 9.734375 -23.015625 Z M 14.78125 -21.859375 "/></g></g></g><g fill="#ffffff" fill-opacity="1"><g transform="translate(222.23898, 49.822719)"><g><path d="M 19.96875 -3.21875 L 11.4375 -7.046875 C 10.820312 -5.671875 10.257812 -4.414062 9.75 -3.28125 C 9.238281 -2.15625 8.769531 -1.097656 8.34375 -0.109375 L 18.5 4.453125 L 17.046875 7.671875 L 2.34375 1.046875 C 2.832031 0.00390625 3.269531 -0.90625 3.65625 -1.6875 C 4.050781 -2.46875 4.453125 -3.285156 4.859375 -4.140625 C 5.265625 -4.992188 5.734375 -5.972656 6.265625 -7.078125 C 6.796875 -8.191406 7.4375 -9.585938 8.1875 -11.265625 C 8.945312 -12.953125 9.710938 -14.691406 10.484375 -16.484375 C 11.265625 -18.273438 12.023438 -20.078125 12.765625 -21.890625 L 26.765625 -15.59375 L 25.3125 -12.375 L 15.8125 -16.65625 C 15.394531 -15.8125 14.941406 -14.847656 14.453125 -13.765625 C 13.972656 -12.679688 13.421875 -11.453125 12.796875 -10.078125 L 21.328125 -6.25 Z M 19.96875 -3.21875 "/></g></g></g><g fill="#ffffff" fill-opacity="1"><g transform="translate(238.376281, 56.615269)"><g><path d="M 16.421875 -18.8125 C 17.328125 -18.414062 18.398438 -17.882812 19.640625 -17.21875 C 20.890625 -16.550781 22.203125 -15.734375 23.578125 -14.765625 C 25.128906 -13.671875 26.34375 -12.460938 27.21875 -11.140625 C 28.09375 -9.816406 28.640625 -8.414062 28.859375 -6.9375 C 29.078125 -5.457031 28.96875 -3.9375 28.53125 -2.375 C 28.101562 -0.8125 27.351562 0.734375 26.28125 2.265625 C 25.15625 3.878906 23.859375 5.195312 22.390625 6.21875 C 20.929688 7.238281 19.398438 7.921875 17.796875 8.265625 C 16.191406 8.617188 14.550781 8.628906 12.875 8.296875 C 11.195312 7.960938 9.570312 7.242188 8 6.140625 C 6.644531 5.191406 5.46875 4.316406 4.46875 3.515625 C 3.46875 2.710938 2.675781 2.03125 2.09375 1.46875 C 2.78125 0.53125 3.390625 -0.285156 3.921875 -0.984375 C 4.453125 -1.679688 4.992188 -2.410156 5.546875 -3.171875 C 6.109375 -3.929688 6.75 -4.804688 7.46875 -5.796875 C 8.195312 -6.785156 9.09375 -8.035156 10.15625 -9.546875 C 11.21875 -11.066406 12.265625 -12.582031 13.296875 -14.09375 C 14.328125 -15.601562 15.367188 -17.175781 16.421875 -18.8125 Z M 21.296875 -12.421875 C 20.960938 -12.648438 20.582031 -12.863281 20.15625 -13.0625 C 19.726562 -13.269531 19.28125 -13.457031 18.8125 -13.625 C 18.125 -12.707031 17.363281 -11.65625 16.53125 -10.46875 C 15.707031 -9.289062 14.703125 -7.859375 13.515625 -6.171875 C 12.296875 -4.421875 11.238281 -2.90625 10.34375 -1.625 C 9.445312 -0.351562 8.613281 0.847656 7.84375 1.984375 C 8.113281 2.460938 8.492188 2.878906 8.984375 3.234375 C 9.984375 3.929688 11.03125 4.425781 12.125 4.71875 C 13.226562 5.019531 14.34375 5.050781 15.46875 4.8125 C 16.59375 4.582031 17.71875 4.0625 18.84375 3.25 C 19.976562 2.445312 21.082031 1.28125 22.15625 -0.25 C 23.207031 -1.75 23.9375 -3.09375 24.34375 -4.28125 C 24.757812 -5.476562 24.898438 -6.566406 24.765625 -7.546875 C 24.628906 -8.523438 24.257812 -9.410156 23.65625 -10.203125 C 23.050781 -11.003906 22.265625 -11.742188 21.296875 -12.421875 Z M 21.296875 -12.421875 "/></g></g></g><g fill="#ffffff" fill-opacity="1"><g transform="translate(74.79211, 307.819104)"><g><path d="M 19.53125 2.28125 L 12.6875 -3.4375 C 11.269531 -1.738281 10.019531 -0.238281 8.9375 1.0625 C 7.863281 2.363281 6.835938 3.640625 5.859375 4.890625 L 1.96875 1.640625 C 2.71875 0.765625 3.390625 0.00390625 3.984375 -0.640625 C 4.578125 -1.285156 5.179688 -1.96875 5.796875 -2.6875 C 6.421875 -3.40625 7.132812 -4.222656 7.9375 -5.140625 C 8.75 -6.054688 9.75 -7.222656 10.9375 -8.640625 C 12.125 -10.066406 13.332031 -11.539062 14.5625 -13.0625 C 15.789062 -14.582031 17 -16.109375 18.1875 -17.640625 L 29.953125 -7.828125 L 27.6875 -5.125 L 19.71875 -11.78125 C 19.039062 -11.019531 18.304688 -10.171875 17.515625 -9.234375 C 16.734375 -8.296875 15.828125 -7.210938 14.796875 -5.984375 L 21.640625 -0.265625 Z M 19.53125 2.28125 "/></g></g></g><g fill="#ffffff" fill-opacity="1"><g transform="translate(90.667551, 321.170202)"><g><path d="M 22.328125 -12.515625 C 20.734375 -13.503906 19.023438 -13.5625 17.203125 -12.6875 C 15.378906 -11.8125 13.628906 -10.015625 11.953125 -7.296875 C 10.285156 -4.597656 9.40625 -2.296875 9.3125 -0.390625 C 9.226562 1.503906 10.070312 3.003906 11.84375 4.109375 C 12.625 4.585938 13.457031 4.828125 14.34375 4.828125 C 15.226562 4.828125 16.132812 4.59375 17.0625 4.125 C 18 3.65625 18.921875 2.96875 19.828125 2.0625 C 20.734375 1.15625 21.601562 0.03125 22.4375 -1.3125 C 23.226562 -2.601562 23.859375 -3.796875 24.328125 -4.890625 C 24.796875 -5.984375 25.046875 -6.988281 25.078125 -7.90625 C 25.109375 -8.832031 24.90625 -9.675781 24.46875 -10.4375 C 24.039062 -11.207031 23.328125 -11.898438 22.328125 -12.515625 Z M 7.71875 -9.8125 C 8.738281 -11.457031 9.898438 -12.835938 11.203125 -13.953125 C 12.503906 -15.066406 13.882812 -15.851562 15.34375 -16.3125 C 16.800781 -16.78125 18.289062 -16.921875 19.8125 -16.734375 C 21.34375 -16.546875 22.84375 -16 24.3125 -15.09375 C 25.71875 -14.21875 26.820312 -13.1875 27.625 -12 C 28.4375 -10.820312 28.941406 -9.535156 29.140625 -8.140625 C 29.335938 -6.753906 29.234375 -5.28125 28.828125 -3.71875 C 28.429688 -2.15625 27.742188 -0.582031 26.765625 1 C 25.722656 2.675781 24.535156 4.082031 23.203125 5.21875 C 21.867188 6.351562 20.460938 7.175781 18.984375 7.6875 C 17.515625 8.207031 16.003906 8.390625 14.453125 8.234375 C 12.910156 8.085938 11.410156 7.566406 9.953125 6.671875 C 8.546875 5.804688 7.453125 4.757812 6.671875 3.53125 C 5.898438 2.300781 5.425781 0.960938 5.25 -0.484375 C 5.082031 -1.929688 5.203125 -3.445312 5.609375 -5.03125 C 6.023438 -6.613281 6.726562 -8.207031 7.71875 -9.8125 Z M 7.71875 -9.8125 "/></g></g></g><g fill="#ffffff" fill-opacity="1"><g transform="translate(113.572476, 335.124058)"><g><path d="M 20.046875 -15.9375 C 18.304688 -16.65625 16.609375 -16.4375 14.953125 -15.28125 C 13.296875 -14.125 11.859375 -12.066406 10.640625 -9.109375 C 9.421875 -6.179688 8.921875 -3.769531 9.140625 -1.875 C 9.359375 0.0078125 10.425781 1.347656 12.34375 2.140625 C 13.195312 2.492188 14.0625 2.597656 14.9375 2.453125 C 15.8125 2.304688 16.664062 1.925781 17.5 1.3125 C 18.34375 0.707031 19.140625 -0.113281 19.890625 -1.15625 C 20.648438 -2.195312 21.332031 -3.445312 21.9375 -4.90625 C 22.519531 -6.300781 22.953125 -7.578125 23.234375 -8.734375 C 23.515625 -9.890625 23.597656 -10.925781 23.484375 -11.84375 C 23.367188 -12.757812 23.035156 -13.554688 22.484375 -14.234375 C 21.941406 -14.921875 21.128906 -15.488281 20.046875 -15.9375 Z M 6.03125 -10.921875 C 6.769531 -12.710938 7.691406 -14.257812 8.796875 -15.5625 C 9.910156 -16.875 11.148438 -17.875 12.515625 -18.5625 C 13.890625 -19.257812 15.34375 -19.632812 16.875 -19.6875 C 18.414062 -19.75 19.984375 -19.453125 21.578125 -18.796875 C 23.109375 -18.160156 24.363281 -17.320312 25.34375 -16.28125 C 26.332031 -15.25 27.035156 -14.0625 27.453125 -12.71875 C 27.878906 -11.375 28.019531 -9.898438 27.875 -8.296875 C 27.726562 -6.691406 27.296875 -5.03125 26.578125 -3.3125 C 25.828125 -1.488281 24.878906 0.0859375 23.734375 1.421875 C 22.597656 2.765625 21.34375 3.804688 19.96875 4.546875 C 18.601562 5.285156 17.144531 5.707031 15.59375 5.8125 C 14.039062 5.914062 12.476562 5.640625 10.90625 4.984375 C 9.375 4.347656 8.125 3.488281 7.15625 2.40625 C 6.195312 1.320312 5.515625 0.0820312 5.109375 -1.3125 C 4.703125 -2.71875 4.570312 -4.234375 4.71875 -5.859375 C 4.875 -7.492188 5.3125 -9.179688 6.03125 -10.921875 Z M 6.03125 -10.921875 "/></g></g></g><g fill="#ffffff" fill-opacity="1"><g transform="translate(138.402253, 345.19512)"><g><path d="M 8.3125 -23.5625 C 9.300781 -23.519531 10.5 -23.414062 11.90625 -23.25 C 13.3125 -23.09375 14.832031 -22.820312 16.46875 -22.4375 C 18.3125 -22 19.882812 -21.320312 21.1875 -20.40625 C 22.488281 -19.5 23.515625 -18.398438 24.265625 -17.109375 C 25.015625 -15.816406 25.476562 -14.359375 25.65625 -12.734375 C 25.832031 -11.117188 25.703125 -9.40625 25.265625 -7.59375 C 24.816406 -5.675781 24.097656 -3.972656 23.109375 -2.484375 C 22.128906 -1.003906 20.953125 0.191406 19.578125 1.109375 C 18.210938 2.035156 16.691406 2.648438 15.015625 2.953125 C 13.347656 3.253906 11.582031 3.1875 9.71875 2.75 C 8.101562 2.363281 6.679688 1.984375 5.453125 1.609375 C 4.222656 1.234375 3.238281 0.894531 2.5 0.59375 C 2.789062 -0.53125 3.050781 -1.507812 3.28125 -2.34375 C 3.507812 -3.1875 3.742188 -4.066406 3.984375 -4.984375 C 4.222656 -5.910156 4.5 -6.960938 4.8125 -8.140625 C 5.125 -9.328125 5.492188 -10.816406 5.921875 -12.609375 C 6.347656 -14.421875 6.757812 -16.21875 7.15625 -18 C 7.550781 -19.789062 7.9375 -21.644531 8.3125 -23.5625 Z M 15.21875 -19.390625 C 14.820312 -19.484375 14.382812 -19.546875 13.90625 -19.578125 C 13.4375 -19.609375 12.953125 -19.617188 12.453125 -19.609375 C 12.148438 -18.503906 11.832031 -17.25 11.5 -15.84375 C 11.164062 -14.4375 10.757812 -12.734375 10.28125 -10.734375 C 9.789062 -8.648438 9.363281 -6.847656 9 -5.328125 C 8.644531 -3.816406 8.316406 -2.390625 8.015625 -1.046875 C 8.453125 -0.703125 8.960938 -0.460938 9.546875 -0.328125 C 10.734375 -0.046875 11.890625 0.03125 13.015625 -0.09375 C 14.140625 -0.21875 15.179688 -0.59375 16.140625 -1.21875 C 17.109375 -1.851562 17.96875 -2.753906 18.71875 -3.921875 C 19.46875 -5.097656 20.0625 -6.597656 20.5 -8.421875 C 20.914062 -10.191406 21.09375 -11.707031 21.03125 -12.96875 C 20.976562 -14.238281 20.707031 -15.300781 20.21875 -16.15625 C 19.726562 -17.019531 19.054688 -17.707031 18.203125 -18.21875 C 17.359375 -18.726562 16.363281 -19.117188 15.21875 -19.390625 Z M 15.21875 -19.390625 "/></g></g></g><g fill="#ffffff" fill-opacity="1"><g transform="translate(163.31259, 350.594195)"><g/></g></g><g fill="#ffffff" fill-opacity="1"><g transform="translate(172.031214, 351.958833)"><g><path d="M 9.890625 -3.296875 C 11.398438 -3.234375 12.53125 -3.453125 13.28125 -3.953125 C 14.03125 -4.453125 14.425781 -5.207031 14.46875 -6.21875 C 14.488281 -6.84375 14.375 -7.375 14.125 -7.8125 C 13.875 -8.257812 13.535156 -8.644531 13.109375 -8.96875 C 12.679688 -9.300781 12.175781 -9.585938 11.59375 -9.828125 C 11.019531 -10.078125 10.425781 -10.320312 9.8125 -10.5625 C 8.675781 -10.988281 7.648438 -11.410156 6.734375 -11.828125 C 5.828125 -12.253906 5.054688 -12.738281 4.421875 -13.28125 C 3.785156 -13.820312 3.300781 -14.472656 2.96875 -15.234375 C 2.644531 -16.003906 2.503906 -16.957031 2.546875 -18.09375 C 2.609375 -19.644531 2.972656 -20.894531 3.640625 -21.84375 C 4.316406 -22.800781 5.144531 -23.53125 6.125 -24.03125 C 7.101562 -24.539062 8.164062 -24.859375 9.3125 -24.984375 C 10.457031 -25.117188 11.515625 -25.171875 12.484375 -25.140625 C 13.734375 -25.085938 14.910156 -24.941406 16.015625 -24.703125 C 17.128906 -24.472656 18.101562 -24.25 18.9375 -24.03125 L 18.78125 -19.859375 C 17.632812 -20.234375 16.453125 -20.550781 15.234375 -20.8125 C 14.023438 -21.070312 12.921875 -21.222656 11.921875 -21.265625 C 10.203125 -21.328125 8.929688 -21.066406 8.109375 -20.484375 C 7.296875 -19.910156 6.875 -19.191406 6.84375 -18.328125 C 6.820312 -17.679688 6.984375 -17.132812 7.328125 -16.6875 C 7.679688 -16.238281 8.125 -15.847656 8.65625 -15.515625 C 9.1875 -15.179688 9.75 -14.910156 10.34375 -14.703125 C 10.945312 -14.503906 11.5 -14.320312 12 -14.15625 C 12.851562 -13.875 13.707031 -13.546875 14.5625 -13.171875 C 15.414062 -12.796875 16.179688 -12.304688 16.859375 -11.703125 C 17.535156 -11.097656 18.070312 -10.363281 18.46875 -9.5 C 18.875 -8.632812 19.050781 -7.582031 19 -6.34375 C 18.957031 -5.09375 18.695312 -4.003906 18.21875 -3.078125 C 17.738281 -2.160156 17.082031 -1.40625 16.25 -0.8125 C 15.425781 -0.21875 14.457031 0.210938 13.34375 0.484375 C 12.226562 0.753906 11.015625 0.863281 9.703125 0.8125 C 8.546875 0.769531 7.257812 0.597656 5.84375 0.296875 C 4.425781 0.00390625 3.046875 -0.421875 1.703125 -0.984375 L 1.734375 -5.40625 C 2.148438 -5.175781 2.675781 -4.945312 3.3125 -4.71875 C 3.957031 -4.488281 4.65625 -4.269531 5.40625 -4.0625 C 6.15625 -3.851562 6.914062 -3.675781 7.6875 -3.53125 C 8.46875 -3.394531 9.203125 -3.316406 9.890625 -3.296875 Z M 9.890625 -3.296875 "/></g></g></g><g fill="#ffffff" fill-opacity="1"><g transform="translate(194.013635, 352.794809)"><g><path d="M 0.484375 0.390625 C 0.878906 -2.085938 1.289062 -4.460938 1.71875 -6.734375 C 2.144531 -9.015625 2.601562 -11.226562 3.09375 -13.375 C 3.59375 -15.53125 4.148438 -17.648438 4.765625 -19.734375 C 5.378906 -21.828125 6.0625 -23.929688 6.8125 -26.046875 L 11.234375 -26.921875 C 12.398438 -25.046875 13.492188 -23.160156 14.515625 -21.265625 C 15.535156 -19.367188 16.515625 -17.414062 17.453125 -15.40625 C 18.390625 -13.394531 19.300781 -11.3125 20.1875 -9.15625 C 21.082031 -7.007812 21.976562 -4.75 22.875 -2.375 L 18.0625 -1.4375 C 17.59375 -2.664062 17.125 -3.898438 16.65625 -5.140625 C 16.1875 -6.390625 15.71875 -7.644531 15.25 -8.90625 L 6.421875 -7.984375 C 6.203125 -6.773438 6 -5.554688 5.8125 -4.328125 C 5.625 -3.097656 5.460938 -1.835938 5.328125 -0.546875 Z M 9.484375 -22.234375 C 8.453125 -18.691406 7.609375 -15.066406 6.953125 -11.359375 L 14.015625 -12.09375 C 13.304688 -13.820312 12.578125 -15.539062 11.828125 -17.25 C 11.085938 -18.96875 10.304688 -20.628906 9.484375 -22.234375 Z M 9.484375 -22.234375 "/></g></g></g><g fill="#ffffff" fill-opacity="1"><g transform="translate(219.119999, 349.898894)"><g><path d="M 13.390625 -14.390625 L 4.734375 -12.25 C 5.265625 -10.101562 5.738281 -8.210938 6.15625 -6.578125 C 6.570312 -4.941406 6.988281 -3.359375 7.40625 -1.828125 L 2.484375 -0.609375 C 2.222656 -1.742188 2.003906 -2.738281 1.828125 -3.59375 C 1.660156 -4.445312 1.472656 -5.335938 1.265625 -6.265625 C 1.066406 -7.191406 0.832031 -8.253906 0.5625 -9.453125 C 0.289062 -10.648438 -0.0625 -12.144531 -0.5 -13.9375 C -0.945312 -15.726562 -1.414062 -17.566406 -1.90625 -19.453125 C -2.394531 -21.347656 -2.910156 -23.234375 -3.453125 -25.109375 L 11.421875 -28.765625 L 12.265625 -25.34375 L 2.1875 -22.859375 C 2.382812 -21.859375 2.628906 -20.765625 2.921875 -19.578125 C 3.210938 -18.390625 3.550781 -17.019531 3.9375 -15.46875 L 12.59375 -17.609375 Z M 13.390625 -14.390625 "/></g></g></g><g fill="#ffffff" fill-opacity="1"><g transform="translate(239.022767, 344.914984)"><g><path d="M 11.765625 -16.453125 L 3.03125 -13.078125 C 3.570312 -11.671875 4.066406 -10.390625 4.515625 -9.234375 C 4.960938 -8.078125 5.390625 -7.003906 5.796875 -6.015625 L 16.171875 -10.015625 L 17.4375 -6.71875 L 2.390625 -0.921875 C 1.992188 -2.015625 1.65625 -2.972656 1.375 -3.796875 C 1.09375 -4.617188 0.789062 -5.476562 0.46875 -6.375 C 0.144531 -7.269531 -0.21875 -8.289062 -0.625 -9.4375 C -1.039062 -10.582031 -1.582031 -12.019531 -2.25 -13.75 C -2.914062 -15.476562 -3.613281 -17.25 -4.34375 -19.0625 C -5.070312 -20.875 -5.816406 -22.675781 -6.578125 -24.46875 L 7.734375 -29.984375 L 9 -26.6875 L -0.71875 -22.953125 C -0.414062 -22.054688 -0.0507812 -21.050781 0.375 -19.9375 C 0.800781 -18.832031 1.289062 -17.578125 1.84375 -16.171875 L 10.578125 -19.546875 Z M 11.765625 -16.453125 "/></g></g></g><g fill="#ffffff" fill-opacity="1"><g transform="translate(259.069312, 337.066525)"><g><path d="M 6.734375 -28.328125 L 0.484375 -24.921875 C 0.972656 -23.910156 1.550781 -22.785156 2.21875 -21.546875 C 2.894531 -20.316406 3.703125 -18.835938 4.640625 -17.109375 C 5.328125 -15.835938 5.945312 -14.6875 6.5 -13.65625 C 7.050781 -12.632812 7.578125 -11.6875 8.078125 -10.8125 C 8.578125 -9.9375 9.046875 -9.097656 9.484375 -8.296875 C 9.929688 -7.503906 10.382812 -6.703125 10.84375 -5.890625 L 6.390625 -3.46875 C 5.859375 -4.5 5.398438 -5.40625 5.015625 -6.1875 C 4.628906 -6.976562 4.21875 -7.796875 3.78125 -8.640625 C 3.351562 -9.484375 2.859375 -10.445312 2.296875 -11.53125 C 1.734375 -12.625 1.007812 -13.976562 0.125 -15.59375 C -0.507812 -16.78125 -1.140625 -17.953125 -1.765625 -19.109375 C -2.398438 -20.273438 -3.066406 -21.445312 -3.765625 -22.625 L -10.03125 -19.21875 L -11.71875 -22.328125 L 5.046875 -31.4375 Z M 6.734375 -28.328125 "/></g></g></g><g fill="#ffffff" fill-opacity="1"><g transform="translate(278.037938, 326.72404)"><g><path d="M 2.328125 -33.53125 C 2.765625 -31.945312 3.160156 -30.40625 3.515625 -28.90625 C 3.867188 -27.414062 4.171875 -25.925781 4.421875 -24.4375 C 4.679688 -22.957031 4.890625 -21.484375 5.046875 -20.015625 C 5.210938 -18.546875 5.328125 -17.035156 5.390625 -15.484375 C 6.472656 -14.015625 7.457031 -12.691406 8.34375 -11.515625 C 9.226562 -10.347656 10.109375 -9.207031 10.984375 -8.09375 L 6.890625 -5.078125 C 6.410156 -5.796875 5.96875 -6.441406 5.5625 -7.015625 C 5.164062 -7.585938 4.78125 -8.148438 4.40625 -8.703125 C 4.03125 -9.265625 3.628906 -9.847656 3.203125 -10.453125 C 2.785156 -11.054688 2.296875 -11.734375 1.734375 -12.484375 C -1.097656 -13.453125 -3.8125 -14.609375 -6.40625 -15.953125 C -9.007812 -17.296875 -11.691406 -18.863281 -14.453125 -20.65625 L -10.75 -23.90625 C -9.832031 -23.332031 -8.882812 -22.734375 -7.90625 -22.109375 C -6.925781 -21.492188 -5.929688 -20.882812 -4.921875 -20.28125 C -3.910156 -19.6875 -2.882812 -19.109375 -1.84375 -18.546875 C -0.8125 -17.992188 0.226562 -17.503906 1.28125 -17.078125 C 1.164062 -19.304688 0.84375 -21.488281 0.3125 -23.625 C -0.207031 -25.769531 -0.78125 -27.984375 -1.40625 -30.265625 Z M 2.328125 -33.53125 "/></g></g></g><g fill="#ffffff" fill-opacity="1"><g transform="translate(296.741795, 312.432556)"><g/></g></g><g clip-path="url(#d9a18615e3)"><path fill="#0c542f" d="M 0 146.53125 L 375 146.53125 L 358.28125 191.390625 L 375 228.46875 L 0 228.46875 L 15.972656 187.5 Z M 0 146.53125 " fill-opacity="1" fill-rule="nonzero"/></g><g transform="matrix(1, 0, 0, 1, 44, 130)"><g clip-path="url(#290dfe2a0c)"><g fill="#ffffff" fill-opacity="1"><g transform="translate(0.846358, 90.783107)"><g><path d="M 58.65625 -64.046875 C 58.46875 -62.097656 58.328125 -60.097656 58.234375 -58.046875 C 58.148438 -56.003906 58.09375 -53.75 58.0625 -51.28125 C 58.03125 -48.8125 58 -46.050781 57.96875 -43 C 57.9375 -39.957031 57.921875 -36.484375 57.921875 -32.578125 C 57.921875 -28.910156 57.921875 -25.597656 57.921875 -22.640625 C 57.921875 -19.679688 57.9375 -16.921875 57.96875 -14.359375 C 58 -11.796875 58.03125 -9.351562 58.0625 -7.03125 C 58.09375 -4.71875 58.132812 -2.375 58.1875 0 L 45.296875 0 C 45.359375 -2.5625 45.414062 -4.832031 45.46875 -6.8125 C 45.53125 -8.800781 45.609375 -10.832031 45.703125 -12.90625 C 45.796875 -14.976562 45.875 -17.203125 45.9375 -19.578125 C 46 -21.960938 46.03125 -24.863281 46.03125 -28.28125 L 19.125 -28.28125 C 19.125 -25.34375 19.125 -22.609375 19.125 -20.078125 C 19.125 -17.546875 19.140625 -15.132812 19.171875 -12.84375 C 19.203125 -10.5625 19.234375 -8.367188 19.265625 -6.265625 C 19.296875 -4.160156 19.335938 -2.070312 19.390625 0 L 6.5 0 C 6.5625 -2.925781 6.632812 -5.503906 6.71875 -7.734375 C 6.8125 -9.960938 6.890625 -12.28125 6.953125 -14.6875 C 7.015625 -17.09375 7.078125 -19.851562 7.140625 -22.96875 C 7.203125 -26.082031 7.234375 -29.984375 7.234375 -34.671875 C 7.234375 -39.367188 7.203125 -44.050781 7.140625 -48.71875 C 7.078125 -53.382812 6.953125 -58.191406 6.765625 -63.140625 L 19.859375 -64.046875 C 19.671875 -62.273438 19.53125 -60.457031 19.4375 -58.59375 C 19.351562 -56.738281 19.296875 -54.726562 19.265625 -52.5625 C 19.234375 -50.394531 19.203125 -48.015625 19.171875 -45.421875 C 19.140625 -42.835938 19.125 -39.925781 19.125 -36.6875 L 46.03125 -36.6875 C 46.03125 -41.019531 45.984375 -45.363281 45.890625 -49.71875 C 45.796875 -54.082031 45.6875 -58.554688 45.5625 -63.140625 Z M 58.65625 -64.046875 "/></g></g></g><g fill="#ffffff" fill-opacity="1"><g transform="translate(65.898205, 90.783107)"><g><path d="M 1.09375 1.09375 C 2.738281 -5.0625 4.398438 -10.960938 6.078125 -16.609375 C 7.753906 -22.253906 9.507812 -27.726562 11.34375 -33.03125 C 13.175781 -38.332031 15.144531 -43.546875 17.25 -48.671875 C 19.351562 -53.796875 21.625 -58.921875 24.0625 -64.046875 L 35.5 -65.140625 C 37.9375 -60.078125 40.191406 -55.015625 42.265625 -49.953125 C 44.347656 -44.890625 46.316406 -39.691406 48.171875 -34.359375 C 50.035156 -29.023438 51.804688 -23.519531 53.484375 -17.84375 C 55.160156 -12.164062 56.820312 -6.21875 58.46875 0 L 46.03125 1.09375 C 45.175781 -2.132812 44.320312 -5.378906 43.46875 -8.640625 C 42.613281 -11.910156 41.757812 -15.191406 40.90625 -18.484375 L 18.296875 -18.484375 C 17.441406 -15.492188 16.617188 -12.472656 15.828125 -9.421875 C 15.035156 -6.367188 14.304688 -3.226562 13.640625 0 Z M 29.828125 -53.703125 C 26.285156 -45.046875 23.207031 -36.113281 20.59375 -26.90625 L 38.609375 -26.90625 C 37.265625 -31.476562 35.875 -36.019531 34.4375 -40.53125 C 33.007812 -45.050781 31.472656 -49.441406 29.828125 -53.703125 Z M 29.828125 -53.703125 "/></g></g></g><g fill="#ffffff" fill-opacity="1"><g transform="translate(125.551939, 90.783107)"><g><path d="M 3.84375 -29.375 C 3.84375 -41.445312 6.296875 -50.425781 11.203125 -56.3125 C 16.117188 -62.195312 23.0625 -65.140625 32.03125 -65.140625 C 34.769531 -65.140625 37.039062 -64.957031 38.84375 -64.59375 C 40.644531 -64.226562 42.304688 -64.046875 43.828125 -64.046875 C 44.867188 -64.046875 45.90625 -64.132812 46.9375 -64.3125 C 47.976562 -64.5 49.078125 -64.75 50.234375 -65.0625 L 51.234375 -41.8125 L 40.984375 -40.625 C 41.046875 -41.539062 41.09375 -42.410156 41.125 -43.234375 C 41.15625 -44.054688 41.171875 -44.832031 41.171875 -45.5625 C 41.171875 -49.34375 40.5 -52.269531 39.15625 -54.34375 C 37.820312 -56.425781 35.414062 -57.46875 31.9375 -57.46875 C 21.195312 -57.46875 15.828125 -48.894531 15.828125 -31.75 C 15.828125 -27.664062 16.175781 -24.1875 16.875 -21.3125 C 17.582031 -18.445312 18.632812 -16.113281 20.03125 -14.3125 C 21.4375 -12.519531 23.191406 -11.210938 25.296875 -10.390625 C 27.398438 -9.566406 29.828125 -9.15625 32.578125 -9.15625 C 35.566406 -9.15625 38.523438 -9.59375 41.453125 -10.46875 C 44.378906 -11.351562 47.210938 -12.316406 49.953125 -13.359375 L 49.953125 -3.65625 C 47.210938 -1.882812 44.007812 -0.648438 40.34375 0.046875 C 36.6875 0.742188 33.148438 1.09375 29.734375 1.09375 C 26.316406 1.09375 23.035156 0.710938 19.890625 -0.046875 C 16.753906 -0.804688 13.992188 -2.300781 11.609375 -4.53125 C 9.234375 -6.757812 7.34375 -9.851562 5.9375 -13.8125 C 4.539062 -17.78125 3.84375 -22.96875 3.84375 -29.375 Z M 3.84375 -29.375 "/></g></g></g><g fill="#ffffff" fill-opacity="1"><g transform="translate(180.722495, 90.783107)"><g><path d="M 3.84375 -29.375 C 3.84375 -41.445312 6.296875 -50.425781 11.203125 -56.3125 C 16.117188 -62.195312 23.0625 -65.140625 32.03125 -65.140625 C 34.769531 -65.140625 37.039062 -64.957031 38.84375 -64.59375 C 40.644531 -64.226562 42.304688 -64.046875 43.828125 -64.046875 C 44.867188 -64.046875 45.90625 -64.132812 46.9375 -64.3125 C 47.976562 -64.5 49.078125 -64.75 50.234375 -65.0625 L 51.234375 -41.8125 L 40.984375 -40.625 C 41.046875 -41.539062 41.09375 -42.410156 41.125 -43.234375 C 41.15625 -44.054688 41.171875 -44.832031 41.171875 -45.5625 C 41.171875 -49.34375 40.5 -52.269531 39.15625 -54.34375 C 37.820312 -56.425781 35.414062 -57.46875 31.9375 -57.46875 C 21.195312 -57.46875 15.828125 -48.894531 15.828125 -31.75 C 15.828125 -27.664062 16.175781 -24.1875 16.875 -21.3125 C 17.582031 -18.445312 18.632812 -16.113281 20.03125 -14.3125 C 21.4375 -12.519531 23.191406 -11.210938 25.296875 -10.390625 C 27.398438 -9.566406 29.828125 -9.15625 32.578125 -9.15625 C 35.566406 -9.15625 38.523438 -9.59375 41.453125 -10.46875 C 44.378906 -11.351562 47.210938 -12.316406 49.953125 -13.359375 L 49.953125 -3.65625 C 47.210938 -1.882812 44.007812 -0.648438 40.34375 0.046875 C 36.6875 0.742188 33.148438 1.09375 29.734375 1.09375 C 26.316406 1.09375 23.035156 0.710938 19.890625 -0.046875 C 16.753906 -0.804688 13.992188 -2.300781 11.609375 -4.53125 C 9.234375 -6.757812 7.34375 -9.851562 5.9375 -13.8125 C 4.539062 -17.78125 3.84375 -22.96875 3.84375 -29.375 Z M 3.84375 -29.375 "/></g></g></g><g fill="#ffffff" fill-opacity="1"><g transform="translate(235.893051, 90.783107)"><g><path d="M 50.6875 -45.84375 C 50.6875 -42.363281 50.09375 -39.234375 48.90625 -36.453125 C 47.71875 -33.679688 46.007812 -31.332031 43.78125 -29.40625 C 41.550781 -27.488281 38.847656 -26.007812 35.671875 -24.96875 C 32.503906 -23.9375 28.941406 -23.421875 24.984375 -23.421875 C 23.941406 -23.421875 22.945312 -23.453125 22 -23.515625 C 21.0625 -23.578125 20.101562 -23.671875 19.125 -23.796875 C 19.125 -19.097656 19.140625 -14.867188 19.171875 -11.109375 C 19.203125 -7.359375 19.273438 -3.65625 19.390625 0 L 6.5 0 C 6.613281 -2.925781 6.71875 -5.503906 6.8125 -7.734375 C 6.90625 -9.960938 6.984375 -12.28125 7.046875 -14.6875 C 7.109375 -17.09375 7.15625 -19.789062 7.1875 -22.78125 C 7.21875 -25.769531 7.234375 -29.492188 7.234375 -33.953125 C 7.234375 -39.066406 7.203125 -43.972656 7.140625 -48.671875 C 7.078125 -53.367188 6.953125 -58.191406 6.765625 -63.140625 C 8.109375 -63.378906 9.570312 -63.617188 11.15625 -63.859375 C 12.75 -64.109375 14.382812 -64.320312 16.0625 -64.5 C 17.738281 -64.6875 19.414062 -64.828125 21.09375 -64.921875 C 22.769531 -65.015625 24.398438 -65.0625 25.984375 -65.0625 C 31.046875 -65.0625 35.175781 -64.492188 38.375 -63.359375 C 41.582031 -62.234375 44.097656 -60.769531 45.921875 -58.96875 C 47.753906 -57.164062 49.003906 -55.117188 49.671875 -52.828125 C 50.347656 -50.546875 50.6875 -48.21875 50.6875 -45.84375 Z M 19.125 -31.75 C 19.976562 -31.5625 20.863281 -31.4375 21.78125 -31.375 C 22.695312 -31.320312 23.640625 -31.296875 24.609375 -31.296875 C 29.179688 -31.296875 32.65625 -32.40625 35.03125 -34.625 C 37.414062 -36.851562 38.609375 -40.132812 38.609375 -44.46875 C 38.609375 -48.5 37.617188 -51.578125 35.640625 -53.703125 C 33.660156 -55.835938 30.835938 -56.90625 27.171875 -56.90625 C 25.953125 -56.90625 24.6875 -56.796875 23.375 -56.578125 C 22.0625 -56.367188 20.707031 -56.082031 19.3125 -55.71875 C 19.1875 -52.789062 19.125 -49.492188 19.125 -45.828125 C 19.125 -42.171875 19.125 -37.753906 19.125 -32.578125 Z M 19.125 -31.75 "/></g></g></g></g></g></svg>