<svg xmlns="http://www.w3.org/2000/svg" xmlns:xlink="http://www.w3.org/1999/xlink" width="500" zoomAndPan="magnify" viewBox="0 0 375 374.999991" height="500" preserveAspectRatio="xMidYMid meet" version="1.0"><defs><g/><clipPath id="1dbf72175a"><path d="M 14.628906 14.628906 L 360.371094 14.628906 L 360.371094 360.371094 L 14.628906 360.371094 Z M 14.628906 14.628906 " clip-rule="nonzero"/></clipPath><clipPath id="8a2320920b"><path d="M 187.5 14.628906 C 92.027344 14.628906 14.628906 92.027344 14.628906 187.5 C 14.628906 282.972656 92.027344 360.371094 187.5 360.371094 C 282.972656 360.371094 360.371094 282.972656 360.371094 187.5 C 360.371094 92.027344 282.972656 14.628906 187.5 14.628906 Z M 187.5 14.628906 " clip-rule="nonzero"/></clipPath><clipPath id="fed23e27df"><path d="M 0.628906 0.628906 L 346.371094 0.628906 L 346.371094 346.371094 L 0.628906 346.371094 Z M 0.628906 0.628906 " clip-rule="nonzero"/></clipPath><clipPath id="de85205a9a"><path d="M 173.5 0.628906 C 78.027344 0.628906 0.628906 78.027344 0.628906 173.5 C 0.628906 268.972656 78.027344 346.371094 173.5 346.371094 C 268.972656 346.371094 346.371094 268.972656 346.371094 173.5 C 346.371094 78.027344 268.972656 0.628906 173.5 0.628906 Z M 173.5 0.628906 " clip-rule="nonzero"/></clipPath><clipPath id="56769fcf0e"><rect x="0" width="347" y="0" height="347"/></clipPath><clipPath id="950a1909db"><path d="M 59 37.5 L 316 37.5 L 316 365 L 59 365 Z M 59 37.5 " clip-rule="nonzero"/></clipPath><clipPath id="4863798ce1"><path d="M 0 227 L 375 227 L 375 308.710938 L 0 308.710938 Z M 0 227 " clip-rule="nonzero"/></clipPath><clipPath id="7247772501"><rect x="0" width="281" y="0" height="79"/></clipPath></defs><rect x="-37.5" width="450" fill="#ffffff" y="-37.499999" height="449.999989" fill-opacity="1"/><rect x="-37.5" width="450" fill="#ffffff" y="-37.499999" height="449.999989" fill-opacity="1"/><g clip-path="url(#1dbf72175a)"><g clip-path="url(#8a2320920b)"><g transform="matrix(1, 0, 0, 1, 14, 14)"><g clip-path="url(#56769fcf0e)"><g clip-path="url(#fed23e27df)"><g clip-path="url(#de85205a9a)"><path fill="#428c62" d="M 0.628906 0.628906 L 346.371094 0.628906 L 346.371094 346.371094 L 0.628906 346.371094 Z M 0.628906 0.628906 " fill-opacity="1" fill-rule="nonzero"/></g></g></g></g></g></g><g clip-path="url(#950a1909db)"><path fill="#ffffff" d="M 187.53125 82.164062 C 211.4375 82.164062 233.078125 91.851562 248.742188 107.515625 C 264.40625 123.179688 274.09375 144.820312 274.09375 168.722656 C 274.09375 192.625 264.40625 214.265625 248.742188 229.933594 C 233.078125 245.597656 211.4375 255.285156 187.53125 255.285156 C 163.628906 255.285156 141.988281 245.597656 126.324219 229.933594 C 110.660156 214.269531 100.972656 192.625 100.972656 168.722656 C 100.972656 144.820312 110.660156 123.179688 126.324219 107.515625 C 141.988281 91.851562 163.628906 82.160156 187.535156 82.160156 Z M 147.277344 214.230469 C 141.171875 216.101562 135.617188 218.386719 130.765625 221 C 131.484375 221.78125 132.214844 222.542969 132.964844 223.292969 C 140.988281 231.316406 150.769531 237.582031 161.683594 241.460938 C 158.628906 237.828125 155.832031 233.5625 153.339844 228.757812 C 151.058594 224.355469 149.023438 219.484375 147.28125 214.230469 Z M 182.863281 208.621094 C 173.476562 208.902344 164.546875 210.023438 156.355469 211.839844 C 157.898438 216.40625 159.679688 220.640625 161.664062 224.46875 C 167.417969 235.550781 174.777344 243.097656 182.792969 245.257812 Z M 218.707031 211.84375 C 210.523438 210.027344 201.601562 208.90625 192.21875 208.625 L 192.144531 245.292969 C 200.207031 243.175781 207.617188 235.613281 213.398438 224.46875 C 215.382812 220.640625 217.164062 216.410156 218.707031 211.84375 Z M 244.300781 221 C 239.449219 218.386719 233.894531 216.101562 227.785156 214.230469 C 226.042969 219.484375 224.007812 224.355469 221.726562 228.757812 C 219.234375 233.5625 216.433594 237.828125 213.382812 241.457031 C 224.292969 237.582031 234.078125 231.316406 242.101562 223.292969 C 242.851562 222.546875 243.582031 221.78125 244.300781 221 Z M 230.386719 205.230469 C 237.789062 207.496094 244.5 210.332031 250.304688 213.628906 C 258.488281 202.203125 263.636719 188.449219 264.554688 173.550781 L 234.625 173.492188 C 234.296875 184.785156 232.808594 195.507812 230.386719 205.230469 Z M 192.238281 199.230469 C 202.507812 199.527344 212.316406 200.78125 221.332031 202.828125 C 223.546875 193.875 224.914062 183.960938 225.234375 173.476562 L 192.289062 173.410156 Z M 153.734375 202.828125 C 162.765625 200.777344 172.589844 199.523438 182.882812 199.230469 L 182.933594 173.390625 L 149.828125 173.328125 C 150.136719 183.863281 151.507812 193.832031 153.734375 202.828125 Z M 124.761719 213.628906 C 130.566406 210.332031 137.277344 207.496094 144.679688 205.230469 C 142.242188 195.453125 140.75 184.667969 140.433594 173.308594 L 110.492188 173.246094 C 111.359375 188.261719 116.519531 202.125 124.761719 213.625 Z M 227.785156 123.21875 C 233.894531 121.34375 239.449219 119.0625 244.300781 116.445312 C 243.582031 115.667969 242.851562 114.902344 242.101562 114.15625 C 234.078125 106.128906 224.292969 99.867188 213.378906 95.988281 C 216.433594 99.621094 219.234375 103.882812 221.726562 108.6875 C 224.007812 113.089844 226.042969 117.960938 227.785156 123.21875 Z M 192.375 128.820312 C 201.699219 128.53125 210.566406 127.410156 218.707031 125.605469 C 217.167969 121.039062 215.386719 116.808594 213.398438 112.980469 C 207.691406 101.976562 200.394531 94.460938 192.449219 92.238281 Z M 156.355469 125.605469 C 164.59375 127.433594 173.574219 128.558594 183.023438 128.828125 L 183.09375 92.113281 C 174.964844 94.164062 167.488281 101.757812 161.664062 112.980469 C 159.679688 116.808594 157.898438 121.039062 156.355469 125.605469 Z M 130.765625 116.445312 C 135.617188 119.0625 141.171875 121.347656 147.277344 123.21875 C 149.023438 117.964844 151.054688 113.09375 153.339844 108.691406 C 155.832031 103.886719 158.628906 99.621094 161.683594 95.992188 C 150.769531 99.871094 140.988281 106.132812 132.964844 114.15625 C 132.214844 114.90625 131.480469 115.667969 130.765625 116.449219 Z M 144.679688 132.21875 C 137.277344 129.953125 130.566406 127.117188 124.761719 123.820312 C 116.574219 135.246094 111.429688 149 110.511719 163.894531 L 140.4375 163.953125 C 140.769531 152.664062 142.253906 141.941406 144.679688 132.21875 Z M 183.003906 138.222656 C 172.667969 137.9375 162.800781 136.679688 153.734375 134.621094 C 151.519531 143.574219 150.152344 153.488281 149.832031 163.972656 L 182.953125 164.039062 Z M 221.332031 134.621094 C 212.351562 136.660156 202.585938 137.914062 192.355469 138.214844 L 192.304688 164.058594 L 225.238281 164.121094 C 224.925781 153.582031 223.554688 143.617188 221.332031 134.621094 Z M 250.300781 123.820312 C 244.5 127.117188 237.789062 129.953125 230.386719 132.21875 C 232.824219 141.992188 234.3125 152.78125 234.632812 164.140625 L 264.570312 164.199219 C 263.703125 149.183594 258.542969 135.324219 250.300781 123.820312 Z M 201.542969 43.757812 C 196.800781 40.703125 192 37.609375 187.53125 37.609375 C 183.0625 37.609375 178.265625 40.703125 173.523438 43.757812 C 169.082031 46.621094 164.683594 49.457031 159.703125 50.625 C 154.582031 51.824219 149.304688 51.167969 144.054688 50.515625 C 138.707031 49.847656 133.394531 49.1875 129.855469 50.917969 C 126.304688 52.664062 123.613281 57.253906 120.933594 61.832031 C 118.285156 66.351562 115.644531 70.863281 111.664062 74.058594 C 107.667969 77.265625 102.660156 78.867188 97.65625 80.464844 C 92.660156 82.0625 87.660156 83.660156 85.210938 86.714844 C 82.765625 89.753906 82.28125 94.992188 81.796875 100.238281 C 81.308594 105.472656 80.824219 110.71875 78.542969 115.371094 C 76.28125 119.980469 72.507812 123.554688 68.714844 127.148438 C 64.78125 130.875 60.820312 134.625 59.875 138.652344 C 58.929688 142.671875 60.757812 147.847656 62.605469 153.082031 C 64.410156 158.191406 66.234375 163.347656 66.234375 168.722656 C 66.234375 174.101562 64.410156 179.257812 62.605469 184.367188 C 60.757812 189.601562 58.929688 194.777344 59.875 198.796875 C 60.820312 202.824219 64.78125 206.574219 68.714844 210.300781 C 72.507812 213.894531 76.28125 217.46875 78.542969 222.078125 C 80.824219 226.730469 81.308594 231.976562 81.796875 237.210938 C 82.28125 242.457031 82.765625 247.691406 85.210938 250.734375 C 87.660156 253.789062 92.660156 255.386719 97.65625 256.984375 C 100.019531 257.738281 102.378906 258.492188 104.636719 259.417969 C 104.714844 259.445312 104.792969 259.480469 104.871094 259.515625 C 107.308594 260.527344 109.621094 261.75 111.664062 263.390625 C 115.644531 266.585938 118.285156 271.09375 120.933594 275.617188 C 123.613281 280.195312 126.304688 284.789062 129.855469 286.53125 C 133.394531 288.261719 138.707031 287.601562 144.054688 286.933594 C 149.304688 286.28125 154.582031 285.625 159.703125 286.824219 C 164.683594 287.992188 169.082031 290.828125 173.523438 293.691406 C 178.261719 296.746094 183.0625 299.839844 187.53125 299.839844 C 192 299.839844 196.800781 296.746094 201.542969 293.691406 C 205.984375 290.828125 210.382812 287.992188 215.363281 286.824219 C 220.480469 285.625 225.757812 286.28125 231.011719 286.933594 C 236.355469 287.601562 241.671875 288.261719 245.207031 286.527344 C 248.761719 284.785156 251.449219 280.195312 254.128906 275.617188 C 256.777344 271.09375 259.421875 266.585938 263.398438 263.390625 C 265.445312 261.75 267.753906 260.527344 270.195312 259.511719 C 270.273438 259.480469 270.351562 259.445312 270.429688 259.417969 C 272.683594 258.492188 275.046875 257.738281 277.410156 256.980469 C 282.40625 255.386719 287.40625 253.785156 289.855469 250.734375 C 292.296875 247.691406 292.785156 242.457031 293.269531 237.210938 C 293.753906 231.972656 294.242188 226.726562 296.523438 222.078125 C 298.785156 217.46875 302.558594 213.894531 306.351562 210.300781 C 310.285156 206.574219 314.246094 202.824219 315.191406 198.796875 C 316.136719 194.777344 314.308594 189.601562 312.460938 184.367188 C 310.652344 179.257812 308.832031 174.101562 308.832031 168.722656 C 308.832031 163.347656 310.65625 158.191406 312.460938 153.082031 C 314.308594 147.847656 316.136719 142.671875 315.191406 138.652344 C 314.246094 134.625 310.285156 130.875 306.351562 127.148438 C 302.558594 123.554688 298.785156 119.980469 296.523438 115.371094 C 294.242188 110.71875 293.757812 105.472656 293.269531 100.238281 C 292.785156 94.992188 292.296875 89.753906 289.855469 86.714844 C 287.40625 83.660156 282.40625 82.0625 277.410156 80.464844 C 272.402344 78.867188 267.398438 77.265625 263.398438 74.058594 C 259.421875 70.863281 256.78125 66.355469 254.132812 61.832031 C 251.453125 57.253906 248.761719 52.664062 245.207031 50.917969 C 241.671875 49.183594 236.355469 49.847656 231.011719 50.515625 C 225.757812 51.167969 220.484375 51.824219 215.363281 50.625 C 210.382812 49.457031 205.984375 46.621094 201.542969 43.757812 Z M 156.402344 295.738281 L 116.945312 364.941406 L 105.957031 332.414062 C 105.195312 330.132812 102.84375 328.828125 100.546875 329.320312 L 100.546875 329.3125 L 66.953125 336.425781 L 104.832031 269.992188 C 105.171875 270.214844 105.492188 270.445312 105.796875 270.691406 C 108.457031 272.828125 110.660156 276.582031 112.863281 280.347656 C 116.25 286.132812 119.648438 291.9375 125.746094 294.929688 C 131.835938 297.914062 138.496094 297.085938 145.191406 296.25 C 149.148438 295.757812 153.121094 295.265625 156.402344 295.738281 Z M 270.234375 269.992188 L 308.113281 336.425781 L 274.519531 329.3125 L 274.515625 329.320312 C 272.21875 328.828125 269.871094 330.132812 269.109375 332.414062 L 258.121094 364.941406 L 218.664062 295.738281 C 221.941406 295.265625 225.914062 295.757812 229.875 296.25 C 236.570312 297.085938 243.226562 297.914062 249.316406 294.929688 C 255.414062 291.9375 258.8125 286.132812 262.199219 280.351562 C 264.40625 276.585938 266.605469 272.828125 269.269531 270.691406 C 269.570312 270.449219 269.894531 270.214844 270.234375 269.992188 Z M 270.234375 269.992188 " fill-opacity="1" fill-rule="evenodd"/></g><g clip-path="url(#4863798ce1)"><path fill="#0c542f" d="M 0 227.007812 L 375 227.007812 L 358.28125 271.867188 L 375 308.945312 L 0 308.945312 L 15.972656 267.976562 Z M 0 227.007812 " fill-opacity="1" fill-rule="nonzero"/></g><g transform="matrix(1, 0, 0, 1, 47, 224)"><g clip-path="url(#7247772501)"><g fill="#ffffff" fill-opacity="1"><g transform="translate(0.563619, 62.428232)"><g><path d="M 13.4375 -43.359375 C 13.3125 -42.035156 13.21875 -40.679688 13.15625 -39.296875 C 13.09375 -37.910156 13.050781 -36.378906 13.03125 -34.703125 C 13.007812 -33.035156 12.988281 -31.171875 12.96875 -29.109375 C 12.945312 -27.046875 12.9375 -24.691406 12.9375 -22.046875 C 12.9375 -19.566406 12.9375 -17.328125 12.9375 -15.328125 C 12.9375 -13.328125 12.945312 -11.457031 12.96875 -9.71875 C 12.988281 -7.988281 13.007812 -6.335938 13.03125 -4.765625 C 13.050781 -3.203125 13.082031 -1.613281 13.125 0 L 4.390625 0 C 4.429688 -1.976562 4.484375 -3.722656 4.546875 -5.234375 C 4.609375 -6.742188 4.660156 -8.3125 4.703125 -9.9375 C 4.742188 -11.570312 4.785156 -13.441406 4.828125 -15.546875 C 4.867188 -17.648438 4.890625 -20.289062 4.890625 -23.46875 C 4.890625 -26.65625 4.867188 -29.828125 4.828125 -32.984375 C 4.785156 -36.140625 4.703125 -39.390625 4.578125 -42.734375 Z M 13.4375 -43.359375 "/></g></g></g><g fill="#ffffff" fill-opacity="1"><g transform="translate(18.341254, 62.428232)"><g><path d="M 16.78125 -6.3125 C 19.382812 -6.3125 21.316406 -6.765625 22.578125 -7.671875 C 23.835938 -8.585938 24.46875 -9.910156 24.46875 -11.640625 C 24.46875 -12.710938 24.238281 -13.617188 23.78125 -14.359375 C 23.332031 -15.109375 22.722656 -15.75 21.953125 -16.28125 C 21.191406 -16.820312 20.304688 -17.285156 19.296875 -17.671875 C 18.285156 -18.066406 17.242188 -18.453125 16.171875 -18.828125 C 14.179688 -19.484375 12.390625 -20.140625 10.796875 -20.796875 C 9.210938 -21.460938 7.851562 -22.238281 6.71875 -23.125 C 5.582031 -24.019531 4.703125 -25.117188 4.078125 -26.421875 C 3.460938 -27.722656 3.15625 -29.34375 3.15625 -31.28125 C 3.15625 -33.957031 3.703125 -36.132812 4.796875 -37.8125 C 5.890625 -39.488281 7.257812 -40.789062 8.90625 -41.71875 C 10.5625 -42.644531 12.367188 -43.257812 14.328125 -43.5625 C 16.296875 -43.875 18.125 -44.03125 19.8125 -44.03125 C 21.96875 -44.03125 24.003906 -43.863281 25.921875 -43.53125 C 27.835938 -43.207031 29.519531 -42.878906 30.96875 -42.546875 L 30.96875 -35.359375 C 28.988281 -35.941406 26.941406 -36.414062 24.828125 -36.78125 C 22.722656 -37.15625 20.804688 -37.34375 19.078125 -37.34375 C 16.109375 -37.34375 13.941406 -36.816406 12.578125 -35.765625 C 11.210938 -34.710938 10.53125 -33.441406 10.53125 -31.953125 C 10.53125 -30.835938 10.847656 -29.910156 11.484375 -29.171875 C 12.128906 -28.429688 12.914062 -27.789062 13.84375 -27.25 C 14.769531 -26.71875 15.757812 -26.296875 16.8125 -25.984375 C 17.863281 -25.671875 18.828125 -25.390625 19.703125 -25.140625 C 21.179688 -24.734375 22.664062 -24.226562 24.15625 -23.625 C 25.644531 -23.03125 27 -22.238281 28.21875 -21.25 C 29.4375 -20.257812 30.414062 -19.03125 31.15625 -17.5625 C 31.894531 -16.09375 32.265625 -14.285156 32.265625 -12.140625 C 32.265625 -9.992188 31.882812 -8.113281 31.125 -6.5 C 30.363281 -4.894531 29.289062 -3.550781 27.90625 -2.46875 C 26.519531 -1.394531 24.875 -0.585938 22.96875 -0.046875 C 21.070312 0.484375 18.988281 0.75 16.71875 0.75 C 14.738281 0.75 12.519531 0.539062 10.0625 0.125 C 7.601562 -0.289062 5.195312 -0.929688 2.84375 -1.796875 L 2.59375 -9.421875 C 3.34375 -9.046875 4.273438 -8.679688 5.390625 -8.328125 C 6.503906 -7.972656 7.710938 -7.640625 9.015625 -7.328125 C 10.316406 -7.023438 11.632812 -6.78125 12.96875 -6.59375 C 14.3125 -6.40625 15.582031 -6.3125 16.78125 -6.3125 Z M 16.78125 -6.3125 "/></g></g></g><g fill="#ffffff" fill-opacity="1"><g transform="translate(52.967374, 62.428232)"><g><path d="M 21.375 -38.53125 C 18.144531 -38.53125 15.59375 -37.0625 13.71875 -34.125 C 11.84375 -31.195312 10.90625 -26.988281 10.90625 -21.5 C 10.90625 -16.039062 11.695312 -11.875 13.28125 -9 C 14.875 -6.132812 17.46875 -4.703125 21.0625 -4.703125 C 22.625 -4.703125 24.054688 -5.101562 25.359375 -5.90625 C 26.660156 -6.71875 27.773438 -7.882812 28.703125 -9.40625 C 29.640625 -10.9375 30.363281 -12.773438 30.875 -14.921875 C 31.394531 -17.066406 31.65625 -19.503906 31.65625 -22.234375 C 31.65625 -24.835938 31.5 -27.148438 31.1875 -29.171875 C 30.875 -31.191406 30.328125 -32.894531 29.546875 -34.28125 C 28.765625 -35.664062 27.710938 -36.71875 26.390625 -37.4375 C 25.066406 -38.164062 23.394531 -38.53125 21.375 -38.53125 Z M 2.421875 -21.3125 C 2.421875 -24.65625 2.875 -27.726562 3.78125 -30.53125 C 4.6875 -33.34375 5.992188 -35.75 7.703125 -37.75 C 9.421875 -39.75 11.476562 -41.304688 13.875 -42.421875 C 16.269531 -43.535156 18.953125 -44.09375 21.921875 -44.09375 C 24.773438 -44.09375 27.328125 -43.585938 29.578125 -42.578125 C 31.828125 -41.566406 33.722656 -40.128906 35.265625 -38.265625 C 36.816406 -36.410156 38.003906 -34.160156 38.828125 -31.515625 C 39.660156 -28.878906 40.078125 -25.953125 40.078125 -22.734375 C 40.078125 -19.347656 39.609375 -16.21875 38.671875 -13.34375 C 37.742188 -10.476562 36.429688 -8 34.734375 -5.90625 C 33.046875 -3.820312 31.003906 -2.191406 28.609375 -1.015625 C 26.210938 0.160156 23.550781 0.75 20.625 0.75 C 17.769531 0.75 15.21875 0.203125 12.96875 -0.890625 C 10.71875 -1.992188 8.804688 -3.523438 7.234375 -5.484375 C 5.671875 -7.441406 4.476562 -9.757812 3.65625 -12.4375 C 2.832031 -15.125 2.421875 -18.082031 2.421875 -21.3125 Z M 2.421875 -21.3125 "/></g></g></g><g fill="#ffffff" fill-opacity="1"><g transform="translate(95.460256, 62.428232)"><g/></g></g><g fill="#ffffff" fill-opacity="1"><g transform="translate(108.592167, 62.428232)"><g><path d="M 14.921875 -22.484375 C 16.117188 -24.421875 17.160156 -26.359375 18.046875 -28.296875 C 18.941406 -30.242188 19.390625 -32.082031 19.390625 -33.8125 C 19.390625 -35.34375 19.003906 -36.53125 18.234375 -37.375 C 17.472656 -38.226562 16.429688 -38.65625 15.109375 -38.65625 C 13.421875 -38.65625 12.128906 -37.953125 11.234375 -36.546875 C 10.347656 -35.140625 9.90625 -32.910156 9.90625 -29.859375 L 3.21875 -29.421875 C 3.21875 -32.515625 3.597656 -35.007812 4.359375 -36.90625 C 5.128906 -38.8125 6.113281 -40.300781 7.3125 -41.375 C 8.507812 -42.445312 9.835938 -43.164062 11.296875 -43.53125 C 12.765625 -43.90625 14.179688 -44.09375 15.546875 -44.09375 C 17.691406 -44.09375 19.488281 -43.769531 20.9375 -43.125 C 22.382812 -42.488281 23.550781 -41.644531 24.4375 -40.59375 C 25.320312 -39.539062 25.945312 -38.363281 26.3125 -37.0625 C 26.6875 -35.769531 26.875 -34.484375 26.875 -33.203125 C 26.875 -31.253906 26.515625 -29.410156 25.796875 -27.671875 C 25.078125 -25.941406 24.054688 -24.003906 22.734375 -21.859375 C 21.492188 -19.878906 20.023438 -17.628906 18.328125 -15.109375 C 16.640625 -12.585938 14.863281 -9.613281 13 -6.1875 C 17.75 -6.269531 22.476562 -6.394531 27.1875 -6.5625 L 26.578125 0.4375 C 26.117188 0.351562 25.238281 0.28125 23.9375 0.21875 C 22.632812 0.15625 21.132812 0.113281 19.4375 0.09375 C 17.75 0.0703125 15.984375 0.0507812 14.140625 0.03125 C 12.304688 0.0078125 10.628906 0 9.109375 0 L 2.65625 0 L 1.984375 -4.21875 C 2.191406 -4.5 2.757812 -5.25 3.6875 -6.46875 C 4.613281 -7.6875 5.707031 -9.148438 6.96875 -10.859375 C 8.226562 -12.578125 9.566406 -14.457031 10.984375 -16.5 C 12.410156 -18.550781 13.722656 -20.546875 14.921875 -22.484375 Z M 14.921875 -22.484375 "/></g></g></g><g fill="#ffffff" fill-opacity="1"><g transform="translate(138.386735, 62.428232)"><g><path d="M 14.921875 -22.484375 C 16.117188 -24.421875 17.160156 -26.359375 18.046875 -28.296875 C 18.941406 -30.242188 19.390625 -32.082031 19.390625 -33.8125 C 19.390625 -35.34375 19.003906 -36.53125 18.234375 -37.375 C 17.472656 -38.226562 16.429688 -38.65625 15.109375 -38.65625 C 13.421875 -38.65625 12.128906 -37.953125 11.234375 -36.546875 C 10.347656 -35.140625 9.90625 -32.910156 9.90625 -29.859375 L 3.21875 -29.421875 C 3.21875 -32.515625 3.597656 -35.007812 4.359375 -36.90625 C 5.128906 -38.8125 6.113281 -40.300781 7.3125 -41.375 C 8.507812 -42.445312 9.835938 -43.164062 11.296875 -43.53125 C 12.765625 -43.90625 14.179688 -44.09375 15.546875 -44.09375 C 17.691406 -44.09375 19.488281 -43.769531 20.9375 -43.125 C 22.382812 -42.488281 23.550781 -41.644531 24.4375 -40.59375 C 25.320312 -39.539062 25.945312 -38.363281 26.3125 -37.0625 C 26.6875 -35.769531 26.875 -34.484375 26.875 -33.203125 C 26.875 -31.253906 26.515625 -29.410156 25.796875 -27.671875 C 25.078125 -25.941406 24.054688 -24.003906 22.734375 -21.859375 C 21.492188 -19.878906 20.023438 -17.628906 18.328125 -15.109375 C 16.640625 -12.585938 14.863281 -9.613281 13 -6.1875 C 17.75 -6.269531 22.476562 -6.394531 27.1875 -6.5625 L 26.578125 0.4375 C 26.117188 0.351562 25.238281 0.28125 23.9375 0.21875 C 22.632812 0.15625 21.132812 0.113281 19.4375 0.09375 C 17.75 0.0703125 15.984375 0.0507812 14.140625 0.03125 C 12.304688 0.0078125 10.628906 0 9.109375 0 L 2.65625 0 L 1.984375 -4.21875 C 2.191406 -4.5 2.757812 -5.25 3.6875 -6.46875 C 4.613281 -7.6875 5.707031 -9.148438 6.96875 -10.859375 C 8.226562 -12.578125 9.566406 -14.457031 10.984375 -16.5 C 12.410156 -18.550781 13.722656 -20.546875 14.921875 -22.484375 Z M 14.921875 -22.484375 "/></g></g></g><g fill="#ffffff" fill-opacity="1"><g transform="translate(168.181303, 62.428232)"><g><path d="M 18.828125 -38.65625 C 17.628906 -38.65625 16.546875 -38.351562 15.578125 -37.75 C 14.609375 -37.15625 13.769531 -36.1875 13.0625 -34.84375 C 12.363281 -33.5 11.816406 -31.734375 11.421875 -29.546875 C 11.035156 -27.359375 10.84375 -24.675781 10.84375 -21.5 C 10.84375 -18.3125 10.992188 -15.644531 11.296875 -13.5 C 11.609375 -11.351562 12.082031 -9.617188 12.71875 -8.296875 C 13.363281 -6.972656 14.171875 -6.019531 15.140625 -5.4375 C 16.109375 -4.863281 17.234375 -4.578125 18.515625 -4.578125 C 19.671875 -4.578125 20.742188 -4.894531 21.734375 -5.53125 C 22.734375 -6.175781 23.601562 -7.210938 24.34375 -8.640625 C 25.082031 -10.066406 25.65625 -11.894531 26.0625 -14.125 C 26.476562 -16.351562 26.6875 -19.054688 26.6875 -22.234375 C 26.6875 -25.328125 26.550781 -27.914062 26.28125 -30 C 26.019531 -32.09375 25.578125 -33.78125 24.953125 -35.0625 C 24.335938 -36.34375 23.523438 -37.257812 22.515625 -37.8125 C 21.503906 -38.375 20.273438 -38.65625 18.828125 -38.65625 Z M 2.65625 -21.3125 C 2.65625 -25.144531 3.046875 -28.484375 3.828125 -31.328125 C 4.617188 -34.179688 5.738281 -36.546875 7.1875 -38.421875 C 8.632812 -40.304688 10.390625 -41.722656 12.453125 -42.671875 C 14.515625 -43.617188 16.828125 -44.09375 19.390625 -44.09375 C 24.253906 -44.09375 28.03125 -42.378906 30.71875 -38.953125 C 33.40625 -35.523438 34.75 -30.117188 34.75 -22.734375 C 34.75 -18.890625 34.34375 -15.5 33.53125 -12.5625 C 32.726562 -9.632812 31.601562 -7.179688 30.15625 -5.203125 C 28.71875 -3.222656 26.972656 -1.734375 24.921875 -0.734375 C 22.878906 0.253906 20.597656 0.75 18.078125 0.75 C 13.296875 0.75 9.53125 -1.085938 6.78125 -4.765625 C 4.03125 -8.441406 2.65625 -13.957031 2.65625 -21.3125 Z M 2.65625 -21.3125 "/></g></g></g><g fill="#ffffff" fill-opacity="1"><g transform="translate(205.594865, 62.428232)"><g><path d="M 18.828125 -38.65625 C 17.628906 -38.65625 16.546875 -38.351562 15.578125 -37.75 C 14.609375 -37.15625 13.769531 -36.1875 13.0625 -34.84375 C 12.363281 -33.5 11.816406 -31.734375 11.421875 -29.546875 C 11.035156 -27.359375 10.84375 -24.675781 10.84375 -21.5 C 10.84375 -18.3125 10.992188 -15.644531 11.296875 -13.5 C 11.609375 -11.351562 12.082031 -9.617188 12.71875 -8.296875 C 13.363281 -6.972656 14.171875 -6.019531 15.140625 -5.4375 C 16.109375 -4.863281 17.234375 -4.578125 18.515625 -4.578125 C 19.671875 -4.578125 20.742188 -4.894531 21.734375 -5.53125 C 22.734375 -6.175781 23.601562 -7.210938 24.34375 -8.640625 C 25.082031 -10.066406 25.65625 -11.894531 26.0625 -14.125 C 26.476562 -16.351562 26.6875 -19.054688 26.6875 -22.234375 C 26.6875 -25.328125 26.550781 -27.914062 26.28125 -30 C 26.019531 -32.09375 25.578125 -33.78125 24.953125 -35.0625 C 24.335938 -36.34375 23.523438 -37.257812 22.515625 -37.8125 C 21.503906 -38.375 20.273438 -38.65625 18.828125 -38.65625 Z M 2.65625 -21.3125 C 2.65625 -25.144531 3.046875 -28.484375 3.828125 -31.328125 C 4.617188 -34.179688 5.738281 -36.546875 7.1875 -38.421875 C 8.632812 -40.304688 10.390625 -41.722656 12.453125 -42.671875 C 14.515625 -43.617188 16.828125 -44.09375 19.390625 -44.09375 C 24.253906 -44.09375 28.03125 -42.378906 30.71875 -38.953125 C 33.40625 -35.523438 34.75 -30.117188 34.75 -22.734375 C 34.75 -18.890625 34.34375 -15.5 33.53125 -12.5625 C 32.726562 -9.632812 31.601562 -7.179688 30.15625 -5.203125 C 28.71875 -3.222656 26.972656 -1.734375 24.921875 -0.734375 C 22.878906 0.253906 20.597656 0.75 18.078125 0.75 C 13.296875 0.75 9.53125 -1.085938 6.78125 -4.765625 C 4.03125 -8.441406 2.65625 -13.957031 2.65625 -21.3125 Z M 2.65625 -21.3125 "/></g></g></g><g fill="#ffffff" fill-opacity="1"><g transform="translate(243.008411, 62.428232)"><g><path d="M 18.828125 -38.65625 C 17.628906 -38.65625 16.546875 -38.351562 15.578125 -37.75 C 14.609375 -37.15625 13.769531 -36.1875 13.0625 -34.84375 C 12.363281 -33.5 11.816406 -31.734375 11.421875 -29.546875 C 11.035156 -27.359375 10.84375 -24.675781 10.84375 -21.5 C 10.84375 -18.3125 10.992188 -15.644531 11.296875 -13.5 C 11.609375 -11.351562 12.082031 -9.617188 12.71875 -8.296875 C 13.363281 -6.972656 14.171875 -6.019531 15.140625 -5.4375 C 16.109375 -4.863281 17.234375 -4.578125 18.515625 -4.578125 C 19.671875 -4.578125 20.742188 -4.894531 21.734375 -5.53125 C 22.734375 -6.175781 23.601562 -7.210938 24.34375 -8.640625 C 25.082031 -10.066406 25.65625 -11.894531 26.0625 -14.125 C 26.476562 -16.351562 26.6875 -19.054688 26.6875 -22.234375 C 26.6875 -25.328125 26.550781 -27.914062 26.28125 -30 C 26.019531 -32.09375 25.578125 -33.78125 24.953125 -35.0625 C 24.335938 -36.34375 23.523438 -37.257812 22.515625 -37.8125 C 21.503906 -38.375 20.273438 -38.65625 18.828125 -38.65625 Z M 2.65625 -21.3125 C 2.65625 -25.144531 3.046875 -28.484375 3.828125 -31.328125 C 4.617188 -34.179688 5.738281 -36.546875 7.1875 -38.421875 C 8.632812 -40.304688 10.390625 -41.722656 12.453125 -42.671875 C 14.515625 -43.617188 16.828125 -44.09375 19.390625 -44.09375 C 24.253906 -44.09375 28.03125 -42.378906 30.71875 -38.953125 C 33.40625 -35.523438 34.75 -30.117188 34.75 -22.734375 C 34.75 -18.890625 34.34375 -15.5 33.53125 -12.5625 C 32.726562 -9.632812 31.601562 -7.179688 30.15625 -5.203125 C 28.71875 -3.222656 26.972656 -1.734375 24.921875 -0.734375 C 22.878906 0.253906 20.597656 0.75 18.078125 0.75 C 13.296875 0.75 9.53125 -1.085938 6.78125 -4.765625 C 4.03125 -8.441406 2.65625 -13.957031 2.65625 -21.3125 Z M 2.65625 -21.3125 "/></g></g></g></g></g></svg>