<svg xmlns="http://www.w3.org/2000/svg" xmlns:xlink="http://www.w3.org/1999/xlink" width="500" zoomAndPan="magnify" viewBox="0 0 375 374.999991" height="500" preserveAspectRatio="xMidYMid meet" version="1.0"><defs><filter x="0%" y="0%" width="100%" height="100%" id="16a87facec"><feColorMatrix values="0 0 0 0 1 0 0 0 0 1 0 0 0 0 1 0 0 0 1 0" color-interpolation-filters="sRGB"/></filter><g/><clipPath id="218679c216"><path d="M 12 12 L 362.925781 12 L 362.925781 362.925781 L 12 362.925781 Z M 12 12 " clip-rule="nonzero"/></clipPath><clipPath id="9754a73637"><path d="M 167 40.410156 L 208 40.410156 L 208 79 L 167 79 Z M 167 40.410156 " clip-rule="nonzero"/></clipPath><clipPath id="1981463b43"><path d="M 39.296875 168 L 80 168 L 80 207 L 39.296875 207 Z M 39.296875 168 " clip-rule="nonzero"/></clipPath><clipPath id="e50b09f854"><path d="M 295 168 L 335.546875 168 L 335.546875 207 L 295 207 Z M 295 168 " clip-rule="nonzero"/></clipPath><clipPath id="dce5935c9f"><path d="M 167 296 L 208 296 L 208 334.410156 L 167 334.410156 Z M 167 296 " clip-rule="nonzero"/></clipPath><clipPath id="bfa6b3292e"><path d="M 2.515625 220.707031 L 372.265625 220.707031 L 372.265625 279.207031 L 2.515625 279.207031 Z M 2.515625 220.707031 " clip-rule="nonzero"/></clipPath><mask id="0316528ce7"><g filter="url(#16a87facec)"><rect x="-37.5" width="450" fill="#000000" y="-37.499999" height="449.999989" fill-opacity="0.63"/></g></mask><clipPath id="7481037a2f"><path d="M 0.34375 0.386719 L 134.65625 0.386719 L 134.65625 134.699219 L 0.34375 134.699219 Z M 0.34375 0.386719 " clip-rule="nonzero"/></clipPath><clipPath id="b84d797721"><path d="M 67.5 0.386719 C 30.410156 0.386719 0.34375 30.453125 0.34375 67.542969 C 0.34375 104.632812 30.410156 134.699219 67.5 134.699219 C 104.589844 134.699219 134.65625 104.632812 134.65625 67.542969 C 134.65625 30.453125 104.589844 0.386719 67.5 0.386719 Z M 67.5 0.386719 " clip-rule="nonzero"/></clipPath><clipPath id="3239b68dfc"><path d="M 0.34375 0.386719 L 134.65625 0.386719 L 134.65625 134.699219 L 0.34375 134.699219 Z M 0.34375 0.386719 " clip-rule="nonzero"/></clipPath><clipPath id="1deb9e009b"><path d="M 67.5 0.386719 C 30.410156 0.386719 0.34375 30.453125 0.34375 67.542969 C 0.34375 104.632812 30.410156 134.699219 67.5 134.699219 C 104.589844 134.699219 134.65625 104.632812 134.65625 67.542969 C 134.65625 30.453125 104.589844 0.386719 67.5 0.386719 Z M 67.5 0.386719 " clip-rule="nonzero"/></clipPath><clipPath id="51560f6e1e"><rect x="0" width="135" y="0" height="135"/></clipPath><clipPath id="dd98afe269"><rect x="0" width="135" y="0" height="135"/></clipPath><clipPath id="c3e3493420"><rect x="0" width="99" y="0" height="114"/></clipPath></defs><rect x="-37.5" width="450" fill="#ffffff" y="-37.499999" height="449.999989" fill-opacity="1"/><rect x="-37.5" width="450" fill="#ffffff" y="-37.499999" height="449.999989" fill-opacity="1"/><path fill="#0c542f" d="M 361.890625 187.546875 L 343.515625 208.097656 L 355.992188 232.691406 L 332.910156 247.777344 L 338.550781 274.765625 L 312.34375 283.335938 L 310.8125 310.867188 L 283.285156 312.394531 L 274.710938 338.601562 L 247.71875 332.960938 L 232.640625 356.042969 L 208.046875 343.570312 L 187.496094 361.949219 L 166.941406 343.570312 L 142.347656 356.042969 L 127.261719 332.960938 L 100.277344 338.601562 L 91.707031 312.394531 L 64.171875 310.863281 L 62.644531 283.335938 L 36.4375 274.765625 L 42.078125 247.773438 L 18.996094 232.691406 L 31.472656 208.097656 L 13.097656 187.546875 L 31.472656 166.992188 L 18.996094 142.398438 L 42.078125 127.316406 L 36.4375 100.328125 L 62.644531 91.757812 L 64.175781 64.222656 L 91.707031 62.699219 L 100.277344 36.488281 L 127.269531 42.132812 L 142.347656 19.046875 L 166.941406 31.523438 L 187.496094 13.148438 L 208.046875 31.523438 L 232.640625 19.046875 L 247.726562 42.132812 L 274.710938 36.488281 L 283.285156 62.703125 L 310.816406 64.230469 L 312.34375 91.757812 L 338.550781 100.328125 L 332.910156 127.320312 L 355.992188 142.398438 L 343.515625 166.992188 Z M 361.890625 187.546875 " fill-opacity="1" fill-rule="nonzero"/><path fill="#0c542f" d="M 187.496094 338.121094 L 178.78125 330.332031 C 175.523438 327.417969 171.3125 325.8125 166.941406 325.8125 C 164.160156 325.8125 161.386719 326.476562 158.910156 327.730469 L 148.511719 333.007812 L 142.132812 323.25 C 138.839844 318.210938 133.28125 315.207031 127.269531 315.207031 C 126.050781 315.207031 124.828125 315.335938 123.632812 315.582031 L 112.210938 317.964844 L 108.585938 306.875 C 106.289062 299.863281 100.054688 295.070312 92.691406 294.664062 L 81.027344 294.015625 L 80.382812 282.351562 C 79.96875 274.984375 75.175781 268.75 68.167969 266.457031 L 57.082031 262.832031 L 59.46875 251.414062 C 60.976562 244.203125 57.96875 236.941406 51.800781 232.914062 L 42.039062 226.535156 L 47.3125 216.132812 C 50.652344 209.558594 49.628906 201.761719 44.714844 196.265625 L 36.917969 187.542969 L 44.714844 178.828125 C 49.628906 173.332031 50.652344 165.535156 47.3125 158.957031 L 42.039062 148.554688 L 51.800781 142.175781 C 57.964844 138.148438 60.976562 130.886719 59.46875 123.683594 L 57.082031 112.261719 L 68.175781 108.636719 C 75.183594 106.347656 79.972656 100.105469 80.386719 92.742188 L 81.03125 81.078125 L 92.695312 80.433594 C 100.058594 80.023438 106.300781 75.230469 108.589844 68.21875 L 112.214844 57.128906 L 123.636719 59.515625 C 124.835938 59.761719 126.054688 59.890625 127.273438 59.890625 C 133.285156 59.890625 138.847656 56.886719 142.136719 51.847656 L 148.511719 42.089844 L 158.910156 47.367188 C 161.386719 48.625 164.167969 49.289062 166.941406 49.289062 C 171.3125 49.289062 175.523438 47.683594 178.78125 44.773438 L 187.496094 36.972656 L 196.210938 44.773438 C 199.472656 47.683594 203.679688 49.289062 208.054688 49.289062 C 210.832031 49.289062 213.605469 48.625 216.082031 47.367188 L 226.484375 42.089844 L 232.859375 51.847656 C 236.148438 56.886719 241.707031 59.890625 247.71875 59.890625 C 248.933594 59.890625 250.15625 59.769531 251.355469 59.515625 L 262.777344 57.128906 L 266.40625 68.21875 C 268.695312 75.230469 274.933594 80.019531 282.296875 80.433594 L 293.964844 81.078125 L 294.609375 92.742188 C 295.019531 100.105469 299.8125 106.339844 306.820312 108.636719 L 317.90625 112.261719 L 315.519531 123.683594 C 314.015625 130.894531 317.019531 138.15625 323.1875 142.183594 L 332.949219 148.5625 L 327.675781 158.964844 C 324.339844 165.539062 325.359375 173.335938 330.273438 178.832031 L 338.070312 187.546875 L 330.273438 196.265625 C 325.359375 201.761719 324.339844 209.558594 327.675781 216.132812 L 332.949219 226.535156 L 323.1875 232.914062 C 317.027344 236.941406 314.015625 244.203125 315.519531 251.414062 L 317.90625 262.835938 L 306.816406 266.460938 C 299.804688 268.757812 295.011719 274.992188 294.601562 282.355469 L 293.957031 294.019531 L 282.292969 294.664062 C 274.929688 295.070312 268.6875 299.863281 266.398438 306.875 L 262.773438 317.964844 L 251.351562 315.582031 C 250.160156 315.335938 248.9375 315.207031 247.714844 315.207031 C 241.703125 315.207031 236.144531 318.210938 232.851562 323.25 L 226.472656 333.007812 L 216.070312 327.730469 C 213.597656 326.472656 210.820312 325.8125 208.042969 325.8125 C 203.667969 325.8125 199.460938 327.417969 196.203125 330.332031 L 187.488281 338.121094 Z M 166.9375 324.390625 C 171.660156 324.390625 176.203125 326.121094 179.71875 329.269531 L 187.492188 336.21875 L 195.261719 329.269531 C 198.785156 326.121094 203.328125 324.390625 208.046875 324.390625 C 211.050781 324.390625 214.046875 325.105469 216.722656 326.464844 L 225.984375 331.160156 L 231.667969 322.464844 C 235.226562 317.027344 241.222656 313.777344 247.71875 313.777344 C 249.035156 313.777344 250.355469 313.910156 251.644531 314.183594 L 261.820312 316.3125 L 265.054688 306.429688 C 267.527344 298.859375 274.269531 293.679688 282.222656 293.242188 L 292.613281 292.667969 L 293.191406 282.273438 C 293.632812 274.320312 298.8125 267.582031 306.382812 265.105469 L 316.261719 261.875 L 314.136719 251.695312 C 312.507812 243.914062 315.761719 236.070312 322.417969 231.71875 L 331.113281 226.035156 L 326.417969 216.773438 C 322.816406 209.671875 323.921875 201.25 329.222656 195.316406 L 336.167969 187.542969 L 329.222656 179.773438 C 323.914062 173.835938 322.816406 165.414062 326.417969 158.3125 L 331.113281 149.050781 L 322.417969 143.367188 C 315.761719 139.015625 312.507812 131.175781 314.136719 123.390625 L 316.261719 113.214844 L 306.382812 109.988281 C 298.8125 107.511719 293.632812 100.773438 293.191406 92.820312 L 292.613281 82.421875 L 282.214844 81.84375 C 274.265625 81.402344 267.523438 76.222656 265.046875 68.652344 L 261.816406 58.773438 L 251.640625 60.898438 C 250.34375 61.164062 249.023438 61.304688 247.714844 61.304688 C 241.21875 61.304688 235.21875 58.054688 231.660156 52.617188 L 225.984375 43.921875 L 216.722656 48.617188 C 214.046875 49.976562 211.050781 50.691406 208.046875 50.691406 C 203.320312 50.691406 198.78125 48.960938 195.261719 45.8125 L 187.492188 38.867188 L 179.71875 45.8125 C 176.203125 48.960938 171.660156 50.691406 166.9375 50.691406 C 163.941406 50.691406 160.945312 49.976562 158.261719 48.617188 L 149 43.921875 L 143.320312 52.617188 C 139.765625 58.054688 133.765625 61.304688 127.269531 61.304688 C 125.957031 61.304688 124.632812 61.164062 123.34375 60.898438 L 113.167969 58.773438 L 109.9375 68.652344 C 107.460938 76.222656 100.71875 81.402344 92.769531 81.839844 L 82.375 82.417969 L 81.800781 92.8125 C 81.355469 100.765625 76.179688 107.507812 68.609375 109.980469 L 58.726562 113.214844 L 60.851562 123.390625 C 62.480469 131.175781 59.226562 139.015625 52.570312 143.367188 L 43.875 149.050781 L 48.574219 158.3125 C 52.171875 165.414062 51.070312 173.835938 45.765625 179.773438 L 38.820312 187.542969 L 45.765625 195.320312 C 51.074219 201.257812 52.171875 209.675781 48.574219 216.777344 L 43.875 226.039062 L 52.570312 231.722656 C 59.226562 236.074219 62.480469 243.917969 60.851562 251.703125 L 58.726562 261.875 L 68.609375 265.105469 C 76.179688 267.582031 81.355469 274.320312 81.800781 282.273438 L 82.375 292.667969 L 92.773438 293.246094 C 100.726562 293.691406 107.460938 298.867188 109.941406 306.433594 L 113.175781 316.320312 L 123.347656 314.1875 C 124.636719 313.921875 125.957031 313.78125 127.273438 313.78125 C 133.769531 313.78125 139.769531 317.027344 143.328125 322.472656 L 149.011719 331.167969 L 158.273438 326.46875 C 160.949219 325.113281 163.945312 324.394531 166.945312 324.394531 Z M 166.9375 324.390625 " fill-opacity="1" fill-rule="nonzero"/><path fill="#0c542f" d="M 187.496094 340.03125 L 177.832031 331.394531 C 174.835938 328.710938 170.964844 327.230469 166.941406 327.230469 C 164.386719 327.230469 161.832031 327.839844 159.554688 329 L 148.019531 334.851562 L 140.945312 324.027344 C 137.917969 319.394531 132.808594 316.628906 127.273438 316.628906 C 126.148438 316.628906 125.023438 316.746094 123.933594 316.972656 L 111.261719 319.621094 L 107.238281 307.320312 C 105.128906 300.875 99.390625 296.464844 92.617188 296.089844 L 79.683594 295.371094 L 78.96875 282.433594 C 78.589844 275.660156 74.183594 269.921875 67.730469 267.8125 L 55.429688 263.789062 L 58.078125 251.125 C 59.464844 244.492188 56.695312 237.8125 51.023438 234.105469 L 40.199219 227.035156 L 46.046875 215.5 C 49.113281 209.449219 48.175781 202.277344 43.652344 197.21875 L 35.007812 187.554688 L 43.652344 177.890625 C 48.171875 172.835938 49.109375 165.65625 46.046875 159.609375 L 40.199219 148.070312 L 51.023438 140.996094 C 56.695312 137.289062 59.464844 130.609375 58.078125 123.984375 L 55.429688 111.3125 L 67.734375 107.289062 C 74.183594 105.179688 78.597656 99.441406 78.96875 92.671875 L 79.683594 79.734375 L 92.617188 79.019531 C 99.394531 78.644531 105.128906 74.234375 107.238281 67.789062 L 111.261719 55.488281 L 123.925781 58.132812 C 125.03125 58.367188 126.15625 58.480469 127.273438 58.480469 C 132.808594 58.480469 137.917969 55.714844 140.945312 51.078125 L 148.019531 40.253906 L 159.554688 46.101562 C 161.835938 47.257812 164.386719 47.871094 166.941406 47.871094 C 170.96875 47.871094 174.835938 46.394531 177.832031 43.710938 L 187.496094 35.066406 L 197.160156 43.710938 C 200.15625 46.390625 204.03125 47.871094 208.054688 47.871094 C 210.605469 47.871094 213.160156 47.261719 215.4375 46.101562 L 226.972656 40.253906 L 234.050781 51.078125 C 237.078125 55.714844 242.1875 58.480469 247.71875 58.480469 C 248.839844 58.480469 249.96875 58.359375 251.0625 58.132812 L 263.734375 55.488281 L 267.753906 67.789062 C 269.863281 74.234375 275.605469 78.648438 282.375 79.019531 L 295.316406 79.734375 L 296.03125 92.675781 C 296.40625 99.453125 300.816406 105.1875 307.261719 107.296875 L 319.5625 111.316406 L 316.917969 123.984375 C 315.53125 130.617188 318.300781 137.292969 323.972656 141 L 334.796875 148.070312 L 328.949219 159.609375 C 325.878906 165.65625 326.820312 172.832031 331.339844 177.890625 L 339.984375 187.554688 L 331.339844 197.21875 C 326.824219 202.273438 325.886719 209.449219 328.949219 215.5 L 334.796875 227.035156 L 323.972656 234.109375 C 318.300781 237.820312 315.53125 244.496094 316.917969 251.128906 L 319.5625 263.796875 L 307.261719 267.816406 C 300.816406 269.925781 296.402344 275.667969 296.027344 282.4375 L 295.308594 295.375 L 282.375 296.09375 C 275.597656 296.46875 269.859375 300.878906 267.753906 307.324219 L 263.734375 319.625 L 251.066406 316.980469 C 249.972656 316.746094 248.851562 316.632812 247.71875 316.632812 C 242.1875 316.632812 237.078125 319.398438 234.050781 324.035156 L 226.980469 334.859375 L 215.441406 329.003906 C 213.164062 327.851562 210.609375 327.238281 208.058594 327.238281 C 204.03125 327.238281 200.164062 328.710938 197.167969 331.398438 L 187.503906 340.035156 Z M 178.777344 330.332031 L 187.496094 338.128906 L 196.21875 330.332031 C 199.476562 327.417969 203.679688 325.8125 208.058594 325.8125 C 210.832031 325.8125 213.613281 326.476562 216.085938 327.738281 L 226.484375 333.011719 L 232.859375 323.25 C 236.148438 318.210938 241.707031 315.207031 247.71875 315.207031 C 248.941406 315.207031 250.171875 315.335938 251.355469 315.582031 L 262.777344 317.96875 L 266.40625 306.871094 C 268.695312 299.863281 274.933594 295.070312 282.296875 294.660156 L 293.964844 294.015625 L 294.613281 282.351562 C 295.019531 274.984375 299.816406 268.75 306.824219 266.457031 L 317.917969 262.832031 L 315.53125 251.40625 C 314.023438 244.199219 317.035156 236.9375 323.199219 232.910156 L 332.960938 226.53125 L 327.683594 216.132812 C 324.355469 209.558594 325.371094 201.761719 330.285156 196.265625 L 338.082031 187.542969 L 330.285156 178.824219 C 325.371094 173.332031 324.355469 165.527344 327.683594 158.953125 L 332.960938 148.554688 L 323.199219 142.183594 C 317.035156 138.15625 314.023438 130.894531 315.53125 123.683594 L 317.917969 112.261719 L 306.832031 108.636719 C 299.820312 106.347656 295.03125 100.105469 294.617188 92.742188 L 293.96875 81.078125 L 282.304688 80.425781 C 274.9375 80.019531 268.699219 75.222656 266.410156 68.214844 L 262.785156 57.121094 L 251.363281 59.503906 C 250.171875 59.757812 248.941406 59.882812 247.726562 59.882812 C 241.710938 59.882812 236.152344 56.875 232.863281 51.835938 L 226.484375 42.078125 L 216.082031 47.355469 C 213.605469 48.609375 210.828125 49.273438 208.054688 49.273438 C 203.679688 49.273438 199.472656 47.671875 196.210938 44.757812 L 187.492188 36.957031 L 178.769531 44.757812 C 175.511719 47.671875 171.308594 49.273438 166.929688 49.273438 C 164.15625 49.273438 161.375 48.609375 158.902344 47.355469 L 148.503906 42.078125 L 142.125 51.835938 C 138.835938 56.875 133.28125 59.882812 127.261719 59.882812 C 126.050781 59.882812 124.828125 59.757812 123.628906 59.503906 L 112.203125 57.117188 L 108.578125 68.210938 C 106.289062 75.21875 100.050781 80.015625 92.683594 80.421875 L 81.019531 81.070312 L 80.371094 92.738281 C 79.964844 100.101562 75.167969 106.339844 68.160156 108.632812 L 57.066406 112.257812 L 59.453125 123.679688 C 60.960938 130.886719 57.953125 138.148438 51.785156 142.175781 L 42.023438 148.554688 L 47.296875 158.953125 C 50.628906 165.527344 49.613281 173.332031 44.699219 178.824219 L 36.902344 187.542969 L 44.699219 196.265625 C 49.613281 201.761719 50.628906 209.558594 47.296875 216.132812 L 42.023438 226.53125 L 51.785156 232.90625 C 57.949219 236.933594 60.960938 244.191406 59.453125 251.402344 L 57.066406 262.824219 L 68.152344 266.449219 C 75.160156 268.742188 79.957031 274.980469 80.367188 282.34375 L 81.015625 294.011719 L 92.679688 294.65625 C 100.042969 295.066406 106.285156 299.859375 108.574219 306.867188 L 112.199219 317.964844 L 123.621094 315.578125 C 124.8125 315.328125 126.035156 315.199219 127.257812 315.199219 C 133.269531 315.199219 138.832031 318.207031 142.121094 323.246094 L 148.5 333.007812 L 158.894531 327.730469 C 161.371094 326.472656 164.152344 325.808594 166.925781 325.808594 C 171.300781 325.808594 175.507812 327.417969 178.765625 330.324219 Z M 178.777344 330.332031 " fill-opacity="1" fill-rule="nonzero"/><g clip-path="url(#218679c216)"><path fill="#0c542f" d="M 187.496094 363.011719 C 187.246094 363.011719 186.992188 362.917969 186.785156 362.738281 L 166.769531 344.847656 L 142.828125 356.992188 C 142.347656 357.25 141.753906 357.078125 141.457031 356.625 L 126.769531 334.152344 L 100.488281 339.644531 C 99.96875 339.738281 99.425781 339.449219 99.253906 338.933594 L 90.910156 313.421875 L 64.105469 311.929688 C 63.5625 311.90625 63.128906 311.472656 63.101562 310.925781 L 61.609375 284.117188 L 36.09375 275.78125 C 35.578125 275.609375 35.265625 275.078125 35.378906 274.546875 L 40.871094 248.273438 L 18.398438 233.585938 C 17.945312 233.285156 17.785156 232.699219 18.03125 232.214844 L 30.175781 208.269531 L 12.296875 188.253906 C 11.9375 187.847656 11.9375 187.238281 12.296875 186.835938 L 30.1875 166.824219 L 18.042969 142.878906 C 17.796875 142.394531 17.957031 141.800781 18.410156 141.507812 L 40.882812 126.820312 L 35.390625 100.539062 C 35.277344 100.007812 35.585938 99.476562 36.101562 99.308594 L 61.621094 90.964844 L 63.109375 64.15625 C 63.140625 63.617188 63.574219 63.183594 64.117188 63.152344 L 90.917969 61.667969 L 99.261719 36.148438 C 99.429688 35.632812 99.960938 35.324219 100.492188 35.4375 L 126.769531 40.929688 L 141.457031 18.460938 C 141.753906 18 142.347656 17.851562 142.828125 18.09375 L 166.769531 30.238281 L 186.785156 12.351562 C 187.191406 11.988281 187.800781 11.988281 188.203125 12.351562 L 208.21875 30.246094 L 232.160156 18.101562 C 232.648438 17.855469 233.234375 18.011719 233.535156 18.464844 L 248.222656 40.933594 L 274.5 35.449219 C 275.027344 35.335938 275.5625 35.644531 275.734375 36.160156 L 284.078125 61.675781 L 310.882812 63.167969 C 311.425781 63.199219 311.859375 63.632812 311.890625 64.171875 L 313.378906 90.976562 L 338.894531 99.324219 C 339.414062 99.492188 339.722656 100.023438 339.609375 100.554688 L 334.117188 126.828125 L 356.589844 141.515625 C 357.042969 141.816406 357.203125 142.402344 356.957031 142.890625 L 344.8125 166.832031 L 362.703125 186.847656 C 363.0625 187.253906 363.0625 187.863281 362.703125 188.265625 L 344.8125 208.28125 L 356.957031 232.222656 C 357.203125 232.707031 357.042969 233.300781 356.589844 233.59375 L 334.117188 248.28125 L 339.609375 274.5625 C 339.722656 275.09375 339.414062 275.625 338.894531 275.796875 L 313.378906 284.132812 L 311.890625 310.941406 C 311.859375 311.480469 311.425781 311.914062 310.882812 311.945312 L 284.082031 313.429688 L 275.738281 338.949219 C 275.570312 339.46875 275.03125 339.761719 274.507812 339.660156 L 248.230469 334.167969 L 233.542969 356.636719 C 233.246094 357.089844 232.652344 357.25 232.171875 357.003906 L 208.226562 344.859375 L 188.214844 362.746094 C 188.011719 362.929688 187.753906 363.019531 187.503906 363.019531 Z M 166.941406 342.5 C 167.199219 342.5 167.453125 342.59375 167.652344 342.773438 L 187.496094 360.515625 L 207.339844 342.773438 C 207.667969 342.476562 208.136719 342.417969 208.53125 342.621094 L 232.273438 354.660156 L 246.832031 332.378906 C 247.074219 332.011719 247.519531 331.835938 247.941406 331.917969 L 273.996094 337.363281 L 282.265625 312.066406 C 282.402344 311.648438 282.78125 311.351562 283.222656 311.332031 L 309.796875 309.855469 L 311.269531 283.277344 C 311.296875 282.839844 311.585938 282.457031 312.003906 282.324219 L 337.308594 274.050781 L 331.863281 247.992188 C 331.773438 247.566406 331.957031 247.121094 332.320312 246.886719 L 354.605469 232.320312 L 342.5625 208.578125 C 342.367188 208.1875 342.429688 207.710938 342.71875 207.386719 L 360.457031 187.542969 L 342.71875 167.699219 C 342.429688 167.375 342.363281 166.898438 342.5625 166.507812 L 354.605469 142.765625 L 332.320312 128.207031 C 331.957031 127.964844 331.769531 127.527344 331.863281 127.097656 L 337.308594 101.046875 L 312.007812 92.773438 C 311.589844 92.640625 311.300781 92.257812 311.277344 91.820312 L 309.800781 65.238281 L 283.222656 63.765625 C 282.78125 63.738281 282.40625 63.449219 282.265625 63.03125 L 273.996094 37.730469 L 247.9375 43.179688 C 247.507812 43.269531 247.066406 43.085938 246.828125 42.71875 L 232.269531 20.4375 L 208.527344 32.476562 C 208.128906 32.671875 207.660156 32.613281 207.335938 32.324219 L 187.496094 14.578125 L 167.652344 32.324219 C 167.328125 32.613281 166.855469 32.679688 166.460938 32.476562 L 142.71875 20.4375 L 128.160156 42.71875 C 127.917969 43.085938 127.476562 43.269531 127.050781 43.179688 L 101 37.730469 L 92.726562 63.039062 C 92.59375 63.457031 92.210938 63.746094 91.773438 63.769531 L 65.195312 65.246094 L 63.71875 91.824219 C 63.691406 92.261719 63.402344 92.640625 62.984375 92.777344 L 37.679688 101.050781 L 43.125 127.109375 C 43.214844 127.535156 43.035156 127.980469 42.667969 128.21875 L 20.382812 142.78125 L 32.425781 166.523438 C 32.621094 166.914062 32.558594 167.390625 32.269531 167.714844 L 14.527344 187.546875 L 32.265625 207.394531 C 32.554688 207.71875 32.621094 208.191406 32.421875 208.585938 L 20.378906 232.328125 L 42.664062 246.890625 C 43.027344 247.128906 43.214844 247.570312 43.121094 248 L 37.675781 274.050781 L 62.976562 282.324219 C 63.394531 282.457031 63.683594 282.839844 63.707031 283.277344 L 65.183594 309.855469 L 91.761719 311.332031 C 92.199219 311.351562 92.578125 311.648438 92.714844 312.066406 L 100.988281 337.363281 L 127.046875 331.917969 C 127.476562 331.835938 127.917969 332.011719 128.15625 332.378906 L 142.714844 354.660156 L 166.457031 342.621094 C 166.609375 342.542969 166.777344 342.5 166.9375 342.5 Z M 166.941406 342.5 " fill-opacity="1" fill-rule="nonzero"/></g><g clip-path="url(#9754a73637)"><path fill="#ffffff" d="M 187.496094 40.410156 L 192.191406 54.855469 L 207.378906 54.859375 L 195.09375 63.789062 L 199.785156 78.238281 L 187.496094 69.308594 L 175.203125 78.238281 L 179.894531 63.789062 L 167.605469 54.859375 L 182.796875 54.855469 Z M 187.496094 40.410156 " fill-opacity="1" fill-rule="nonzero"/></g><path fill="#ffffff" d="M 123.308594 57.605469 L 128.007812 72.050781 L 143.195312 72.050781 L 130.910156 80.984375 L 135.601562 95.429688 L 123.308594 86.503906 L 111.015625 95.429688 L 115.710938 80.984375 L 103.421875 72.050781 L 118.613281 72.050781 Z M 123.308594 57.605469 " fill-opacity="1" fill-rule="nonzero"/><path fill="#ffffff" d="M 76.316406 104.464844 L 81.011719 118.914062 L 96.203125 118.914062 L 83.914062 127.847656 L 88.609375 142.296875 L 76.316406 133.371094 L 64.027344 142.296875 L 68.71875 127.847656 L 56.429688 118.914062 L 71.621094 118.914062 Z M 76.316406 104.464844 " fill-opacity="1" fill-rule="nonzero"/><g clip-path="url(#1981463b43)"><path fill="#ffffff" d="M 59.289062 168.6875 L 63.984375 183.132812 L 79.175781 183.136719 L 66.886719 192.070312 L 71.582031 206.519531 L 59.289062 197.589844 L 46.996094 206.519531 L 51.691406 192.070312 L 39.402344 183.136719 L 54.59375 183.132812 Z M 59.289062 168.6875 " fill-opacity="1" fill-rule="nonzero"/></g><path fill="#ffffff" d="M 76.316406 232.625 L 81.011719 247.070312 L 96.203125 247.070312 L 83.914062 256.003906 L 88.609375 270.453125 L 76.316406 261.527344 L 64.027344 270.453125 L 68.71875 256.003906 L 56.429688 247.070312 L 71.621094 247.070312 Z M 76.316406 232.625 " fill-opacity="1" fill-rule="nonzero"/><path fill="#ffffff" d="M 123.332031 279.59375 L 128.027344 294.039062 L 143.21875 294.042969 L 130.929688 302.972656 L 135.621094 317.421875 L 123.332031 308.496094 L 111.039062 317.421875 L 115.730469 302.972656 L 103.445312 294.042969 L 118.632812 294.039062 Z M 123.332031 279.59375 " fill-opacity="1" fill-rule="nonzero"/><path fill="#ffffff" d="M 251.679688 57.605469 L 246.984375 72.050781 L 231.789062 72.050781 L 244.078125 80.984375 L 239.386719 95.429688 L 251.679688 86.503906 L 263.96875 95.429688 L 259.277344 80.984375 L 271.566406 72.050781 L 256.375 72.050781 Z M 251.679688 57.605469 " fill-opacity="1" fill-rule="nonzero"/><path fill="#ffffff" d="M 298.671875 104.464844 L 293.972656 118.914062 L 278.78125 118.914062 L 291.070312 127.847656 L 286.378906 142.296875 L 298.671875 133.371094 L 310.960938 142.296875 L 306.269531 127.847656 L 318.554688 118.914062 L 303.367188 118.914062 Z M 298.671875 104.464844 " fill-opacity="1" fill-rule="nonzero"/><g clip-path="url(#e50b09f854)"><path fill="#ffffff" d="M 315.699219 168.6875 L 311 183.132812 L 295.808594 183.136719 L 308.097656 192.070312 L 303.40625 206.519531 L 315.699219 197.589844 L 327.988281 206.519531 L 323.296875 192.070312 L 335.585938 183.136719 L 320.394531 183.132812 Z M 315.699219 168.6875 " fill-opacity="1" fill-rule="nonzero"/></g><path fill="#ffffff" d="M 298.671875 232.625 L 293.972656 247.070312 L 278.78125 247.070312 L 291.070312 256.003906 L 286.378906 270.453125 L 298.671875 261.527344 L 310.960938 270.453125 L 306.269531 256.003906 L 318.554688 247.070312 L 303.367188 247.070312 Z M 298.671875 232.625 " fill-opacity="1" fill-rule="nonzero"/><path fill="#ffffff" d="M 251.65625 279.59375 L 246.960938 294.039062 L 231.769531 294.042969 L 244.058594 302.972656 L 239.363281 317.421875 L 251.65625 308.496094 L 263.949219 317.421875 L 259.257812 302.972656 L 271.542969 294.042969 L 256.355469 294.039062 Z M 251.65625 279.59375 " fill-opacity="1" fill-rule="nonzero"/><g clip-path="url(#dce5935c9f)"><path fill="#ffffff" d="M 187.496094 296.742188 L 192.191406 311.191406 L 207.378906 311.195312 L 195.09375 320.125 L 199.785156 334.570312 L 187.496094 325.644531 L 175.203125 334.570312 L 179.894531 320.125 L 167.605469 311.195312 L 182.796875 311.191406 Z M 187.496094 296.742188 " fill-opacity="1" fill-rule="nonzero"/></g><g clip-path="url(#bfa6b3292e)"><path fill="#458c62" d="M 372.476562 279.082031 L 2.515625 279.082031 L 35.976562 249.945312 L 2.515625 220.808594 L 372.476562 220.808594 L 344.308594 249.945312 Z M 372.476562 279.082031 " fill-opacity="1" fill-rule="nonzero"/></g><g mask="url(#0316528ce7)"><g transform="matrix(1, 0, 0, 1, 120, 94)"><g clip-path="url(#dd98afe269)"><g clip-path="url(#7481037a2f)"><g clip-path="url(#b84d797721)"><g><g clip-path="url(#51560f6e1e)"><g clip-path="url(#3239b68dfc)"><g clip-path="url(#1deb9e009b)"><path fill="#428c62" d="M 0.34375 0.386719 L 134.65625 0.386719 L 134.65625 134.699219 L 0.34375 134.699219 Z M 0.34375 0.386719 " fill-opacity="1" fill-rule="nonzero"/></g></g></g></g></g></g></g></g></g><g transform="matrix(1, 0, 0, 1, 138, 103)"><g clip-path="url(#c3e3493420)"><g fill="#ffffff" fill-opacity="1"><g transform="translate(1.094312, 78.813475)"><g><path d="M 36.9375 -24.34375 L 16.46875 -24.34375 C 16.46875 -21.03125 16.46875 -18.019531 16.46875 -15.3125 C 16.46875 -12.613281 16.492188 -10.082031 16.546875 -7.71875 L 40.875 -7.71875 L 40.875 0 L 5.59375 0 C 5.644531 -2.519531 5.707031 -4.738281 5.78125 -6.65625 C 5.863281 -8.570312 5.929688 -10.566406 5.984375 -12.640625 C 6.035156 -14.710938 6.085938 -17.085938 6.140625 -19.765625 C 6.191406 -22.441406 6.21875 -25.804688 6.21875 -29.859375 C 6.21875 -33.898438 6.191406 -38.054688 6.140625 -42.328125 C 6.085938 -46.609375 5.984375 -50.878906 5.828125 -55.140625 L 39.390625 -55.140625 L 39.390625 -47.421875 L 16.625 -47.421875 C 16.519531 -45.367188 16.46875 -43.039062 16.46875 -40.4375 C 16.46875 -37.84375 16.46875 -34.890625 16.46875 -31.578125 L 36.9375 -31.578125 Z M 36.9375 -24.34375 "/></g></g></g><g fill="#ffffff" fill-opacity="1"><g transform="translate(44.491246, 78.813475)"><g><path d="M 15.828125 -19.296875 C 15.828125 -17.035156 16.128906 -15.101562 16.734375 -13.5 C 17.335938 -11.90625 18.148438 -10.59375 19.171875 -9.5625 C 20.203125 -8.539062 21.375 -7.789062 22.6875 -7.3125 C 24 -6.84375 25.335938 -6.609375 26.703125 -6.609375 C 27.859375 -6.609375 29.050781 -6.84375 30.28125 -7.3125 C 31.519531 -7.789062 32.660156 -8.539062 33.703125 -9.5625 C 34.753906 -10.59375 35.617188 -11.894531 36.296875 -13.46875 C 36.984375 -15.039062 37.351562 -16.929688 37.40625 -19.140625 C 37.46875 -20.710938 37.507812 -22.441406 37.53125 -24.328125 C 37.5625 -26.222656 37.578125 -28.664062 37.578125 -31.65625 C 37.578125 -35.4375 37.546875 -39.175781 37.484375 -42.875 C 37.429688 -46.582031 37.328125 -50.40625 37.171875 -54.34375 L 48.4375 -55.140625 C 48.28125 -53.554688 48.160156 -51.9375 48.078125 -50.28125 C 48.003906 -48.632812 47.953125 -46.828125 47.921875 -44.859375 C 47.898438 -42.890625 47.875 -40.679688 47.84375 -38.234375 C 47.820312 -35.796875 47.8125 -33.003906 47.8125 -29.859375 L 47.8125 -19.609375 C 47.8125 -16.359375 47.21875 -13.457031 46.03125 -10.90625 C 44.851562 -8.363281 43.28125 -6.210938 41.3125 -4.453125 C 39.34375 -2.691406 37.046875 -1.351562 34.421875 -0.4375 C 31.796875 0.476562 29.039062 0.9375 26.15625 0.9375 C 23.257812 0.9375 20.550781 0.46875 18.03125 -0.46875 C 15.507812 -1.414062 13.316406 -2.769531 11.453125 -4.53125 C 9.597656 -6.289062 8.128906 -8.441406 7.046875 -10.984375 C 5.972656 -13.535156 5.4375 -16.410156 5.4375 -19.609375 C 5.4375 -21.128906 5.460938 -22.847656 5.515625 -24.765625 C 5.566406 -26.679688 5.59375 -28.976562 5.59375 -31.65625 C 5.59375 -35.4375 5.566406 -39.175781 5.515625 -42.875 C 5.460938 -46.582031 5.359375 -50.40625 5.203125 -54.34375 L 16.46875 -55.140625 C 16.300781 -53.554688 16.175781 -51.9375 16.09375 -50.28125 C 16.019531 -48.632812 15.957031 -46.828125 15.90625 -44.859375 C 15.851562 -42.890625 15.828125 -40.679688 15.828125 -38.234375 C 15.828125 -35.796875 15.828125 -33.003906 15.828125 -29.859375 Z M 15.828125 -19.296875 "/></g></g></g><g fill="#ffffff" fill-opacity="1"><g transform="translate(10.934807, 109.099387)"><g><path d="M 0.703125 -5.34375 C 0.703125 -7.539062 1.144531 -9.171875 2.03125 -10.234375 C 2.925781 -11.304688 4.191406 -11.84375 5.828125 -11.84375 C 6.328125 -11.84375 6.738281 -11.8125 7.0625 -11.75 C 7.394531 -11.6875 7.695312 -11.65625 7.96875 -11.65625 C 8.15625 -11.65625 8.34375 -11.671875 8.53125 -11.703125 C 8.71875 -11.734375 8.921875 -11.773438 9.140625 -11.828125 L 9.3125 -7.609375 L 7.453125 -7.390625 C 7.460938 -7.554688 7.46875 -7.710938 7.46875 -7.859375 C 7.476562 -8.015625 7.484375 -8.15625 7.484375 -8.28125 C 7.484375 -8.96875 7.359375 -9.5 7.109375 -9.875 C 6.867188 -10.257812 6.4375 -10.453125 5.8125 -10.453125 C 3.851562 -10.453125 2.875 -8.894531 2.875 -5.78125 C 2.875 -5.03125 2.9375 -4.394531 3.0625 -3.875 C 3.195312 -3.351562 3.390625 -2.925781 3.640625 -2.59375 C 3.898438 -2.269531 4.21875 -2.035156 4.59375 -1.890625 C 4.976562 -1.742188 5.421875 -1.671875 5.921875 -1.671875 C 6.460938 -1.671875 7 -1.75 7.53125 -1.90625 C 8.070312 -2.0625 8.585938 -2.234375 9.078125 -2.421875 L 9.078125 -0.671875 C 8.585938 -0.347656 8.007812 -0.125 7.34375 0 C 6.675781 0.132812 6.03125 0.203125 5.40625 0.203125 C 4.78125 0.203125 4.179688 0.132812 3.609375 0 C 3.046875 -0.144531 2.546875 -0.421875 2.109375 -0.828125 C 1.679688 -1.234375 1.335938 -1.796875 1.078125 -2.515625 C 0.828125 -3.234375 0.703125 -4.175781 0.703125 -5.34375 Z M 0.703125 -5.34375 "/></g></g></g><g fill="#ffffff" fill-opacity="1"><g transform="translate(20.96597, 109.099387)"><g><path d="M 7.796875 -5.140625 L 3.484375 -5.140625 C 3.484375 -4.441406 3.484375 -3.804688 3.484375 -3.234375 C 3.484375 -2.660156 3.488281 -2.125 3.5 -1.625 L 8.640625 -1.625 L 8.640625 0 L 1.1875 0 C 1.195312 -0.53125 1.207031 -1 1.21875 -1.40625 C 1.238281 -1.8125 1.253906 -2.234375 1.265625 -2.671875 C 1.273438 -3.109375 1.285156 -3.609375 1.296875 -4.171875 C 1.304688 -4.742188 1.3125 -5.457031 1.3125 -6.3125 C 1.3125 -7.164062 1.304688 -8.039062 1.296875 -8.9375 C 1.285156 -9.84375 1.265625 -10.75 1.234375 -11.65625 L 8.328125 -11.65625 L 8.328125 -10.015625 L 3.515625 -10.015625 C 3.492188 -9.585938 3.484375 -9.097656 3.484375 -8.546875 C 3.484375 -7.992188 3.484375 -7.367188 3.484375 -6.671875 L 7.796875 -6.671875 Z M 7.796875 -5.140625 "/></g></g></g><g fill="#ffffff" fill-opacity="1"><g transform="translate(30.132092, 109.099387)"><g><path d="M 1.234375 -11.484375 C 1.734375 -11.566406 2.296875 -11.644531 2.921875 -11.71875 C 3.546875 -11.789062 4.15625 -11.828125 4.75 -11.828125 C 5.6875 -11.828125 6.457031 -11.726562 7.0625 -11.53125 C 7.664062 -11.332031 8.140625 -11.070312 8.484375 -10.75 C 8.828125 -10.4375 9.0625 -10.082031 9.1875 -9.6875 C 9.320312 -9.300781 9.390625 -8.910156 9.390625 -8.515625 C 9.390625 -7.816406 9.226562 -7.207031 8.90625 -6.6875 C 8.59375 -6.175781 8.148438 -5.769531 7.578125 -5.46875 C 7.921875 -5.300781 8.203125 -5.109375 8.421875 -4.890625 C 8.648438 -4.679688 8.832031 -4.421875 8.96875 -4.109375 C 9.101562 -3.796875 9.191406 -3.425781 9.234375 -3 C 9.285156 -2.570312 9.3125 -2.078125 9.3125 -1.515625 C 9.3125 -1.054688 9.296875 -0.550781 9.265625 0 L 6.953125 0.203125 C 6.984375 -0.160156 7.007812 -0.507812 7.03125 -0.84375 C 7.0625 -1.175781 7.078125 -1.492188 7.078125 -1.796875 C 7.078125 -2.285156 7.035156 -2.710938 6.953125 -3.078125 C 6.878906 -3.441406 6.738281 -3.75 6.53125 -4 C 6.332031 -4.25 6.0625 -4.4375 5.71875 -4.5625 C 5.382812 -4.6875 4.953125 -4.75 4.421875 -4.75 C 4.304688 -4.75 4.164062 -4.742188 4 -4.734375 C 3.832031 -4.722656 3.660156 -4.707031 3.484375 -4.6875 C 3.484375 -3.769531 3.484375 -2.9375 3.484375 -2.1875 C 3.492188 -1.445312 3.507812 -0.71875 3.53125 0 L 1.1875 0 C 1.207031 -0.53125 1.222656 -1 1.234375 -1.40625 C 1.253906 -1.8125 1.269531 -2.234375 1.28125 -2.671875 C 1.289062 -3.109375 1.296875 -3.597656 1.296875 -4.140625 C 1.304688 -4.679688 1.3125 -5.359375 1.3125 -6.171875 C 1.3125 -7.109375 1.304688 -8.003906 1.296875 -8.859375 C 1.285156 -9.710938 1.265625 -10.585938 1.234375 -11.484375 Z M 4.953125 -10.34375 C 4.734375 -10.34375 4.5 -10.320312 4.25 -10.28125 C 4.007812 -10.25 3.765625 -10.203125 3.515625 -10.140625 C 3.492188 -9.671875 3.484375 -9.144531 3.484375 -8.5625 C 3.484375 -7.976562 3.484375 -7.273438 3.484375 -6.453125 L 3.484375 -6.234375 C 3.785156 -6.171875 4.144531 -6.140625 4.5625 -6.140625 C 5.394531 -6.140625 6.039062 -6.316406 6.5 -6.671875 C 6.957031 -7.035156 7.1875 -7.566406 7.1875 -8.265625 C 7.1875 -8.910156 6.988281 -9.414062 6.59375 -9.78125 C 6.195312 -10.15625 5.648438 -10.34375 4.953125 -10.34375 Z M 4.953125 -10.34375 "/></g></g></g><g fill="#ffffff" fill-opacity="1"><g transform="translate(40.312984, 109.099387)"><g><path d="M 8.984375 -10.015625 L 5.6875 -10.015625 C 5.664062 -9.492188 5.65625 -8.90625 5.65625 -8.25 C 5.65625 -7.601562 5.65625 -6.828125 5.65625 -5.921875 C 5.65625 -5.253906 5.65625 -4.648438 5.65625 -4.109375 C 5.65625 -3.578125 5.65625 -3.078125 5.65625 -2.609375 C 5.664062 -2.140625 5.671875 -1.695312 5.671875 -1.28125 C 5.679688 -0.863281 5.691406 -0.4375 5.703125 0 L 3.359375 0 C 3.367188 -0.53125 3.378906 -1 3.390625 -1.40625 C 3.410156 -1.8125 3.425781 -2.234375 3.4375 -2.671875 C 3.457031 -3.109375 3.472656 -3.609375 3.484375 -4.171875 C 3.492188 -4.742188 3.5 -5.457031 3.5 -6.3125 C 3.5 -6.925781 3.5 -7.535156 3.5 -8.140625 C 3.5 -8.753906 3.488281 -9.378906 3.46875 -10.015625 L 0.171875 -10.015625 L 0.171875 -11.65625 L 8.984375 -11.65625 Z M 8.984375 -10.015625 "/></g></g></g><g fill="#ffffff" fill-opacity="1"><g transform="translate(49.46247, 109.099387)"><g><path d="M 3.609375 -11.65625 C 3.578125 -11.289062 3.550781 -10.921875 3.53125 -10.546875 C 3.519531 -10.179688 3.507812 -9.773438 3.5 -9.328125 C 3.5 -8.878906 3.492188 -8.375 3.484375 -7.8125 C 3.484375 -7.257812 3.484375 -6.628906 3.484375 -5.921875 C 3.484375 -5.253906 3.484375 -4.648438 3.484375 -4.109375 C 3.484375 -3.578125 3.484375 -3.078125 3.484375 -2.609375 C 3.492188 -2.140625 3.5 -1.695312 3.5 -1.28125 C 3.507812 -0.863281 3.519531 -0.4375 3.53125 0 L 1.1875 0 C 1.195312 -0.53125 1.207031 -1 1.21875 -1.40625 C 1.238281 -1.8125 1.253906 -2.234375 1.265625 -2.671875 C 1.273438 -3.109375 1.285156 -3.609375 1.296875 -4.171875 C 1.304688 -4.742188 1.3125 -5.457031 1.3125 -6.3125 C 1.3125 -7.164062 1.304688 -8.015625 1.296875 -8.859375 C 1.285156 -9.710938 1.265625 -10.585938 1.234375 -11.484375 Z M 3.609375 -11.65625 "/></g></g></g><g fill="#ffffff" fill-opacity="1"><g transform="translate(54.236839, 109.099387)"><g><path d="M 7.609375 -4.96875 L 3.484375 -4.96875 C 3.484375 -3.945312 3.484375 -3.046875 3.484375 -2.265625 C 3.492188 -1.484375 3.507812 -0.726562 3.53125 0 L 1.1875 0 C 1.195312 -0.53125 1.207031 -1 1.21875 -1.40625 C 1.238281 -1.8125 1.253906 -2.234375 1.265625 -2.671875 C 1.273438 -3.109375 1.285156 -3.609375 1.296875 -4.171875 C 1.304688 -4.742188 1.3125 -5.457031 1.3125 -6.3125 C 1.3125 -7.164062 1.304688 -8.039062 1.296875 -8.9375 C 1.285156 -9.84375 1.265625 -10.75 1.234375 -11.65625 L 8.296875 -11.65625 L 8.296875 -10.015625 L 3.515625 -10.015625 C 3.492188 -9.546875 3.484375 -9.03125 3.484375 -8.46875 C 3.484375 -7.90625 3.484375 -7.25 3.484375 -6.5 L 7.609375 -6.5 Z M 7.609375 -4.96875 "/></g></g></g><g fill="#ffffff" fill-opacity="1"><g transform="translate(62.95381, 109.099387)"><g><path d="M 3.609375 -11.65625 C 3.578125 -11.289062 3.550781 -10.921875 3.53125 -10.546875 C 3.519531 -10.179688 3.507812 -9.773438 3.5 -9.328125 C 3.5 -8.878906 3.492188 -8.375 3.484375 -7.8125 C 3.484375 -7.257812 3.484375 -6.628906 3.484375 -5.921875 C 3.484375 -5.253906 3.484375 -4.648438 3.484375 -4.109375 C 3.484375 -3.578125 3.484375 -3.078125 3.484375 -2.609375 C 3.492188 -2.140625 3.5 -1.695312 3.5 -1.28125 C 3.507812 -0.863281 3.519531 -0.4375 3.53125 0 L 1.1875 0 C 1.195312 -0.53125 1.207031 -1 1.21875 -1.40625 C 1.238281 -1.8125 1.253906 -2.234375 1.265625 -2.671875 C 1.273438 -3.109375 1.285156 -3.609375 1.296875 -4.171875 C 1.304688 -4.742188 1.3125 -5.457031 1.3125 -6.3125 C 1.3125 -7.164062 1.304688 -8.015625 1.296875 -8.859375 C 1.285156 -9.710938 1.265625 -10.585938 1.234375 -11.484375 Z M 3.609375 -11.65625 "/></g></g></g><g fill="#ffffff" fill-opacity="1"><g transform="translate(67.72818, 109.099387)"><g><path d="M 7.796875 -5.140625 L 3.484375 -5.140625 C 3.484375 -4.441406 3.484375 -3.804688 3.484375 -3.234375 C 3.484375 -2.660156 3.488281 -2.125 3.5 -1.625 L 8.640625 -1.625 L 8.640625 0 L 1.1875 0 C 1.195312 -0.53125 1.207031 -1 1.21875 -1.40625 C 1.238281 -1.8125 1.253906 -2.234375 1.265625 -2.671875 C 1.273438 -3.109375 1.285156 -3.609375 1.296875 -4.171875 C 1.304688 -4.742188 1.3125 -5.457031 1.3125 -6.3125 C 1.3125 -7.164062 1.304688 -8.039062 1.296875 -8.9375 C 1.285156 -9.84375 1.265625 -10.75 1.234375 -11.65625 L 8.328125 -11.65625 L 8.328125 -10.015625 L 3.515625 -10.015625 C 3.492188 -9.585938 3.484375 -9.097656 3.484375 -8.546875 C 3.484375 -7.992188 3.484375 -7.367188 3.484375 -6.671875 L 7.796875 -6.671875 Z M 7.796875 -5.140625 "/></g></g></g><g fill="#ffffff" fill-opacity="1"><g transform="translate(76.894302, 109.099387)"><g><path d="M 1.234375 -11.484375 C 1.671875 -11.566406 2.210938 -11.644531 2.859375 -11.71875 C 3.515625 -11.800781 4.234375 -11.84375 5.015625 -11.84375 C 5.890625 -11.84375 6.664062 -11.707031 7.34375 -11.4375 C 8.03125 -11.164062 8.609375 -10.78125 9.078125 -10.28125 C 9.554688 -9.78125 9.921875 -9.175781 10.171875 -8.46875 C 10.421875 -7.757812 10.546875 -6.972656 10.546875 -6.109375 C 10.546875 -5.203125 10.40625 -4.359375 10.125 -3.578125 C 9.84375 -2.804688 9.441406 -2.140625 8.921875 -1.578125 C 8.410156 -1.023438 7.789062 -0.585938 7.0625 -0.265625 C 6.34375 0.046875 5.539062 0.203125 4.65625 0.203125 C 3.894531 0.203125 3.21875 0.179688 2.625 0.140625 C 2.03125 0.0976562 1.550781 0.0507812 1.1875 0 C 1.195312 -0.53125 1.207031 -1 1.21875 -1.40625 C 1.238281 -1.8125 1.253906 -2.234375 1.265625 -2.671875 C 1.273438 -3.109375 1.285156 -3.609375 1.296875 -4.171875 C 1.304688 -4.742188 1.3125 -5.457031 1.3125 -6.3125 C 1.3125 -7.164062 1.304688 -8.015625 1.296875 -8.859375 C 1.285156 -9.710938 1.265625 -10.585938 1.234375 -11.484375 Z M 4.78125 -10.34375 C 4.59375 -10.34375 4.390625 -10.320312 4.171875 -10.28125 C 3.953125 -10.25 3.734375 -10.207031 3.515625 -10.15625 C 3.492188 -9.625 3.484375 -9.023438 3.484375 -8.359375 C 3.484375 -7.691406 3.484375 -6.878906 3.484375 -5.921875 C 3.484375 -4.929688 3.484375 -4.078125 3.484375 -3.359375 C 3.484375 -2.640625 3.488281 -1.960938 3.5 -1.328125 C 3.726562 -1.222656 3.984375 -1.171875 4.265625 -1.171875 C 4.828125 -1.171875 5.351562 -1.257812 5.84375 -1.4375 C 6.34375 -1.613281 6.773438 -1.894531 7.140625 -2.28125 C 7.503906 -2.664062 7.789062 -3.160156 8 -3.765625 C 8.21875 -4.367188 8.328125 -5.101562 8.328125 -5.96875 C 8.328125 -6.8125 8.242188 -7.515625 8.078125 -8.078125 C 7.921875 -8.640625 7.6875 -9.085938 7.375 -9.421875 C 7.0625 -9.765625 6.6875 -10.003906 6.25 -10.140625 C 5.8125 -10.273438 5.320312 -10.34375 4.78125 -10.34375 Z M 4.78125 -10.34375 "/></g></g></g></g></g><g fill="#ffffff" fill-opacity="1"><g transform="translate(50.115228, 268.659474)"><g><path d="M 29.3125 6.5 C 28.457031 6.46875 27.269531 6.300781 25.75 6 C 24.226562 5.707031 22.554688 5.269531 20.734375 4.6875 C 18.921875 4.101562 17.070312 3.390625 15.1875 2.546875 C 13.300781 1.710938 11.5625 0.710938 9.96875 -0.453125 C 7.425781 -2.265625 5.453125 -4.484375 4.046875 -7.109375 C 2.640625 -9.742188 1.9375 -13 1.9375 -16.875 C 1.9375 -19.644531 2.300781 -22.160156 3.03125 -24.421875 C 3.757812 -26.691406 4.804688 -28.628906 6.171875 -30.234375 C 7.546875 -31.835938 9.191406 -33.085938 11.109375 -33.984375 C 13.023438 -34.878906 15.175781 -35.328125 17.5625 -35.328125 C 19.84375 -35.328125 21.882812 -34.921875 23.6875 -34.109375 C 25.488281 -33.296875 27.007812 -32.144531 28.25 -30.65625 C 29.488281 -29.164062 30.4375 -27.367188 31.09375 -25.265625 C 31.757812 -23.171875 32.09375 -20.851562 32.09375 -18.3125 C 32.09375 -15.925781 31.8125 -13.707031 31.25 -11.65625 C 30.6875 -9.601562 29.890625 -7.773438 28.859375 -6.171875 C 27.835938 -4.566406 26.59375 -3.21875 25.125 -2.125 C 23.65625 -1.039062 22.007812 -0.28125 20.1875 0.15625 C 21.675781 0.550781 23.179688 0.835938 24.703125 1.015625 C 26.222656 1.203125 27.828125 1.296875 29.515625 1.296875 C 30.078125 1.296875 30.628906 1.296875 31.171875 1.296875 C 31.722656 1.296875 32.296875 1.257812 32.890625 1.1875 Z M 17.515625 -30.859375 C 14.597656 -30.859375 12.410156 -29.675781 10.953125 -27.3125 C 9.503906 -24.945312 8.78125 -21.5 8.78125 -16.96875 C 8.78125 -12.726562 9.425781 -9.46875 10.71875 -7.1875 C 12.007812 -4.90625 13.976562 -3.765625 16.625 -3.765625 C 19.269531 -3.765625 21.375 -4.972656 22.9375 -7.390625 C 24.507812 -9.804688 25.296875 -13.476562 25.296875 -18.40625 C 25.296875 -20.1875 25.171875 -21.835938 24.921875 -23.359375 C 24.679688 -24.878906 24.257812 -26.191406 23.65625 -27.296875 C 23.0625 -28.410156 22.269531 -29.28125 21.28125 -29.90625 C 20.289062 -30.539062 19.035156 -30.859375 17.515625 -30.859375 Z M 17.515625 -30.859375 "/></g></g></g><g fill="#ffffff" fill-opacity="1"><g transform="translate(97.24409, 268.659474)"><g><path d="M 9.96875 -12.15625 C 9.96875 -10.726562 10.15625 -9.507812 10.53125 -8.5 C 10.914062 -7.5 11.429688 -6.675781 12.078125 -6.03125 C 12.722656 -5.382812 13.457031 -4.910156 14.28125 -4.609375 C 15.113281 -4.316406 15.957031 -4.171875 16.8125 -4.171875 C 17.539062 -4.171875 18.289062 -4.316406 19.0625 -4.609375 C 19.84375 -4.910156 20.5625 -5.382812 21.21875 -6.03125 C 21.882812 -6.675781 22.429688 -7.492188 22.859375 -8.484375 C 23.296875 -9.472656 23.53125 -10.664062 23.5625 -12.0625 C 23.59375 -13.050781 23.613281 -14.140625 23.625 -15.328125 C 23.644531 -16.515625 23.65625 -18.050781 23.65625 -19.9375 C 23.65625 -22.320312 23.640625 -24.679688 23.609375 -27.015625 C 23.578125 -29.347656 23.515625 -31.753906 23.421875 -34.234375 L 30.515625 -34.734375 C 30.410156 -33.734375 30.332031 -32.710938 30.28125 -31.671875 C 30.238281 -30.628906 30.207031 -29.488281 30.1875 -28.25 C 30.164062 -27.007812 30.144531 -25.617188 30.125 -24.078125 C 30.113281 -22.546875 30.109375 -20.785156 30.109375 -18.796875 L 30.109375 -12.359375 C 30.109375 -10.304688 29.734375 -8.476562 28.984375 -6.875 C 28.242188 -5.269531 27.253906 -3.910156 26.015625 -2.796875 C 24.773438 -1.691406 23.328125 -0.847656 21.671875 -0.265625 C 20.023438 0.304688 18.289062 0.59375 16.46875 0.59375 C 14.644531 0.59375 12.941406 0.296875 11.359375 -0.296875 C 9.773438 -0.890625 8.394531 -1.738281 7.21875 -2.84375 C 6.039062 -3.957031 5.113281 -5.316406 4.4375 -6.921875 C 3.757812 -8.523438 3.421875 -10.335938 3.421875 -12.359375 C 3.421875 -13.316406 3.4375 -14.394531 3.46875 -15.59375 C 3.5 -16.800781 3.515625 -18.25 3.515625 -19.9375 C 3.515625 -22.320312 3.5 -24.679688 3.46875 -27.015625 C 3.4375 -29.347656 3.375 -31.753906 3.28125 -34.234375 L 10.375 -34.734375 C 10.269531 -33.734375 10.191406 -32.710938 10.140625 -31.671875 C 10.097656 -30.628906 10.054688 -29.488281 10.015625 -28.25 C 9.984375 -27.007812 9.96875 -25.617188 9.96875 -24.078125 C 9.96875 -22.546875 9.96875 -20.785156 9.96875 -18.796875 Z M 9.96875 -12.15625 "/></g></g></g><g fill="#ffffff" fill-opacity="1"><g transform="translate(143.976116, 268.659474)"><g><path d="M 0.59375 0.59375 C 1.488281 -2.75 2.390625 -5.945312 3.296875 -9 C 4.203125 -12.0625 5.148438 -15.03125 6.140625 -17.90625 C 7.140625 -20.78125 8.207031 -23.609375 9.34375 -26.390625 C 10.488281 -29.171875 11.722656 -31.953125 13.046875 -34.734375 L 19.25 -35.328125 C 20.570312 -32.578125 21.796875 -29.828125 22.921875 -27.078125 C 24.046875 -24.335938 25.109375 -21.519531 26.109375 -18.625 C 27.117188 -15.726562 28.078125 -12.742188 28.984375 -9.671875 C 29.898438 -6.597656 30.804688 -3.375 31.703125 0 L 24.953125 0.59375 C 24.492188 -1.15625 24.03125 -2.914062 23.5625 -4.6875 C 23.101562 -6.457031 22.640625 -8.234375 22.171875 -10.015625 L 9.921875 -10.015625 C 9.460938 -8.398438 9.015625 -6.765625 8.578125 -5.109375 C 8.148438 -3.453125 7.753906 -1.75 7.390625 0 Z M 16.171875 -29.125 C 14.253906 -24.425781 12.582031 -19.578125 11.15625 -14.578125 L 20.9375 -14.578125 C 20.207031 -17.066406 19.453125 -19.53125 18.671875 -21.96875 C 17.898438 -24.414062 17.066406 -26.800781 16.171875 -29.125 Z M 16.171875 -29.125 "/></g></g></g><g fill="#ffffff" fill-opacity="1"><g transform="translate(189.418392, 268.659474)"><g><path d="M 23.359375 0 L 3.515625 0 C 3.554688 -1.582031 3.597656 -2.976562 3.640625 -4.1875 C 3.691406 -5.394531 3.734375 -6.648438 3.765625 -7.953125 C 3.796875 -9.265625 3.828125 -10.765625 3.859375 -12.453125 C 3.898438 -14.140625 3.921875 -16.253906 3.921875 -18.796875 C 3.921875 -21.347656 3.898438 -23.890625 3.859375 -26.421875 C 3.828125 -28.953125 3.765625 -31.554688 3.671875 -34.234375 L 10.765625 -34.734375 C 10.660156 -33.671875 10.582031 -32.582031 10.53125 -31.46875 C 10.488281 -30.363281 10.457031 -29.140625 10.4375 -27.796875 C 10.425781 -26.460938 10.410156 -24.96875 10.390625 -23.3125 C 10.378906 -21.664062 10.375 -19.78125 10.375 -17.65625 C 10.375 -14.945312 10.375 -12.582031 10.375 -10.5625 C 10.375 -8.550781 10.390625 -6.648438 10.421875 -4.859375 L 23.359375 -4.859375 Z M 23.359375 0 "/></g></g></g><g fill="#ffffff" fill-opacity="1"><g transform="translate(226.427736, 268.659474)"><g><path d="M 10.765625 -34.734375 C 10.660156 -33.671875 10.582031 -32.582031 10.53125 -31.46875 C 10.488281 -30.363281 10.457031 -29.140625 10.4375 -27.796875 C 10.425781 -26.460938 10.410156 -24.96875 10.390625 -23.3125 C 10.378906 -21.664062 10.375 -19.78125 10.375 -17.65625 C 10.375 -15.675781 10.375 -13.882812 10.375 -12.28125 C 10.375 -10.675781 10.378906 -9.175781 10.390625 -7.78125 C 10.410156 -6.394531 10.425781 -5.070312 10.4375 -3.8125 C 10.457031 -2.5625 10.484375 -1.289062 10.515625 0 L 3.515625 0 C 3.554688 -1.582031 3.597656 -2.976562 3.640625 -4.1875 C 3.691406 -5.394531 3.734375 -6.648438 3.765625 -7.953125 C 3.796875 -9.265625 3.828125 -10.765625 3.859375 -12.453125 C 3.898438 -14.140625 3.921875 -16.253906 3.921875 -18.796875 C 3.921875 -21.347656 3.898438 -23.890625 3.859375 -26.421875 C 3.828125 -28.953125 3.765625 -31.554688 3.671875 -34.234375 Z M 10.765625 -34.734375 "/></g></g></g><g fill="#ffffff" fill-opacity="1"><g transform="translate(253.764019, 268.659474)"><g><path d="M 26.796875 -29.859375 L 16.96875 -29.859375 C 16.90625 -28.304688 16.875 -26.5625 16.875 -24.625 C 16.875 -22.695312 16.875 -20.375 16.875 -17.65625 C 16.875 -15.675781 16.875 -13.882812 16.875 -12.28125 C 16.875 -10.675781 16.878906 -9.175781 16.890625 -7.78125 C 16.910156 -6.394531 16.925781 -5.070312 16.9375 -3.8125 C 16.957031 -2.5625 16.984375 -1.289062 17.015625 0 L 10.015625 0 C 10.054688 -1.582031 10.097656 -2.976562 10.140625 -4.1875 C 10.191406 -5.394531 10.234375 -6.648438 10.265625 -7.953125 C 10.296875 -9.265625 10.328125 -10.765625 10.359375 -12.453125 C 10.398438 -14.140625 10.421875 -16.253906 10.421875 -18.796875 C 10.421875 -20.648438 10.421875 -22.484375 10.421875 -24.296875 C 10.421875 -26.117188 10.382812 -27.972656 10.3125 -29.859375 L 0.5 -29.859375 L 0.5 -34.734375 L 26.796875 -34.734375 Z M 26.796875 -29.859375 "/></g></g></g><g fill="#ffffff" fill-opacity="1"><g transform="translate(294.146531, 268.659474)"><g><path d="M 29.96875 -35.328125 C 29.175781 -33.203125 28.363281 -31.164062 27.53125 -29.21875 C 26.707031 -27.269531 25.832031 -25.367188 24.90625 -23.515625 C 23.976562 -21.660156 23 -19.847656 21.96875 -18.078125 C 20.945312 -16.304688 19.84375 -14.546875 18.65625 -12.796875 C 18.65625 -10.285156 18.660156 -8.007812 18.671875 -5.96875 C 18.691406 -3.9375 18.734375 -1.945312 18.796875 0 L 11.8125 0 C 11.84375 -1.1875 11.875 -2.257812 11.90625 -3.21875 C 11.9375 -4.175781 11.96875 -5.117188 12 -6.046875 C 12.039062 -6.972656 12.078125 -7.945312 12.109375 -8.96875 C 12.140625 -10 12.15625 -11.160156 12.15625 -12.453125 C 9.769531 -15.828125 7.679688 -19.320312 5.890625 -22.9375 C 4.109375 -26.5625 2.425781 -30.492188 0.84375 -34.734375 L 7.59375 -35.328125 C 8.15625 -33.929688 8.722656 -32.488281 9.296875 -31 C 9.878906 -29.519531 10.484375 -28.035156 11.109375 -26.546875 C 11.742188 -25.054688 12.40625 -23.570312 13.09375 -22.09375 C 13.789062 -20.625 14.550781 -19.226562 15.375 -17.90625 C 17.0625 -20.488281 18.492188 -23.175781 19.671875 -25.96875 C 20.847656 -28.757812 22.015625 -31.679688 23.171875 -34.734375 Z M 29.96875 -35.328125 "/></g></g></g></svg>