<svg width="35" height="35" viewBox="0 0 35 35" fill="none" xmlns="http://www.w3.org/2000/svg">
<rect width="35" height="35" rx="17.5" fill="#5B5B5C"/>
<g clip-path="url(#clip0_393_1636)">
<mask id="path-2-inside-1_393_1636" fill="white">
<path d="M10.1764 28.75C9.71319 28.7459 9.26258 28.5988 8.88606 28.329C8.50954 28.0592 8.22547 27.6798 8.07263 27.2425L7.45388 25.5325C7.42322 25.462 7.36693 25.4057 7.29638 25.375C7.25917 25.3586 7.21894 25.3501 7.17826 25.3501C7.13758 25.3501 7.09735 25.3586 7.06013 25.375C6.2739 25.7285 5.42448 25.9198 4.56263 25.9375C4.43898 25.9363 4.3185 25.9767 4.22056 26.0522C4.12262 26.1277 4.05291 26.2339 4.02263 26.3538C3.98991 26.4714 3.99637 26.5965 4.04102 26.7102C4.08567 26.8238 4.16609 26.9199 4.27013 26.9838L6.64388 28.4013L5.74388 30.19C5.69956 30.2731 5.67638 30.3659 5.67638 30.46C5.67638 30.5542 5.69956 30.6469 5.74388 30.73C5.79797 30.8147 5.87296 30.8841 5.96163 30.9314C6.0503 30.9787 6.14966 31.0023 6.25013 31C6.79013 31 10.9301 31 11.7401 28.75C11.7568 28.6944 11.7572 28.6352 11.7412 28.5794C11.7253 28.5235 11.6937 28.4734 11.6501 28.435C11.6019 28.4026 11.5451 28.3853 11.487 28.3853C11.4289 28.3853 11.3721 28.4026 11.3239 28.435C10.9766 28.6411 10.5802 28.7499 10.1764 28.75ZM30.4376 25.9375C29.5758 25.9198 28.7264 25.7285 27.9401 25.375C27.9029 25.3586 27.8627 25.3501 27.822 25.3501C27.7813 25.3501 27.7411 25.3586 27.7039 25.375C27.6333 25.4057 27.577 25.462 27.5464 25.5325L26.9276 27.2425C26.7817 27.6624 26.5148 28.0296 26.1604 28.2979C25.806 28.5662 25.3801 28.7235 24.9364 28.75C24.4908 28.7734 24.0483 28.6638 23.6651 28.435C23.6153 28.4065 23.558 28.3939 23.5009 28.399C23.4437 28.404 23.3894 28.4263 23.3454 28.4631C23.3013 28.4998 23.2695 28.5491 23.2543 28.6044C23.239 28.6598 23.2411 28.7184 23.2601 28.7725C24.0476 31.0225 28.2101 31.0225 28.7501 31.0225C28.8468 31.021 28.9416 30.9955 29.026 30.9484C29.1104 30.9013 29.1818 30.834 29.2339 30.7525C29.2782 30.6694 29.3014 30.5767 29.3014 30.4825C29.3014 30.3884 29.2782 30.2956 29.2339 30.2125L28.3339 28.4238L30.7076 27.0063C30.8117 26.9424 30.8921 26.8463 30.9367 26.7327C30.9814 26.619 30.9879 26.4939 30.9551 26.3763C30.9301 26.2559 30.8656 26.1474 30.7719 26.0679C30.6781 25.9884 30.5605 25.9425 30.4376 25.9375ZM24.3064 26.7475C24.3538 26.8414 24.4261 26.9204 24.5154 26.976C24.6047 27.0315 24.7075 27.0615 24.8126 27.0625C24.9282 27.0625 25.041 27.0268 25.1356 26.9604C25.2302 26.894 25.3021 26.8 25.3414 26.6913L27.2764 21.37C27.414 20.9924 27.4113 20.5779 27.2688 20.202C27.1263 19.8262 26.8535 19.5141 26.5001 19.3225C23.7496 17.7804 20.6534 16.9599 17.5001 16.9375C14.3469 16.9599 11.2507 17.7804 8.50013 19.3225C8.15079 19.5177 7.88277 19.8313 7.74453 20.2069C7.60629 20.5824 7.60695 20.995 7.74638 21.37L9.62513 26.6913C9.66232 26.7948 9.72902 26.8851 9.817 26.9511C9.90498 27.0171 10.0104 27.0558 10.1201 27.0625C10.2439 27.0865 10.372 27.0699 10.4855 27.0152C10.599 26.9604 10.6918 26.8705 10.7501 26.7588C10.7501 26.635 12.3251 23.6875 17.5001 23.6875C22.6751 23.6875 24.2501 26.635 24.3064 26.7475ZM10.4351 16.735C10.6031 16.6075 10.7247 16.4285 10.7816 16.2254C10.8385 16.0224 10.8274 15.8063 10.7501 15.61L10.2214 14.215C10.2003 14.1608 10.1966 14.1014 10.2107 14.045C10.2248 13.9886 10.2561 13.938 10.3001 13.9L11.4251 12.9888C11.5819 12.8585 11.6935 12.6821 11.7441 12.4847C11.7947 12.2873 11.7816 12.0789 11.7068 11.8894C11.6319 11.6998 11.4992 11.5387 11.3274 11.4291C11.1556 11.3194 10.9536 11.2668 10.7501 11.2788H9.49013C9.43219 11.2789 9.37575 11.2604 9.32916 11.2259C9.28256 11.1915 9.24828 11.143 9.23138 11.0875L8.79263 9.73753C8.73406 9.5398 8.61314 9.36631 8.44791 9.24292C8.28267 9.11953 8.08198 9.05286 7.87576 9.05286C7.66953 9.05286 7.46884 9.11953 7.3036 9.24292C7.13837 9.36631 7.01745 9.5398 6.95888 9.73753L6.52013 11.0875C6.50111 11.1439 6.46474 11.1927 6.41623 11.2271C6.36772 11.2614 6.30957 11.2795 6.25013 11.2788H4.96763C4.77376 11.2767 4.58366 11.3323 4.42142 11.4385C4.25919 11.5446 4.13214 11.6966 4.05638 11.875C3.98029 12.0694 3.9676 12.2829 4.02014 12.485C4.07267 12.687 4.18773 12.8673 4.34888 13L5.47388 13.9113C5.52134 13.9467 5.55585 13.9967 5.57211 14.0536C5.58838 14.1105 5.58548 14.1712 5.56388 14.2263L5.00138 15.6325C4.92017 15.8282 4.90708 16.0455 4.96421 16.2495C5.02133 16.4536 5.14536 16.6325 5.31638 16.7575C5.4805 16.8748 5.67717 16.9379 5.87888 16.9379C6.08059 16.9379 6.27726 16.8748 6.44138 16.7575L7.69013 15.8688C7.73625 15.8313 7.79385 15.8109 7.85326 15.8109C7.91267 15.8109 7.97027 15.8313 8.01638 15.8688L9.26513 16.7575C9.43585 16.8821 9.64264 16.9473 9.85392 16.9432C10.0652 16.9392 10.2693 16.866 10.4351 16.735ZM14.6539 9.90628C14.6986 9.94381 14.7311 9.99387 14.7471 10.05C14.7632 10.1061 14.762 10.1658 14.7439 10.2213L14.0239 12.1338C13.9466 12.3475 13.9395 12.5804 14.0036 12.7984C14.0676 13.0165 14.1996 13.2085 14.3802 13.3465C14.5608 13.4844 14.7807 13.5612 15.008 13.5657C15.2352 13.5702 15.458 13.5021 15.6439 13.3713L17.3314 12.1675C17.3796 12.1351 17.4364 12.1178 17.4945 12.1178C17.5526 12.1178 17.6094 12.1351 17.6576 12.1675L19.3451 13.3713C19.5266 13.5082 19.7478 13.5822 19.9751 13.5822C20.2025 13.5822 20.4236 13.5082 20.6051 13.3713C20.7825 13.2275 20.9119 13.0333 20.9762 12.8142C21.0405 12.5952 21.0366 12.3618 20.9651 12.145L20.2451 10.2325C20.2223 10.1786 20.2177 10.1187 20.2319 10.0619C20.2461 10.0051 20.2784 9.95439 20.3239 9.91753L21.8201 8.66878C21.9848 8.52706 22.1024 8.33852 22.1572 8.12829C22.212 7.91805 22.2014 7.69611 22.1268 7.49204C22.0523 7.28797 21.9173 7.11147 21.7399 6.98605C21.5625 6.86063 21.3511 6.79225 21.1339 6.79003H19.3676C19.3068 6.79003 19.2476 6.7703 19.1989 6.73378C19.1502 6.69727 19.1147 6.64595 19.0976 6.58753L18.5014 4.74253C18.4378 4.52679 18.3057 4.33762 18.1251 4.20365C17.9444 4.06968 17.725 3.9982 17.5001 4.00003C17.2742 3.99939 17.054 4.07114 16.8718 4.20476C16.6896 4.33838 16.5549 4.52684 16.4876 4.74253L15.8914 6.57628C15.8784 6.63478 15.8455 6.68694 15.7983 6.72388C15.7511 6.76081 15.6925 6.78021 15.6326 6.77878H13.8439C13.6246 6.77696 13.4102 6.84333 13.2303 6.96872C13.0504 7.09412 12.914 7.27233 12.8398 7.47868C12.7657 7.68504 12.7575 7.90935 12.8165 8.12055C12.8754 8.33175 12.9986 8.5194 13.1689 8.65753L14.6539 9.90628ZM25.7126 16.7575L26.9614 15.8688C27.0075 15.8313 27.0651 15.8109 27.1245 15.8109C27.1839 15.8109 27.2415 15.8313 27.2876 15.8688L28.5364 16.7575C28.7005 16.8748 28.8972 16.9379 29.0989 16.9379C29.3006 16.9379 29.4973 16.8748 29.6614 16.7575C29.8324 16.6325 29.9564 16.4536 30.0136 16.2495C30.0707 16.0455 30.0576 15.8282 29.9764 15.6325L29.4476 14.215C29.4266 14.1608 29.4229 14.1014 29.437 14.045C29.4511 13.9886 29.4823 13.938 29.5264 13.9L30.6514 12.9888C30.8038 12.8615 30.9133 12.6903 30.9651 12.4986C31.0169 12.3069 31.0084 12.1038 30.9409 11.9171C30.8733 11.7303 30.7499 11.5689 30.5874 11.4547C30.4249 11.3405 30.2312 11.2791 30.0326 11.2788H28.7501C28.6907 11.2795 28.6325 11.2614 28.584 11.2271C28.5355 11.1927 28.4992 11.1439 28.4801 11.0875L28.0414 9.73753C27.9828 9.5398 27.8619 9.36631 27.6967 9.24292C27.5314 9.11953 27.3307 9.05286 27.1245 9.05286C26.9183 9.05286 26.7176 9.11953 26.5524 9.24292C26.3871 9.36631 26.2662 9.5398 26.2076 9.73753L25.7689 11.0875C25.752 11.143 25.7177 11.1915 25.6711 11.2259C25.6245 11.2604 25.5681 11.2789 25.5101 11.2788H24.2501C24.0459 11.2688 23.8438 11.3237 23.6728 11.4357C23.5017 11.5477 23.3705 11.711 23.2981 11.9022C23.2256 12.0933 23.2156 12.3026 23.2694 12.4998C23.3232 12.697 23.4381 12.8722 23.5976 13L24.7226 13.9113C24.7667 13.9492 24.798 13.9999 24.8121 14.0563C24.8262 14.1127 24.8224 14.1721 24.8014 14.2263L24.2501 15.6325C24.1797 15.8258 24.1726 16.0364 24.23 16.2339C24.2873 16.4314 24.4061 16.6055 24.5692 16.7309C24.7322 16.8563 24.9309 16.9265 25.1365 16.9313C25.3422 16.9361 25.544 16.8752 25.7126 16.7575Z"/>
</mask>
<path d="M10.1764 28.75C9.71319 28.7459 9.26258 28.5988 8.88606 28.329C8.50954 28.0592 8.22547 27.6798 8.07263 27.2425L7.45388 25.5325C7.42322 25.462 7.36693 25.4057 7.29638 25.375C7.25917 25.3586 7.21894 25.3501 7.17826 25.3501C7.13758 25.3501 7.09735 25.3586 7.06013 25.375C6.2739 25.7285 5.42448 25.9198 4.56263 25.9375C4.43898 25.9363 4.3185 25.9767 4.22056 26.0522C4.12262 26.1277 4.05291 26.2339 4.02263 26.3538C3.98991 26.4714 3.99637 26.5965 4.04102 26.7102C4.08567 26.8238 4.16609 26.9199 4.27013 26.9838L6.64388 28.4013L5.74388 30.19C5.69956 30.2731 5.67638 30.3659 5.67638 30.46C5.67638 30.5542 5.69956 30.6469 5.74388 30.73C5.79797 30.8147 5.87296 30.8841 5.96163 30.9314C6.0503 30.9787 6.14966 31.0023 6.25013 31C6.79013 31 10.9301 31 11.7401 28.75C11.7568 28.6944 11.7572 28.6352 11.7412 28.5794C11.7253 28.5235 11.6937 28.4734 11.6501 28.435C11.6019 28.4026 11.5451 28.3853 11.487 28.3853C11.4289 28.3853 11.3721 28.4026 11.3239 28.435C10.9766 28.6411 10.5802 28.7499 10.1764 28.75ZM30.4376 25.9375C29.5758 25.9198 28.7264 25.7285 27.9401 25.375C27.9029 25.3586 27.8627 25.3501 27.822 25.3501C27.7813 25.3501 27.7411 25.3586 27.7039 25.375C27.6333 25.4057 27.577 25.462 27.5464 25.5325L26.9276 27.2425C26.7817 27.6624 26.5148 28.0296 26.1604 28.2979C25.806 28.5662 25.3801 28.7235 24.9364 28.75C24.4908 28.7734 24.0483 28.6638 23.6651 28.435C23.6153 28.4065 23.558 28.3939 23.5009 28.399C23.4437 28.404 23.3894 28.4263 23.3454 28.4631C23.3013 28.4998 23.2695 28.5491 23.2543 28.6044C23.239 28.6598 23.2411 28.7184 23.2601 28.7725C24.0476 31.0225 28.2101 31.0225 28.7501 31.0225C28.8468 31.021 28.9416 30.9955 29.026 30.9484C29.1104 30.9013 29.1818 30.834 29.2339 30.7525C29.2782 30.6694 29.3014 30.5767 29.3014 30.4825C29.3014 30.3884 29.2782 30.2956 29.2339 30.2125L28.3339 28.4238L30.7076 27.0063C30.8117 26.9424 30.8921 26.8463 30.9367 26.7327C30.9814 26.619 30.9879 26.4939 30.9551 26.3763C30.9301 26.2559 30.8656 26.1474 30.7719 26.0679C30.6781 25.9884 30.5605 25.9425 30.4376 25.9375ZM24.3064 26.7475C24.3538 26.8414 24.4261 26.9204 24.5154 26.976C24.6047 27.0315 24.7075 27.0615 24.8126 27.0625C24.9282 27.0625 25.041 27.0268 25.1356 26.9604C25.2302 26.894 25.3021 26.8 25.3414 26.6913L27.2764 21.37C27.414 20.9924 27.4113 20.5779 27.2688 20.202C27.1263 19.8262 26.8535 19.5141 26.5001 19.3225C23.7496 17.7804 20.6534 16.9599 17.5001 16.9375C14.3469 16.9599 11.2507 17.7804 8.50013 19.3225C8.15079 19.5177 7.88277 19.8313 7.74453 20.2069C7.60629 20.5824 7.60695 20.995 7.74638 21.37L9.62513 26.6913C9.66232 26.7948 9.72902 26.8851 9.817 26.9511C9.90498 27.0171 10.0104 27.0558 10.1201 27.0625C10.2439 27.0865 10.372 27.0699 10.4855 27.0152C10.599 26.9604 10.6918 26.8705 10.7501 26.7588C10.7501 26.635 12.3251 23.6875 17.5001 23.6875C22.6751 23.6875 24.2501 26.635 24.3064 26.7475ZM10.4351 16.735C10.6031 16.6075 10.7247 16.4285 10.7816 16.2254C10.8385 16.0224 10.8274 15.8063 10.7501 15.61L10.2214 14.215C10.2003 14.1608 10.1966 14.1014 10.2107 14.045C10.2248 13.9886 10.2561 13.938 10.3001 13.9L11.4251 12.9888C11.5819 12.8585 11.6935 12.6821 11.7441 12.4847C11.7947 12.2873 11.7816 12.0789 11.7068 11.8894C11.6319 11.6998 11.4992 11.5387 11.3274 11.4291C11.1556 11.3194 10.9536 11.2668 10.7501 11.2788H9.49013C9.43219 11.2789 9.37575 11.2604 9.32916 11.2259C9.28256 11.1915 9.24828 11.143 9.23138 11.0875L8.79263 9.73753C8.73406 9.5398 8.61314 9.36631 8.44791 9.24292C8.28267 9.11953 8.08198 9.05286 7.87576 9.05286C7.66953 9.05286 7.46884 9.11953 7.3036 9.24292C7.13837 9.36631 7.01745 9.5398 6.95888 9.73753L6.52013 11.0875C6.50111 11.1439 6.46474 11.1927 6.41623 11.2271C6.36772 11.2614 6.30957 11.2795 6.25013 11.2788H4.96763C4.77376 11.2767 4.58366 11.3323 4.42142 11.4385C4.25919 11.5446 4.13214 11.6966 4.05638 11.875C3.98029 12.0694 3.9676 12.2829 4.02014 12.485C4.07267 12.687 4.18773 12.8673 4.34888 13L5.47388 13.9113C5.52134 13.9467 5.55585 13.9967 5.57211 14.0536C5.58838 14.1105 5.58548 14.1712 5.56388 14.2263L5.00138 15.6325C4.92017 15.8282 4.90708 16.0455 4.96421 16.2495C5.02133 16.4536 5.14536 16.6325 5.31638 16.7575C5.4805 16.8748 5.67717 16.9379 5.87888 16.9379C6.08059 16.9379 6.27726 16.8748 6.44138 16.7575L7.69013 15.8688C7.73625 15.8313 7.79385 15.8109 7.85326 15.8109C7.91267 15.8109 7.97027 15.8313 8.01638 15.8688L9.26513 16.7575C9.43585 16.8821 9.64264 16.9473 9.85392 16.9432C10.0652 16.9392 10.2693 16.866 10.4351 16.735ZM14.6539 9.90628C14.6986 9.94381 14.7311 9.99387 14.7471 10.05C14.7632 10.1061 14.762 10.1658 14.7439 10.2213L14.0239 12.1338C13.9466 12.3475 13.9395 12.5804 14.0036 12.7984C14.0676 13.0165 14.1996 13.2085 14.3802 13.3465C14.5608 13.4844 14.7807 13.5612 15.008 13.5657C15.2352 13.5702 15.458 13.5021 15.6439 13.3713L17.3314 12.1675C17.3796 12.1351 17.4364 12.1178 17.4945 12.1178C17.5526 12.1178 17.6094 12.1351 17.6576 12.1675L19.3451 13.3713C19.5266 13.5082 19.7478 13.5822 19.9751 13.5822C20.2025 13.5822 20.4236 13.5082 20.6051 13.3713C20.7825 13.2275 20.9119 13.0333 20.9762 12.8142C21.0405 12.5952 21.0366 12.3618 20.9651 12.145L20.2451 10.2325C20.2223 10.1786 20.2177 10.1187 20.2319 10.0619C20.2461 10.0051 20.2784 9.95439 20.3239 9.91753L21.8201 8.66878C21.9848 8.52706 22.1024 8.33852 22.1572 8.12829C22.212 7.91805 22.2014 7.69611 22.1268 7.49204C22.0523 7.28797 21.9173 7.11147 21.7399 6.98605C21.5625 6.86063 21.3511 6.79225 21.1339 6.79003H19.3676C19.3068 6.79003 19.2476 6.7703 19.1989 6.73378C19.1502 6.69727 19.1147 6.64595 19.0976 6.58753L18.5014 4.74253C18.4378 4.52679 18.3057 4.33762 18.1251 4.20365C17.9444 4.06968 17.725 3.9982 17.5001 4.00003C17.2742 3.99939 17.054 4.07114 16.8718 4.20476C16.6896 4.33838 16.5549 4.52684 16.4876 4.74253L15.8914 6.57628C15.8784 6.63478 15.8455 6.68694 15.7983 6.72388C15.7511 6.76081 15.6925 6.78021 15.6326 6.77878H13.8439C13.6246 6.77696 13.4102 6.84333 13.2303 6.96872C13.0504 7.09412 12.914 7.27233 12.8398 7.47868C12.7657 7.68504 12.7575 7.90935 12.8165 8.12055C12.8754 8.33175 12.9986 8.5194 13.1689 8.65753L14.6539 9.90628ZM25.7126 16.7575L26.9614 15.8688C27.0075 15.8313 27.0651 15.8109 27.1245 15.8109C27.1839 15.8109 27.2415 15.8313 27.2876 15.8688L28.5364 16.7575C28.7005 16.8748 28.8972 16.9379 29.0989 16.9379C29.3006 16.9379 29.4973 16.8748 29.6614 16.7575C29.8324 16.6325 29.9564 16.4536 30.0136 16.2495C30.0707 16.0455 30.0576 15.8282 29.9764 15.6325L29.4476 14.215C29.4266 14.1608 29.4229 14.1014 29.437 14.045C29.4511 13.9886 29.4823 13.938 29.5264 13.9L30.6514 12.9888C30.8038 12.8615 30.9133 12.6903 30.9651 12.4986C31.0169 12.3069 31.0084 12.1038 30.9409 11.9171C30.8733 11.7303 30.7499 11.5689 30.5874 11.4547C30.4249 11.3405 30.2312 11.2791 30.0326 11.2788H28.7501C28.6907 11.2795 28.6325 11.2614 28.584 11.2271C28.5355 11.1927 28.4992 11.1439 28.4801 11.0875L28.0414 9.73753C27.9828 9.5398 27.8619 9.36631 27.6967 9.24292C27.5314 9.11953 27.3307 9.05286 27.1245 9.05286C26.9183 9.05286 26.7176 9.11953 26.5524 9.24292C26.3871 9.36631 26.2662 9.5398 26.2076 9.73753L25.7689 11.0875C25.752 11.143 25.7177 11.1915 25.6711 11.2259C25.6245 11.2604 25.5681 11.2789 25.5101 11.2788H24.2501C24.0459 11.2688 23.8438 11.3237 23.6728 11.4357C23.5017 11.5477 23.3705 11.711 23.2981 11.9022C23.2256 12.0933 23.2156 12.3026 23.2694 12.4998C23.3232 12.697 23.4381 12.8722 23.5976 13L24.7226 13.9113C24.7667 13.9492 24.798 13.9999 24.8121 14.0563C24.8262 14.1127 24.8224 14.1721 24.8014 14.2263L24.2501 15.6325C24.1797 15.8258 24.1726 16.0364 24.23 16.2339C24.2873 16.4314 24.4061 16.6055 24.5692 16.7309C24.7322 16.8563 24.9309 16.9265 25.1365 16.9313C25.3422 16.9361 25.544 16.8752 25.7126 16.7575Z" stroke="white" stroke-width="2" mask="url(#path-2-inside-1_393_1636)"/>
</g>
<defs>
<clipPath id="clip0_393_1636">
<rect width="27" height="27" fill="white" transform="translate(4 4)"/>
</clipPath>
</defs>
</svg>
