<svg width="35" height="35" viewBox="0 0 35 35" fill="none" xmlns="http://www.w3.org/2000/svg">
<rect width="35" height="35" rx="17.5" fill="#5B5B5C"/>
<path d="M21.5 12.75H14.5V11H21.5V12.75ZM18 28.5H9.25V25H11V23.25H9.25V18.875H11V17.125H9.25V12.75H11V11H9.25V7.5H25V22.375H26.75V7.5C26.75 6.5375 25.9625 5.75 25 5.75H9.25C8.2875 5.75 7.5 6.5375 7.5 7.5V11H5.75V12.75H7.5V17.125H5.75V18.875H7.5V23.25H5.75V25H7.5V28.5C7.5 29.4625 8.2875 30.25 9.25 30.25H18V28.5ZM21.5 17.125H14.5V18.875H21.5V17.125ZM24.125 27.8L21.85 25.525L20.625 26.75L24.125 30.25L30.25 24.125L29.025 22.9L24.125 27.8Z" fill="white"/>
</svg>
