<svg width="35" height="35" viewBox="0 0 35 35" fill="none" xmlns="http://www.w3.org/2000/svg">
<rect width="35" height="35" rx="17.5" fill="#5B5B5C"/>
<path d="M26.75 14.25C26.75 15.3991 26.5237 16.5369 26.0839 17.5985C25.6442 18.6601 24.9997 19.6247 24.1872 20.4372C23.3747 21.2497 22.4101 21.8942 21.3485 22.3339C20.2869 22.7737 19.1491 23 18 23C16.8509 23 15.7131 22.7737 14.6515 22.3339C13.5899 21.8942 12.6253 21.2497 11.8128 20.4372C11.0003 19.6247 10.3558 18.6601 9.91605 17.5985C9.47633 16.5369 9.25 15.3991 9.25 14.25C9.25 11.9294 10.1719 9.70376 11.8128 8.06282C13.4538 6.42187 15.6794 5.5 18 5.5C20.3206 5.5 22.5462 6.42187 24.1872 8.06282C25.8281 9.70376 26.75 11.9294 26.75 14.25Z" stroke="white" stroke-width="1.5"/>
<path d="M9.81992 18L6.73992 21.1887C6.06492 21.8875 5.72742 22.2375 5.60992 22.5337C5.34367 23.2075 5.57242 23.9562 6.15117 24.3112C6.40617 24.4662 6.86492 24.515 7.78242 24.6125C8.30117 24.6675 8.55992 24.6938 8.77617 24.7775C9.01808 24.871 9.23674 25.0161 9.41698 25.2026C9.59722 25.3891 9.73471 25.6125 9.81992 25.8575C9.89992 26.0825 9.92617 26.35 9.97992 26.8875C10.0724 27.8375 10.1199 28.3125 10.2699 28.575C10.6124 29.175 11.3362 29.41 11.9862 29.135C12.2737 29.015 12.6112 28.6662 13.2862 27.9662L17.9999 23.085L22.7137 27.9662C23.3887 28.6662 23.7262 29.015 24.0137 29.135C24.6637 29.41 25.3874 29.175 25.7299 28.575C25.8799 28.3125 25.9262 27.8375 26.0199 26.8875C26.0737 26.35 26.0999 26.0825 26.1799 25.8575C26.3599 25.355 26.7374 24.9638 27.2237 24.7775C27.4399 24.6938 27.6987 24.6675 28.2174 24.6125C29.1349 24.515 29.5937 24.4662 29.8487 24.3112C30.4274 23.9562 30.6562 23.2075 30.3899 22.5337C30.2724 22.2375 29.9349 21.8875 29.2599 21.1887L26.1799 18" stroke="white" stroke-width="1.5"/>
<path d="M12.6779 15.34V14.18H14.1679C14.4812 14.18 14.7212 14.1 14.8879 13.94C15.0612 13.78 15.1479 13.5633 15.1479 13.29C15.1479 13.0367 15.0645 12.8267 14.8979 12.66C14.7312 12.4933 14.4912 12.41 14.1779 12.41H12.6779V11.19H14.3579C14.8245 11.19 15.2345 11.28 15.5879 11.46C15.9412 11.6333 16.2179 11.8767 16.4179 12.19C16.6179 12.5033 16.7179 12.8633 16.7179 13.27C16.7179 13.6833 16.6179 14.0467 16.4179 14.36C16.2179 14.6667 15.9379 14.9067 15.5779 15.08C15.2179 15.2533 14.7945 15.34 14.3079 15.34H12.6779ZM11.4779 18.25V11.19H13.0479V18.25H11.4779ZM15.3179 18.25L13.1179 15.21L14.5579 14.82L17.1779 18.25H15.3179ZM21.1955 18.37C20.6622 18.37 20.1688 18.2767 19.7155 18.09C19.2688 17.9033 18.8755 17.6433 18.5355 17.31C18.1955 16.9767 17.9322 16.59 17.7455 16.15C17.5588 15.7033 17.4655 15.2233 17.4655 14.71C17.4655 14.19 17.5588 13.71 17.7455 13.27C17.9322 12.83 18.1922 12.4467 18.5255 12.12C18.8588 11.7867 19.2488 11.53 19.6955 11.35C20.1488 11.1633 20.6422 11.07 21.1755 11.07C21.7022 11.07 22.1888 11.1633 22.6355 11.35C23.0888 11.53 23.4822 11.7867 23.8155 12.12C24.1555 12.4467 24.4188 12.8333 24.6055 13.28C24.7922 13.72 24.8855 14.2 24.8855 14.72C24.8855 15.2333 24.7922 15.7133 24.6055 16.16C24.4188 16.6 24.1588 16.9867 23.8255 17.32C23.4922 17.6467 23.0988 17.9033 22.6455 18.09C22.1988 18.2767 21.7155 18.37 21.1955 18.37ZM21.1755 16.94C21.5955 16.94 21.9622 16.8467 22.2755 16.66C22.5955 16.4733 22.8422 16.2133 23.0155 15.88C23.1888 15.54 23.2755 15.15 23.2755 14.71C23.2755 14.3767 23.2255 14.0767 23.1255 13.81C23.0255 13.5367 22.8822 13.3033 22.6955 13.11C22.5088 12.91 22.2855 12.76 22.0255 12.66C21.7722 12.5533 21.4888 12.5 21.1755 12.5C20.7555 12.5 20.3855 12.5933 20.0655 12.78C19.7522 12.96 19.5088 13.2167 19.3355 13.55C19.1622 13.8767 19.0755 14.2633 19.0755 14.71C19.0755 15.0433 19.1255 15.3467 19.2255 15.62C19.3255 15.8933 19.4655 16.13 19.6455 16.33C19.8322 16.5233 20.0555 16.6733 20.3155 16.78C20.5755 16.8867 20.8622 16.94 21.1755 16.94Z" fill="white"/>
</svg>
