<svg width="35" height="35" viewBox="0 0 35 35" fill="none" xmlns="http://www.w3.org/2000/svg">
<rect width="35" height="35" rx="17.5" fill="#5B5B5C"/>
<path d="M31.3528 8.61224C31.3394 8.38289 31.2423 8.16644 31.0798 8.00398C30.9174 7.84153 30.7009 7.74439 30.4716 7.73099C24.4059 7.37943 19.5356 9.22396 17.4427 12.6786C16.0599 14.9626 16.0622 17.7365 17.4239 20.3826C16.6487 21.3052 16.0822 22.3845 15.7634 23.5466L13.8567 21.6329C14.7731 19.7193 14.738 17.7247 13.7395 16.0677C12.1927 13.5142 8.62196 12.1454 4.18876 12.4056C3.95941 12.419 3.74296 12.5161 3.5805 12.6786C3.41805 12.841 3.32091 13.0575 3.30751 13.2869C3.04618 17.7201 4.41611 21.2908 6.96962 22.8376C7.81223 23.3526 8.78056 23.6251 9.76806 23.6251C10.7265 23.6133 11.6701 23.3862 12.529 22.9607L15.4587 25.8904V29.2501C15.4587 29.4988 15.5575 29.7372 15.7333 29.913C15.9091 30.0889 16.1475 30.1876 16.3962 30.1876C16.6448 30.1876 16.8833 30.0889 17.0591 29.913C17.2349 29.7372 17.3337 29.4988 17.3337 29.2501V25.7943C17.3294 24.3028 17.837 22.855 18.7716 21.6927C19.9774 22.3229 21.3147 22.6601 22.6751 22.6771C23.9904 22.6813 25.2812 22.322 26.4052 21.6388C29.8599 19.5482 31.7091 14.6779 31.3528 8.61224ZM7.93642 21.2345C6.13876 20.1458 5.12157 17.5689 5.14618 14.2501C8.46493 14.222 11.0419 15.2427 12.1306 17.0404C12.6989 17.9779 12.7915 19.0712 12.4188 20.1974L9.55829 17.3369C9.38105 17.1685 9.14503 17.076 8.90057 17.0791C8.6561 17.0822 8.42253 17.1807 8.24966 17.3536C8.07678 17.5265 7.97828 17.7601 7.97515 18.0045C7.97202 18.249 8.06451 18.485 8.2329 18.6622L11.0934 21.5228C9.96728 21.8954 8.87509 21.8029 7.93642 21.2345ZM25.4337 20.0369C23.8634 20.9872 22.0177 21.0599 20.1427 20.2712L26.4345 13.9783C26.6029 13.801 26.6954 13.565 26.6922 13.3205C26.6891 13.0761 26.5906 12.8425 26.4177 12.6696C26.2448 12.4967 26.0113 12.3982 25.7668 12.3951C25.5223 12.392 25.2863 12.4845 25.1091 12.6529L18.8161 18.9376C18.0239 17.0626 18.0954 15.2158 19.0505 13.6466C20.6841 10.9513 24.5583 9.44896 29.5188 9.56498C29.6313 14.5244 28.1313 18.4033 25.4337 20.0369Z" fill="white"/>
</svg>
