<svg width="35" height="35" viewBox="0 0 35 35" fill="none" xmlns="http://www.w3.org/2000/svg">
<rect width="35" height="35" rx="17.5" fill="#5B5B5C"/>
<path d="M10.1665 7.375C10.1665 6.7925 10.1665 6.50125 10.2615 6.27125C10.3886 5.96558 10.6318 5.72282 10.9378 5.59625C11.1678 5.5 11.459 5.5 12.0415 5.5H23.2915C23.874 5.5 24.1653 5.5 24.3953 5.595C24.7009 5.72214 24.9437 5.96534 25.0703 6.27125C25.1665 6.50125 25.1665 6.7925 25.1665 7.375C25.1665 7.9575 25.1665 8.24875 25.0715 8.47875C24.9444 8.78442 24.7012 9.02718 24.3953 9.15375C24.1653 9.25 23.874 9.25 23.2915 9.25H12.0415C11.459 9.25 11.1678 9.25 10.9378 9.155C10.6321 9.02786 10.3893 8.78466 10.2628 8.47875C10.1665 8.24875 10.1665 7.9575 10.1665 7.375Z" stroke="white" stroke-width="1.5"/>
<path d="M8.2915 25.5H27.0415M8.2915 15.5H12.979M27.0415 15.5H17.6665M27.6665 16.635C27.6664 15.8903 27.4998 15.1549 27.1791 14.4828C26.8584 13.8106 26.3916 13.2186 25.8128 12.75L22.8665 10.3637C22.1853 9.8125 21.844 9.53625 21.439 9.39375C21.034 9.25 20.5965 9.25 19.7203 9.25H15.6703C14.8015 9.25 14.3678 9.25 13.9665 9.39125C13.564 9.53125 13.2253 9.80375 12.5465 10.3462L9.54275 12.7487C8.95735 13.2171 8.48477 13.8112 8.15999 14.4869C7.83522 15.1627 7.66656 15.9028 7.6665 16.6525V18.625M27.6665 21.75V24.9563C27.6667 26.116 27.2637 27.2397 26.5265 28.135L26.0778 28.6787C25.6088 29.2482 25.0196 29.7068 24.3524 30.0217C23.6853 30.3365 22.9567 30.4999 22.219 30.5H13.8628C13.149 30.5 12.7915 30.5 12.454 30.4537C11.45 30.3162 10.5114 29.8768 9.76275 29.1937C9.5115 28.9637 9.28275 28.6888 8.82525 28.1413C8.07642 27.2426 7.66639 26.1098 7.6665 24.94V23.625M17.6665 18V23M15.1665 20.5H20.1665" stroke="white" stroke-width="1.5" stroke-linecap="round"/>
</svg>
