<svg width="35" height="35" viewBox="0 0 35 35" fill="none" xmlns="http://www.w3.org/2000/svg">
<rect width="35" height="35" rx="17.5" fill="#5B5B5C"/>
<path d="M29 13.445H29.5V12.945H29V13.445ZM6.50501 13.445V12.945H6.00501V13.445H6.50501ZM21.9231 18.2327C21.6469 18.2327 21.4231 18.4565 21.4231 18.7327C21.4231 19.0088 21.6469 19.2327 21.9231 19.2327V18.7327V18.2327ZM26.3462 19.2327C26.6223 19.2327 26.8462 19.0088 26.8462 18.7327C26.8462 18.4565 26.6223 18.2327 26.3462 18.2327V18.7327V19.2327ZM11.4799 22.6103L11.4176 22.1142L10.8503 22.1853L10.9965 22.7381L11.4799 22.6103ZM23.3042 22.6103L23.7595 22.8168L24.0824 22.1048L23.3006 22.1103L23.3042 22.6103ZM17.5362 27.0354L17.5366 27.5354L17.5362 27.0354ZM17.7525 19.7902L18.1371 19.4706L17.7407 18.9936L17.3586 19.4822L17.7525 19.7902ZM18.7619 24.3593L19.1178 24.7104L18.7619 24.3593ZM6.01643 5.9013L5.52349 5.98501L5.53895 6.07602L5.58588 6.15551L6.01643 5.9013ZM8.81218 4.32293L9.24274 4.06872L9.18771 3.97553L9.09907 3.91343L8.81218 4.32293ZM6.50501 15.6306V16.1306H29V15.6306V15.1306H6.50501V15.6306ZM29 15.6306H29.5V13.445H29H28.5V15.6306H29ZM6.50501 13.445H6.00501V19.7525H6.50501H7.00501V13.445H6.50501ZM29 19.7525H29.5V15.6306H29H28.5V19.7525H29ZM21.9231 18.7327V19.2327L26.3462 19.2327V18.7327V18.2327L21.9231 18.2327V18.7327ZM11.4799 22.6103L10.9965 22.7381C11.3387 24.0318 12.2329 25.2278 13.3919 26.0965C14.5535 26.9672 16.0168 27.5364 17.5366 27.5354L17.5362 27.0354L17.5359 26.5354C16.2632 26.5363 15.0062 26.0568 13.9916 25.2964C12.9745 24.534 12.2367 23.5164 11.9632 22.4824L11.4799 22.6103ZM17.5362 27.0354L17.5366 27.5354C19.8781 27.5337 22.2333 26.1827 23.7595 22.8168L23.3042 22.6103L22.8488 22.4038C21.4558 25.4759 19.4201 26.534 17.5359 26.5354L17.5362 27.0354ZM11.4799 22.6103L11.5421 23.1064C12.6193 22.9712 14.6541 23.2542 15.9907 24.9411L16.3826 24.6306L16.7745 24.3201C15.1561 22.2774 12.7238 21.9503 11.4176 22.1142L11.4799 22.6103ZM16.3826 24.6306L15.9907 24.9411C16.4336 25.5 16.8101 26.2241 17.0521 27.1605L17.5362 27.0354L18.0203 26.9103C17.7459 25.8482 17.3099 24.9958 16.7745 24.3201L16.3826 24.6306ZM16.3826 24.6306L16.8723 24.5295C16.7292 23.8365 16.7503 21.8833 18.1464 20.0982L17.7525 19.7902L17.3586 19.4822C15.7554 21.5323 15.6996 23.7958 15.893 24.7318L16.3826 24.6306ZM23.3042 22.6103L23.3006 22.1103C22.0393 22.1191 19.8497 22.5447 18.406 24.0081L18.7619 24.3593L19.1178 24.7104C20.3002 23.5119 22.1807 23.1182 23.3077 23.1103L23.3042 22.6103ZM18.7619 24.3593L18.406 24.0081C17.6868 24.7371 17.1641 25.7141 17.0386 26.9863L17.5362 27.0354L18.0338 27.0844C18.1358 26.0503 18.5522 25.2838 19.1178 24.7104L18.7619 24.3593ZM17.7525 19.7902L17.3679 20.1097C17.7668 20.5898 18.59 22.1723 18.2676 24.2838L18.7619 24.3593L19.2562 24.4347C19.626 22.0124 18.6995 20.1476 18.1371 19.4706L17.7525 19.7902ZM10.4705 13.445V12.945H6.50501V13.445V13.945H10.4705V13.445ZM10.4705 13.445L10.901 13.1908L6.44699 5.64709L6.01643 5.9013L5.58588 6.15551L10.0399 13.6992L10.4705 13.445ZM6.01643 5.9013L6.50938 5.81759C6.45319 5.48671 6.66192 5.02709 7.10427 4.73155C7.51735 4.45556 8.03889 4.39168 8.52529 4.73244L8.81218 4.32293L9.09907 3.91343C8.21563 3.2945 7.24047 3.43789 6.54874 3.90005C5.88626 4.34266 5.38204 5.15207 5.52349 5.98501L6.01643 5.9013ZM29 13.445V12.945H14.1981V13.445V13.945H29V13.445ZM14.1981 13.445V12.945H10.4705V13.445V13.945H14.1981V13.445ZM8.81218 4.32293L8.38163 4.57714L13.7676 13.6992L14.1981 13.445L14.6287 13.1908L9.24274 4.06872L8.81218 4.32293ZM17.7525 31V31.5C24.2405 31.5 29.5 26.2405 29.5 19.7525H29H28.5C28.5 25.6882 23.6882 30.5 17.7525 30.5V31ZM6.50501 19.7525H6.00501C6.00501 26.2405 11.2645 31.5 17.7525 31.5V31V30.5C11.8168 30.5 7.00501 25.6882 7.00501 19.7525H6.50501Z" fill="white"/>
</svg>
