<svg width="35" height="35" viewBox="0 0 35 35" fill="none" xmlns="http://www.w3.org/2000/svg">
<rect width="35" height="35" rx="17.5" fill="#5B5B5C"/>
<path d="M6.53274 7.07129C4.30471 7.09291 2.34299 10.152 5.48649 10.8782C10.9624 12.1438 15.2339 15.4186 18.5614 20.5338C18.9939 21.3934 19.3208 22.2477 19.1573 23.1073C18.9253 23.9458 18.8779 24.7948 18.9886 25.5278C19.2048 26.8462 19.8587 28.2805 20.982 29.504C22.0999 30.7274 23.4552 31.4973 24.7472 31.8243C26.0392 32.146 27.3312 32.051 28.196 31.26C29.0661 30.4637 29.1769 29.2456 28.8763 28.0063C28.5757 26.767 27.8216 25.4329 26.7142 24.2253C25.6068 23.0124 24.3464 22.1422 23.1388 21.7309C22.7064 21.5833 22.2687 21.4883 21.8521 21.4672C21.1349 21.1772 20.6075 20.5655 20.1329 19.8588C17.2009 14.1583 12.845 10.4321 7.76672 7.40615C7.36488 7.20629 6.91559 7.07129 6.53274 7.07129ZM19.9905 23.7085C21.2878 26.9674 23.856 29.5514 26.7195 30.9594C26.2765 31.0385 25.7228 31.0174 25.1216 30.8698C24.0142 30.5903 22.7749 29.9047 21.7571 28.7973C20.7394 27.6846 20.1382 26.3504 19.9536 25.2167C19.9009 24.7051 19.8851 24.1567 19.9905 23.7085Z" fill="white"/>
<path d="M27.2514 19.0637C26.3896 19.743 25.1797 19.5783 24.3164 18.9196C22.5732 17.5895 24.0668 15.0735 25.3731 13.3124C25.583 13.0294 26.0051 13.0245 26.2223 13.3019C27.5767 15.0324 28.9773 17.7033 27.2514 19.0637Z" stroke="white"/>
<path d="M26.146 9.32452C25.9088 9.40973 25.6239 9.38208 25.3903 9.27897C24.7887 9.01341 25.2292 8.24869 25.6916 7.78114C25.7427 7.72952 25.8263 7.7278 25.8787 7.77804C26.3566 8.23592 26.7689 9.1008 26.146 9.32452Z" fill="white" stroke="white"/>
</svg>
