<svg width="35" height="35" viewBox="0 0 35 35" fill="none" xmlns="http://www.w3.org/2000/svg">
<rect width="35" height="35" rx="17.5" fill="#5B5B5C"/>
<path d="M27.1665 26.8555C27.1665 27.1317 27.3904 27.3555 27.6665 27.3555C27.9426 27.3555 28.1665 27.1317 28.1665 26.8555H27.6665H27.1665ZM28.1665 28.1928C28.1665 27.9167 27.9426 27.6928 27.6665 27.6928C27.3904 27.6928 27.1665 27.9167 27.1665 28.1928H27.6665H28.1665ZM17.5179 12.4759L17.5229 12.9759L17.5179 12.4759ZM18.0179 10.3217C18.0179 10.0456 17.7941 9.82174 17.5179 9.82174C17.2418 9.82174 17.0179 10.0456 17.0179 10.3217H17.5179H18.0179ZM22.1808 5.82358L22.6804 5.80283L22.68 5.79445L22.6794 5.78608L22.1808 5.82358ZM17.5179 5.82358L17.0302 5.71354L17.0179 5.76787V5.82358H17.5179ZM17.0179 8.86288C17.0179 9.13902 17.2418 9.36288 17.5179 9.36288C17.7941 9.36288 18.0179 9.13902 18.0179 8.86288H17.5179H17.0179ZM16.1465 10.5512C15.8704 10.5512 15.6465 10.775 15.6465 11.0512C15.6465 11.3273 15.8704 11.5512 16.1465 11.5512V11.0512V10.5512ZM23.9636 11.5512C24.2398 11.5512 24.4636 11.3273 24.4636 11.0512C24.4636 10.775 24.2398 10.5512 23.9636 10.5512V11.0512V11.5512ZM21.7694 24.9104L22.2684 24.9411L22.2986 24.45L21.8081 24.4119L21.7694 24.9104ZM3.6665 24.1809L3.68057 23.6811L3.09686 23.6647L3.17049 24.244L3.6665 24.1809ZM7.26356 24.9104L7.0881 25.3786L7.26356 24.9104ZM8.05508 22.1142L8.28337 21.6694L7.79908 21.4208L7.59248 21.9245L8.05508 22.1142ZM17.3808 22.1142L17.7945 21.8334L17.5423 21.462L17.146 21.6728L17.3808 22.1142ZM15.0203 23.6947L15.3406 24.0787L15.0203 23.6947ZM12.7179 21.3848H13.2179V20.9668H12.7179H12.2179V21.3848H12.7179ZM27.6665 20.8296H27.1665V26.8555H27.6665H28.1665V20.8296H27.6665ZM27.6665 28.1928H27.1665V28.9616H27.6665H28.1665V28.1928H27.6665ZM24.6665 31.9616V31.4616H12.7179V31.9616V32.4616H24.6665V31.9616ZM15.4608 18.2239H15.9608V16.1572H15.4608H14.9608V18.2239H15.4608ZM15.4608 16.1572V16.6572H25.0608V16.1572V15.6572H15.4608V16.1572ZM15.4608 18.2239V18.7239H25.0608V18.2239V17.7239H15.4608V18.2239ZM25.0608 16.1572H24.5608V18.2239H25.0608H25.5608V16.1572H25.0608ZM15.4608 16.1572V15.6572H15.008V16.1572V16.6572H15.4608V16.1572ZM25.3599 16.1572V15.6572H25.0608V16.1572V16.6572H25.3599V16.1572ZM16.8178 12.4829L16.8227 12.9828L17.5229 12.9759L17.5179 12.4759L17.513 11.9759L16.8128 11.9829L16.8178 12.4829ZM17.5179 12.4759H18.0179V10.3217H17.5179H17.0179V12.4759H17.5179ZM17.5179 12.4759L17.5229 12.9759L22.4601 12.9267L22.4551 12.4267L22.4501 11.9267L17.513 11.9759L17.5179 12.4759ZM22.4551 12.4267L22.4601 12.9267L23.4666 12.9167L23.4616 12.4167L23.4567 11.9167L22.4501 11.9267L22.4551 12.4267ZM22.4551 12.4267L22.9546 12.406L22.6804 5.80283L22.1808 5.82358L21.6812 5.84433L21.9555 12.4475L22.4551 12.4267ZM17.5179 5.82358H17.0179V8.86288H17.5179H18.0179V5.82358H17.5179ZM16.1465 11.0512V11.5512H23.9636V11.0512V10.5512H16.1465V11.0512ZM12.7179 31.9616L12.739 32.4611C14.2384 32.3978 16.5027 31.958 18.4509 30.8289C20.4141 29.6912 22.0908 27.8273 22.2684 24.9411L21.7694 24.9104L21.2703 24.8797C21.1188 27.3426 19.7098 28.9435 17.9495 29.9637C16.1743 30.9925 14.0775 31.4037 12.6968 31.462L12.7179 31.9616ZM12.7179 31.9616L12.6647 31.4644C11.4278 31.5967 9.49946 31.3904 7.78851 30.3409C6.10092 29.3057 4.583 27.426 4.16251 24.1179L3.6665 24.1809L3.17049 24.244C3.62772 27.8411 5.3098 29.9936 7.26564 31.1933C9.19812 32.3787 11.3567 32.61 12.7711 32.4587L12.7179 31.9616ZM3.6665 24.1809L3.65244 24.6807C4.57103 24.7066 5.82341 24.9047 7.0881 25.3786L7.26356 24.9104L7.43901 24.4422C6.06532 23.9274 4.70333 23.7099 3.68057 23.6811L3.6665 24.1809ZM7.26356 24.9104L7.0881 25.3786C9.57031 26.3088 12.015 28.2573 12.2187 31.9888L12.7179 31.9616L13.2172 31.9343C12.9845 27.6706 10.1465 25.4568 7.43901 24.4422L7.26356 24.9104ZM7.26356 24.9104L7.7555 24.9998C7.87943 24.3176 7.93548 23.9816 8.02727 23.6432C8.11729 23.3114 8.24367 22.9719 8.51767 22.304L8.05508 22.1142L7.59248 21.9245C7.31791 22.5938 7.17 22.9838 7.06215 23.3814C6.95606 23.7725 6.89063 24.1658 6.77161 24.821L7.26356 24.9104ZM12.7935 26.2477L12.3803 26.5291C12.8884 27.2752 13.2413 28.052 13.3539 28.8258L13.8487 28.7538L14.3435 28.6818C14.2024 27.7126 13.7703 26.7936 13.2068 25.9662L12.7935 26.2477ZM21.7694 24.9104L21.8081 24.4119C20.795 24.3331 19.3979 24.4427 17.9768 24.923L18.1369 25.3967L18.297 25.8703C19.5826 25.4359 20.8438 25.3399 21.7306 25.4089L21.7694 24.9104ZM18.1369 25.3967L17.9768 24.923C15.4783 25.7673 12.8868 27.7708 12.2243 31.882L12.7179 31.9616L13.2116 32.0411C13.8039 28.3654 16.0778 26.6203 18.297 25.8703L18.1369 25.3967ZM17.3808 22.1142L16.9671 22.3951C17.1488 22.6627 17.4111 23.1472 17.5806 23.6938C17.7526 24.2486 17.8078 24.7988 17.6621 25.2399L18.1369 25.3967L18.6117 25.5535C18.8515 24.8274 18.735 24.0403 18.5357 23.3977C18.3339 22.7467 18.0254 22.1736 17.7945 21.8334L17.3808 22.1142ZM8.05508 22.1142L7.82678 22.5591C8.46949 22.8889 9.40718 23.4986 10.3345 24.2971L10.6608 23.9183L10.987 23.5394C10.0057 22.6943 9.00292 22.0387 8.28337 21.6694L8.05508 22.1142ZM10.6608 23.9183L10.3345 24.2971C11.088 24.9459 11.8206 25.7074 12.3803 26.5291L12.7935 26.2477L13.2068 25.9662C12.5843 25.0523 11.7857 24.2271 10.987 23.5394L10.6608 23.9183ZM10.6608 23.9183L11.0934 23.6675C11.1487 23.7629 11.1163 23.8136 11.133 23.7438C11.1471 23.6848 11.1916 23.5677 11.3117 23.3897C11.5522 23.0335 12.0517 22.4986 13.015 21.787L12.7179 21.3848L12.4208 20.9826C11.4094 21.7298 10.8116 22.3433 10.483 22.8301C10.3186 23.0735 10.2105 23.3014 10.1603 23.5116C10.1127 23.7111 10.1043 23.9553 10.2282 24.169L10.6608 23.9183ZM12.7935 26.2477L13.2405 26.4719C13.4582 26.0378 14.1312 25.0871 15.3406 24.0787L15.0203 23.6947L14.7001 23.3107C13.4095 24.3869 12.6387 25.4412 12.3466 26.0235L12.7935 26.2477ZM15.0203 23.6947L15.3406 24.0787C15.9596 23.5625 16.7152 23.0346 17.6156 22.5557L17.3808 22.1142L17.146 21.6728C16.1814 22.1859 15.3689 22.753 14.7001 23.3107L15.0203 23.6947ZM12.7179 21.3848L12.5465 21.8545C12.8311 21.9583 13.2936 22.192 13.706 22.5392C14.1207 22.8885 14.4378 23.3122 14.5293 23.7889L15.0203 23.6947L15.5114 23.6004C15.3602 22.8128 14.8593 22.2031 14.3501 21.7743C13.8385 21.3435 13.2711 21.0544 12.8893 20.9151L12.7179 21.3848ZM22.1808 5.82358C22.6794 5.78608 22.6794 5.7858 22.6793 5.78552C22.6793 5.78541 22.6793 5.78511 22.6793 5.7849C22.6793 5.78448 22.6792 5.78403 22.6792 5.78355C22.6791 5.78259 22.679 5.78152 22.6789 5.78033C22.6787 5.77795 22.6785 5.77512 22.6782 5.77185C22.6776 5.76531 22.6767 5.75701 22.6756 5.74705C22.6734 5.72715 22.67 5.70058 22.6649 5.66826C22.6549 5.60378 22.6382 5.51556 22.6107 5.41137C22.5563 5.20465 22.4572 4.92533 22.2764 4.64248C21.8988 4.05187 21.1961 3.49999 19.9865 3.5L19.9865 4L19.9865 4.5C20.8341 4.49999 21.2285 4.8599 21.4338 5.18108C21.5444 5.35413 21.6081 5.53071 21.6437 5.66591C21.6613 5.73269 21.6713 5.78694 21.6768 5.82218C21.6796 5.83973 21.6811 5.85233 21.6819 5.85915C21.6823 5.86255 21.6825 5.86448 21.6825 5.86485C21.6825 5.86503 21.6825 5.86481 21.6824 5.86419C21.6824 5.86388 21.6824 5.86346 21.6823 5.86294C21.6823 5.86269 21.6823 5.8624 21.6823 5.86209C21.6823 5.86193 21.6822 5.86168 21.6822 5.8616C21.6822 5.86134 21.6822 5.86108 22.1808 5.82358ZM19.9865 4L19.9865 3.5C18.7838 3.50001 18.0293 4.04361 17.5884 4.60193C17.3732 4.87437 17.2361 5.14501 17.1523 5.34754C17.1102 5.44937 17.0809 5.53569 17.0615 5.59883C17.0519 5.63046 17.0446 5.65644 17.0395 5.67582C17.037 5.68552 17.0349 5.69359 17.0334 5.69991C17.0326 5.70307 17.032 5.7058 17.0315 5.70807C17.0312 5.70921 17.0309 5.71023 17.0307 5.71115C17.0306 5.7116 17.0305 5.71203 17.0304 5.71243C17.0304 5.71263 17.0303 5.7129 17.0303 5.713C17.0303 5.71327 17.0302 5.71354 17.5179 5.82358C18.0057 5.93362 18.0056 5.93387 18.0056 5.93411C18.0055 5.93419 18.0055 5.93442 18.0055 5.93457C18.0054 5.93485 18.0053 5.93511 18.0053 5.93535C18.0052 5.93582 18.0051 5.93618 18.005 5.93644C18.0049 5.93697 18.0049 5.93708 18.0049 5.93679C18.0051 5.9362 18.0056 5.93403 18.0066 5.93038C18.0085 5.92305 18.0121 5.90985 18.0177 5.89161C18.0289 5.85503 18.0478 5.79889 18.0764 5.72976C18.1341 5.59037 18.2283 5.40512 18.3732 5.22167C18.6523 4.8682 19.1321 4.50001 19.9865 4.5L19.9865 4ZM26.2951 15.222H25.7951C25.7951 15.4624 25.6002 15.6572 25.3599 15.6572V16.1572V16.6572C26.1525 16.6572 26.7951 16.0147 26.7951 15.222H26.2951ZM27.6665 28.9616H27.1665C27.1665 30.3423 26.0472 31.4616 24.6665 31.4616V31.9616V32.4616C26.5995 32.4616 28.1665 30.8946 28.1665 28.9616H27.6665ZM12.7179 20.9668H13.2179C13.2179 19.7281 14.2221 18.7239 15.4608 18.7239V18.2239V17.7239C13.6698 17.7239 12.2179 19.1758 12.2179 20.9668H12.7179ZM14.0894 15.2386H14.5894C14.5894 14.0015 15.5857 12.9952 16.8227 12.9828L16.8178 12.4829L16.8128 11.9829C15.0274 12.0007 13.5894 13.4531 13.5894 15.2386H14.0894ZM26.2951 15.222H26.7951C26.7951 13.3836 25.295 11.8984 23.4567 11.9167L23.4616 12.4167L23.4666 12.9167C24.7488 12.9039 25.7951 13.9398 25.7951 15.222H26.2951ZM27.6665 20.8296H28.1665C28.1665 19.1144 26.776 17.7239 25.0608 17.7239V18.2239V18.7239C26.2237 18.7239 27.1665 19.6667 27.1665 20.8296H27.6665ZM15.008 16.1572V15.6572C14.7768 15.6572 14.5894 15.4698 14.5894 15.2386H14.0894H13.5894C13.5894 16.0221 14.2245 16.6572 15.008 16.6572V16.1572Z" fill="white"/>
</svg>
