<svg width="449" height="449" viewBox="0 0 449 449" fill="none" xmlns="http://www.w3.org/2000/svg">
<path d="M224.175 109.175C209.073 109.136 194.111 112.071 180.144 117.814C166.176 123.557 153.476 131.995 142.77 142.646C121.147 164.156 108.955 193.375 108.875 223.875C108.795 254.375 120.835 283.657 142.346 305.28C163.856 326.903 193.075 339.095 223.575 339.175C254.075 339.255 283.357 327.215 304.98 305.704C326.603 284.194 338.795 254.975 338.875 224.475C338.955 193.975 326.915 164.693 305.404 143.07C283.894 121.447 254.675 109.255 224.175 109.175ZM223.575 149.575C233.372 149.536 243.08 151.426 252.146 155.139C261.212 158.851 269.458 164.313 276.413 171.213C283.368 178.112 288.896 186.314 292.682 195.35C296.467 204.385 298.436 214.078 298.475 223.875C298.514 233.672 296.624 243.38 292.911 252.446C289.199 261.512 283.737 269.758 276.837 276.713C269.938 283.668 261.736 289.196 252.7 292.982C243.665 296.767 233.972 298.736 224.175 298.775C214.378 298.814 204.67 296.924 195.604 293.211C186.538 289.499 178.292 284.037 171.337 277.137C164.382 270.238 158.854 262.036 155.068 253C151.283 243.965 149.314 234.272 149.275 224.475C149.236 214.678 151.126 204.97 154.839 195.904C158.551 186.838 164.013 178.592 170.913 171.637C177.812 164.682 186.014 159.154 195.05 155.368C204.085 151.583 213.778 149.614 223.575 149.575ZM316.975 104.475C316.975 97.3672 319.799 90.5505 324.825 85.5245C329.85 80.4986 336.667 77.675 343.775 77.675C350.883 77.675 357.699 80.4986 362.725 85.5245C367.751 90.5505 370.575 97.3672 370.575 104.475C370.575 111.583 367.751 118.399 362.725 123.425C357.699 128.451 350.883 131.275 343.775 131.275C336.667 131.275 329.85 128.451 324.825 123.425C319.799 118.399 316.975 111.583 316.975 104.475ZM446.675 131.675C444.975 95.775 436.775 63.975 410.475 37.775C384.275 11.575 352.475 3.375 316.575 1.575C279.575 -0.525 168.675 -0.525 131.675 1.575C95.875 3.275 64.075 11.475 37.775 37.675C11.475 63.875 3.375 95.675 1.575 131.575C-0.525 168.575 -0.525 279.475 1.575 316.475C3.275 352.375 11.475 384.175 37.775 410.375C64.075 436.575 95.775 444.775 131.675 446.575C168.675 448.675 279.575 448.675 316.575 446.575C352.475 444.875 384.275 436.675 410.475 410.375C436.675 384.175 444.875 352.375 446.675 316.475C448.775 279.475 448.775 168.675 446.675 131.675ZM398.875 356.175C391.075 375.775 375.975 390.875 356.275 398.775C326.775 410.475 256.775 407.775 224.175 407.775C191.575 407.775 121.475 410.375 92.075 398.775C72.475 390.975 57.375 375.875 49.475 356.175C37.775 326.675 40.475 256.675 40.475 224.075C40.475 191.475 37.875 121.375 49.475 91.975C57.275 72.375 72.375 57.275 92.075 49.375C121.575 37.675 191.575 40.375 224.175 40.375C256.775 40.375 326.875 37.775 356.275 49.375C375.875 57.175 390.975 72.275 398.875 91.975C410.575 121.475 407.875 191.475 407.875 224.075C407.875 256.675 410.575 326.775 398.875 356.175Z" fill="black"/>
</svg>
