<svg width="384" height="512" viewBox="0 0 384 512" fill="none" xmlns="http://www.w3.org/2000/svg">
<path d="M-9.76548e-05 188.6C-9.76548e-05 84.4 85.9999 0 192 0C298 0 384 84.4 384 188.6C384 307.9 263.8 450.9 213.6 505.4C201.8 518.2 182.1 518.2 170.3 505.4C120.1 450.9 -0.100098 307.9 -0.100098 188.6H-9.76548e-05ZM192 256C208.974 256 225.252 249.257 237.255 237.255C249.257 225.253 256 208.974 256 192C256 175.026 249.257 158.747 237.255 146.745C225.252 134.743 208.974 128 192 128C175.026 128 158.747 134.743 146.745 146.745C134.743 158.747 128 175.026 128 192C128 208.974 134.743 225.253 146.745 237.255C158.747 249.257 175.026 256 192 256Z" fill="white"/>
</svg>
