<svg width="512" height="512" viewBox="0 0 512 512" fill="none" xmlns="http://www.w3.org/2000/svg">
<path d="M160.123 25C152.223 6.09996 131.623 -3.90004 112.023 1.39996L106.523 2.89996C41.923 20.5 -13.277 83.1 2.82297 159.3C39.923 334.3 177.623 472 352.623 509.1C428.923 525.3 491.423 470 509.023 405.4L510.523 399.9C515.923 380.2 505.823 359.6 487.023 351.8L389.723 311.3C373.223 304.4 354.123 309.2 342.723 323.1L304.123 370.3C233.823 335.4 177.223 277 144.723 205.3L188.923 169.3C202.823 158 207.523 138.9 200.723 122.3L160.123 25Z" fill="white"/>
</svg>
